<?xml version="1.0" encoding="UTF-8"?>
<svg version="1.1" xmlns="http://www.w3.org/2000/svg" width="512" height="512">
<path d="M0 0 C1.15145508 0.26490234 1.15145508 0.26490234 2.32617188 0.53515625 C34.17262936 8.20557866 62.95106071 26.21410218 87 48 C87.64275879 48.58104492 88.28551758 49.16208984 88.94775391 49.76074219 C96.02732486 56.19171089 102.9012699 62.61732672 109 70 C109.88292007 71.01259896 110.76860683 72.02278874 111.65625 73.03125 C153.00022793 120.18444751 186.48038845 180.35438517 199 242 C199.16226074 242.72944824 199.32452148 243.45889648 199.49169922 244.21044922 C202.1962004 256.56072551 202.31107695 268.97606636 202.375 281.5625 C202.38294586 282.38063171 202.39089172 283.19876343 202.39907837 284.04168701 C202.51381738 299.43677001 200.85439647 314.60664514 196.8125 329.5 C196.6052832 330.26932861 196.39806641 331.03865723 196.18457031 331.83129883 C185.73721575 368.77551282 161.85065534 398.80421603 128.46484375 417.61328125 C113.17711332 425.94501024 97.0458834 431.71205881 80.125 435.6875 C78.85221191 435.99143677 78.85221191 435.99143677 77.55371094 436.30151367 C62.61628265 439.65278806 47.68954441 440.38054644 32.4375 440.3125 C31.56193451 440.31034485 30.68636902 440.3081897 29.78427124 440.30596924 C15.66435596 440.25041884 1.9139274 439.56640252 -12 437 C-13.67715088 436.69400879 -13.67715088 436.69400879 -15.38818359 436.38183594 C-68.98288297 426.37244122 -121.35601217 407.33230046 -171 385 C-171.88333008 384.60651367 -172.76666016 384.21302734 -173.67675781 383.80761719 C-199.62142108 372.18835155 -223.62223338 357.35266574 -244.62890625 338.1484375 C-246.73763367 336.23772896 -248.88780105 334.39699852 -251.0625 332.5625 C-275.98693748 310.67884389 -293.29615043 277.71428643 -298 245 C-298.24239642 240.1906347 -298.24570884 235.3774004 -298.25 230.5625 C-298.25067474 229.88637665 -298.25134949 229.2102533 -298.25204468 228.51364136 C-298.23638345 218.65804817 -297.8597665 209.50180484 -295 200 C-294.6596875 198.7934375 -294.319375 197.586875 -293.96875 196.34375 C-284.24916787 164.55808951 -262.56022099 140.07386716 -236 121 C-224.55674935 112.76201981 -213.83620187 104.00638602 -203.51611328 94.40283203 C-202.01860584 93.01721565 -200.50983946 91.64518626 -198.99609375 90.27734375 C-196.49577166 88.01696799 -194.0148132 85.73720228 -191.54833984 83.43994141 C-190.47683166 82.44344893 -189.40136227 81.45120518 -188.32275391 80.46240234 C-186.63637775 78.90800764 -184.97272624 77.33224743 -183.3125 75.75 C-182.79494141 75.27892822 -182.27738281 74.80785645 -181.74414062 74.32250977 C-178.09410287 70.78051609 -177.26855863 68.02142174 -177 63 C-176.01644531 62.9896875 -175.03289062 62.979375 -174.01953125 62.96875 C-168.56280279 62.17883404 -165.41846598 58.2634055 -161.6875 54.5 C-160.17104946 53.02424974 -158.6541258 51.54898548 -157.13671875 50.07421875 C-156.41661621 49.36442871 -155.69651367 48.65463867 -154.95458984 47.92333984 C-142.10240481 35.27663566 -127.53265628 24.16146438 -112 15 C-111.05036377 14.43587402 -111.05036377 14.43587402 -110.08154297 13.86035156 C-76.55922946 -5.74843492 -37.43204076 -8.64917851 0 0 Z " fill="#DFEAF3" transform="translate(304,38)"/>
<path d="M0 0 C5.5343518 -0.17714711 10.58386569 0.48153753 16.015625 1.50390625 C16.88651764 1.66228973 17.75741028 1.82067322 18.6546936 1.9838562 C20.53519504 2.32606119 22.41523822 2.67079218 24.29486084 3.01779175 C29.38913302 3.95679731 34.48751314 4.87291262 39.5859375 5.7890625 C40.63093414 5.97707932 41.67593079 6.16509613 42.75259399 6.35881042 C52.77706835 8.15449896 62.82053024 9.8193459 72.875 11.4375 C73.72808746 11.57491608 74.58117493 11.71233215 75.46011353 11.85391235 C79.02993899 12.42864446 82.59984187 13.00288904 86.16993713 13.57594299 C93.85692379 14.81134041 101.54012538 16.06924753 109.22265625 17.33203125 C111.05310486 17.63269753 111.05310486 17.63269753 112.92053223 17.93943787 C117.76263859 18.73489082 122.60472966 19.53042938 127.44647217 20.32809448 C130.80655452 20.88146382 134.16690154 21.43319556 137.52734375 21.984375 C138.5891687 22.1592897 139.65099365 22.33420441 140.74499512 22.51441956 C145.82415999 23.34487591 150.90443853 24.14110518 156.00048828 24.86132812 C156.93244522 24.9941217 157.86440216 25.12691528 158.82460022 25.26373291 C160.56217915 25.50815432 162.30079212 25.74537509 164.04051208 25.97406006 C169.78017921 26.78017921 169.78017921 26.78017921 172 29 C172.20445251 31.04690552 172.20445251 31.04690552 172.14428711 33.59814453 C172.12083473 35.03071091 172.12083473 35.03071091 172.09690857 36.49221802 C172.07395218 37.5286142 172.05099579 38.56501038 172.02734375 39.6328125 C172.01353037 41.82290107 172.00255376 44.01300903 171.99414062 46.203125 C171.97379309 49.6607349 171.93775509 53.11462291 171.8527832 56.57128906 C170.85952825 69.61520905 170.85952825 69.61520905 175.16845703 81.37402344 C179.45235938 84.83946584 183.41950854 86.48432945 188.953125 86.14453125 C190.6443914 85.80501185 192.32724657 85.4213685 194 85 C195.89005865 84.64669623 197.78071309 84.29656852 199.671875 83.94921875 C201.69874467 83.53265453 203.72476185 83.1119253 205.75 82.6875 C207.95285881 82.23827603 210.1559901 81.79038643 212.359375 81.34375 C213.46345703 81.11945313 214.56753906 80.89515625 215.70507812 80.6640625 C220.79719479 79.63779121 225.89478386 78.64637671 231 77.6875 C231.87624023 77.51629639 232.75248047 77.34509277 233.65527344 77.16870117 C240.89134235 75.82711223 248.36008606 74.54094734 255.1875 77.9375 C255.96480469 78.29714844 256.74210937 78.65679687 257.54296875 79.02734375 C264.12284008 84.31007034 266.97912215 91.67018742 269 99.625 C269.36327393 100.96884766 269.36327393 100.96884766 269.73388672 102.33984375 C270.50775313 105.22203519 271.25617995 108.10991926 272 111 C272.5230378 113.00791666 273.04647769 115.01572862 273.5703125 117.0234375 C274.34710325 120.00582847 275.12206948 122.98861994 275.890625 125.97314453 C277.41114585 131.85415906 279.09045008 137.65007693 280.9375 143.4375 C282.7264169 149.43563313 284.23126806 155.50879553 285.7890625 161.5703125 C287.34038444 167.57189134 289.03719114 173.48969889 290.92578125 179.39453125 C292.78971158 185.65055924 294.37143455 191.98339043 295.98242188 198.30859375 C296.22927734 199.2728125 296.47613281 200.23703125 296.73046875 201.23046875 C296.95114014 202.10082764 297.17181152 202.97118652 297.39916992 203.86791992 C297.93597989 206.02849614 297.93597989 206.02849614 299 208 C299.82587481 214.34743779 299.23805312 219.05195655 295.5 224.30859375 C292.05125399 228.19741412 287.97244476 230.63042427 282.80078125 231.2734375 C277.23747198 231.50051135 273.53830538 230.78517436 268.7890625 227.875 C263.6998981 222.54137792 261.93370854 215.0623683 260.0625 208.125 C259.68073608 206.7496106 259.68073608 206.7496106 259.29125977 205.34643555 C258.77042485 203.46711257 258.25306935 201.58682172 257.73925781 199.70556641 C257.06065569 197.22199021 256.37280665 194.74127624 255.6796875 192.26171875 C254.04736066 186.41917142 252.4318947 180.57203083 250.82421875 174.72265625 C248.73159549 167.12832061 246.5838083 159.55441193 244.35742188 151.99804688 C237.0077934 127.04676039 237.0077934 127.04676039 235 115 C228.4 116.32 221.8 117.64 215 119 C215 123.1892762 217.1125676 126.01225417 219.125 129.5625 C229.46025541 148.3851739 234.41959573 169.46353856 234.25 190.875 C234.24323242 192.1122583 234.23646484 193.3495166 234.22949219 194.62426758 C234.13504565 202.94599585 233.73723117 210.84300076 232 219 C231.88172852 219.63309082 231.76345703 220.26618164 231.64160156 220.91845703 C229.42921555 232.76007019 225.29812582 243.21260663 220 254 C219.2575 255.54494141 219.2575 255.54494141 218.5 257.12109375 C206.92079523 279.78607126 187.14518783 296.52002336 163.43359375 305.32421875 C153.94033022 308.33919855 144.67675699 310.30569197 134.70507812 310.2746582 C133.40026489 310.2823246 133.40026489 310.2823246 132.0690918 310.29014587 C129.22307239 310.30392463 126.3772986 310.30309291 123.53125 310.30078125 C121.52600009 310.30467672 119.52075099 310.30901311 117.51550293 310.31376648 C113.31955286 310.3212052 109.12368693 310.32095605 104.92773438 310.31567383 C99.60041164 310.30990526 94.27343954 310.32675841 88.94617462 310.3500185 C84.80381316 310.36489436 80.66153324 310.36560852 76.51914978 310.36250877 C74.55793061 310.36301582 72.5967061 310.36813494 70.63551331 310.37832069 C42.84667194 310.50487199 18.2555909 305.22823201 -3 286 C-3.85464844 285.22785156 -4.70929688 284.45570313 -5.58984375 283.66015625 C-28.5448846 261.83695101 -40.23486646 229.23281053 -41.203125 198.01171875 C-41.7100456 163.50883032 -31.91644329 130.36718185 -9 104 C-8.29101562 103.16984375 -7.58203125 102.3396875 -6.8515625 101.484375 C5.3981673 87.47240337 5.3981673 87.47240337 12.47973633 83.66772461 C16.57309154 81.32546676 19.40751447 79.57158966 21.11157227 75.05151367 C21.70156684 71.28857532 21.84276727 67.74698487 21.8125 63.9375 C21.81996246 62.91810333 21.81996246 62.91810333 21.82757568 61.87811279 C21.76121628 43.83932727 11.88721074 18.88721074 -1 6 C-0.625 2.875 -0.625 2.875 0 0 Z " fill="#343471" transform="translate(127,101)"/>
<path d="M0 0 C1.40911951 -0.01414887 2.81820865 -0.03165168 4.22724915 -0.05221558 C8.02331017 -0.09689382 11.81769158 -0.09140034 15.61391401 -0.07357264 C18.79705889 -0.0632873 21.97989701 -0.07799054 25.16301024 -0.09251678 C32.68007735 -0.1264172 40.19633161 -0.11948526 47.71337891 -0.0859375 C55.4366524 -0.05211228 63.15766357 -0.08375453 70.88068998 -0.14838326 C77.54110111 -0.20198248 84.20081249 -0.21627208 90.86141741 -0.1993531 C94.82655297 -0.18955226 98.79032929 -0.19360105 102.75529099 -0.23492813 C131.26445604 -0.50221395 131.26445604 -0.50221395 138.90844727 5.89648438 C141.51792908 8.53451538 141.51792908 8.53451538 143.64697266 11.06689453 C145.10538989 12.4106399 146.57542915 13.74207678 148.06494141 15.05126953 C149.33243601 16.29538521 150.58909854 17.55063638 151.83447266 18.81689453 C152.50808838 19.49953369 153.1817041 20.18217285 153.87573242 20.88549805 C175.80217466 43.56884012 189.38785155 75.23267897 188.8515625 106.87084961 C188.7977139 108.9366218 188.72457244 111.00187814 188.64697266 113.06689453 C179.50663787 111.1133575 179.50663787 111.1133575 175.14697266 109.62939453 C137.08671244 97.93224748 101.63622099 106.31390284 65.63525391 119.94238281 C55.44591472 123.7767044 45.38956213 126.87011931 34.63671875 128.7109375 C32.61589658 129.07245391 30.61246216 129.49008033 28.60400391 129.91455078 C-4.0980369 136.40741395 -43.22566888 133.16747273 -72.35302734 116.06689453 C-72.55943274 105.20767725 -72.6084263 94.74763441 -70.35302734 84.06689453 C-70.10810547 82.83970703 -69.86318359 81.61251953 -69.61083984 80.34814453 C-64.26205117 55.4532034 -50.59850555 34.35130364 -32.97802734 16.37939453 C-32.39005371 15.77353516 -31.80208008 15.16767578 -31.19628906 14.54345703 C-29.30046592 12.65122544 -27.34575214 10.85703429 -25.35302734 9.06689453 C-24.59531729 8.38331438 -23.83760723 7.69973423 -23.05693626 6.99543953 C-15.47718238 0.80081507 -9.6172818 -0.09686229 0 0 Z " fill="#FCFCFE" transform="translate(165.35302734375,182.93310546875)"/>
<path d="M0 0 C-0.24541074 2.47054936 -0.49202313 4.94096097 -0.74121094 7.41113281 C-0.93126814 9.31242202 -1.11263074 11.21458554 -1.2890625 13.1171875 C-4.45329897 39.09336131 -18.40749339 64.67626384 -38.12109375 81.75390625 C-53.8785468 94.0477129 -72.30449636 101.09339543 -92.28393555 101.19287109 C-93.65861496 101.20513733 -93.65861496 101.20513733 -95.06106567 101.21765137 C-98.08627698 101.24240297 -101.11144134 101.25900387 -104.13671875 101.2734375 C-105.17766001 101.27876118 -106.21860126 101.28408485 -107.2910862 101.28956985 C-112.81131883 101.31626947 -118.33152921 101.33564622 -123.85180664 101.35009766 C-128.38586884 101.36337503 -132.91947439 101.39111748 -137.45336914 101.43212891 C-142.95874737 101.48191083 -148.46371525 101.50627484 -153.96930885 101.51332474 C-156.04975686 101.5199671 -158.13019828 101.53500129 -160.21051598 101.55921555 C-187.78747369 101.86164147 -210.1267152 94.26457209 -230.3125 75.0625 C-234.73761495 70.43243235 -238.41877804 65.29722414 -242 60 C-242.53625 59.20851563 -243.0725 58.41703125 -243.625 57.6015625 C-253.56765146 42.01438495 -259.67855106 22.43948031 -260 4 C-258.78828125 4.44730469 -257.5765625 4.89460938 -256.328125 5.35546875 C-225.40946312 16.58927001 -192.79743363 22.36220893 -160 16 C-159.07848145 15.82227051 -158.15696289 15.64454102 -157.20751953 15.46142578 C-138.92711258 11.81694179 -121.79996606 6.01788649 -104.4765625 -0.76953125 C-97.77528805 -3.38084483 -91.11950241 -5.64181402 -84.125 -7.3125 C-83.45919922 -7.47210205 -82.79339844 -7.6317041 -82.10742188 -7.79614258 C-54.1073609 -14.06569135 -26.69044103 -8.77439698 0 0 Z " fill="#B89173" transform="translate(354,303)"/>
<path d="M0 0 C6.22372302 5.6309875 7.86653927 11.76398348 9.9375 19.6875 C10.54650765 21.94150554 11.15589326 24.19540898 11.765625 26.44921875 C12.07306641 27.5995459 12.38050781 28.74987305 12.69726562 29.93505859 C13.86499692 34.26488332 15.08443869 38.57906114 16.30737305 42.89355469 C18.85401424 51.88203251 21.3003362 60.88913362 23.625 69.9375 C25.67188679 77.89799637 27.86909934 85.80180899 30.1875 93.6875 C30.62654663 95.18531006 30.62654663 95.18531006 31.07446289 96.71337891 C32.18276361 100.4884991 33.29199393 104.26320917 34.42089844 108.03222656 C35.14550451 110.45597324 35.85539147 112.88360152 36.5625 115.3125 C36.77398682 116.0031958 36.98547363 116.6938916 37.20336914 117.40551758 C38.90650449 123.330632 39.83925699 129.52149608 37.375 135.3125 C35.06133869 138.03931511 32.98397841 139.1659264 29.44140625 139.7109375 C25.58418696 139.77778705 23.19577313 139.68520279 19.75 137.8125 C15.59655173 133.04825051 14.20876467 127.23798024 12.8125 121.1875 C11.30287682 114.84227109 9.5384914 108.60981768 7.625 102.375 C5.60004664 95.76082128 3.7734835 89.1554501 2.1574707 82.42895508 C0.89154397 77.24654747 -0.61799939 72.16032346 -2.1875 67.0625 C-5.10416891 57.58520776 -7.59658344 48.0146855 -10.01489258 38.39916992 C-10.29357178 37.29935791 -10.57225098 36.1995459 -10.859375 35.06640625 C-11.10397461 34.08873291 -11.34857422 33.11105957 -11.60058594 32.10375977 C-12.35792892 29.43515242 -13.29681014 26.92886772 -14.375 24.375 C-20.45417485 24.1531829 -25.67479393 24.91417771 -31.5625 26.375 C-42.05921081 28.94067002 -42.05921081 28.94067002 -45.375 28.375 C-47.078125 26.7578125 -47.078125 26.7578125 -48.625 24.5 C-52.51065196 19.10469077 -56.87549617 14.26221618 -61.375 9.375 C-58.79820216 6.79820216 -56.99409021 6.6930242 -53.43359375 5.97265625 C-51.60985229 5.59874756 -51.60985229 5.59874756 -49.74926758 5.21728516 C-48.43711283 4.95684683 -47.12485485 4.69692812 -45.8125 4.4375 C-44.48260416 4.17006655 -43.15277024 3.90232495 -41.82299805 3.63427734 C-38.00935431 2.86907625 -34.19243297 2.12107301 -30.375 1.375 C-28.9533252 1.09293701 -28.9533252 1.09293701 -27.50292969 0.80517578 C-6.80267033 -3.27535979 -6.80267033 -3.27535979 0 0 Z " fill="#D2D4E9" transform="translate(380.375,185.625)"/>
<path d="M0 0 C45.21 0 90.42 0 137 0 C137 8.58 137 17.16 137 26 C91.79 26 46.58 26 0 26 C0 17.42 0 8.84 0 0 Z " fill="#F6D000" transform="translate(155,151)"/>
<path d="M0 0 C20.09529883 2.41427618 40.04520963 5.98343798 59.98022461 9.44970703 C68.30022624 10.89120515 76.62231722 12.26706547 84.9765625 13.49609375 C96.04199117 15.12403915 107.05447689 17.03016802 118.07275391 18.94775391 C130.69163006 21.13994523 143.32621099 23.15075126 156 25 C156 28.3 156 31.6 156 35 C110.13 35 64.26 35 17 35 C0 1 0 1 0 0 Z " fill="#58629F" transform="translate(136,109)"/>
<path d="M0 0 C0.83023682 0.2945105 0.83023682 0.2945105 1.67724609 0.5949707 C4.24229756 1.50328185 6.80863665 2.40790242 9.375 3.3125 C10.24511719 3.62123047 11.11523438 3.92996094 12.01171875 4.24804688 C13.31689453 4.70727539 13.31689453 4.70727539 14.6484375 5.17578125 C15.52749756 5.49200439 16.40655762 5.80822754 17.31225586 6.1340332 C19.98897181 7.05238989 19.98897181 7.05238989 22.78344727 7.55932617 C25.45575255 8.1230821 27.60862546 8.67553329 30 10 C31.93001383 13.04210216 32.51387696 16.17965207 33.1875 19.6875 C33.6449741 21.6036536 34.11122597 23.51773139 34.5859375 25.4296875 C34.81506836 26.37682617 35.04419922 27.32396484 35.28027344 28.29980469 C37.02958821 34.86270205 39.97248979 40.94345284 43 47 C43.33370605 47.67401855 43.66741211 48.34803711 44.01123047 49.04248047 C49.06937535 59.08095262 54.96129106 67.16079186 63 75 C63.72832031 75.73734375 64.45664063 76.4746875 65.20703125 77.234375 C74.43462135 86.06820893 86.18503867 91.49906235 98 96 C98 96.33 98 96.66 98 97 C72.01166532 98.39722229 51.14386957 90.08428456 31.69140625 72.96875 C26.35533237 67.89271871 22.1149208 62.08665368 18 56 C17.46375 55.20851563 16.9275 54.41703125 16.375 53.6015625 C6.43234854 38.01438495 0.32144894 18.43948031 0 0 Z " fill="#C5A68E" transform="translate(94,307)"/>
<path d="M0 0 C1.175625 0.144375 2.35125 0.28875 3.5625 0.4375 C4.22378906 0.51871094 4.88507813 0.59992188 5.56640625 0.68359375 C6.77103516 0.84021484 6.77103516 0.84021484 8 1 C9.71316406 0.99226563 9.71316406 0.99226563 11.4609375 0.984375 C15.4163312 2.11947695 15.70194112 2.46657446 17.66015625 5.83203125 C18.48733361 7.47919457 19.28691957 9.14042213 20.0625 10.8125 C20.48515137 11.67093506 20.90780273 12.52937012 21.34326172 13.41381836 C22.18843161 15.13467727 23.02326737 16.86065408 23.84716797 18.59179688 C24.85645895 20.70015059 25.89851266 22.7835521 26.97265625 24.859375 C31 32.66651891 31 32.66651891 31 35 C26.38 35 21.76 35 17 35 C14.57640515 30.17745574 12.155396 25.3536259 9.73681641 20.52856445 C8.91298952 18.88595186 8.08844634 17.24369831 7.26318359 15.60180664 C6.07983708 13.24718858 4.89903891 10.89130815 3.71875 8.53515625 C3.34689575 7.79660904 2.9750415 7.05806183 2.59191895 6.2971344 C0 1.11387171 0 1.11387171 0 0 Z " fill="#7880B2" transform="translate(136,109)"/>
<path d="M0 0 C4.29 0 8.58 0 13 0 C13 8.58 13 17.16 13 26 C8.71 26 4.42 26 0 26 C0 17.42 0 8.84 0 0 Z " fill="#F8D933" transform="translate(155,151)"/>
<path d="M0 0 C4.49620692 4.92441711 8.34829867 10.18247838 12.16796875 15.64453125 C13.95511872 18.19846586 13.95511872 18.19846586 17 20 C13.56950402 20.94562968 10.54903859 21.448849 7 21 C4.75226024 19.12995422 3.40860048 17.14352848 1.8046875 14.703125 C-0.21099443 11.68396505 -2.48514915 9.11140279 -4.9375 6.4375 C-5.70964844 5.59058594 -6.48179687 4.74367187 -7.27734375 3.87109375 C-7.84582031 3.25363281 -8.41429687 2.63617188 -9 2 C-6.32750728 -0.67249272 -3.5165484 -1.7582742 0 0 Z " fill="#BABCD1" transform="translate(328,193)"/>
</svg>
