<?xml version="1.0" encoding="UTF-8"?>
<svg version="1.1" xmlns="http://www.w3.org/2000/svg" width="512" height="512">
<path d="M0 0 C1.05931229 -0.00671722 2.11862457 -0.01343445 3.21003723 -0.02035522 C6.7054211 -0.0393237 10.20061282 -0.0432589 13.69604492 -0.04541016 C16.13213682 -0.05183896 18.56822795 -0.05856738 21.00431824 -0.06558228 C26.10934234 -0.07755224 31.21429879 -0.08126339 36.31933594 -0.08007812 C42.84941918 -0.07987498 49.37906702 -0.10717473 55.90904713 -0.14162254 C60.94062784 -0.16389891 65.9721039 -0.16791542 71.00372887 -0.16685867 C73.41059558 -0.1692136 75.81746522 -0.17803094 78.22428322 -0.19352341 C81.59644373 -0.21319703 84.967667 -0.20733907 88.33984375 -0.1953125 C89.32664124 -0.20655151 90.31343872 -0.21779053 91.33013916 -0.22937012 C101.09495363 -0.1412172 109.28386579 3.55393094 116.36401367 10.29052734 C123.43017573 18.90740823 125.83083486 27.18615575 125.79760742 38.14208984 C125.80284927 39.15975433 125.80809113 40.17741882 125.81349182 41.22592163 C125.81988456 43.36561169 125.81861087 45.50533702 125.81005859 47.64501953 C125.80152052 50.91290696 125.83039473 54.17906093 125.86206055 57.44677734 C125.86367212 59.53271432 125.86309587 61.61865438 125.86010742 63.70458984 C125.8713414 64.67659332 125.88257538 65.6485968 125.89414978 66.65005493 C125.83391031 72.52377522 125.2070257 75.7814532 121.36401367 80.29052734 C118.36526416 83.08936022 115.27181857 84.13594862 111.36401367 85.29052734 C111.78811523 85.70302734 112.2122168 86.11552734 112.64916992 86.54052734 C117.12065468 90.94322003 121.28598376 95.52389951 125.36401367 100.29052734 C126.8351911 102.00681335 128.30663303 103.72287186 129.77832031 105.4387207 C130.83797735 106.67621087 131.89575078 107.9153164 132.95166016 109.15600586 C135.60691593 112.27126665 138.3105808 115.3070575 141.11401367 118.29052734 C148.23158809 126.41743995 153.44230586 136.94883879 156.36401367 147.29052734 C156.87194458 149.0670166 156.87194458 149.0670166 157.39013672 150.87939453 C159.02202087 158.34716041 158.71410057 166.05455702 158.73510742 173.66162109 C158.74409076 175.35116142 158.75321286 177.040701 158.76246643 178.73023987 C158.77888736 182.25955122 158.78664434 185.78876846 158.78955078 189.31811523 C158.79493862 193.81808077 158.83266454 198.31715048 158.87829494 202.81686306 C158.9081751 206.30266991 158.91527665 209.78826336 158.91627693 213.27418709 C158.92045468 214.93224265 158.93278955 216.5903003 158.95379448 218.24822807 C159.06091163 227.43032215 159.07110413 235.58776293 153.36401367 243.29052734 C152.2849889 244.3151525 151.19970059 245.3332265 150.10791016 246.34423828 C145.17277076 251.79594803 146.44176747 260.51204742 146.46166992 267.43115234 C146.44999184 269.12116432 146.4369843 270.81116759 146.42271423 272.50115967 C146.40037868 276.03849854 146.40115954 279.57493909 146.41699219 283.11230469 C146.43434007 287.62001442 146.38366876 292.12401096 146.31395817 296.63110733 C146.26949395 300.12143018 146.26716432 303.61087683 146.27648735 307.1014328 C146.27495906 308.76148563 146.25945961 310.42159248 146.22905159 312.08136749 C146.09462352 320.44713553 146.18533867 326.82828791 151.80712891 333.58251953 C152.60940414 334.38598816 153.41167938 335.18945679 154.23826599 336.01727295 C157.65710752 339.67334964 158.61133118 343.21453848 158.63143921 348.14997864 C158.64423416 349.57704636 158.64423416 349.57704636 158.6572876 351.03294373 C158.65592804 352.58127647 158.65592804 352.58127647 158.65454102 354.16088867 C158.66125824 355.25757874 158.66797546 356.3542688 158.67489624 357.48419189 C158.69390608 361.11369353 158.6978031 364.74301025 158.69995117 368.37255859 C158.70638098 370.90541153 158.71310948 373.43826373 158.72012329 375.97111511 C158.73210636 381.28813698 158.73588923 386.60509038 158.73461914 391.92211914 C158.73342353 398.02902231 158.7544099 404.13556873 158.78610647 410.24238187 C158.81565707 416.15036293 158.82258829 422.0582059 158.82139969 427.96625328 C158.82374396 430.46223078 158.83250048 432.95821154 158.84806442 435.45414162 C159.00018279 462.38853425 154.37368402 483.72200112 135.64135742 504.08740234 C127.42009261 512.04073571 119.97728783 512.51718498 108.92651367 512.60302734 C107.68579102 512.63203125 106.44506836 512.66103516 105.16674805 512.69091797 C103.97500977 512.69929687 102.78327148 512.70767578 101.55541992 512.71630859 C100.46430908 512.73089111 99.37319824 512.74547363 98.24902344 512.76049805 C94.68777498 512.18036745 93.5005932 511.15277426 91.36401367 508.29052734 C91.36401367 507.30052734 91.36401367 506.31052734 91.36401367 505.29052734 C88.25821873 505.31332135 85.15610883 505.39060553 82.05151367 505.47802734 C80.72990234 505.48672852 80.72990234 505.48672852 79.3815918 505.49560547 C76.9422597 505.57908071 74.73400945 505.7024575 72.36401367 506.29052734 C70.22783103 508.62361949 70.22783103 508.62361949 69.36401367 511.29052734 C67.19210829 513.46243273 62.06548812 512.46963309 59.04589844 512.48339844 C58.06695114 512.49157593 57.08800385 512.49975342 56.07939148 512.50817871 C52.82140726 512.5331013 49.563467 512.5495718 46.30541992 512.56396484 C44.63753575 512.57195036 44.63753575 512.57195036 42.93595695 512.5800972 C37.04357466 512.60686653 31.15121377 512.62622385 25.25878906 512.640625 C19.18259519 512.65722524 13.10694873 512.70195376 7.03096104 512.75299644 C2.35277213 512.78673553 -2.32528843 512.79821018 -7.00358772 512.80385208 C-9.24218968 512.81055284 -11.48078355 512.82574407 -13.71926689 512.84974289 C-16.86439614 512.88152059 -20.0080713 512.8814111 -23.15332031 512.87402344 C-24.06957184 512.89042877 -24.98582336 512.90683411 -25.92984009 512.92373657 C-33.87623339 512.84780493 -39.94077599 510.05232646 -46.26489258 505.32568359 C-62.0379211 489.23400803 -69.94630688 469.14898521 -69.92651367 446.72558594 C-69.9332309 445.6153154 -69.93994812 444.50504486 -69.9468689 443.36112976 C-69.96574366 439.72036165 -69.96976699 436.07977871 -69.97192383 432.43896484 C-69.97835623 429.89409308 -69.98508492 427.34922204 -69.99209595 424.80435181 C-70.00404032 419.48364244 -70.00786551 414.16300133 -70.0065918 408.84228516 C-70.00538842 402.70842315 -70.02654522 396.57491186 -70.05807912 390.44113863 C-70.08745193 384.5144463 -70.09456625 378.58786055 -70.09337234 372.66109085 C-70.09572863 370.15012804 -70.10455361 367.63916248 -70.12003708 365.12824631 C-70.13967016 361.61742808 -70.13386987 358.10751299 -70.12182617 354.59667969 C-70.13306519 353.56581741 -70.1443042 352.53495514 -70.15588379 351.47285461 C-70.0933562 344.28634831 -68.90497338 338.6218933 -63.74803162 333.36654663 C-63.15345657 332.87272491 -62.55888153 332.3789032 -61.94628906 331.87011719 C-56.51233544 325.88093061 -57.61027603 317.62408835 -57.67114258 310.01708984 C-57.66387539 308.32611182 -57.65468208 306.63514108 -57.6436615 304.94418335 C-57.6288736 301.40847096 -57.63973737 297.87399673 -57.66845703 294.33837891 C-57.70269629 289.82966843 -57.66942879 285.32442709 -57.61625004 280.8160038 C-57.58327851 277.325696 -57.58837672 273.8362021 -57.60439873 270.34580612 C-57.60719988 268.68497712 -57.59804259 267.02407946 -57.57618904 265.36339188 C-57.39455983 254.26058261 -57.39455983 254.26058261 -62.51269531 244.63183594 C-63.21112045 243.94318451 -63.90954559 243.25453308 -64.62913513 242.54501343 C-69.12883607 237.49007304 -70.01273763 232.27101471 -70.04003906 225.68139648 C-70.04690231 224.95505005 -70.05376556 224.22870361 -70.06083679 223.48034668 C-70.07903074 221.09525587 -70.07527391 218.7108285 -70.06958008 216.32568359 C-70.07414941 214.64765717 -70.07945721 212.96963261 -70.08546448 211.29161072 C-70.09438415 207.77546593 -70.09199025 204.25954832 -70.08203125 200.7434082 C-70.07061498 196.28217179 -70.09064496 191.82173564 -70.11994839 187.36060429 C-70.13849402 183.89168976 -70.13798066 180.42295988 -70.13231087 176.9540081 C-70.1321595 175.31210658 -70.13804805 173.67019101 -70.15060234 172.02833748 C-70.33183784 144.41405713 -59.63034174 125.91411875 -41.23364258 106.10302734 C-38.56898095 103.21798017 -35.97801432 100.28078591 -33.40551758 97.31396484 C-29.86347891 93.26368663 -26.24346539 89.28247696 -22.63598633 85.29052734 C-23.23926758 85.05978516 -23.84254883 84.82904297 -24.46411133 84.59130859 C-30.25114442 82.22982574 -33.75511152 80.05227697 -36.63598633 74.29052734 C-36.74560329 72.83251377 -36.79500557 71.36973265 -36.81298828 69.90771484 C-36.83224113 68.5448938 -36.83224113 68.5448938 -36.85188293 67.15454102 C-36.85926987 66.1681665 -36.8666568 65.18179199 -36.87426758 64.16552734 C-36.88233932 63.14885986 -36.89041107 62.13219238 -36.89872742 61.0847168 C-36.91258016 58.9259614 -36.92329697 56.76718399 -36.93115234 54.60839844 C-36.94827261 51.33143395 -36.99213738 48.05550278 -37.03637695 44.77880859 C-37.04651211 42.67855558 -37.05502563 40.57829399 -37.06176758 38.47802734 C-37.07927567 37.50784668 -37.09678375 36.53766602 -37.11482239 35.53808594 C-37.08338235 25.503249 -33.69406584 16.54383033 -26.63598633 9.29052734 C-17.99389511 2.15446831 -11.05716387 -0.01009387 0 0 Z " fill="#010101" transform="translate(211.635986328125,-0.29052734375)"/>
<path d="M0 0 C23.1 0 46.2 0 70 0 C70 7.59 70 15.18 70 23 C73.27828869 27.81375192 73.27828869 27.81375192 76 29 C81.55142419 29.41897541 82.9712235 29.0172659 88 26 C92.29 17.42 96.58 8.84 101 0 C133.01 0 165.02 0 198 0 C198.0825 10.23 198.165 20.46 198.25 31 C198.28641602 34.19558594 198.32283203 37.39117187 198.36035156 40.68359375 C198.37205387 43.26822237 198.38224202 45.85285848 198.390625 48.4375 C198.41108887 49.73751953 198.43155273 51.03753906 198.45263672 52.37695312 C198.45958051 71.01407661 192.94269877 88.23435507 180 102 C175.73721519 105.69658286 172.875082 107.10071703 167.25390625 107.17578125 C166.33416016 107.19962891 165.41441406 107.22347656 164.46679688 107.24804688 C162.53472824 107.29092399 160.60236711 107.32222451 158.66992188 107.34179688 C153.17832409 107.42850918 153.17832409 107.42850918 148.40234375 109.85546875 C146.84659975 112.03596616 146.84659975 112.03596616 146 115 C139.4 115 132.8 115 126 115 C125.34 113.35 124.68 111.7 124 110 C120.01954854 107.34636569 116.56231533 107.72291441 111.94213867 107.74462891 C111.01499557 107.74100845 110.08785248 107.737388 109.13261414 107.73365784 C107.11755038 107.72675993 105.10246792 107.72425914 103.08739281 107.72560501 C99.897107 107.7265688 96.70715946 107.71364491 93.516922 107.69662476 C84.44579708 107.65031029 75.37470583 107.62574797 66.3034668 107.61914062 C60.75612769 107.61412532 55.20914048 107.58987215 49.66192055 107.55381393 C47.54846624 107.54401448 45.43496353 107.54168476 43.32149315 107.54698563 C40.36262824 107.55405763 37.40481088 107.53677006 34.44604492 107.51416016 C33.13896576 107.52641884 33.13896576 107.52641884 31.80548096 107.53892517 C25.39436518 107.45186226 21.82974886 105.65578888 17.09375 101.2109375 C6.0332173 88.46963758 -0.14774068 73.42711728 -0.11352539 56.42211914 C-0.11340454 55.14389282 -0.11328369 53.8656665 -0.11315918 52.54870605 C-0.10812567 51.21085561 -0.10295922 49.87300566 -0.09765625 48.53515625 C-0.09664917 47.30373901 -0.09564209 46.07232178 -0.09460449 44.80358887 C-0.08939007 40.22321638 -0.07542884 35.64285721 -0.0625 31.0625 C-0.041875 20.811875 -0.02125 10.56125 0 0 Z " fill="#FC682F" transform="translate(157,390)"/>
<path d="M0 0 C28.38 0 56.76 0 86 0 C84.46892325 4.59323025 82.91270959 8.4137978 80.75 12.6875 C80.40485352 13.37134766 80.05970703 14.05519531 79.70410156 14.75976562 C76.99265994 20.10842634 74.22034357 25.42506865 71.44677734 30.74169922 C69.35542813 34.75769153 67.27487091 38.7791985 65.19985962 42.8036499 C63.27769637 46.53106174 61.34764551 50.25418104 59.40917969 53.97314453 C57.08653102 58.43358455 54.78707603 62.90544504 52.49963379 67.3840332 C51.58974584 69.15694515 50.67276068 70.92623419 49.74841309 72.69165039 C48.4405814 75.19258961 47.15927949 77.70559551 45.8828125 80.22265625 C45.48975922 80.9603273 45.09670593 81.69799835 44.69174194 82.45802307 C41.98911071 87.88176317 40.81466388 92.95967054 42 99 C43.86735026 102.22982269 43.86735026 102.22982269 47 104 C50.36687898 104.77326169 50.36687898 104.77326169 54.05078125 104.70703125 C55.03899117 104.72971321 55.03899117 104.72971321 56.04716492 104.75285339 C58.135962 104.79558566 60.2233102 104.80455265 62.3125 104.8125 C63.73506417 104.83565614 65.15759417 104.86102383 66.58007812 104.88867188 C70.05335804 104.95137616 73.52615613 104.98382784 77 105 C75.33918281 110.68348239 72.74508611 115.77750502 70.09130859 121.04443359 C69.59358444 122.04017395 69.09586029 123.03591431 68.58305359 124.06182861 C66.94196819 127.34260947 65.29523871 130.62052251 63.6484375 133.8984375 C62.50751433 136.17655253 61.36694499 138.45484479 60.22671509 140.73330688 C57.53457688 146.11073518 54.83888473 151.48636694 52.14144957 156.86113894 C49.06936731 162.98291144 46.00185405 169.10696925 42.93471408 175.23121905 C36.62820754 187.82335415 30.31599584 200.41262221 24 213 C23.67 213 23.34 213 23 213 C22.87594929 205.45679765 23.23363216 198.07042359 23.9375 190.5625 C24.82475194 180.48507054 25.54928253 170.42264586 25.91210938 160.31201172 C25.97096656 158.76374084 26.04007081 157.21582734 26.11914062 155.66845703 C26.2299615 153.46659648 26.30703346 151.26604666 26.375 149.0625 C26.44847656 147.19271484 26.44847656 147.19271484 26.5234375 145.28515625 C25.85047842 141.06158469 24.26158637 139.65922132 21 137 C18.15464275 135.57732138 15.63781448 135.78028131 12.4609375 135.68359375 C11.15898437 135.64169922 9.85703125 135.59980469 8.515625 135.55664062 C7.13541955 135.51682701 5.75521117 135.47711478 4.375 135.4375 C2.98696585 135.39430593 1.59894472 135.35069135 0.2109375 135.30664062 C-3.19260256 135.20028 -6.59621778 135.09825286 -10 135 C-10.1345453 125.9835962 -9.74695922 117.10869876 -9 108.125 C-7.19451964 96.8405141 -7.19451964 96.8405141 -9.0625 86.0625 C-12.11976176 84.3859371 -14.5906288 84.63471023 -18 85 C-20.94409334 87.24561127 -21.00867528 88.04902993 -21.6953125 91.9296875 C-21.85389548 93.57671884 -21.99603072 95.22538559 -22.125 96.875 C-22.20282715 97.75687988 -22.2806543 98.63875977 -22.36083984 99.54736328 C-25.82249156 123.66577737 -25.82249156 123.66577737 -23 147 C-19.44878676 149.40816309 -16.02827903 149.31078002 -11.828125 149.4140625 C-11.1457074 149.43342865 -10.46328979 149.4527948 -9.76019287 149.4727478 C-7.59025392 149.53231098 -5.42026123 149.57883446 -3.25 149.625 C-1.77471703 149.66320131 -0.29945585 149.7022543 1.17578125 149.7421875 C4.78365418 149.83799235 8.39169083 149.92210916 12 150 C12.25835817 160.69196147 11.44621469 171.17293879 10.5 181.8125 C10.005 187.484375 9.51 193.15625 9 199 C-14.43 199 -37.86 199 -62 199 C-62 171 -62 171 -57.6875 164.3125 C-56.88699219 163.64863281 -56.08648437 162.98476563 -55.26171875 162.30078125 C-47.97268599 154.88585846 -49.52642545 142.83760501 -49.53125 133.19140625 C-49.52413679 131.4570237 -49.51643612 129.72264347 -49.50817871 127.98826599 C-49.49478158 124.36475063 -49.49314391 120.74145301 -49.49902344 117.11791992 C-49.50491973 112.49685114 -49.47430899 107.87683289 -49.43390656 103.25596714 C-49.40793766 99.6774899 -49.40516033 96.09926273 -49.40879822 92.52070427 C-49.40711604 90.81800634 -49.39756128 89.11529571 -49.37965393 87.41269112 C-49.26145084 74.78791938 -50.90827766 65.87153735 -59.765625 56.375 C-62.54865512 53.27491582 -62.11520405 50.49693177 -62.09765625 46.4609375 C-62.09515869 45.28837402 -62.09266113 44.11581055 -62.09008789 42.90771484 C-62.08098389 41.41191895 -62.07187988 39.91612305 -62.0625 38.375 C-62.041875 33.63125 -62.02125 28.8875 -62 24 C-47.15 24 -32.3 24 -17 24 C-17.33 30.27 -17.66 36.54 -18 43 C-18.90957055 52.96442826 -18.90957055 52.96442826 -16 62 C-11.92789115 62.53073253 -11.92789115 62.53073253 -8 62 C-4.57853647 58.60520415 -4.38926225 54.95150527 -4.0859375 50.3671875 C-4.02596588 49.6164798 -3.96599426 48.86577209 -3.90420532 48.09231567 C-3.71536139 45.68731345 -3.54512445 43.28139096 -3.375 40.875 C-3.253778 39.31110649 -3.13139226 37.74730272 -3.0078125 36.18359375 C-2.32697412 27.39311208 -1.77222882 18.59971979 -1.37338257 9.79171753 C-1.20288259 6.34797372 -0.84133188 3.3653275 0 0 Z " fill="#FEEED1" transform="translate(219,176)"/>
<path d="M0 0 C1.98483999 -0.00861242 3.96967049 -0.01974632 5.95448303 -0.03327942 C10.10659781 -0.05102102 14.25696944 -0.03586597 18.40893555 0.00219727 C23.71408287 0.04785853 29.01453931 0.00798553 34.31934261 -0.05715466 C38.41619331 -0.09731132 42.51193703 -0.08996563 46.60888863 -0.06875038 C48.5636109 -0.06461383 50.51842739 -0.07544698 52.47297478 -0.10191917 C67.65933921 -0.27007247 67.65933921 -0.27007247 72.95462036 3.3609314 C75.25097923 5.87455564 77.03934528 8.35305507 78.84765625 11.23046875 C80.22565899 12.9738782 81.61974451 14.7047911 83.03515625 16.41796875 C83.77121094 17.32933594 84.50726563 18.24070312 85.265625 19.1796875 C88.3420346 22.81459809 91.57700289 26.27093135 94.84765625 29.73046875 C112.20886356 48.13460001 124.34459125 64.73941603 123.97265625 90.79296875 C123.93140625 94.89734375 123.89015625 99.00171875 123.84765625 103.23046875 C111.63765625 103.23046875 99.42765625 103.23046875 86.84765625 103.23046875 C88.84765625 97.23046875 88.84765625 97.23046875 89.84765625 95.23046875 C90.26837217 92.17126301 90.33279742 89.28369415 89.84765625 86.23046875 C87.6660648 83.47477428 85.97588131 81.79458128 82.84765625 80.23046875 C81.49302791 80.1286179 80.13362116 80.08676256 78.77520752 80.0765686 C77.92288544 80.06796814 77.07056335 80.05936768 76.19241333 80.05050659 C75.25525482 80.04624664 74.31809631 80.04198669 73.35253906 80.03759766 C72.36702057 80.02942017 71.38150208 80.02124268 70.36611938 80.01281738 C67.09434624 79.98794048 63.82261656 79.97144119 60.55078125 79.95703125 C58.87678379 79.94904573 58.87678379 79.94904573 57.1689682 79.9408989 C51.26174099 79.91415695 45.35453499 79.89478563 39.44726562 79.88037109 C33.34268437 79.86372353 27.23864301 79.81894723 21.1342659 79.76799965 C16.44337335 79.73435743 11.75260938 79.7227969 7.06160736 79.71714401 C4.81132635 79.71042289 2.56105405 79.69517863 0.3108902 79.6712532 C-2.83973778 79.63966573 -5.98890395 79.63955575 -9.13964844 79.64697266 C-10.06871002 79.63056732 -10.99777161 79.61416199 -11.95498657 79.59725952 C-16.325645 79.63935908 -19.24213428 79.83913629 -22.71563721 82.64193726 C-28.88165126 89.19213988 -26.62286185 90.99461359 -28.15234375 103.23046875 C-43.33234375 103.23046875 -58.51234375 103.23046875 -74.15234375 103.23046875 C-74.21421875 99.18796875 -74.27609375 95.14546875 -74.33984375 90.98046875 C-74.36715576 89.73233398 -74.39446777 88.48419922 -74.42260742 87.19824219 C-74.56643452 67.50784874 -66.69570708 52.99658477 -53.15234375 39.23046875 C-51.9532862 37.88652508 -50.76466253 36.53315168 -49.58984375 35.16796875 C-47.02560463 32.21338878 -44.41096818 29.3108619 -41.77734375 26.41796875 C-37.89250189 22.11760051 -34.20668233 17.68822905 -30.5859375 13.1640625 C-29.78285156 12.19597656 -28.97976562 11.22789063 -28.15234375 10.23046875 C-27.51915222 9.13554108 -27.51915222 9.13554108 -26.87316895 8.01849365 C-20.35021011 -1.66230373 -10.51715118 -0.09656278 0 0 Z " fill="#FB682F" transform="translate(231.15234375,81.76953125)"/>
<path d="M0 0 C14.85 0 29.7 0 45 0 C45.0825 4.82625 45.165 9.6525 45.25 14.625 C45.28641602 16.13658691 45.32283203 17.64817383 45.36035156 19.20556641 C45.3703418 20.40874512 45.38033203 21.61192383 45.390625 22.8515625 C45.4220459 24.68968506 45.4220459 24.68968506 45.45410156 26.56494141 C44.63852279 32.73440016 40.49355832 36.73219742 36.3671875 41.09375 C32.94864373 45.86017674 32.70533836 51.11406338 32.7253418 56.7902832 C32.7176754 57.9257106 32.7176754 57.9257106 32.70985413 59.08407593 C32.69601585 61.57305937 32.69691086 64.06176403 32.69921875 66.55078125 C32.69532799 68.29184572 32.69099254 70.03290925 32.68623352 71.77397156 C32.6787832 75.41957681 32.67905347 79.06508521 32.68432617 82.71069336 C32.69011209 87.36419317 32.67320535 92.01729384 32.6499815 96.67072773 C32.63519007 100.26629423 32.63437992 103.86176587 32.63749123 107.45735741 C32.6369805 109.17202735 32.63178972 110.88670295 32.62167931 112.60134315 C31.99209201 127.00708643 31.99209201 127.00708643 38.26171875 139.30078125 C39.06222656 139.96464844 39.86273438 140.62851562 40.6875 141.3125 C45 148 45 148 45 176 C15.96 176 -13.08 176 -43 176 C-40.75028894 169.25086683 -40.75028894 169.25086683 -39.08908081 165.98475647 C-38.7161087 165.24617905 -38.3431366 164.50760162 -37.9588623 163.74664307 C-37.35249939 162.56119904 -37.35249939 162.56119904 -36.73388672 161.35180664 C-36.08971298 160.07988716 -36.08971298 160.07988716 -35.43252563 158.78227234 C-34.50330994 156.94812156 -33.57237942 155.11483875 -32.63991928 153.28233528 C-31.16431488 150.37991932 -29.69550468 147.47416313 -28.22879028 144.56724548 C-24.05946085 136.30481354 -19.88483912 128.04513161 -15.68896484 119.79614258 C-13.11994526 114.74430837 -10.56466111 109.68573157 -8.01813126 104.62252617 C-7.04642417 102.69705131 -6.06957852 100.77416065 -5.08749008 98.85396004 C-3.71445431 96.16817027 -2.35907507 93.47413828 -1.00732422 90.77758789 C-0.59903381 89.9893161 -0.19074341 89.20104431 0.22991943 88.3888855 C2.52544327 83.75576632 3.60888623 80.29161952 3 75 C0.80569298 71.47343515 -1.15868344 69.50690165 -5 68 C-8.09661681 67.63394287 -8.09661681 67.63394287 -11.515625 67.5859375 C-12.76601563 67.54726563 -14.01640625 67.50859375 -15.3046875 67.46875 C-16.60664063 67.4378125 -17.90859375 67.406875 -19.25 67.375 C-20.56742187 67.33632813 -21.88484375 67.29765625 -23.2421875 67.2578125 C-26.49465161 67.16353818 -29.74710996 67.0779325 -33 67 C-26.06345308 52.14325833 -18.79319294 37.46548113 -11.4375 22.8125 C-10.32207622 20.58668345 -9.20684074 18.36077253 -8.09179688 16.13476562 C-5.39703644 10.75524757 -2.69845133 5.3776738 0 0 Z " fill="#6AD8E6" transform="translate(310,199)"/>
<path d="M0 0 C14.85 0 29.7 0 45 0 C44.67 6.27 44.34 12.54 44 19 C43.09042945 28.96442826 43.09042945 28.96442826 46 38 C49.06556598 38.73343428 49.06556598 38.73343428 52 39 C51.01 39.33 50.02 39.66 49 40 C49 46.6 49 53.2 49 60 C47.02 60.66 45.04 61.32 43 62 C39.96430231 65.03569769 40.29502035 68.71298485 39.9375 72.8125 C39.85516113 73.6988916 39.77282227 74.5852832 39.68798828 75.49853516 C36.17224637 99.63458782 36.17224637 99.63458782 39 123 C42.55121324 125.40816309 45.97172097 125.31078002 50.171875 125.4140625 C50.8542926 125.43342865 51.53671021 125.4527948 52.23980713 125.4727478 C54.40974608 125.53231098 56.57973877 125.57883446 58.75 125.625 C60.22528297 125.66320131 61.70054415 125.7022543 63.17578125 125.7421875 C66.78365418 125.83799235 70.39169083 125.92210916 74 126 C74.25835817 136.69196147 73.44621469 147.17293879 72.5 157.8125 C72.005 163.484375 71.51 169.15625 71 175 C47.57 175 24.14 175 0 175 C0 147 0 147 4.3125 140.3125 C5.11300781 139.64863281 5.91351563 138.98476563 6.73828125 138.30078125 C14.02731401 130.88585846 12.47357455 118.83760501 12.46875 109.19140625 C12.47586321 107.4570237 12.48356388 105.72264347 12.49182129 103.98826599 C12.50521842 100.36475063 12.50685609 96.74145301 12.50097656 93.11791992 C12.49508027 88.49685114 12.52569101 83.87683289 12.56609344 79.25596714 C12.59206234 75.6774899 12.59483967 72.09926273 12.59120178 68.52070427 C12.59288396 66.81800634 12.60243872 65.11529571 12.62034607 63.41269112 C12.73854916 50.78791938 11.09172234 41.87153735 2.234375 32.375 C-0.54865512 29.27491582 -0.11520405 26.49693177 -0.09765625 22.4609375 C-0.09515869 21.28837402 -0.09266113 20.11581055 -0.09008789 18.90771484 C-0.08098389 17.41191895 -0.07187988 15.91612305 -0.0625 14.375 C-0.041875 9.63125 -0.02125 4.8875 0 0 Z " fill="#6AD7E5" transform="translate(157,200)"/>
<path d="M0 0 C0.85080643 -0.0071553 1.70161285 -0.01431061 2.57820129 -0.02168274 C3.50862244 -0.02437164 4.43904358 -0.02706055 5.3976593 -0.02983093 C6.38011124 -0.03640213 7.36256317 -0.04297333 8.37478638 -0.04974365 C11.63151627 -0.06948045 14.88820001 -0.08114087 18.14497375 -0.09111023 C19.81385116 -0.09722352 19.81385116 -0.09722352 21.51644325 -0.10346031 C27.40653422 -0.12432384 33.29660187 -0.1386237 39.1867218 -0.147995 C45.26521154 -0.15905288 51.34333455 -0.19344519 57.42169476 -0.23316669 C62.09979932 -0.25933682 66.77781661 -0.26768727 71.45598793 -0.27127647 C73.69622585 -0.27614229 75.93645987 -0.28775607 78.17662621 -0.30631447 C81.31700388 -0.33071093 84.45643425 -0.32973948 87.59687805 -0.32279968 C88.51717804 -0.33560974 89.43747803 -0.3484198 90.38566589 -0.36161804 C96.33813646 -0.31382916 100.85030206 0.76810646 105.820755 4.14717102 C107.87934875 6.43623352 107.87934875 6.43623352 109.258255 8.77217102 C109.73134094 9.54818665 110.20442688 10.32420227 110.69184875 11.12373352 C117.68764322 23.66290838 112.820755 39.78847866 112.820755 54.14717102 C69.260755 54.14717102 25.700755 54.14717102 -19.179245 54.14717102 C-19.179245 11.19323628 -19.179245 11.19323628 -13.14408875 5.08857727 C-12.47506531 4.63353821 -11.80604187 4.17849915 -11.116745 3.70967102 C-10.44514343 3.23658508 -9.77354187 2.76349915 -9.08158875 2.27607727 C-6.02232548 0.46062125 -3.48093923 0.0201288 0 0 Z " fill="#6AD8E6" transform="translate(209.1792449951172,14.852828979492188)"/>
<path d="M0 0 C32.01 0 64.02 0 97 0 C97.0825 10.23 97.165 20.46 97.25 31 C97.28641602 34.19558594 97.32283203 37.39117187 97.36035156 40.68359375 C97.37205387 43.26822237 97.38224202 45.85285848 97.390625 48.4375 C97.41108887 49.73751953 97.43155273 51.03753906 97.45263672 52.37695312 C97.45958051 71.01407661 91.94269877 88.23435507 79 102 C74.73721519 105.69658286 71.875082 107.10071703 66.25390625 107.17578125 C65.33416016 107.19962891 64.41441406 107.22347656 63.46679688 107.24804688 C61.53472824 107.29092399 59.60236711 107.32222451 57.66992188 107.34179688 C52.17832409 107.42850918 52.17832409 107.42850918 47.40234375 109.85546875 C45.84659975 112.03596616 45.84659975 112.03596616 45 115 C38.4 115 31.8 115 25 115 C24.34 113.35 23.68 111.7 23 110 C19.01954854 107.34636569 15.56231533 107.72291441 10.94213867 107.74462891 C10.01499557 107.74100845 9.08785248 107.737388 8.13261414 107.73365784 C6.11755038 107.72675993 4.10246792 107.72425914 2.08739281 107.72560501 C-1.102893 107.7265688 -4.29284054 107.71364491 -7.483078 107.69662476 C-16.55420292 107.65031029 -25.62529417 107.62574797 -34.6965332 107.61914062 C-40.24387231 107.61412532 -45.79085952 107.58987215 -51.33807945 107.55381393 C-53.45153376 107.54401448 -55.56503647 107.54168476 -57.67850685 107.54698563 C-60.63737176 107.55405763 -63.59518912 107.53677006 -66.55395508 107.51416016 C-67.86103424 107.52641884 -67.86103424 107.52641884 -69.19451904 107.53892517 C-75.60563482 107.45186226 -79.17025114 105.65578888 -83.90625 101.2109375 C-95 88.43137255 -95 88.43137255 -95 84 C-93.93650833 83.99780016 -93.93650833 83.99780016 -92.85153198 83.99555588 C-75.58237924 83.95846828 -58.31344045 83.89942775 -41.04444885 83.81609726 C-32.6932036 83.77632557 -24.34205233 83.74392361 -15.99072266 83.72900391 C-8.70980351 83.71597765 -1.42909131 83.68898829 5.85171127 83.64538693 C9.70517725 83.62279381 13.55838819 83.60708801 17.41192627 83.60811615 C21.04329985 83.60886405 24.67411014 83.59086199 28.30533791 83.55883217 C30.26469134 83.54632818 32.22413947 83.55338708 34.18351746 83.56114197 C42.50340506 83.46309311 48.157712 82.53222995 54.46875 76.73046875 C68.8159283 58.76890515 73.55235906 41.16847915 73.75 18.5625 C73.79156546 15.42956183 73.83785959 12.29669518 73.88378906 9.16381836 C73.90601911 7.60737716 73.92818055 6.05093497 73.95025635 4.49449158 C73.96667175 3.34130936 73.98308716 2.18812714 74 1 C64.66403396 1.08432208 55.32825197 1.17917347 45.99253368 1.28752708 C41.65773415 1.33750612 37.32295917 1.38383595 32.98803711 1.421875 C28.80581033 1.45870761 24.62378825 1.50506189 20.44173622 1.55806351 C18.84495949 1.57661826 17.24813886 1.59172223 15.65129662 1.60334396 C13.41730086 1.62018813 11.183775 1.64921794 8.94995117 1.68115234 C7.04133553 1.70113785 7.04133553 1.70113785 5.09416199 1.7215271 C1.83231115 1.76665368 1.83231115 1.76665368 -1 4 C-0.67 2.68 -0.34 1.36 0 0 Z " fill="#FB5325" transform="translate(258,390)"/>
<path d="M0 0 C14.85 0 29.7 0 45 0 C45.0825 4.82625 45.165 9.6525 45.25 14.625 C45.28641602 16.13658691 45.32283203 17.64817383 45.36035156 19.20556641 C45.3703418 20.40874512 45.38033203 21.61192383 45.390625 22.8515625 C45.41157227 24.07697754 45.43251953 25.30239258 45.45410156 26.56494141 C44.63852279 32.73440016 40.49355832 36.73219742 36.3671875 41.09375 C32.94864373 45.86017674 32.70533836 51.11406338 32.7253418 56.7902832 C32.72023087 57.5472348 32.71511993 58.3041864 32.70985413 59.08407593 C32.69601585 61.57305937 32.69691086 64.06176403 32.69921875 66.55078125 C32.69532799 68.29184572 32.69099254 70.03290925 32.68623352 71.77397156 C32.6787832 75.41957681 32.67905347 79.06508521 32.68432617 82.71069336 C32.69011209 87.36419317 32.67320535 92.01729384 32.6499815 96.67072773 C32.63519007 100.26629423 32.63437992 103.86176587 32.63749123 107.45735741 C32.6369805 109.17202735 32.63178972 110.88670295 32.62167931 112.60134315 C31.99209201 127.00708643 31.99209201 127.00708643 38.26171875 139.30078125 C39.06222656 139.96464844 39.86273438 140.62851562 40.6875 141.3125 C47.76020284 149.20920705 45.70071209 160.30892764 45.31640625 170.26171875 C45.21199219 172.15535156 45.10757813 174.04898438 45 176 C37.41 176 29.82 176 22 176 C21.99742187 173.855 21.99484375 171.71 21.9921875 169.5 C21.96930265 167.39809637 21.93629619 165.29657487 21.90234375 163.19482422 C21.88429418 161.74602407 21.87659507 160.29705337 21.87988281 158.84814453 C21.98316331 147.79363311 21.98316331 147.79363311 16.50756836 138.46826172 C16.0100708 137.98373535 15.51257324 137.49920898 15 137 C10.79526607 131.77249295 9.84907054 129.20224194 9.83886719 122.5402832 C9.83390228 121.77094955 9.82893738 121.00161591 9.82382202 120.20896912 C9.80918305 117.6562308 9.80239413 115.1035547 9.796875 112.55078125 C9.79112322 110.77678933 9.78536549 109.00279743 9.77960205 107.22880554 C9.76908593 103.50385244 9.76324785 99.77892095 9.75976562 96.05395508 C9.75429169 91.29031415 9.73028991 86.52696062 9.70179367 81.76340961 C9.68312687 78.0958728 9.67795945 74.4284045 9.67642975 70.7608242 C9.6734098 69.00541812 9.66540355 67.25001306 9.65224457 65.4946537 C9.63510581 63.03178022 9.63708362 60.56959909 9.64355469 58.10668945 C9.6343399 57.38693939 9.62512512 56.66718933 9.6156311 55.92562866 C9.67276518 48.95088006 11.7909344 43.81034101 16.625 38.75 C20.85545648 34.28749317 21.1422418 31.02153701 21.31640625 24.92578125 C21.33718735 24.2419487 21.35796844 23.55811615 21.37937927 22.8535614 C21.44466154 20.6733079 21.50366017 18.49293595 21.5625 16.3125 C21.60570553 14.83267014 21.64932047 13.35285217 21.69335938 11.87304688 C21.80109025 8.24881746 21.90032107 4.62449562 22 1 C14.74 1 7.48 1 0 1 C0 0.67 0 0.34 0 0 Z " fill="#2DCEDF" transform="translate(310,199)"/>
<path d="M0 0 C11.5786731 -0.23215147 23.15678881 -0.40960884 34.73731899 -0.51812172 C40.11535025 -0.57021577 45.49178442 -0.64081735 50.86889648 -0.75439453 C56.06266416 -0.86340694 61.25490044 -0.9229147 66.4497242 -0.94877243 C68.42699347 -0.9671876 70.40418296 -1.00315161 72.38079643 -1.05730057 C87.83291515 -1.46360187 87.83291515 -1.46360187 93.12478638 2.1104126 C95.42620931 4.63009991 97.20081786 7.10790916 99 10 C100.37719245 11.7440496 101.77120333 13.47505386 103.1875 15.1875 C103.92355469 16.09886719 104.65960938 17.01023437 105.41796875 17.94921875 C108.49437835 21.58412934 111.72934664 25.0404626 115 28.5 C132.36120731 46.90413126 144.496935 63.50894728 144.125 89.5625 C144.08375 93.666875 144.0425 97.77125 144 102 C131.79 102 119.58 102 107 102 C107.33 101.34 107.66 100.68 108 100 C112.29 100.33 116.58 100.66 121 101 C120.58651516 72.53156891 116.51603282 53.3614608 97 32 C96.08287266 30.98479098 95.16618486 29.96918466 94.25 28.953125 C92.58336453 27.11372854 90.91174372 25.27883272 89.234375 23.44921875 C86.7139095 20.6864008 84.25184075 17.87847268 81.8046875 15.05078125 C80.41238139 13.46861521 78.99619954 11.90743905 77.5703125 10.35546875 C76.74273437 9.45441406 75.91515625 8.55335937 75.0625 7.625 C74.29035156 6.79226562 73.51820313 5.95953125 72.72265625 5.1015625 C71 3 71 3 71 1 C47.57 1 24.14 1 0 1 C0 0.67 0 0.34 0 0 Z " fill="#F45124" transform="translate(211,83)"/>
<path d="M0 0 C28.38 0 56.76 0 86 0 C84.46892325 4.59323025 82.91270959 8.4137978 80.75 12.6875 C80.40485352 13.37134766 80.05970703 14.05519531 79.70410156 14.75976562 C76.99264416 20.10845746 74.22010209 25.42502124 71.44702148 30.74194336 C68.66191554 36.08897814 65.89248755 41.44399305 63.13165283 46.80358887 C62.33747191 48.3450049 61.542613 49.88607171 60.74725342 51.42687988 C57.99832601 56.75517161 55.2672608 62.09213311 52.55456543 67.43896484 C51.64934078 69.21756679 50.73916433 70.99365789 49.82385254 72.76708984 C48.52911799 75.27816196 47.25294417 77.79790325 45.98046875 80.3203125 C45.59257675 81.06314484 45.20468475 81.80597717 44.80503845 82.57131958 C42.21280165 87.77517137 41.36860225 92.19335038 41 98 C37.54169435 98.05550467 34.08361218 98.09355807 30.625 98.125 C29.64015625 98.14175781 28.6553125 98.15851563 27.640625 98.17578125 C26.69960937 98.18222656 25.75859375 98.18867188 24.7890625 98.1953125 C23.48509521 98.21102295 23.48509521 98.21102295 22.15478516 98.22705078 C20 98 20 98 18 96 C18.26587976 90.62871915 20.54480088 86.36716012 22.93725586 81.67138672 C23.34383926 80.8576358 23.75042267 80.04388489 24.16932678 79.20547485 C25.51027934 76.52634793 26.86246784 73.85306374 28.21484375 71.1796875 C29.15097274 69.31489546 30.08639249 67.44974723 31.02113342 65.58425903 C33.4809287 60.67991902 35.95029128 55.78045781 38.42169189 50.88195801 C40.93468165 45.89685823 43.43865451 40.9072348 45.94335938 35.91796875 C49.98849778 27.86285739 54.03927339 19.81061118 58.09689331 11.76177979 C58.45159195 11.05816315 58.80629059 10.35454651 59.17173767 9.62960815 C59.47831771 9.02164335 59.78489775 8.41367855 60.10076809 7.78729057 C61.07050596 5.85986414 62.03507884 3.92984232 63 2 C42.21 1.67 21.42 1.34 0 1 C0 0.67 0 0.34 0 0 Z " fill="#FAD8A4" transform="translate(219,176)"/>
<path d="M0 0 C9.24 0 18.48 0 28 0 C26.71390155 3.85829535 25.60105369 7.04715889 23.82333374 10.59384155 C23.39146255 11.46033325 22.95959137 12.32682495 22.51463318 13.21957397 C22.04493607 14.15177765 21.57523895 15.08398132 21.09130859 16.04443359 C20.34472237 17.53804413 20.34472237 17.53804413 19.58305359 19.06182861 C17.94196819 22.34260947 16.29523871 25.62052251 14.6484375 28.8984375 C13.50751433 31.17655253 12.36694499 33.45484479 11.22671509 35.73330688 C8.53457688 41.11073518 5.83888473 46.48636694 3.14144957 51.86113894 C0.06936731 57.98291144 -2.99814595 64.10696925 -6.06528592 70.23121905 C-12.37179246 82.82335415 -18.68400416 95.41262221 -25 108 C-25.33 108 -25.66 108 -26 108 C-26.12404894 100.45690543 -25.767288 93.07029456 -25.0625 85.5625 C-24.09672546 74.71584697 -23.4572991 63.8789049 -23 53 C-22.34 53.66 -21.68 54.32 -21 55 C-12.09 37.18 -3.18 19.36 6 1 C4.02 1 2.04 1 0 1 C0 0.67 0 0.34 0 0 Z " fill="#F9D7A3" transform="translate(268,281)"/>
<path d="M0 0 C17.07026022 -0.74578807 17.07026022 -0.74578807 22.38671875 2.51953125 C26.17069939 5.99199775 28.72118002 10.44236003 31 15 C31 27.87 31 40.74 31 54 C-12.56 54 -56.12 54 -101 54 C-101 41.13 -101 28.26 -101 15 C-100.67 15 -100.34 15 -100 15 C-100 27.54 -100 40.08 -100 53 C-64.36 53 -28.72 53 8 53 C9.78986793 23.91671886 9.78986793 23.91671886 0 0 Z " fill="#2EC2D2" transform="translate(291,15)"/>
</svg>
