<?xml version="1.0" encoding="UTF-8"?>
<svg version="1.1" xmlns="http://www.w3.org/2000/svg" width="512" height="512">
<path d="M0 0 C1.51782222 1.46087294 3.0200215 2.938301 4.5 4.4375 C5.06074219 4.97632813 5.62148437 5.51515625 6.19921875 6.0703125 C16.18601388 16.50271266 19.16338206 30.59559291 21.81835938 44.26098633 C22.37691039 47.13482931 22.963204 50.00191213 23.5546875 52.86914062 C25.34671883 61.68191686 27.09915132 70.4290231 27.5 79.4375 C28.11294922 79.63794922 28.72589844 79.83839844 29.35742188 80.04492188 C47.59113606 86.05918362 63.45723281 92.41326487 78.5 104.4375 C79.49 105.0975 80.48 105.7575 81.5 106.4375 C82.16717041 106.02612793 82.83434082 105.61475586 83.52172852 105.19091797 C95.33074002 97.91157002 107.14386357 90.63994326 119 83.4375 C135.32136193 73.51973462 151.57508109 63.49198189 167.8125 53.4375 C168.67004883 52.90713135 169.52759766 52.3767627 170.41113281 51.83032227 C174.09479234 49.55131966 177.77523055 47.26797783 181.44140625 44.9609375 C182.03074951 44.59226562 182.62009277 44.22359375 183.22729492 43.84375 C184.72396485 42.90702844 186.21762384 41.96550038 187.7109375 41.0234375 C195.45121225 36.6221048 201.6880201 35.45718085 210.5 36.4375 C218.24181416 38.74146389 223.68327628 44.46210838 227.5 51.4375 C229.8159461 58.29032513 230.03037509 64.61892287 227.5 71.4375 C222.50645384 80.46178439 213.73907202 86.60588868 205.125 91.875 C204.31828857 92.37668701 203.51157715 92.87837402 202.68041992 93.39526367 C199.95868234 95.0843623 197.22990778 96.76164124 194.5 98.4375 C192.44130429 99.70556366 190.38271431 100.97379896 188.32421875 102.2421875 C185.04627116 104.26056946 181.76752322 106.27760945 178.48681641 108.29150391 C170.96822206 112.90810756 163.47695503 117.56631571 156 122.25 C154.03651322 123.47534838 152.0729728 124.70061079 150.109375 125.92578125 C146.44060799 128.21655129 142.78620314 130.52800086 139.140625 132.85546875 C137.51059853 133.88310102 135.88040064 134.91046147 134.25 135.9375 C133.51716797 136.41292236 132.78433594 136.88834473 132.02929688 137.37817383 C127.05194576 140.48901827 127.05194576 140.48901827 124.34472656 140.23632812 C123.43158691 139.8409082 123.43158691 139.8409082 122.5 139.4375 C122.17 138.4475 121.84 137.4575 121.5 136.4375 C124.44783214 133.25567822 127.45184415 131.07327173 131.171875 128.85546875 C132.30036865 128.17766357 133.4288623 127.4998584 134.59155273 126.80151367 C135.18829803 126.4465683 135.78504333 126.09162292 136.39987183 125.72592163 C139.55141999 123.85058803 142.69076816 121.95499219 145.83203125 120.0625 C146.4711293 119.67817307 147.11022736 119.29384613 147.76869202 118.89787292 C154.19396739 115.03035208 160.57363613 111.0927592 166.9375 107.125 C167.93040039 106.50971436 168.92330078 105.89442871 169.94628906 105.26049805 C174.32847654 102.52335042 178.57150531 99.81550499 182.5 96.4375 C179.07441153 86.04805075 172.58333378 74.92851155 163.5 68.4375 C161.21890252 67.33557572 161.21890252 67.33557572 158.5 67.4375 C155.97486555 68.70613726 153.81943705 69.98549342 151.5 71.5625 C150.09325616 72.48170686 148.68565622 73.39960448 147.27734375 74.31640625 C146.14014893 75.06494873 146.14014893 75.06494873 144.97998047 75.82861328 C140.39386615 78.80385382 135.72122381 81.64037038 131.0625 84.5 C129.25030036 85.61425788 127.43902425 86.73001991 125.62890625 87.84765625 C124.85619385 88.32340088 124.08348145 88.79914551 123.28735352 89.28930664 C121.55205129 90.31453312 121.55205129 90.31453312 120.5 91.4375 C120.99628906 91.81519531 121.49257813 92.19289063 122.00390625 92.58203125 C127.96430179 97.41142194 131.7080841 102.81415349 135.5 109.4375 C136.16 110.571875 136.82 111.70625 137.5 112.875 C138.57269151 115.62377199 138.63695883 116.75014276 137.5 119.4375 C136.18 119.7675 134.86 120.0975 133.5 120.4375 C133.0153125 119.53128906 132.530625 118.62507812 132.03125 117.69140625 C125.14737898 104.17253886 125.14737898 104.17253886 113.5 95.4375 C111.2173256 96.18576926 111.2173256 96.18576926 108.98046875 97.69140625 C108.12259766 98.21669922 107.26472656 98.74199219 106.38085938 99.28320312 C105.04764648 100.13301758 105.04764648 100.13301758 103.6875 101 C102.37168945 101.80920898 102.37168945 101.80920898 101.02929688 102.63476562 C96.04694052 105.72405015 91.22852666 108.97335427 86.5 112.4375 C86.94730469 113.00855469 87.39460938 113.57960937 87.85546875 114.16796875 C96.11290288 125.24243797 99.1655856 136.68256236 100.8125 150.25 C100.98072266 151.52681641 101.14894531 152.80363281 101.32226562 154.11914062 C101.72923143 157.22370832 102.12155234 160.32935015 102.5 163.4375 C102.83 162.7775 103.16 162.1175 103.5 161.4375 C104.16 161.4375 104.82 161.4375 105.5 161.4375 C106.23310251 192.86692051 100.78538607 220.27014677 79.5 244.4375 C78.80261719 245.26636719 78.10523438 246.09523438 77.38671875 246.94921875 C54.50127711 273.49307913 19.27756907 288.82568175 -14.3125 296.25 C-15.63435303 296.54233521 -15.63435303 296.54233521 -16.98291016 296.84057617 C-31.79797927 299.92399131 -46.35149479 300.8470837 -61.4375 300.8125 C-62.78320572 300.81168427 -62.78320572 300.81168427 -64.15609741 300.81085205 C-107.54107879 300.69035562 -151.72098991 287.11961974 -183.3125 256.1875 C-189.85782279 249.5612884 -195.0753422 242.62129982 -199.5 234.4375 C-199.97856445 233.56472412 -199.97856445 233.56472412 -200.46679688 232.67431641 C-205.96862118 222.42168369 -208.96394778 211.7455297 -211.5 200.4375 C-211.6757959 199.69677246 -211.8515918 198.95604492 -212.03271484 198.19287109 C-216.18605341 180.43883914 -213.89319392 164.63091787 -204.25 148.8125 C-198.8509095 140.75503378 -192.71562004 132.94915711 -185.5 126.4375 C-184.84 126.4375 -184.18 126.4375 -183.5 126.4375 C-183.81090576 125.56859131 -184.12181152 124.69968262 -184.44213867 123.80444336 C-187.68978248 114.44061912 -190.20410428 105.06220381 -192.29516602 95.37670898 C-192.81222085 93.00128244 -193.35571585 90.6328971 -193.90039062 88.26367188 C-198.61224409 67.08624469 -196.68098928 49.25342071 -185.5 30.4375 C-180.03524048 22.38020693 -172.75309865 13.74789544 -164.5 8.4375 C-161.75 8.75 -161.75 8.75 -159.5 9.4375 C-159.71693304 13.17959486 -160.4407791 14.37757409 -163.125 17.09375 C-164.2438656 18.04889961 -165.36925106 18.99644855 -166.5 19.9375 C-173.14501551 25.72376091 -177.84057395 31.97278642 -182.5 39.4375 C-175.29721012 39.07125645 -172.06236589 36.48078005 -167.3125 31.4375 C-151.31202885 14.49637661 -131.29309399 5.70186466 -109.5 -1.5625 C-110.61375 -1.995625 -111.7275 -2.42875 -112.875 -2.875 C-116.5 -4.5625 -116.5 -4.5625 -118.5 -7.5625 C-119.51320313 -7.14097656 -120.52640625 -6.71945313 -121.5703125 -6.28515625 C-122.9217418 -5.73144563 -124.27331183 -5.1780784 -125.625 -4.625 C-126.29015625 -4.34720703 -126.9553125 -4.06941406 -127.640625 -3.78320312 C-131.58853349 -2.17694624 -135.23530369 -1.0872835 -139.5 -0.5625 C-139.83 -2.2125 -140.16 -3.8625 -140.5 -5.5625 C-102.21054821 -29.75284524 -35.07490474 -30.69054165 0 0 Z M-97.5 -13.5625 C-97.45875 -12.469375 -97.4175 -11.37625 -97.375 -10.25 C-97.5 -6.5625 -97.5 -6.5625 -99.5 -3.5625 C-98.57703125 -3.69527344 -97.6540625 -3.82804687 -96.703125 -3.96484375 C-61.62775488 -8.71318931 -26.98346133 -7.18370497 2.5 14.4375 C2.5 10.40377068 1.16242791 9.60464884 -1.625 6.75 C-19.50539564 -10.5259879 -45.45218649 -15.76458689 -69.5625 -15.75 C-70.66198975 -15.75064453 -71.76147949 -15.75128906 -72.89428711 -15.75195312 C-81.24918678 -15.6979595 -89.27938534 -15.05958755 -97.5 -13.5625 Z M167.5 61.4375 C169.00915322 64.62892728 170.487155 66.51565258 173.125 68.875 C180.17967572 75.73692502 184.79690246 84.401942 188.5 93.4375 C200.04967672 89.34931656 214.96396108 80.17124204 221.234375 69.48046875 C223.28651365 64.54646873 223.5331557 59.56771579 221.84375 54.44921875 C219.04941262 49.01712325 214.30924835 44.37391612 208.5 42.4375 C193.27725213 40.74608357 179.50210913 53.42778385 167.5 61.4375 Z M-185.5 43.4375 C-186.15043719 45.16494016 -186.79514844 46.8945369 -187.4375 48.625 C-187.79714844 49.58792969 -188.15679687 50.55085938 -188.52734375 51.54296875 C-190.15807302 56.39586188 -190.6187337 60.63273341 -190.5625 65.75 C-190.55347656 66.81863281 -190.54445313 67.88726562 -190.53515625 68.98828125 C-190.52355469 69.79652344 -190.51195312 70.60476562 -190.5 71.4375 C-189.84 71.4375 -189.18 71.4375 -188.5 71.4375 C-188.23445313 70.42429687 -187.96890625 69.41109375 -187.6953125 68.3671875 C-187.33864311 67.01559823 -186.98186657 65.66403722 -186.625 64.3125 C-186.45097656 63.64734375 -186.27695313 62.9821875 -186.09765625 62.296875 C-185.27644382 59.19451694 -184.41576114 56.20695153 -183.3125 53.1875 C-182.20593344 49.44219781 -183.20287695 47.04061959 -184.5 43.4375 C-184.83 43.4375 -185.16 43.4375 -185.5 43.4375 Z M18.5 69.4375 C18.08041016 70.56285156 18.08041016 70.56285156 17.65234375 71.7109375 C7.3540138 98.00313679 -15.36370014 113.90793734 -40.25 125.125 C-74.30349382 139.77636135 -114.52914105 143.05210713 -149.42041016 129.31738281 C-163.17672658 123.4970301 -173.84060261 114.56639105 -182.5 102.4375 C-183.86560748 106.53432245 -182.62886861 109.56839063 -181.4375 113.5625 C-181.09513306 114.71274658 -181.09513306 114.71274658 -180.74584961 115.88623047 C-178.87989376 121.83029936 -176.47106729 126.60226263 -172.5 131.4375 C-172.08492187 132.02273438 -171.66984375 132.60796875 -171.2421875 133.2109375 C-159.55877878 148.67221491 -137.21058448 156.10991891 -118.93286133 159.02734375 C-112.5111971 159.79460041 -106.08281205 159.83170532 -99.625 159.8125 C-98.90211792 159.81162384 -98.17923584 159.81074768 -97.43444824 159.80984497 C-61.90251503 159.66847253 -28.41203509 147.8429434 -1.5 124.4375 C-0.87480469 123.90898437 -0.24960938 123.38046875 0.39453125 122.8359375 C10.17329799 113.90451121 19.60750918 99.37559633 20.69287109 86.07373047 C20.90084189 80.84808367 20.766376 75.65846964 20.5 70.4375 C19.51 69.9425 19.51 69.9425 18.5 69.4375 Z M26.5 86.4375 C25.80178583 88.53813576 25.11675528 90.64315737 24.4375 92.75 C24.05464844 93.92175781 23.67179688 95.09351563 23.27734375 96.30078125 C22.20290156 99.4381097 22.20290156 99.4381097 23.5 102.4375 C25.9184213 103.48427937 28.25781375 104.35838745 30.75 105.1875 C44.54166236 110.10076044 59.09153283 116.84532591 66.53515625 130.22265625 C71.26048661 141.06987209 71.6459625 151.44386972 67.4375 162.5 C55.4143204 188.88898445 27.36318734 204.12960879 1.43603516 214.10253906 C-46.54281175 231.72803386 -108.48237507 238.9591995 -156.28515625 217.09375 C-169.9173597 210.0705978 -179.40121665 201.50421505 -184.75 187.0625 C-187.17723202 175.33087855 -184.35718007 164.61546841 -178.0625 154.5 C-175.42142618 150.6066929 -172.63052047 146.94747749 -169.5 143.4375 C-170.76965531 141.99895942 -172.04077218 140.56170873 -173.3125 139.125 C-174.02019531 138.32449219 -174.72789062 137.52398437 -175.45703125 136.69921875 C-177.09337122 134.88766838 -178.75272168 133.14068297 -180.5 131.4375 C-193.53815114 141.45283956 -204.54232963 157.06899617 -207.5 173.4375 C-209.12498686 187.34826952 -206.43694858 199.83077591 -198 211.1875 C-179.43823521 234.52719405 -146.90965882 243.98735282 -118.5 247.4375 C-66.17480128 253.0050004 -13.24665569 245.27166083 33.5 220.4375 C34.469375 219.94765625 35.43875 219.4578125 36.4375 218.953125 C48.32003202 212.80460552 58.85706293 204.66602986 68.5 195.4375 C69.33144531 194.68082031 70.16289062 193.92414063 71.01953125 193.14453125 C84.05074569 180.87397141 92.3643507 165.51955133 93.8125 147.5625 C93.30725554 131.89992175 85.51491281 119.8543672 74.5 109.4375 C63.34066942 99.38607418 42.09052222 86.4375 26.5 86.4375 Z M18.5 107.4375 C18.12230469 108.09234375 17.74460937 108.7471875 17.35546875 109.421875 C7.72254369 125.39403178 -5.32879622 136.48114098 -21.5 145.4375 C-21.5 145.7675 -21.5 146.0975 -21.5 146.4375 C-20.18128906 146.47488281 -18.86257812 146.51226562 -17.50390625 146.55078125 C10.5757739 147.50798331 33.42665365 154.09387967 56.5 170.4375 C57.46302356 168.87788638 58.42021004 167.31466775 59.375 165.75 C59.90867187 164.87988281 60.44234375 164.00976562 60.9921875 163.11328125 C65.13398558 155.76319917 66.59548845 148.41370295 64.3125 140.1875 C62.91779327 136.1365109 61.12184794 132.85384732 58.5 129.4375 C57.91863281 128.64859375 57.33726562 127.8596875 56.73828125 127.046875 C47.51605313 116.29565617 32.143682 109.78985897 18.5 107.4375 Z M-164.5 147.4375 C-173.26266653 156.23911172 -179.90495532 165.51182986 -180.75 178.1875 C-180.56392812 187.20352814 -176.61282133 194.00712951 -170.5 200.4375 C-164.57409349 205.87435274 -164.57409349 205.87435274 -157.5 209.4375 C-156.95472656 208.54289062 -156.40945312 207.64828125 -155.84765625 206.7265625 C-143.91908685 187.46494382 -129.58370847 176.35595923 -109.5 166.4375 C-109.5 166.1075 -109.5 165.7775 -109.5 165.4375 C-110.67433594 165.27894531 -111.84867187 165.12039063 -113.05859375 164.95703125 C-131.96331171 162.27472534 -148.12496105 157.44446824 -164.5 147.4375 Z M94.5 169.4375 C94.0875 170.25992188 93.675 171.08234375 93.25 171.9296875 C89.3418423 179.48429592 85.06868463 185.95987718 79.5 192.4375 C79.02046875 193.04980469 78.5409375 193.66210938 78.046875 194.29296875 C73.6105304 199.86389573 68.11908479 204.11130197 62.5 208.4375 C61.47003906 209.23285156 60.44007813 210.02820313 59.37890625 210.84765625 C9.70275218 248.23326388 -59.74032469 259.65547678 -120.33691406 252.68115234 C-123.32475018 252.34459925 -126.3173968 252.07542891 -129.3125 251.8125 C-130.14394531 251.73773438 -130.97539062 251.66296875 -131.83203125 251.5859375 C-132.65767578 251.51246094 -132.65767578 251.51246094 -133.5 251.4375 C-97.76480836 270.60006611 -39.07733953 259.17664683 -2.54296875 248.34765625 C19.98723538 241.38922214 41.16593654 230.89984946 60.5 217.4375 C61.06154785 217.0470752 61.6230957 216.65665039 62.20166016 216.25439453 C81.34972715 202.90190656 81.34972715 202.90190656 94.5 184.4375 C94.79414765 181.8290208 95.00637617 179.30216689 95.125 176.6875 C95.18300781 175.64142578 95.18300781 175.64142578 95.2421875 174.57421875 C95.33598624 172.86239182 95.41906174 171.14998318 95.5 169.4375 C95.17 169.4375 94.84 169.4375 94.5 169.4375 Z M-199.5 218.4375 C-198.84 219.7575 -198.18 221.0775 -197.5 222.4375 C-197.83 221.1175 -198.16 219.7975 -198.5 218.4375 C-198.83 218.4375 -199.16 218.4375 -199.5 218.4375 Z " fill="#010100" transform="translate(248.5,136.5625)"/>
<path d="M0 0 C0 0.66 0 1.32 0 2 C-1.093125 2.556875 -2.18625 3.11375 -3.3125 3.6875 C-6.69658782 5.65068279 -8.59453475 7.22281214 -10 11 C-9.77752165 14.73093378 -9.77752165 14.73093378 -9 18 C-3.27171183 19.46254166 -0.24256439 18.605868 4.984375 15.91015625 C7 15 7 15 10 15 C13.62686424 30.67644626 9.84343612 44.22931769 1.8125 57.75 C-16.8558109 84.97801677 -47.74922924 100.6202618 -79.5390625 106.94140625 C-109.93975327 112.59605274 -143.48603099 111.9708247 -170 94 C-180.22983364 86.22822851 -189.16120841 76.87153951 -192 64 C-192.5174449 55.1908161 -189.88706532 45.33059798 -185 38 C-184.29875 38.33 -183.5975 38.66 -182.875 39 C-179.64359325 40.12396756 -177.39857234 40.36155025 -174 40 C-171.65738392 38.62073227 -171.65738392 38.62073227 -170 37 C-170.57575664 33.64749299 -171.59306263 32.06181371 -174.0625 29.75 C-174.61035156 29.22921875 -175.15820312 28.7084375 -175.72265625 28.171875 C-176.14417969 27.78515625 -176.56570312 27.3984375 -177 27 C-170.37852708 10.75429319 -147.05345993 -1.35082587 -131.82470703 -7.94140625 C-92.06664952 -24.37760213 -35.34137318 -30.04430554 0 0 Z " fill="#CD7F41" transform="translate(251,150)"/>
<path d="M0 0 C0.33 0 0.66 0 1 0 C1.30524082 4.95253228 0.28003305 8.87767393 -1.5 13.4375 C-1.76772217 14.13125732 -2.03544434 14.82501465 -2.3112793 15.53979492 C-7.16702081 27.7573332 -13.22251403 38.14802868 -22 48 C-22.68578125 48.82886719 -23.3715625 49.65773438 -24.078125 50.51171875 C-40.90875172 70.36562472 -65.88378589 83.27284545 -90 92 C-90.68304199 92.24991699 -91.36608398 92.49983398 -92.06982422 92.75732422 C-138.26497532 109.3404686 -193.40693803 109.48548271 -238.36328125 89.05078125 C-250.78484545 83.19078864 -261.00972925 75.40764775 -271 66 C-271.63808594 65.42636719 -272.27617187 64.85273438 -272.93359375 64.26171875 C-280.80013215 56.92078425 -286.31620087 47.04981144 -290 37 C-290 36.01 -290 35.02 -290 34 C-286.77845463 35.44389083 -284.41253611 37.25838222 -281.75 39.5625 C-245.10104671 69.06304028 -189.02943037 75.66668847 -143.78613281 70.98193359 C-103.61708367 66.35636084 -65.26754282 53.16426074 -32 30 C-31.43845215 29.6095752 -30.8769043 29.21915039 -30.29833984 28.81689453 C-20.01458562 21.57901561 -5.7534389 11.50687781 0 0 Z " fill="#FDC478" transform="translate(341,323)"/>
<path d="M0 0 C1.16942139 -0.00547852 2.33884277 -0.01095703 3.54370117 -0.01660156 C11.74192646 0.05442646 11.74192646 0.05442646 14 2.3125 C13.625 4.4375 13.625 4.4375 13 6.3125 C12.04859131 6.30202637 11.09718262 6.29155273 10.11694336 6.28076172 C6.51053794 6.24394203 2.90414823 6.22137979 -0.70239258 6.20263672 C-2.24897068 6.19271763 -3.79553076 6.17917813 -5.34204102 6.16162109 C-19.38242235 6.00647876 -32.87247813 6.95640256 -46.4375 10.9375 C-47.324375 11.19619873 -48.21125 11.45489746 -49.125 11.72143555 C-71.27924141 18.48923753 -91.41220748 31.60116666 -102.50390625 52.30859375 C-106.36507785 60.06118112 -106.47971575 70.87725142 -104.19921875 79.25390625 C-100.04473044 87.46294673 -92.09971194 92.42345437 -83.671875 95.47265625 C-54.85629796 104.53018412 -23.44128536 101.52852912 4 89.3125 C18.95576547 81.49726917 29.60809178 70.3223198 35 54.3125 C37.34498051 46.55843112 36.85904229 38.38472356 33.125 31.21484375 C29.61635495 25.28182244 26.53484605 23.11353765 20 21.3125 C3.97159271 17.63365141 -14.39708623 19.54077346 -30 24.3125 C-31.21429688 24.663125 -32.42859375 25.01375 -33.6796875 25.375 C-48.04538422 29.98226131 -64.07658595 38.74704365 -72.125 51.9375 C-74.05025653 55.85628456 -74.67583443 58.91957619 -74 63.3125 C-72.35763982 67.46670515 -69.95182826 69.44231633 -65.98046875 71.46484375 C-49.74365503 78.41432812 -30.47544205 74.05663501 -14.6875 68.0625 C-6.99726918 64.65862734 1.23233917 60.12467852 5 52.3125 C5.62530795 49.22243653 5.6142846 46.40710355 5 43.3125 C1.30806403 39.07763227 -3.12225327 37.59471588 -8.62890625 37.0546875 C-17.82265266 36.69508855 -26.5719526 38.45497661 -34 44.125 C-34.99 44.846875 -35.98 45.56875 -37 46.3125 C-39.1875 45.94921875 -39.1875 45.94921875 -41 45.3125 C-40.43951652 41.84497555 -39.4682274 40.43114945 -36.6875 38.3125 C-27.41034691 31.82014065 -17.13795978 30.07210723 -6 31.3125 C0.91493063 32.77510735 5.68096346 35.04048053 9.9765625 40.7265625 C12.28919379 44.31025832 12.16006067 46.64459082 11.625 50.8046875 C9.91852093 57.65193476 5.16322673 62.93034862 -0.5546875 66.84375 C-18.42530254 77.57753795 -38.50130717 83.07011556 -59.37109375 79.78125 C-67.7504757 77.64282243 -73.8769342 74.39438507 -79 67.3125 C-80.89518765 61.62693706 -80.54717972 55.97575541 -78.2265625 50.4453125 C-67.9547791 32.58418595 -47.03221964 22.62381711 -28 17.3125 C-26.92492187 16.9928125 -25.84984375 16.673125 -24.7421875 16.34375 C-15.95667445 14.14227573 -7.27211915 14.00369766 1.75 13.9375 C2.98186035 13.92356201 4.2137207 13.90962402 5.48291016 13.89526367 C17.1400841 13.955692 27.12165616 15.43415616 35.625 23.9375 C41.95176396 32.16843564 43.21395931 41.16422613 42 51.3125 C39.84847722 60.76587223 36.35385758 68.87261961 30 76.3125 C29.29230469 77.14265625 28.58460938 77.9728125 27.85546875 78.828125 C13.21712936 94.65598119 -8.07470998 102.3999864 -29 105.3125 C-30.794375 105.5909375 -30.794375 105.5909375 -32.625 105.875 C-38.51762649 106.5935433 -44.44841004 106.45718967 -50.375 106.4375 C-51.56222656 106.44136719 -52.74945313 106.44523437 -53.97265625 106.44921875 C-55.10316406 106.44792969 -56.23367187 106.44664062 -57.3984375 106.4453125 C-58.42630371 106.44418457 -59.45416992 106.44305664 -60.51318359 106.44189453 C-63 106.3125 -63 106.3125 -65 105.3125 C-65.061875 105.84875 -65.12375 106.385 -65.1875 106.9375 C-66.75622282 111.52299747 -70.04069346 114.67296231 -74 117.3125 C-76.41015625 117.578125 -76.41015625 117.578125 -79.0625 117.5625 C-79.94035156 117.56765625 -80.81820312 117.5728125 -81.72265625 117.578125 C-84 117.3125 -84 117.3125 -86 115.3125 C-86.66524275 110.91498621 -86.45909208 107.24981299 -84.5 103.25 C-83.7575 102.2909375 -83.7575 102.2909375 -83 101.3125 C-83.71414062 101.20164062 -84.42828125 101.09078125 -85.1640625 100.9765625 C-95.28056477 98.60768456 -103.53277483 91.73414818 -108.9375 83.0625 C-112.77461533 74.7783967 -112.27967274 63.98166469 -110.30078125 55.21484375 C-109.37832738 52.75885896 -108.30558397 50.58608704 -107 48.3125 C-106.36384766 47.09240234 -106.36384766 47.09240234 -105.71484375 45.84765625 C-94.88305359 26.26595204 -75.4801979 14.67332723 -55 7.3125 C-53.95714844 6.92964844 -52.91429687 6.54679688 -51.83984375 6.15234375 C-35.31554501 0.76710141 -17.24276133 0.06008333 0 0 Z " fill="#090503" transform="translate(195,131.6875)"/>
<path d="M0 0 C3.23273861 3.23273861 2.88403016 6.99323376 3.15234375 11.41796875 C2.51581704 26.38450712 -10.34903616 39.85543089 -20.71484375 49.53515625 C-51.29064291 76.08890398 -91.3061811 85.67223141 -131 84 C-155.81531592 82.15522701 -178.72029748 73.09261702 -195.4375 54.25 C-197.56943283 51.63959361 -199.5210051 49.0449895 -201 46 C-200.67 45.34 -200.34 44.68 -200 44 C-198.5 45.375 -198.5 45.375 -197 47 C-197 47.66 -197 48.32 -197 49 C-196.41992188 49.26425781 -195.83984375 49.52851563 -195.2421875 49.80078125 C-192.90821232 51.04909202 -191.13892396 52.47527282 -189.125 54.1875 C-168.6114565 70.28377149 -140.35921116 74.36046049 -115 73 C-114.29375488 72.96277832 -113.58750977 72.92555664 -112.85986328 72.88720703 C-81.59334121 70.93706755 -51.41075283 59.52146462 -27 40 C-26.28328125 39.44957031 -25.5665625 38.89914063 -24.828125 38.33203125 C-12.86383343 28.64095508 -4.5651974 14.5515667 0 0 Z " fill="#CD7F40" transform="translate(265,191)"/>
<path d="M0 0 C0.66 0 1.32 0 2 0 C2.73310251 31.42942051 -2.71461393 58.83264677 -24 83 C-25.04607422 84.24330078 -25.04607422 84.24330078 -26.11328125 85.51171875 C-48.99872289 112.05557913 -84.22243093 127.38818175 -117.8125 134.8125 C-119.13435303 135.10483521 -119.13435303 135.10483521 -120.48291016 135.40307617 C-135.29797927 138.48649131 -149.85149479 139.4095837 -164.9375 139.375 C-166.28320572 139.37418427 -166.28320572 139.37418427 -167.65609741 139.37335205 C-192.2537106 139.30503522 -231.52452775 137.39921924 -250.72045898 119.38549805 C-251.14270752 118.92828369 -251.56495605 118.47106934 -252 118 C-248.14501392 119.24545704 -244.36827196 120.62265434 -240.59887695 122.10620117 C-231.88627422 125.49964409 -223.16856123 128.13890033 -214 130 C-213.27377441 130.15098145 -212.54754883 130.30196289 -211.79931641 130.45751953 C-188.77611595 135.0286283 -163.15247946 134.63054113 -140 131 C-139.23171875 130.89236328 -138.4634375 130.78472656 -137.671875 130.67382812 C-109.90196821 126.70989788 -79.89767508 116.39182772 -57 100 C-55.56527344 98.98873047 -55.56527344 98.98873047 -54.1015625 97.95703125 C-29.81104974 80.31674884 -9.94905404 56.04188482 -4.85229492 25.75830078 C-4.55317363 23.84115091 -4.27634041 21.92056584 -4 20 C-3.64672865 17.64569881 -3.29262116 15.29152287 -2.9375 12.9375 C-2.78410156 11.90109375 -2.63070312 10.8646875 -2.47265625 9.796875 C-1.90135298 6.41627052 -1.06037483 3.25686556 0 0 Z " fill="#F9C276" transform="translate(352,298)"/>
<path d="M0 0 C1.16942139 -0.00547852 2.33884277 -0.01095703 3.54370117 -0.01660156 C11.74192646 0.05442646 11.74192646 0.05442646 14 2.3125 C13.625 4.4375 13.625 4.4375 13 6.3125 C12.04859131 6.30202637 11.09718262 6.29155273 10.11694336 6.28076172 C6.51053794 6.24394203 2.90414823 6.22137979 -0.70239258 6.20263672 C-2.24897068 6.19271763 -3.79553076 6.17917813 -5.34204102 6.16162109 C-19.38242235 6.00647876 -32.87247813 6.95640256 -46.4375 10.9375 C-47.324375 11.19619873 -48.21125 11.45489746 -49.125 11.72143555 C-71.27924141 18.48923753 -91.41220748 31.60116666 -102.50390625 52.30859375 C-106.36507785 60.06118112 -106.47971575 70.87725142 -104.19921875 79.25390625 C-99.52630735 88.48732224 -90.43503321 93.17739448 -81 96.3125 C-80.21238281 96.55355469 -79.42476562 96.79460937 -78.61328125 97.04296875 C-73.22829149 98.69777885 -69.44137253 100.81610035 -65 104.3125 C-65.43427485 109.23428161 -67.69095697 111.76709675 -71 115.3125 C-74.25082673 117.47971782 -75.29232153 117.58471018 -79.0625 117.5625 C-79.94035156 117.56765625 -80.81820312 117.5728125 -81.72265625 117.578125 C-84 117.3125 -84 117.3125 -86 115.3125 C-86.66524275 110.91498621 -86.45909208 107.24981299 -84.5 103.25 C-83.7575 102.2909375 -83.7575 102.2909375 -83 101.3125 C-83.71414062 101.20164062 -84.42828125 101.09078125 -85.1640625 100.9765625 C-95.28056477 98.60768456 -103.53277483 91.73414818 -108.9375 83.0625 C-112.77461533 74.7783967 -112.27967274 63.98166469 -110.30078125 55.21484375 C-109.37832738 52.75885896 -108.30558397 50.58608704 -107 48.3125 C-106.36384766 47.09240234 -106.36384766 47.09240234 -105.71484375 45.84765625 C-94.88305359 26.26595204 -75.4801979 14.67332723 -55 7.3125 C-53.95714844 6.92964844 -52.91429687 6.54679688 -51.83984375 6.15234375 C-35.31554501 0.76710141 -17.24276133 0.06008333 0 0 Z " fill="#0A0603" transform="translate(195,131.6875)"/>
<path d="M0 0 C1.32 0.33 2.64 0.66 4 1 C4.7109375 2.5390625 4.7109375 2.5390625 5 5 C3.98105105 7.59206313 2.91521286 9.92356631 1.625 12.375 C1.25995361 13.08180908 0.89490723 13.78861816 0.51879883 14.5168457 C-17.5603414 48.89451737 -47.7388848 75.84648845 -84.97973633 87.66723633 C-85.87329834 87.94204834 -86.76686035 88.21686035 -87.6875 88.5 C-88.54947998 88.76772217 -89.41145996 89.03544434 -90.29956055 89.3112793 C-91.11207275 89.54886963 -91.92458496 89.78645996 -92.76171875 90.03125 C-93.843927 90.34932617 -93.843927 90.34932617 -94.94799805 90.67382812 C-97.25961135 91.041266 -98.79005652 90.71394825 -101 90 C-101.33 88.68 -101.66 87.36 -102 86 C-97.65347492 84.05234553 -93.34365988 82.42164777 -88.79711914 81.01000977 C-52.02007604 69.53049353 -22.82552816 43.92202126 -5 10 C-3.28908058 6.68692376 -1.61154095 3.36254218 0 0 Z " fill="#000000" transform="translate(371,367)"/>
<path d="M0 0 C5.79936521 3.82511322 9.15296981 8.1923033 10.9375 14.9375 C12.36215464 29.69758468 8.10587623 40.72140162 -0.0625 52.9375 C-1.64683285 54.83077776 -3.17677332 56.33748948 -5.0625 57.9375 C-6.3825 57.2775 -7.7025 56.6175 -9.0625 55.9375 C-8.41893909 51.96086992 -6.42076633 49.15523851 -4.25 45.8125 C1.86886443 36.04416999 5.69710128 27.74337184 3.9375 15.9375 C2.39156843 11.97184946 0.60767006 8.94933118 -3.07421875 6.71875 C-5.7939318 5.65010047 -7.3175154 6.02250513 -10.0625 6.9375 C-11.97916667 8.02083333 -11.97916667 8.02083333 -13.0625 9.9375 C-13.45713924 13.09461388 -13.69982737 15.04524168 -11.8125 17.6875 C-9.96830604 19.0047814 -8.12908163 20.01110134 -6.0625 20.9375 C-6.0625 22.5875 -6.0625 24.2375 -6.0625 25.9375 C-9.19192457 26.39546457 -11.29475198 26.44309016 -13.984375 24.671875 C-19.87366583 19.65867702 -19.87366583 19.65867702 -20.30078125 15.765625 C-20.46759346 9.97109567 -20.1846505 6.38508344 -16.0625 1.9375 C-10.73159862 -1.61643426 -6.04647813 -2.09775772 0 0 Z " fill="#000000" transform="translate(276.0625,55.0625)"/>
<path d="M0 0 C3.17577872 2.35007625 4.68292483 3.66489811 6.125 7.3125 C6.65783238 11.49904012 6.39684149 13.74706971 4.5625 17.5625 C1.14139168 21.42221195 -2.13268111 23.11599626 -7.328125 23.48828125 C-9.52024583 23.49862144 -11.68736927 23.44643658 -13.875 23.3125 C-14.205 21.9925 -14.535 20.6725 -14.875 19.3125 C-12.01915227 17.40860151 -9.9438238 16.61787823 -6.6875 15.6875 C-5.78644531 15.42710938 -4.88539063 15.16671875 -3.95703125 14.8984375 C-3.26996094 14.70507812 -2.58289063 14.51171875 -1.875 14.3125 C-0.84843736 10.82782451 -0.84843736 10.82782451 -1.875 7.5625 C-5.04909926 5.57868797 -7.10083606 5.3125 -10.875 5.3125 C-17.52312176 7.63264988 -23.07160547 11.72568581 -28.55078125 16.0546875 C-30.875 17.3125 -30.875 17.3125 -33.66796875 17.0078125 C-34.39628906 16.77835938 -35.12460937 16.54890625 -35.875 16.3125 C-35.75 14.09765625 -35.75 14.09765625 -34.875 11.3125 C-32.88132034 9.55319637 -31.08522434 8.1729323 -28.875 6.75 C-28.28557617 6.36013916 -27.69615234 5.97027832 -27.08886719 5.56860352 C-18.73493639 0.14992988 -9.81593417 -5.05231906 0 0 Z " fill="#000000" transform="translate(338.875,110.6875)"/>
<path d="M0 0 C1.56640625 0.97265625 1.56640625 0.97265625 2.56640625 1.97265625 C2.94140625 4.28515625 2.94140625 4.28515625 2.56640625 6.97265625 C0.30043028 9.96698163 -1.56969989 10.84378811 -5.26171875 11.39453125 C-13.53899878 11.76150426 -13.53899878 11.76150426 -17.30859375 8.4375 C-18.00984375 7.62410156 -18.71109375 6.81070313 -19.43359375 5.97265625 C-20.44679687 6.39417969 -21.46 6.81570312 -22.50390625 7.25 C-23.85533555 7.80371062 -25.20690558 8.35707785 -26.55859375 8.91015625 C-27.22375 9.18794922 -27.88890625 9.46574219 -28.57421875 9.75195312 C-32.52212724 11.35821001 -36.16889744 12.44787275 -40.43359375 12.97265625 C-40.76359375 11.32265625 -41.09359375 9.67265625 -41.43359375 7.97265625 C-37.49124165 5.4426027 -33.40426682 3.61613835 -29.05859375 1.91015625 C-28.424375 1.65427734 -27.79015625 1.39839844 -27.13671875 1.13476562 C-17.46814191 -2.70306743 -9.48617072 -5.17933783 0 0 Z " fill="#422F2B" transform="translate(149.43359375,123.02734375)"/>
<path d="M0 0 C5.26170694 1.41167747 8.72171358 3.74850232 13 7 C12.56572515 11.92178161 10.30904303 14.45459675 7 18 C3.74917327 20.16721782 2.70767847 20.27221018 -1.0625 20.25 C-1.94035156 20.25515625 -2.81820312 20.2603125 -3.72265625 20.265625 C-6 20 -6 20 -8 18 C-8.63771181 13.7844765 -8.40897037 10.01166355 -6.8125 6.0625 C-4.71802222 3.67912874 -3.01488424 2.89631694 0 2 C0 1.34 0 0.68 0 0 Z " fill="#45302B" transform="translate(117,229)"/>
<path d="M0 0 C2.8125 1.625 2.8125 1.625 5 4 C5.6875 7.4375 5.6875 7.4375 5 11 C1.44055447 14.81369164 -1.81134745 16.94109132 -7 18 C-10.75 17.8125 -10.75 17.8125 -14 17 C-16 14 -16 14 -15.9375 10.625 C-14.5751007 5.35705605 -11.73064634 3.29798475 -7.5 0.125 C-4.38298516 -1.27765668 -3.18378851 -1.19392069 0 0 Z " fill="#47312C" transform="translate(256,152)"/>
<path d="M0 0 C2.475 0.495 2.475 0.495 5 1 C4.74664499 13.92110532 -4.37010777 24.55960749 -12.59765625 33.79296875 C-13.06042969 34.19128906 -13.52320313 34.58960938 -14 35 C-16.1875 34.6875 -16.1875 34.6875 -18 34 C-18.71484375 32.2421875 -18.71484375 32.2421875 -19 30 C-17.62890625 28.1328125 -17.62890625 28.1328125 -15.5625 26.125 C-8.4826588 18.62285249 -3.9196129 9.47943303 0 0 Z " fill="#000000" transform="translate(385,403)"/>
<path d="M0 0 C4.91335463 1.15608344 7.45872708 4.63053013 10.1875 8.75 C10.88671875 11.015625 10.88671875 11.015625 11.1875 12.75 C8.59469825 15.190284 6.84346008 16.62165998 3.3125 17.3125 C-0.92814185 16.54918447 -3.95645355 15.02340567 -6.8125 11.75 C-7.599494 7.67194019 -7.49747754 5.7774663 -5.1875 2.3125 C-2.8125 0.75 -2.8125 0.75 0 0 Z " fill="#46312C" transform="translate(70.8125,174.25)"/>
<path d="M0 0 C5.32228916 1.21385542 5.32228916 1.21385542 7.5625 3.8125 C7.8125 7 7.8125 7 7.5625 9.8125 C-1.95122259 15.3446244 -1.95122259 15.3446244 -6.5625 14.625 C-7.51125 14.356875 -8.46 14.08875 -9.4375 13.8125 C-10.58230053 9.80569816 -10.70339853 8.30631156 -8.6875 4.5625 C-5.81049359 1.04615884 -4.62756886 -0.25241285 0 0 Z " fill="#4A332D" transform="translate(170.4375,178.1875)"/>
<path d="M0 0 C-0.66 0.66 -1.32 1.32 -2 2 C-2.12213867 2.65637451 -2.24427734 3.31274902 -2.37011719 3.98901367 C-3 6 -3 6 -4.77832031 7.2043457 C-5.53725586 7.52491943 -6.29619141 7.84549316 -7.078125 8.17578125 C-8.32529297 8.70461914 -8.32529297 8.70461914 -9.59765625 9.24414062 C-10.47292969 9.59669922 -11.34820312 9.94925781 -12.25 10.3125 C-13.53970703 10.8703418 -13.53970703 10.8703418 -14.85546875 11.43945312 C-19.44838064 13.33960234 -22.06584155 14.32612316 -27 13 C-26.875 10.6953125 -26.875 10.6953125 -26 8 C-23.375 6.3046875 -23.375 6.3046875 -20 4.875 C-18.23849609 4.12669922 -18.23849609 4.12669922 -16.44140625 3.36328125 C-15.30574219 2.91339844 -14.17007813 2.46351562 -13 2 C-11.65228516 1.46439453 -11.65228516 1.46439453 -10.27734375 0.91796875 C-6.35804698 -0.51496279 -4.07322798 -1.3154077 0 0 Z " fill="#000000" transform="translate(135,122)"/>
<path d="M0 0 C0.68578125 0.29132813 1.3715625 0.58265625 2.078125 0.8828125 C1.78874151 6.36042852 -1.48330863 9.10960243 -5.171875 12.7578125 C-5.74550781 13.36367187 -6.31914062 13.96953125 -6.91015625 14.59375 C-8.51977493 16.20703523 -10.01376429 17.6357341 -11.921875 18.8828125 C-14.84375 18.765625 -14.84375 18.765625 -16.921875 17.8828125 C-16.63249151 12.40519648 -13.36044137 9.65602257 -9.671875 6.0078125 C-8.81142578 5.09902344 -8.81142578 5.09902344 -7.93359375 4.171875 C-3.62609903 -0.14543178 -3.62609903 -0.14543178 0 0 Z " fill="#000000" transform="translate(296.921875,103.1171875)"/>
</svg>
