<?xml version="1.0" encoding="UTF-8"?>
<svg version="1.1" xmlns="http://www.w3.org/2000/svg" width="512" height="512">
<path d="M0 0 C2.13295512 -0.00323014 4.26591004 -0.00659537 6.39886475 -0.01008606 C10.84273795 -0.01602045 15.28659188 -0.01793204 19.73046875 -0.01733398 C24.21162987 -0.01725303 28.69268809 -0.0241563 33.17382812 -0.0378418 C65.84239151 -0.13591316 98.15658 0.43973805 130.64379883 4.23535156 C133.36070622 4.55036981 136.07944147 4.84395433 138.79882812 5.13671875 C173.46697749 9.00919074 173.46697749 9.00919074 183.25 19.28515625 C190.64960252 29.09767264 196.85880416 42.67938552 196.234375 55.16796875 C198.1215625 55.01328125 198.1215625 55.01328125 200.046875 54.85546875 C202.19140625 54.6796875 202.19140625 54.6796875 204.234375 55.16796875 C207.27078573 59.33003342 208.56517686 63.89374795 210.01171875 68.765625 C210.26433975 69.59573593 210.51696075 70.42584686 210.77723694 71.28111267 C211.58180661 73.92902164 212.37720941 76.57957246 213.171875 79.23046875 C214.22007929 82.70130356 215.27212337 86.17096812 216.32421875 89.640625 C216.57618011 90.47558502 216.82814148 91.31054504 217.08773804 92.17080688 C218.76591161 97.70906198 220.54901644 103.19997898 222.47485352 108.65795898 C223.34695402 111.54001149 224.01672857 114.15757769 224.234375 117.16796875 C222.42044279 119.89278847 220.26793091 120.72626127 217.20703125 121.66796875 C216.02681396 122.03704346 216.02681396 122.03704346 214.82275391 122.41357422 C213.98921387 122.66252441 213.15567383 122.91147461 212.296875 123.16796875 C211.44528809 123.42852051 210.59370117 123.68907227 209.71630859 123.95751953 C192.22733301 129.2508892 192.22733301 129.2508892 185.234375 129.16796875 C185.25008545 129.87179688 185.2657959 130.575625 185.28198242 131.30078125 C185.54579357 144.94326821 185.60636954 157.88070454 182.234375 171.16796875 C183.41773438 171.33039063 183.41773438 171.33039063 184.625 171.49609375 C187.234375 172.16796875 187.234375 172.16796875 188.984375 174.91796875 C194.32402202 188.801051 190.67374634 204.99638287 188.234375 219.16796875 C189.27207031 219.42707031 190.30976563 219.68617188 191.37890625 219.953125 C208.16642876 224.78148804 223.85877046 242.98158326 232.37109375 257.75 C238.82275267 269.64780081 243.02597999 283.4271088 239.109375 296.85546875 C234.97245417 307.3979444 228.48952971 313.98189077 218.12109375 318.53515625 C203.67914782 323.61745854 185.59165848 327.16796875 170.234375 327.16796875 C170.07880127 327.91780029 169.92322754 328.66763184 169.76293945 329.44018555 C162.55863628 363.84370747 162.55863628 363.84370747 157.234375 369.16796875 C154.6328125 369.58203125 154.6328125 369.58203125 151.609375 369.79296875 C150.60648437 369.86773437 149.60359375 369.9425 148.5703125 370.01953125 C147.79945313 370.06851562 147.02859375 370.1175 146.234375 370.16796875 C145.97527344 371.53501953 145.97527344 371.53501953 145.7109375 372.9296875 C140.57212258 397.50690911 125.7017194 425.12443316 105.05859375 440.01171875 C103.17199531 441.20750705 101.24949803 442.20711539 99.234375 443.16796875 C99.5025 444.34359375 99.770625 445.51921875 100.046875 446.73046875 C100.22605469 447.560625 100.40523438 448.39078125 100.58984375 449.24609375 C101.043901 451.30448661 101.52857364 453.35624424 102.03515625 455.40234375 C103.75740513 462.87902607 104.54562259 469.94597067 104.609375 477.60546875 C104.62307129 478.43344971 104.63676758 479.26143066 104.65087891 480.11450195 C104.59911624 487.06119163 103.35470212 492.67658438 98.734375 498.10546875 C94.88311968 501.28275439 91.56147448 501.53451462 86.75390625 501.42578125 C77.18094584 500.44622251 70.68030637 494.99142543 64.60009766 487.88378906 C55.94471349 477.00963105 49.61054389 464.29647543 45.234375 451.16796875 C26.424375 450.83796875 7.614375 450.50796875 -11.765625 450.16796875 C-12.755625 454.12796875 -13.745625 458.08796875 -14.765625 462.16796875 C-15.9435436 465.00009477 -17.09540118 467.60410436 -18.515625 470.29296875 C-19.03733276 471.30689697 -19.03733276 471.30689697 -19.56958008 472.34130859 C-22.51973126 477.95483724 -25.88720038 483.14713688 -29.765625 488.16796875 C-30.18328125 488.74933594 -30.6009375 489.33070313 -31.03125 489.9296875 C-35.34480729 495.63796165 -40.67978286 499.15570559 -47.765625 500.16796875 C-52.63884222 500.41499819 -56.57152582 499.71438611 -60.765625 497.16796875 C-66.77642721 491.69146007 -68.61302206 485.0715943 -69.05078125 477.08203125 C-69.3873625 465.92728953 -68.31210192 454.80739951 -64.765625 444.16796875 C-65.59964844 443.88824219 -66.43367187 443.60851562 -67.29296875 443.3203125 C-74.87515695 440.61921224 -80.86730143 437.66905828 -86.765625 432.16796875 C-87.29414063 431.69230469 -87.82265625 431.21664063 -88.3671875 430.7265625 C-102.34839227 416.40891163 -108.765625 389.50738291 -108.765625 370.16796875 C-109.72984375 370.04421875 -110.6940625 369.92046875 -111.6875 369.79296875 C-113.58242187 369.48359375 -113.58242187 369.48359375 -115.515625 369.16796875 C-116.76859375 368.98234375 -118.0215625 368.79671875 -119.3125 368.60546875 C-123.22017544 366.97874413 -124.24109175 365.54721692 -125.86230469 361.6953125 C-127.69997651 356.55380474 -129.40234901 351.3842278 -131.015625 346.16796875 C-131.37914062 345.01167969 -131.74265625 343.85539062 -132.1171875 342.6640625 C-133.00601392 339.83385206 -133.88864787 337.00186865 -134.765625 334.16796875 C-135.76303711 334.03745117 -136.76044922 333.90693359 -137.78808594 333.77246094 C-141.54706106 333.27735633 -145.30377932 332.76659023 -149.06005859 332.25146484 C-150.67505797 332.03212808 -152.29061356 331.816842 -153.90673828 331.60595703 C-168.65176362 329.67712855 -184.34713247 327.25966844 -195.140625 315.98046875 C-202.50950986 306.30880737 -202.99729609 294.84241339 -201.765625 283.16796875 C-199.35097999 270.45716889 -192.8987319 260.00939948 -184.765625 250.16796875 C-183.88003906 248.97494141 -183.88003906 248.97494141 -182.9765625 247.7578125 C-180.2754562 244.59379576 -177.29569563 242.14503393 -174.015625 239.60546875 C-173.39453857 239.12166748 -172.77345215 238.63786621 -172.13354492 238.1394043 C-161.71646697 230.16796875 -161.71646697 230.16796875 -155.765625 230.16796875 C-155.94738281 229.20761719 -156.12914062 228.24726563 -156.31640625 227.2578125 C-159.63211706 209.3485235 -162.0568312 191.376637 -162.765625 173.16796875 C-158.805625 173.16796875 -154.845625 173.16796875 -150.765625 173.16796875 C-150.96478516 171.69263672 -150.96478516 171.69263672 -151.16796875 170.1875 C-152.67334057 158.53011689 -153.3294583 146.91003555 -153.765625 135.16796875 C-154.9515625 135.04808594 -156.1375 134.92820313 -157.359375 134.8046875 C-166.93261426 133.59749866 -175.5492459 129.51227787 -182.765625 123.16796875 C-182.14993279 118.49356871 -181.47162493 113.82946357 -180.765625 109.16796875 C-180.63140137 108.27867676 -180.49717773 107.38938477 -180.35888672 106.47314453 C-175.38619129 74.17540512 -175.38619129 74.17540512 -166.765625 67.16796875 C-163.81297285 66.81241378 -161.72310669 67.51632024 -158.765625 68.16796875 C-158.66765625 67.25917969 -158.5696875 66.35039063 -158.46875 65.4140625 C-156.41658869 48.16529283 -152.54825643 27.67280453 -138.8046875 15.57421875 C-126.72445255 7.24302223 -106.73529289 7.24791747 -92.515625 5.60546875 C-91.59520416 5.49746948 -90.67478333 5.38947021 -89.72647095 5.27819824 C-74.43008104 3.4877988 -59.1467827 2.00986961 -43.765625 1.16796875 C-43.06417044 1.12837697 -42.36271587 1.08878519 -41.64000511 1.04799366 C-27.75285201 0.27556794 -13.90694712 0.00507892 0 0 Z M-107.48144531 18.81054688 C-109.96431904 19.19905982 -112.44837554 19.49362199 -114.9453125 19.77734375 C-124.63019257 20.58991441 -124.63019257 20.58991441 -133.015625 24.91796875 C-142.21692624 37.10210941 -147.24032955 54.49449873 -150.765625 69.16796875 C-146.65356461 69.71502249 -142.53979396 70.24652955 -138.42431641 70.76708984 C-136.38482286 71.02773537 -134.3466564 71.29870494 -132.30859375 71.5703125 C-104.27508071 75.17434693 -76.08881457 75.54254597 -47.87086487 75.48562241 C-45.09583305 75.4803842 -42.32081251 75.47846836 -39.54577637 75.47695923 C-6.93103752 75.44620143 25.52534585 74.4672679 58.07623291 72.37042236 C61.07181428 72.17838975 64.06774965 71.99385125 67.06396484 71.81201172 C107.36607976 69.34287322 147.43715842 65.00927786 187.234375 58.16796875 C185.32488954 45.86214871 185.32488954 45.86214871 180.796875 34.35546875 C180.22066406 33.23527344 179.64445312 32.11507812 179.05078125 30.9609375 C173.59269909 22.56840256 161.56021447 21.05702407 152.30859375 19.0625 C112.96121669 11.16773755 72.1560933 10.8124117 32.17431641 10.90722656 C27.33591327 10.91860387 22.49773072 10.91184352 17.65933514 10.90034389 C-23.96277074 10.81662385 -66.36110927 11.79044528 -107.48144531 18.81054688 Z M191.06307983 67.44090271 C178.65412845 70.09636373 166.21319546 71.70513734 153.609375 73.10546875 C152.50299683 73.2304776 151.39661865 73.35548645 150.25671387 73.48428345 C104.02792652 78.69102114 57.70895809 82.15933805 11.234375 84.16796875 C9.93040771 84.22437531 9.93040771 84.22437531 8.60009766 84.28192139 C-48.71284958 86.71649652 -108.51741043 87.84053874 -164.765625 75.16796875 C-165.74470499 80.61221798 -166.72328715 86.05655637 -167.70141602 91.50097656 C-168.03396273 93.35158687 -168.36664344 95.2021731 -168.69946289 97.05273438 C-169.17890422 99.71868615 -169.65785734 102.38472525 -170.13671875 105.05078125 C-170.28467392 105.87289093 -170.43262909 106.69500061 -170.58506775 107.54202271 C-171.33972903 111.74638973 -172.07490361 115.95249313 -172.765625 120.16796875 C-136.48517194 130.94104206 -98.55120359 135.41376558 -60.765625 136.16796875 C-60.3634375 134.96140625 -60.3634375 134.96140625 -59.953125 133.73046875 C-59.56125 132.88484375 -59.169375 132.03921875 -58.765625 131.16796875 C-57.775625 130.83796875 -56.785625 130.50796875 -55.765625 130.16796875 C-55.435625 132.14796875 -55.105625 134.12796875 -54.765625 136.16796875 C-43.875625 136.16796875 -32.985625 136.16796875 -21.765625 136.16796875 C-20.775625 131.21796875 -19.785625 126.26796875 -18.765625 121.16796875 C-17.445625 120.83796875 -16.125625 120.50796875 -14.765625 120.16796875 C-13.775625 128.08796875 -13.775625 128.08796875 -12.765625 136.16796875 C-2.865625 136.16796875 7.034375 136.16796875 17.234375 136.16796875 C17.564375 121.97796875 17.894375 107.78796875 18.234375 93.16796875 C19.554375 93.16796875 20.874375 93.16796875 22.234375 93.16796875 C23.224375 114.45296875 23.224375 114.45296875 24.234375 136.16796875 C35.9486772 136.18681014 35.9486772 136.18681014 47.609375 135.66796875 C48.73085938 135.59642578 48.73085938 135.59642578 49.875 135.5234375 C51.66171635 135.4089044 53.44809199 135.28907268 55.234375 135.16796875 C55.234375 130.54796875 55.234375 125.92796875 55.234375 121.16796875 C56.224375 121.49796875 57.214375 121.82796875 58.234375 122.16796875 C58.564375 126.45796875 58.894375 130.74796875 59.234375 135.16796875 C104.97753382 132.07326401 149.84574484 126.72266245 194.671875 116.85546875 C195.45479919 116.68470825 196.23772339 116.51394775 197.04437256 116.3380127 C199.23363671 115.85708951 201.41994071 115.36478231 203.60546875 114.8671875 C204.84224365 114.58705811 206.07901855 114.30692871 207.35327148 114.01831055 C210.33247704 113.38854835 210.33247704 113.38854835 212.234375 111.16796875 C211.89442505 110.19525024 211.89442505 110.19525024 211.54760742 109.20288086 C207.29524403 96.95958632 203.24136832 85.00609129 201.234375 72.16796875 C201.04746094 71.04648438 200.86054688 69.925 200.66796875 68.76953125 C200.52488281 67.91101563 200.38179688 67.0525 200.234375 66.16796875 C197.03760851 66.16796875 194.17784462 66.77200436 191.06307983 67.44090271 Z M163.7265625 133.33984375 C162.01614609 133.5931578 160.30569537 133.8462403 158.59521484 134.09912109 C157.70002136 134.23292175 156.80482788 134.36672241 155.88250732 134.50457764 C135.38104192 137.56073314 114.85138984 140.04254264 94.234375 142.16796875 C94.24597656 143.03679687 94.25757813 143.905625 94.26953125 144.80078125 C94.27855469 145.95320312 94.28757812 147.105625 94.296875 148.29296875 C94.30847656 149.42992187 94.32007813 150.566875 94.33203125 151.73828125 C94.239702 154.98088435 93.84827406 157.98729487 93.234375 161.16796875 C92.244375 161.16796875 91.254375 161.16796875 90.234375 161.16796875 C89.234375 155.16796875 89.234375 155.16796875 89.234375 142.16796875 C79.334375 142.82796875 69.434375 143.48796875 59.234375 144.16796875 C59.27357402 150.3446515 59.27357402 150.3446515 59.32446289 156.52124023 C59.34227382 162.15236816 58.95598259 167.58261237 58.234375 173.16796875 C57.244375 172.83796875 56.254375 172.50796875 55.234375 172.16796875 C54.904375 163.25796875 54.574375 154.34796875 54.234375 145.16796875 C49.036875 145.13703125 49.036875 145.13703125 43.734375 145.10546875 C42.65865234 145.09636475 41.58292969 145.08726074 40.47460938 145.07788086 C34.96119746 145.06211372 29.68697087 145.34358818 24.234375 146.16796875 C24.19679077 147.04533691 24.19679077 147.04533691 24.15844727 147.94042969 C24.04214538 150.59981346 23.91957433 153.25887278 23.796875 155.91796875 C23.75755859 156.83835938 23.71824219 157.75875 23.67773438 158.70703125 C23.63583984 159.59648437 23.59394531 160.4859375 23.55078125 161.40234375 C23.49579468 162.62775879 23.49579468 162.62775879 23.43969727 163.87792969 C23.24303225 166.07141105 22.83136906 168.05193288 22.234375 170.16796875 C21.244375 170.16796875 20.254375 170.16796875 19.234375 170.16796875 C16.76042441 162.25132686 16.64678227 154.41611408 16.234375 146.16796875 C6.994375 146.16796875 -2.245625 146.16796875 -11.765625 146.16796875 C-12.755625 156.72796875 -13.745625 167.28796875 -14.765625 178.16796875 C-16.415625 178.16796875 -18.065625 178.16796875 -19.765625 178.16796875 C-20.57137774 170.96463808 -21.03299914 163.78375771 -21.328125 156.54296875 C-21.5446875 151.40734375 -21.5446875 151.40734375 -21.765625 146.16796875 C-32.655625 145.83796875 -43.545625 145.50796875 -54.765625 145.16796875 C-55.095625 151.76796875 -55.425625 158.36796875 -55.765625 165.16796875 C-57.085625 165.16796875 -58.405625 165.16796875 -59.765625 165.16796875 C-60.095625 158.56796875 -60.425625 151.96796875 -60.765625 145.16796875 C-65.26316406 144.80445313 -65.26316406 144.80445313 -69.8515625 144.43359375 C-90.45438462 142.74745504 -111.02005592 140.98414041 -131.53076172 138.38769531 C-132.80580566 138.2275293 -134.08084961 138.06736328 -135.39453125 137.90234375 C-136.48838135 137.76022461 -137.58223145 137.61810547 -138.70922852 137.47167969 C-141.7502428 137.16949726 -144.71186818 137.11409747 -147.765625 137.16796875 C-147.64968994 137.72033203 -147.53375488 138.27269531 -147.41430664 138.84179688 C-144.96767954 150.64820929 -143.10698437 162.10091498 -142.765625 174.16796875 C-106.94765032 182.86517021 -69.93844931 184.40144368 -33.25390625 185.8359375 C-32.38343658 185.87014297 -31.51296692 185.90434845 -30.61611938 185.93959045 C-22.11990275 186.38505664 -22.11990275 186.38505664 -13.765625 185.16796875 C-13.435625 185.49796875 -13.105625 185.82796875 -12.765625 186.16796875 C-10.85240482 186.26881477 -8.93540636 186.29879162 -7.01953125 186.30078125 C-5.80088379 186.30271484 -4.58223633 186.30464844 -3.32666016 186.30664062 C-2.00714355 186.30212891 -0.68762695 186.29761719 0.671875 186.29296875 C1.33777649 186.29208252 2.00367798 186.29119629 2.6897583 186.2902832 C16.21839424 186.26918718 29.72145488 185.8171967 43.234375 185.16796875 C43.234375 183.84796875 43.234375 182.52796875 43.234375 181.16796875 C45.71476326 181.61089522 47.04352711 181.99499062 48.93701172 183.71118164 C52.17829969 185.76652333 54.43359507 185.38753948 58.2421875 185.1640625 C58.94289871 185.12649841 59.64360992 185.08893433 60.36555481 185.05023193 C62.69821777 184.91934255 65.02840026 184.76345151 67.359375 184.60546875 C69.01503095 184.50326624 70.67071188 184.40146778 72.32641602 184.30004883 C123.08517849 181.16016141 123.08517849 181.16016141 173.234375 173.16796875 C173.88748794 168.77318584 174.5304864 164.37697679 175.171875 159.98046875 C175.35427734 158.75392578 175.53667969 157.52738281 175.72460938 156.26367188 C176.88865058 148.24236973 177.72512087 140.25737287 178.234375 132.16796875 C173.30151336 132.02159303 168.58842438 132.59466461 163.7265625 133.33984375 Z M-153.765625 182.16796875 C-153.12193601 191.3572727 -151.81858348 200.43536307 -150.40136719 209.53125 C-150.14275563 211.21517134 -149.89284546 212.90045053 -149.65136719 214.58691406 C-149.29780982 217.05228578 -148.91753635 219.51222665 -148.53125 221.97265625 C-148.42895081 222.72167206 -148.32665161 223.47068787 -148.22125244 224.24240112 C-147.36428782 229.42662968 -145.64902319 231.73725071 -141.765625 235.16796875 C-138.94264763 241.71214356 -139.54569706 248.50818493 -141.765625 255.16796875 C-142.12671083 261.15441698 -141.05583318 266.58520149 -139.82421875 272.40234375 C-139.6212619 273.38524887 -139.41830505 274.36815399 -139.209198 275.38084412 C-138.54896074 278.56172115 -137.87714322 281.73998524 -137.203125 284.91796875 C-136.97531342 286.00042877 -136.74750183 287.08288879 -136.51278687 288.19815063 C-131.95893104 309.97010051 -131.95893104 309.97010051 -126.3125 331.4765625 C-125.17386417 335.38744168 -124.44156754 339.16670019 -123.90625 343.203125 C-122.9570391 348.91751809 -122.01500793 353.9859528 -117.765625 358.16796875 C-108.55891053 362.7571204 -97.92242763 363.66869439 -87.83337402 364.90014648 C-84.68471556 365.30797202 -81.55956097 365.83984909 -78.4296875 366.37109375 C-64.62750827 368.66884513 -50.72692134 370.24673182 -36.765625 371.16796875 C-36.12678375 371.21033661 -35.4879425 371.25270447 -34.82974243 371.2963562 C-21.37002252 372.16311204 -7.93819236 372.36856876 5.546875 372.35546875 C6.60863953 372.35519684 7.67040405 372.35492493 8.76434326 372.35464478 C57.43047411 372.29784384 105.29268617 367.2997175 153.234375 359.16796875 C160.10797818 332.64456218 166.4899828 306.15950268 171.234375 279.16796875 C171.35941406 278.46224731 171.48445313 277.75652588 171.61328125 277.02941895 C175.41655979 255.78355893 175.41655979 255.78355893 176.99609375 234.28515625 C177.234375 231.16796875 177.234375 231.16796875 178.19604492 228.96240234 C179.49933427 225.45489004 179.79854692 222.03776654 180.0859375 218.33984375 C180.18157486 217.21718109 180.18157486 217.21718109 180.27914429 216.07183838 C180.41212634 214.49204695 180.5413342 212.91193382 180.66699219 211.33154297 C180.85770217 208.93895551 181.06063363 206.54765172 181.265625 204.15625 C181.88042699 196.81888447 182.42115829 189.53741856 182.234375 182.16796875 C177.47240133 182.65990818 172.74520061 183.22261108 168.015625 183.96484375 C144.58246264 187.5681783 120.96567557 189.33265119 97.35134888 191.31115723 C86.64073374 192.21012629 75.93689075 193.17769067 65.234375 194.16796875 C73.45554413 200.56710147 84.2154168 202.94755099 94.234375 205.16796875 C94.564375 206.81796875 94.894375 208.46796875 95.234375 210.16796875 C94.244375 210.82796875 93.254375 211.48796875 92.234375 212.16796875 C92.69780038 214.87128348 93.264938 217.24347733 94.296875 219.79296875 C95.234375 222.16796875 95.234375 222.16796875 95.234375 225.16796875 C94.574375 224.83796875 93.914375 224.50796875 93.234375 224.16796875 C89.01613835 223.59275466 87.54603198 223.95220623 83.984375 226.41796875 C80.24141205 230.1609317 78.94177043 232.75318218 78.859375 238.04296875 C78.957862 242.8125537 79.97483637 245.54625916 83.234375 249.16796875 C85.29726507 250.8624856 86.50840555 251.19741984 89.16015625 251.08984375 C92.31777442 250.7434871 95.22036237 250.17263963 98.234375 249.16796875 C95.3688198 259.52559008 92.53422746 268.90559785 84.234375 276.16796875 C83.47125 276.86921875 82.708125 277.57046875 81.921875 278.29296875 C74.73619845 283.30623146 67.48119347 284.24065475 58.9140625 282.76953125 C51.27874141 280.72103047 45.61322422 275.90906497 41.40625 269.29296875 C34.16863752 255.52042462 32.65632999 238.93899412 37.13671875 223.9140625 C40.83543702 214.66068547 45.69200821 209.09443536 54.234375 204.16796875 C55.57458245 203.17720048 56.90887821 202.17833306 58.234375 201.16796875 C53.57623529 196.95715252 50.10358519 194.47396812 43.71765137 194.63090515 C42.92910767 194.68051895 42.14056396 194.73013275 41.328125 194.78125 C39.55471564 194.83764341 37.78127628 194.89309873 36.0078125 194.94775391 C35.07227539 194.98676819 34.13673828 195.02578247 33.17285156 195.065979 C29.08573879 195.20783605 25.00254299 195.20424598 20.91333008 195.20578003 C16.61182435 195.21269077 12.31138104 195.26584563 8.01025391 195.32055664 C5.79776809 195.34413582 3.5851637 195.35822285 1.37255859 195.36352539 C-1.87211821 195.37276071 -5.11506016 195.41351588 -8.359375 195.4609375 C-9.34780396 195.45700485 -10.33623291 195.4530722 -11.35461426 195.44902039 C-16.97741877 195.48165642 -16.97741877 195.48165642 -21.41601562 198.7121582 C-21.86138672 199.52257568 -22.30675781 200.33299316 -22.765625 201.16796875 C-22.11335937 201.49667969 -21.46109375 201.82539063 -20.7890625 202.1640625 C-11.47746998 207.23187613 -7.20553444 213.44758356 -4.2109375 223.515625 C-4.06398437 224.06089844 -3.91703125 224.60617188 -3.765625 225.16796875 C-4.36503906 224.83667969 -4.96445313 224.50539062 -5.58203125 224.1640625 C-8.73502684 222.72575503 -10.48095317 223.16245696 -13.765625 224.16796875 C-17.64858865 227.43318818 -20.34068267 230.45728402 -21.13671875 235.53515625 C-21.254926 239.99921845 -21.30876945 243.17532522 -18.390625 246.73046875 C-14.70038317 250.15712188 -12.84642257 250.29365549 -7.8359375 250.3984375 C-5.45218667 250.13307656 -3.83860408 249.34389635 -1.765625 248.16796875 C-5.30398286 261.31044081 -9.312786 272.94043867 -21.765625 280.16796875 C-27.84253374 283.11961014 -34.15712203 282.89425689 -40.765625 282.16796875 C-44.3926792 280.89589889 -47.50623407 279.1821991 -50.765625 277.16796875 C-51.47460938 276.86632812 -52.18359375 276.5646875 -52.9140625 276.25390625 C-55.29048765 274.86013791 -55.70519412 273.69091054 -56.765625 271.16796875 C-57.24 270.27722656 -57.714375 269.38648438 -58.203125 268.46875 C-65.33988614 254.81969431 -67.48058362 239.98526456 -62.953125 224.98046875 C-62.2593556 223.03001385 -61.53399077 221.09026017 -60.765625 219.16796875 C-60.45753906 218.39195312 -60.14945312 217.6159375 -59.83203125 216.81640625 C-59.18028913 215.25097781 -58.48074581 213.7054785 -57.765625 212.16796875 C-58.40371094 211.9978125 -59.04179687 211.82765625 -59.69921875 211.65234375 C-60.52550781 211.41 -61.35179687 211.16765625 -62.203125 210.91796875 C-63.02683594 210.6859375 -63.85054688 210.45390625 -64.69921875 210.21484375 C-66.765625 209.16796875 -66.765625 209.16796875 -67.55078125 207.18359375 C-67.765625 205.16796875 -67.765625 205.16796875 -67.765625 203.16796875 C-66.8523645 203.1539502 -66.8523645 203.1539502 -65.9206543 203.13964844 C-48.08836881 203.6483958 -48.08836881 203.6483958 -32.765625 196.16796875 C-36.86265492 195.21663694 -40.81303325 194.94731632 -45.01171875 194.7734375 C-46.48432504 194.70732048 -47.95689867 194.64047314 -49.42944336 194.57299805 C-50.59393509 194.52071548 -50.59393509 194.52071548 -51.7819519 194.46737671 C-82.40183811 193.05210864 -112.61499202 189.6912426 -142.765625 184.16796875 C-144.87629689 183.78512762 -146.98697363 183.40231321 -149.09765625 183.01953125 C-150.65368792 182.73590791 -152.20969475 182.45214797 -153.765625 182.16796875 Z M185.234375 231.16796875 C183.85856815 232.33712282 183.85856815 232.33712282 183.8359375 235.56640625 C183.91126637 241.39270477 186.79592236 245.8412921 189.609375 250.79296875 C198.70692513 267.18703116 198.70692513 267.18703116 197.234375 276.16796875 C193.24233226 283.43918945 184.84236556 286.6319719 177.234375 289.16796875 C175.584375 298.07796875 173.934375 306.98796875 172.234375 316.16796875 C200.6460888 314.09747991 200.6460888 314.09747991 225.109375 301.41796875 C230.27153855 293.52289508 231.11442483 286.40574445 229.234375 277.16796875 C223.89735168 259.96599277 212.5275203 247.6465228 198.421875 237.04296875 C197.79990234 236.56923828 197.17792969 236.09550781 196.53710938 235.60742188 C192.83016492 232.91760258 189.94840804 231.40754591 185.234375 231.16796875 Z M-159.328125 242.60546875 C-159.95146729 243.05921875 -160.57480957 243.51296875 -161.21704102 243.98046875 C-176.47976825 255.24464776 -187.48172888 268.51014086 -191.25 287.625 C-192.12285686 295.3651866 -191.64611581 301.79139058 -187.265625 308.41796875 C-178.59953278 318.89644083 -163.58211314 319.87635561 -150.93457031 321.08325195 C-146.54722221 321.47560783 -142.15791379 321.8356535 -137.765625 322.16796875 C-138.43228987 316.33465116 -139.33396981 310.60650833 -140.515625 304.85546875 C-140.66 304.05818359 -140.804375 303.26089844 -140.953125 302.43945312 C-141.88785802 297.73149146 -141.88785802 297.73149146 -145.08203125 294.3125 C-145.96761719 293.93480469 -146.85320312 293.55710937 -147.765625 293.16796875 C-149.49673978 292.17134495 -151.22592633 291.17136404 -152.953125 290.16796875 C-153.81292969 289.67296875 -154.67273438 289.17796875 -155.55859375 288.66796875 C-157.765625 287.16796875 -157.765625 287.16796875 -159.765625 284.16796875 C-160.94504616 275.06957694 -156.76653361 266.90584342 -152.6171875 259.01953125 C-152.24980469 258.31699219 -151.88242188 257.61445313 -151.50390625 256.890625 C-150.77725756 255.52146588 -150.03311479 254.16140889 -149.26953125 252.8125 C-146.82796259 248.25428627 -146.36330626 245.35268848 -147.765625 240.16796875 C-148.425625 239.50796875 -149.085625 238.84796875 -149.765625 238.16796875 C-153.87971757 238.16796875 -156.13304625 240.2640891 -159.328125 242.60546875 Z M-23.765625 252.16796875 C-24.095625 253.15796875 -24.425625 254.14796875 -24.765625 255.16796875 C-23.775625 254.83796875 -22.785625 254.50796875 -21.765625 254.16796875 C-22.425625 253.50796875 -23.085625 252.84796875 -23.765625 252.16796875 Z M75.234375 253.16796875 C75.234375 254.15796875 75.234375 255.14796875 75.234375 256.16796875 C76.224375 255.83796875 77.214375 255.50796875 78.234375 255.16796875 C77.904375 254.50796875 77.574375 253.84796875 77.234375 253.16796875 C76.574375 253.16796875 75.914375 253.16796875 75.234375 253.16796875 Z M183.234375 258.16796875 C181.3993861 260.00295765 181.54972909 262.87842525 181.171875 265.35546875 C180.99527344 266.48339844 180.81867188 267.61132812 180.63671875 268.7734375 C180.26072963 271.94561756 180.16176182 274.97782957 180.234375 278.16796875 C184.689375 275.69296875 184.689375 275.69296875 189.234375 273.16796875 C188.7532259 267.3941795 187.04970319 263.20937039 184.234375 258.16796875 C183.904375 258.16796875 183.574375 258.16796875 183.234375 258.16796875 Z M-148.765625 271.16796875 C-151.05607514 275.98006776 -151.05607514 275.98006776 -151.765625 281.16796875 C-149.785625 281.82796875 -147.805625 282.48796875 -145.765625 283.16796875 C-146.425625 279.20796875 -147.085625 275.24796875 -147.765625 271.16796875 C-148.095625 271.16796875 -148.425625 271.16796875 -148.765625 271.16796875 Z M-100.765625 372.16796875 C-99.30297193 377.25789398 -97.82747163 382.34386139 -96.34057617 387.42675781 C-95.83778443 389.15199517 -95.33835715 390.87821711 -94.8425293 392.60546875 C-88.62040969 415.078581 -88.62040969 415.078581 -72.390625 430.98046875 C-46.22258833 442.46598711 -13.98698455 440.66581291 13.98706055 440.55908203 C18.52160935 440.54195244 23.05563126 440.55217459 27.59016228 440.56941128 C69.54590523 442.7424952 69.54590523 442.7424952 106.234375 427.16796875 C106.87503906 426.554375 107.51570312 425.94078125 108.17578125 425.30859375 C117.21719453 415.89561554 122.99099358 403.9966395 128.609375 392.35546875 C129.02622559 391.49663086 129.44307617 390.63779297 129.87255859 389.75292969 C132.57270308 384.02241514 134.58438121 378.28241162 136.234375 372.16796875 C128.68899356 372.71868964 121.17323546 373.47653752 113.65234375 374.2890625 C112.67153839 374.39433258 111.69073303 374.49960266 110.6802063 374.60806274 C106.59360137 375.04694303 102.50705054 375.48599259 98.42163086 375.93579102 C69.99854577 379.05672988 41.77663928 380.5290493 13.20214844 380.48364258 C10.06398158 380.47901617 6.92620293 380.48594539 3.78808594 380.50415039 C-29.08095722 380.69265298 -61.24534343 377.87359514 -93.765625 373.16796875 C-96.09891716 372.83434736 -98.43224064 372.50094467 -100.765625 372.16796875 Z M-54.765625 445.16796875 C-59.54126968 449.94361343 -58.01763688 465.21715115 -58.078125 471.66796875 C-58.09560791 472.61115967 -58.11309082 473.55435059 -58.13110352 474.52612305 C-58.12690521 479.75300801 -57.94832354 483.78569102 -54.765625 488.16796875 C-51.94787859 489.92041332 -50.61480744 490.36190928 -47.37109375 489.62109375 C-35.35556428 483.64244581 -29.18384139 472.44264805 -24.765625 460.16796875 C-23.68638368 456.5207303 -22.70281296 452.8540732 -21.765625 449.16796875 C-26.44616779 448.57299414 -31.12753033 447.98516498 -35.80981445 447.40405273 C-37.40381306 447.20518909 -38.99756602 447.00434626 -40.59106445 446.80151367 C-42.87650439 446.5109495 -45.16272225 446.2274255 -47.44921875 445.9453125 C-48.16589218 445.8526561 -48.88256561 445.75999969 -49.62095642 445.66453552 C-51.33127071 445.45700545 -53.04835022 445.30657269 -54.765625 445.16796875 Z M79.796875 446.04296875 C73.43747606 446.9253664 67.12821782 447.5057433 60.7109375 447.82421875 C58.06211068 447.93811517 58.06211068 447.93811517 56.234375 450.16796875 C65.71045086 473.79770244 65.71045086 473.79770244 83.921875 490.66796875 C86.75764727 491.2811087 88.49114572 491.10644192 91.234375 490.16796875 C93.70627351 488.22576278 94.21350336 487.23058368 95.234375 484.16796875 C96.2608458 471.1603961 93.87278864 458.8548088 91.234375 446.16796875 C87.24348347 445.00775606 83.85111953 445.44576476 79.796875 446.04296875 Z " fill="#851818" transform="translate(236.765625,5.83203125)"/>
<path d="M0 0 C1.01578125 -0.02449219 2.0315625 -0.04898437 3.078125 -0.07421875 C11.94531715 -0.10832334 19.3148504 1.72892558 26.0625 7.6875 C37.31825594 19.98924538 46.62051451 38.49183434 46 55.375 C45.29837932 60.81256026 43.48472611 63.7891135 39.2421875 67.08984375 C27.56806535 73.78110888 11.61169601 72.58284729 -1.44165039 72.61523438 C-3.79804806 72.62494047 -6.15357118 72.6560677 -8.50976562 72.6875 C-33.63181889 72.86231994 -33.63181889 72.86231994 -42 65.375 C-46.46209524 60.66501058 -48.07634085 56.16736822 -48.3125 49.75 C-47.89754479 36.37263428 -41.89094635 25.27922029 -35.98388672 13.56640625 C-34.93320867 11.42367601 -34.93320867 11.42367601 -34.51196289 9.17822266 C-34 7.375 -34 7.375 -31.62890625 5.9609375 C-30.11103516 5.36152344 -30.11103516 5.36152344 -28.5625 4.75 C-27.57378906 4.34523438 -26.58507812 3.94046875 -25.56640625 3.5234375 C-17.05999662 0.78424316 -8.90998682 0.01130709 0 0 Z M-35 42.375 C-36.74279787 45.86059574 -36.57244285 49.57187395 -36 53.375 C-33.35618989 57.14042652 -30.66346772 59.03062615 -26.14453125 60.0390625 C-9.63858566 62.62469332 16.57219503 65.7763179 31.8125 57.6875 C34.24277252 55.52334986 34.24277252 55.52334986 34.625 52.375 C34.06984043 46.8234043 32.62638397 41.29763587 30 36.375 C27.4582121 34.43350669 25.12725687 33.84798369 22 33.375 C21.11570312 33.1996875 20.23140625 33.024375 19.3203125 32.84375 C0.92333072 30.24652904 -18.85728478 32.81501637 -35 42.375 Z " fill="#851818" transform="translate(259,295.625)"/>
<path d="M0 0 C1.125 3.75 1.125 3.75 0 6 C-5.81353853 8.71847322 -11.91933842 9.57768865 -18.25 10.0625 C-19.1572583 10.13919922 -20.0645166 10.21589844 -20.99926758 10.29492188 C-23.99864431 10.54245913 -26.99912845 10.77136671 -30 11 C-30.9885498 11.0810498 -31.97709961 11.16209961 -32.99560547 11.24560547 C-101.61542315 16.85726918 -173.38703217 19.861758 -242.0625 13.6875 C-243.26430908 13.58211914 -244.46611816 13.47673828 -245.7043457 13.36816406 C-255.76485521 12.33048523 -267.52452454 10.87564865 -276 5 C-276 4.67 -276 4.34 -276 4 C-272.97905091 4.12251448 -269.9582705 4.24819527 -266.9375 4.375 C-265.90625 4.41681396 -264.875 4.45862793 -263.8125 4.50170898 C-257.63002589 4.76303466 -251.4589727 5.0918717 -245.28515625 5.51171875 C-171.45896574 10.36412411 -95.42879081 8.01684527 -21.99436951 -0.37414551 C-14.51235582 -1.21946285 -7.37725677 -1.62925282 0 0 Z " fill="#851818" transform="translate(393,32)"/>
</svg>
