<?xml version="1.0" encoding="UTF-8"?>
<svg version="1.1" xmlns="http://www.w3.org/2000/svg" width="512" height="512">
<path d="M0 0 C2.24666407 -0.00706645 4.49332338 -0.01581451 6.73997498 -0.02610779 C12.81440231 -0.04852933 18.88856819 -0.04567895 24.96302104 -0.03678632 C30.0449119 -0.03166118 35.12675429 -0.03898135 40.20864016 -0.04625839 C52.88647513 -0.06420322 65.5641281 -0.05787028 78.2419473 -0.04008859 C89.22559999 -0.02539496 100.20897903 -0.04002199 111.19259649 -0.06885875 C122.5011104 -0.0983249 133.80946325 -0.10869722 145.11802679 -0.09967655 C151.45474537 -0.0947592 157.79125134 -0.09689874 164.12794304 -0.11746407 C170.08797373 -0.13588273 176.04749777 -0.12978645 182.0075016 -0.10526466 C184.18706386 -0.10027659 186.36666513 -0.10369405 188.54619598 -0.11641312 C205.97863438 -0.21004883 218.67000592 1.78620162 231.66040039 14.40844727 C241.31677081 24.68647244 244.09297286 36.35224309 244.04321289 50.09594727 C244.05932617 50.98991211 244.07543945 51.88387695 244.09204102 52.80493164 C244.09813696 61.13808248 242.23366465 67.77382104 236.45336914 73.99438477 C230.62443312 79.20209631 224.35190925 80.22110315 216.73071289 80.53344727 C216.73071289 82.84344727 216.73071289 85.15344727 216.73071289 87.53344727 C217.49383789 87.63657227 218.25696289 87.73969727 219.04321289 87.84594727 C222.11880763 88.63272732 222.98950479 88.90090645 224.73071289 91.53344727 C224.70334908 93.51837601 224.66161774 95.50449498 224.53540039 97.4855957 C223.81747164 112.71166796 231.97914468 124.02419716 239.76342773 136.38500977 C242.30668371 140.4552293 244.69700126 144.59759242 247.04321289 148.78344727 C247.6993457 149.92297852 248.35547852 151.06250977 249.03149414 152.23657227 C254.76354718 163.35807287 256.86077625 175.32020458 253.16821289 187.47094727 C252.37415658 189.83347522 251.56207067 192.18423613 250.73071289 194.53344727 C243.21720707 216.09066936 237.31243653 237.96499465 233.73071289 260.53344727 C233.57973145 261.46737305 233.42875 262.40129883 233.27319336 263.36352539 C224.85284879 317.9731387 232.12550202 375.74994058 252.06616211 427.10546875 C258.07352804 442.77414978 257.66276572 457.22259745 254.48071289 473.47094727 C254.27631592 474.52483643 254.07191895 475.57872559 253.86132812 476.66455078 C251.03914949 490.13147119 245.95548791 499.97292753 234.58618164 507.99047852 C227.129288 512.01985333 220.2435306 512.97270011 211.85183716 512.92112732 C210.79018494 512.92651286 209.72853273 512.93189839 208.63470924 512.93744713 C205.09513899 512.95169712 201.55594428 512.94463009 198.01635742 512.9375 C195.47133077 512.94320511 192.92630668 512.95016991 190.38128662 512.95829773 C184.196482 512.97436835 178.0118149 512.9763328 171.82699575 512.97108483 C166.79725993 512.96703536 161.76755407 512.96849588 156.73781967 512.97383308 C156.02062111 512.97458151 155.30342255 512.97532993 154.5644907 512.97610103 C153.10726754 512.97763259 151.65004439 512.97917093 150.19282125 512.980716 C136.54184326 512.99442888 122.89092266 512.989012 109.23994599 512.97753078 C96.76749623 512.96760078 84.29519487 512.98053716 71.82276799 513.00446498 C58.99790379 513.02888244 46.17310863 513.03845729 33.34822166 513.03181225 C26.15530257 513.02832576 18.96249755 513.03051425 11.7695961 513.04806328 C5.00450144 513.06436463 -1.76026527 513.05956255 -8.52536774 513.04075813 C-11.00409263 513.03707573 -13.48283854 513.04017048 -15.96154404 513.05064392 C-19.35350172 513.06387877 -22.74452592 513.05228298 -26.13644409 513.03465271 C-27.10991032 513.04425772 -28.08337654 513.05386272 -29.08634174 513.06375879 C-40.05933647 512.94696034 -49.40450226 509.23469216 -57.26928711 501.53344727 C-66.23463025 491.76921217 -67.93253734 479.27683975 -70.01928711 466.65844727 C-70.14722656 465.88637939 -70.27516602 465.11431152 -70.40698242 464.31884766 C-72.63502717 449.68122131 -69.804816 437.08277582 -64.58178711 423.34594727 C-36.64589519 347.25985491 -37.91553686 266.31775719 -65.92163086 190.37719727 C-67.77894895 185.22800222 -68.46227585 180.518385 -68.58178711 175.03344727 C-68.61916992 173.93000977 -68.65655273 172.82657227 -68.69506836 171.68969727 C-68.06835019 160.62051849 -62.68332373 150.98954122 -57.08178711 141.72094727 C-56.41775879 140.58439697 -55.75373047 139.44784668 -55.06958008 138.27685547 C-52.25144736 133.46011756 -49.40564714 128.68404895 -46.32006836 124.03344727 C-40.82805387 115.53702762 -39.29655417 108.73427891 -39.51586914 98.53613281 C-39.63207525 92.070792 -39.63207525 92.070792 -37.50756836 88.92407227 C-35.26928711 87.53344727 -35.26928711 87.53344727 -31.26928711 87.53344727 C-31.26928711 85.22344727 -31.26928711 82.91344727 -31.26928711 80.53344727 C-31.89834961 80.50766602 -32.52741211 80.48188477 -33.17553711 80.45532227 C-41.11588339 79.92915474 -47.05933517 78.22652822 -52.58178711 72.28344727 C-58.12724212 65.86406668 -58.77213234 58.37516877 -58.64428711 50.28344727 C-58.63413574 49.35685303 -58.62398437 48.43025879 -58.61352539 47.47558594 C-58.29551687 33.39076674 -54.27731101 21.76892625 -44.26928711 11.53344727 C-30.62256726 0.05607659 -17.01001603 -0.05638873 0 0 Z " fill="#76C8AD" transform="translate(163.269287109375,-0.533447265625)"/>
<path d="M0 0 C2.24666407 -0.00706645 4.49332338 -0.01581451 6.73997498 -0.02610779 C12.81440231 -0.04852933 18.88856819 -0.04567895 24.96302104 -0.03678632 C30.0449119 -0.03166118 35.12675429 -0.03898135 40.20864016 -0.04625839 C52.88647513 -0.06420322 65.5641281 -0.05787028 78.2419473 -0.04008859 C89.22559999 -0.02539496 100.20897903 -0.04002199 111.19259649 -0.06885875 C122.5011104 -0.0983249 133.80946325 -0.10869722 145.11802679 -0.09967655 C151.45474537 -0.0947592 157.79125134 -0.09689874 164.12794304 -0.11746407 C170.08797373 -0.13588273 176.04749777 -0.12978645 182.0075016 -0.10526466 C184.18706386 -0.10027659 186.36666513 -0.10369405 188.54619598 -0.11641312 C205.97863438 -0.21004883 218.67000592 1.78620162 231.66040039 14.40844727 C241.31677081 24.68647244 244.09297286 36.35224309 244.04321289 50.09594727 C244.05932617 50.98991211 244.07543945 51.88387695 244.09204102 52.80493164 C244.09813696 61.13808248 242.23366465 67.77382104 236.45336914 73.99438477 C230.62443312 79.20209631 224.35190925 80.22110315 216.73071289 80.53344727 C216.73071289 82.84344727 216.73071289 85.15344727 216.73071289 87.53344727 C217.49383789 87.63657227 218.25696289 87.73969727 219.04321289 87.84594727 C222.11880763 88.63272732 222.98950479 88.90090645 224.73071289 91.53344727 C224.70334908 93.51837601 224.66161774 95.50449498 224.53540039 97.4855957 C223.81747164 112.71166796 231.97914468 124.02419716 239.76342773 136.38500977 C242.30668371 140.4552293 244.69700126 144.59759242 247.04321289 148.78344727 C247.6993457 149.92297852 248.35547852 151.06250977 249.03149414 152.23657227 C254.76354718 163.35807287 256.86077625 175.32020458 253.16821289 187.47094727 C252.37415658 189.83347522 251.56207067 192.18423613 250.73071289 194.53344727 C243.21720707 216.09066936 237.31243653 237.96499465 233.73071289 260.53344727 C233.57973145 261.46737305 233.42875 262.40129883 233.27319336 263.36352539 C224.85284879 317.9731387 232.12550202 375.74994058 252.06616211 427.10546875 C258.07352804 442.77414978 257.66276572 457.22259745 254.48071289 473.47094727 C254.27631592 474.52483643 254.07191895 475.57872559 253.86132812 476.66455078 C251.03914949 490.13147119 245.95548791 499.97292753 234.58618164 507.99047852 C227.129288 512.01985333 220.2435306 512.97270011 211.85183716 512.92112732 C210.79018494 512.92651286 209.72853273 512.93189839 208.63470924 512.93744713 C205.09513899 512.95169712 201.55594428 512.94463009 198.01635742 512.9375 C195.47133077 512.94320511 192.92630668 512.95016991 190.38128662 512.95829773 C184.196482 512.97436835 178.0118149 512.9763328 171.82699575 512.97108483 C166.79725993 512.96703536 161.76755407 512.96849588 156.73781967 512.97383308 C156.02062111 512.97458151 155.30342255 512.97532993 154.5644907 512.97610103 C153.10726754 512.97763259 151.65004439 512.97917093 150.19282125 512.980716 C136.54184326 512.99442888 122.89092266 512.989012 109.23994599 512.97753078 C96.76749623 512.96760078 84.29519487 512.98053716 71.82276799 513.00446498 C58.99790379 513.02888244 46.17310863 513.03845729 33.34822166 513.03181225 C26.15530257 513.02832576 18.96249755 513.03051425 11.7695961 513.04806328 C5.00450144 513.06436463 -1.76026527 513.05956255 -8.52536774 513.04075813 C-11.00409263 513.03707573 -13.48283854 513.04017048 -15.96154404 513.05064392 C-19.35350172 513.06387877 -22.74452592 513.05228298 -26.13644409 513.03465271 C-27.10991032 513.04425772 -28.08337654 513.05386272 -29.08634174 513.06375879 C-40.05933647 512.94696034 -49.40450226 509.23469216 -57.26928711 501.53344727 C-66.23463025 491.76921217 -67.93253734 479.27683975 -70.01928711 466.65844727 C-70.14722656 465.88637939 -70.27516602 465.11431152 -70.40698242 464.31884766 C-72.63502717 449.68122131 -69.804816 437.08277582 -64.58178711 423.34594727 C-36.64589519 347.25985491 -37.91553686 266.31775719 -65.92163086 190.37719727 C-67.77894895 185.22800222 -68.46227585 180.518385 -68.58178711 175.03344727 C-68.61916992 173.93000977 -68.65655273 172.82657227 -68.69506836 171.68969727 C-68.06835019 160.62051849 -62.68332373 150.98954122 -57.08178711 141.72094727 C-56.41775879 140.58439697 -55.75373047 139.44784668 -55.06958008 138.27685547 C-52.25144736 133.46011756 -49.40564714 128.68404895 -46.32006836 124.03344727 C-40.82805387 115.53702762 -39.29655417 108.73427891 -39.51586914 98.53613281 C-39.63207525 92.070792 -39.63207525 92.070792 -37.50756836 88.92407227 C-35.26928711 87.53344727 -35.26928711 87.53344727 -31.26928711 87.53344727 C-31.26928711 85.22344727 -31.26928711 82.91344727 -31.26928711 80.53344727 C-31.89834961 80.50766602 -32.52741211 80.48188477 -33.17553711 80.45532227 C-41.11588339 79.92915474 -47.05933517 78.22652822 -52.58178711 72.28344727 C-58.12724212 65.86406668 -58.77213234 58.37516877 -58.64428711 50.28344727 C-58.63413574 49.35685303 -58.62398437 48.43025879 -58.61352539 47.47558594 C-58.29551687 33.39076674 -54.27731101 21.76892625 -44.26928711 11.53344727 C-30.62256726 0.05607659 -17.01001603 -0.05638873 0 0 Z M-37.92187905 141.64865434 C-40.12472043 146.36492511 -42.83215867 150.76904185 -45.51928711 155.22094727 C-46.42293856 156.76499577 -47.32444509 158.31030473 -48.22241211 159.85766602 C-48.59527344 160.49792725 -48.96813477 161.13818848 -49.35229492 161.79785156 C-52.84212044 168.40306179 -52.4803493 176.99589607 -50.5925293 184.0690918 C-49.36552476 187.84807124 -47.99612668 191.56623012 -46.61401367 195.29077148 C-39.41074417 214.74589021 -34.7189064 235.09809691 -31.26928711 255.53344727 C-31.10412598 256.47913574 -30.93896484 257.42482422 -30.76879883 258.39916992 C-27.95759725 275.31580071 -27.98349279 292.30795996 -27.95678711 309.40844727 C-27.95311127 310.54084839 -27.94943542 311.67324951 -27.94564819 312.83996582 C-27.91083521 333.4112714 -29.2304832 353.46071209 -33.20678711 373.65844727 C-33.35179657 374.40727173 -33.49680603 375.15609619 -33.64620972 375.9276123 C-37.37131117 394.92316605 -42.81580161 413.75505791 -49.92260742 431.77441406 C-53.98398048 441.98187199 -53.98398048 441.98187199 -54.89428711 452.84594727 C-54.87390381 453.62301025 -54.85352051 454.40007324 -54.83251953 455.20068359 C-54.57426156 461.12043124 -53.72369475 466.91139213 -52.58178711 472.72094727 C-52.43370605 473.48640869 -52.285625 474.25187012 -52.13305664 475.04052734 C-50.52023689 482.20538072 -47.31400753 488.70053294 -41.14428711 492.97094727 C-40.15041992 493.68057617 -40.15041992 493.68057617 -39.13647461 494.40454102 C-36.05375801 496.26835921 -33.49310968 496.65941429 -29.97408867 496.66766834 C-28.65150576 496.67435511 -28.65150576 496.67435511 -27.30220401 496.68117696 C-26.3326717 496.6809926 -25.36313938 496.68080824 -24.36422729 496.68061829 C-22.8201994 496.68613332 -22.8201994 496.68613332 -21.24497902 496.69175977 C-17.77895564 496.70281566 -14.31296222 496.70664369 -10.84692383 496.71044922 C-8.36850387 496.71671246 -5.89008485 496.72335913 -3.41166687 496.73036194 C4.0384322 496.74960352 11.48852331 496.7601927 18.93863994 496.76908973 C22.44807608 496.77347371 25.9575107 496.77884028 29.46694565 496.7840786 C41.13533019 496.80109151 52.8037138 496.81558486 64.47210884 496.82282734 C67.50004197 496.8247372 70.5279751 496.82665754 73.5559082 496.82861328 C74.30847644 496.82909702 75.06104468 496.82958076 75.83641802 496.83007916 C88.02282989 496.83837639 100.2091435 496.86370779 112.39551248 496.89619396 C124.91054022 496.92928386 137.42551807 496.94727789 149.94058979 496.95047158 C156.96587839 496.95263503 163.99102376 496.9613593 171.01626968 496.98693275 C177.62691948 497.0109415 184.23735812 497.01445329 190.8480587 497.00417137 C193.27280089 497.00367549 195.69755569 497.01001137 198.12225914 497.02372742 C201.43639854 497.0414239 204.74961103 497.03435025 208.06375122 497.02119446 C209.01989921 497.0321637 209.97604719 497.04313295 210.96116936 497.0544346 C218.10196504 496.98615227 224.32709565 495.44814712 229.85180664 490.71704102 C230.2862207 490.14083008 230.72063477 489.56461914 231.16821289 488.97094727 C231.8469043 488.10276367 231.8469043 488.10276367 232.53930664 487.21704102 C240.35142079 476.17762724 241.14931709 456.79812773 239.73071289 443.53344727 C238.53030784 437.71609973 236.44709318 432.29351733 234.22290039 426.80297852 C229.81998566 415.7256483 226.78376003 404.47442548 223.98071289 392.90844727 C223.79030426 392.12856445 223.59989563 391.34868164 223.40371704 390.54516602 C207.48130728 324.97166645 209.46127038 251.6373316 235.23071289 188.65844727 C238.52769876 180.07899785 239.63553751 172.73770023 236.41821289 163.94750977 C234.46164614 159.65494467 232.10610611 155.60451078 229.73071289 151.53344727 C228.54969497 149.47486977 227.36870745 147.41627484 226.18774414 145.35766602 C222.74437903 139.39101439 219.25542989 133.45237667 215.73071289 127.53344727 C215.39757521 126.67199191 215.06443752 125.81053656 214.72120476 124.92297649 C213.03022291 122.42395727 213.03022291 122.42395727 210.90369534 122.05029452 C208.38698733 121.8326884 205.91035381 121.78535901 203.38406372 121.78413391 C202.41470379 121.76433934 201.44534385 121.74454477 200.44660938 121.72415036 C197.18330164 121.6641811 193.9207412 121.64036253 190.65698242 121.61669922 C188.32295477 121.58210807 185.98895442 121.54563013 183.65498352 121.50740051 C175.97472151 121.39173625 168.29440146 121.33011499 160.61352539 121.27172852 C157.96927558 121.24886744 155.32502787 121.22576168 152.68078232 121.20241356 C141.6781891 121.10769524 130.67560778 121.02685037 119.67268562 120.98292255 C116.817353 120.97133408 113.96202082 120.95964971 111.10668945 120.94775391 C110.04221387 120.94333892 110.04221387 120.94333892 108.95623372 120.93883475 C97.47592735 120.88869187 85.99871435 120.74635781 74.5198002 120.56540821 C62.72340005 120.38098163 50.92857227 120.28014914 39.1307286 120.2601487 C32.51046095 120.24685673 25.89431062 120.19509224 19.2753334 120.05455971 C13.03989299 119.92420512 6.81265866 119.89932142 0.5761776 119.95361137 C-1.7052644 119.95553451 -3.9871071 119.92012792 -6.26726723 119.84363556 C-24.65118329 119.26126739 -30.54944931 125.12279543 -37.92187905 141.64865434 Z " fill="#2C3C65" transform="translate(163.269287109375,-0.533447265625)"/>
<path d="M0 0 C0.67740234 -0.04576172 1.35480469 -0.09152344 2.05273438 -0.13867188 C4.05078125 -0.18359375 4.05078125 -0.18359375 7.6875 0.4375 C10.04296875 3.40234375 10.04296875 3.40234375 11.6875 6.4375 C15.03137456 8.10943728 18.79655532 7.58929633 22.47419739 7.59140015 C23.39526124 7.5957824 24.3163251 7.60016465 25.26529998 7.6046797 C28.37063493 7.61809996 31.47594149 7.62425377 34.58129883 7.63037109 C36.80005523 7.63826944 39.01881034 7.64653822 41.23756409 7.65515137 C48.53987394 7.68139962 55.84218962 7.69668051 63.14453125 7.7109375 C65.65491935 7.71629578 68.1653074 7.72167329 70.67569542 7.72706985 C81.11476632 7.74870153 91.55383709 7.76759137 101.99292469 7.77869225 C104.7023958 7.781622 107.41186687 7.78458366 110.12133789 7.78759766 C111.13149247 7.78871673 111.13149247 7.78871673 112.1620542 7.78985842 C123.07412554 7.80251517 133.98603405 7.83574222 144.89802925 7.87739949 C156.0976665 7.91980489 167.29722355 7.94297785 178.49695033 7.94861281 C184.78665164 7.95227309 191.07607695 7.96436655 197.36570168 7.99671555 C203.28120338 8.02670398 209.19626071 8.03314082 215.11182213 8.02133179 C217.28508024 8.02111029 219.45835842 8.02947799 221.63154602 8.04698563 C224.59485473 8.06956255 227.55653643 8.06143534 230.51985168 8.04550171 C231.38327755 8.0593838 232.24670342 8.07326588 233.13629371 8.08756864 C237.51384184 8.02942672 239.16406273 7.8570527 242.69797802 5.02449989 C244.67144075 2.62858159 244.67144075 2.62858159 245.6875 0.4375 C250.9675 0.4375 256.2475 0.4375 261.6875 0.4375 C263.23922239 4.61718058 264.78861709 8.79757927 266.33227539 12.98022461 C266.85763252 14.4016174 267.38430972 15.82252303 267.91235352 17.24291992 C268.67294823 19.28957206 269.42871291 21.33795333 270.18359375 23.38671875 C270.63919678 24.61737061 271.0947998 25.84802246 271.56420898 27.1159668 C275.5465481 38.89160766 273.97778761 51.39441829 272.0625 63.4375 C271.92239502 64.40413574 271.78229004 65.37077148 271.63793945 66.36669922 C270.25387822 74.34248149 267.00233922 79.28840274 261.1875 84.8125 C255.16557853 88.72674896 249.35738999 88.72728924 242.41494751 88.70492554 C240.86601636 88.71172221 240.86601636 88.71172221 239.28579366 88.71865618 C235.82671405 88.73131336 232.36779161 88.72967894 228.90869141 88.72802734 C226.42820534 88.73401172 223.94772113 88.74081705 221.46723938 88.74838257 C215.42944177 88.76422209 209.39170593 88.7704913 203.35389329 88.77160732 C198.44515555 88.77255854 193.53643067 88.77667252 188.62769699 88.78300858 C174.70326997 88.80061544 160.77887375 88.8098482 146.85443552 88.80834763 C145.72911201 88.80822776 145.72911201 88.80822776 144.58105469 88.80810547 C143.82992064 88.80802371 143.0787866 88.80794195 142.30489092 88.80785771 C130.13092115 88.80704475 117.95707508 88.82618626 105.78314109 88.8543822 C93.27592644 88.88312098 80.76877211 88.89692198 68.2615236 88.89519465 C61.24246836 88.89453114 54.22354283 88.90000651 47.20451736 88.92155075 C40.60366799 88.94168205 34.00304571 88.94107872 27.40216637 88.92651749 C24.98023135 88.9244245 22.55827932 88.92915928 20.13637352 88.9412384 C16.82859945 88.95666667 13.52177333 88.94739773 10.21401978 88.93197632 C9.25700531 88.94226344 8.29999084 88.95255057 7.31397593 88.96314943 C0.33718299 88.89133328 -4.87958026 87.27016462 -10.30078125 82.796875 C-17.05372549 74.58975693 -18.8422874 64.73859741 -20.3125 54.4375 C-20.41884766 53.78007812 -20.52519531 53.12265625 -20.63476562 52.4453125 C-23.14157351 34.91471039 -14.90195246 17.34380537 -8.3125 1.4375 C-6.32104756 -0.55395244 -2.70719455 0.0734412 0 0 Z " fill="#B1CAE9" transform="translate(129.3125,407.5625)"/>
<path d="M0 0 C2.9375 1.625 2.9375 1.625 5 5 C5 9.62 5 14.24 5 19 C81.56 19 158.12 19 237 19 C237 14.38 237 9.76 237 5 C239.0625 1.625 239.0625 1.625 242 0 C245.87234934 -0.61142358 247.94643729 -0.71037065 251.23046875 1.50390625 C253.37880876 4.53434614 253.139594 6.42391427 252.89257812 10.04003906 C252.01337273 25.20934313 260.28764706 36.55308616 268.03271484 48.8515625 C270.57597082 52.92178204 272.96628837 57.06414516 275.3125 61.25 C275.96863281 62.38953125 276.62476563 63.5290625 277.30078125 64.703125 C283.03283429 75.82462561 285.13006336 87.78675731 281.4375 99.9375 C280.64344369 102.30002796 279.83135778 104.65078887 279 107 C271.48649417 128.5572221 265.58172364 150.43154738 262 173 C261.84901855 173.93392578 261.69803711 174.86785156 261.54248047 175.83007812 C253.1221359 230.43969143 260.39478913 288.21649331 280.33544922 339.57202148 C286.34281515 355.24070252 285.93205283 369.68915018 282.75 385.9375 C282.54560303 386.99138916 282.34120605 388.04527832 282.13061523 389.13110352 C279.3084366 402.59802392 274.22477502 412.43948026 262.85546875 420.45703125 C255.39857511 424.48640606 248.51281771 425.43925284 240.12112427 425.38768005 C239.05947205 425.39306559 237.99781984 425.39845113 236.90399635 425.40399987 C233.3644261 425.41824985 229.82523139 425.41118282 226.28564453 425.40405273 C223.74061788 425.40975784 221.19559379 425.41672264 218.65057373 425.42485046 C212.46576911 425.44092108 206.28110201 425.44288553 200.09628285 425.43763756 C195.06654704 425.4335881 190.03684118 425.43504861 185.00710678 425.44038582 C184.28990822 425.44113424 183.57270966 425.44188266 182.83377781 425.44265376 C181.37655465 425.44418532 179.9193315 425.44572367 178.46210836 425.44726873 C164.81113037 425.46098161 151.16020977 425.45556473 137.5092331 425.44408352 C125.03678334 425.43415352 112.56448197 425.44708989 100.0920551 425.47101771 C87.2671909 425.49543517 74.44239574 425.50501002 61.61750877 425.49836498 C54.42458968 425.49487849 47.23178466 425.49706698 40.03888321 425.51461601 C33.27378855 425.53091736 26.50902184 425.52611529 19.74391937 425.50731087 C17.26519448 425.50362846 14.78644857 425.50672321 12.30774307 425.51719666 C8.91578538 425.53043151 5.52476119 425.51883571 2.13284302 425.50120544 C1.15937679 425.51081045 0.18591057 425.52041546 -0.81705463 425.53031152 C-11.79004936 425.41351307 -21.13521515 421.7012449 -29 414 C-37.96534314 404.2357649 -39.66325023 391.74339248 -41.75 379.125 C-41.87793945 378.35293213 -42.00587891 377.58086426 -42.13769531 376.78540039 C-44.36574006 362.14777404 -41.53552889 349.54932856 -36.3125 335.8125 C-8.37660808 259.72640765 -9.64624975 178.78430992 -37.65234375 102.84375 C-39.50966184 97.69455496 -40.19298874 92.98493773 -40.3125 87.5 C-40.34988281 86.3965625 -40.38726562 85.293125 -40.42578125 84.15625 C-39.79906308 73.08707122 -34.41403662 63.45609395 -28.8125 54.1875 C-27.81645752 52.48267456 -27.81645752 52.48267456 -26.80029297 50.7434082 C-23.98216025 45.92667029 -21.13636003 41.15060169 -18.05078125 36.5 C-12.55876676 28.00358035 -11.02726706 21.20083164 -11.24658203 11.00268555 C-11.36309673 4.52017554 -11.36309673 4.52017554 -9.203125 1.42578125 C-5.92350281 -0.69666928 -3.82111937 -0.60333464 0 0 Z M-9.65259194 54.11520708 C-11.85543332 58.83147784 -14.56287156 63.23559458 -17.25 67.6875 C-18.15365145 69.2315485 -19.05515798 70.77685746 -19.953125 72.32421875 C-20.32598633 72.96447998 -20.69884766 73.60474121 -21.08300781 74.2644043 C-24.57283333 80.86961453 -24.21106219 89.46244881 -22.32324219 96.53564453 C-21.09623765 100.31462397 -19.72683958 104.03278285 -18.34472656 107.75732422 C-11.14145706 127.21244295 -6.44961929 147.56464964 -3 168 C-2.83483887 168.94568848 -2.66967773 169.89137695 -2.49951172 170.86572266 C0.31168986 187.78235344 0.28579432 204.77451269 0.3125 221.875 C0.31617584 223.00740112 0.31985168 224.13980225 0.32363892 225.30651855 C0.35845189 245.87782413 -0.96119609 265.92726483 -4.9375 286.125 C-5.08250946 286.87382446 -5.22751892 287.62264893 -5.37692261 288.39416504 C-9.10202406 307.38971879 -14.5465145 326.22161065 -21.65332031 344.2409668 C-25.71469337 354.44842473 -25.71469337 354.44842473 -26.625 365.3125 C-26.6046167 366.08956299 -26.5842334 366.86662598 -26.56323242 367.66723633 C-26.30497445 373.58698397 -25.45440764 379.37794486 -24.3125 385.1875 C-24.16441895 385.95296143 -24.01633789 386.71842285 -23.86376953 387.50708008 C-22.25094978 394.67193346 -19.04472042 401.16708567 -12.875 405.4375 C-11.88113281 406.14712891 -11.88113281 406.14712891 -10.8671875 406.87109375 C-7.7844709 408.73491195 -5.22382257 409.12596702 -1.70480156 409.13422108 C-0.38221865 409.14090784 -0.38221865 409.14090784 0.9670831 409.14772969 C1.93661541 409.14754533 2.90614773 409.14736097 3.90505981 409.14717102 C5.44908771 409.15268605 5.44908771 409.15268605 7.02430809 409.1583125 C10.49033147 409.16936839 13.95632489 409.17319643 17.42236328 409.17700195 C19.90078324 409.18326519 22.37920226 409.18991186 24.85762024 409.19691467 C32.30771931 409.21615625 39.75781042 409.22674544 47.20792705 409.23564246 C50.71736318 409.24002644 54.22679781 409.24539302 57.73623276 409.25063133 C69.4046173 409.26764425 81.07300091 409.2821376 92.74139595 409.28938007 C95.76932908 409.29128994 98.79726221 409.29321027 101.82519531 409.29516602 C102.57776355 409.29564976 103.33033179 409.2961335 104.10570513 409.2966319 C116.292117 409.30492912 128.47843061 409.33026053 140.66479959 409.36274669 C153.17982733 409.39583659 165.69480518 409.41383063 178.20987689 409.41702431 C185.2351655 409.41918777 192.26031087 409.42791203 199.28555679 409.45348549 C205.89620659 409.47749423 212.50664523 409.48100602 219.11734581 409.47072411 C221.542088 409.47022822 223.9668428 409.47656411 226.39154625 409.49028015 C229.70568565 409.50797664 233.01889814 409.50090299 236.33303833 409.48774719 C237.28918632 409.49871644 238.2453343 409.50968568 239.23045647 409.52098733 C246.37125215 409.45270501 252.59638276 407.91469985 258.12109375 403.18359375 C258.55550781 402.60738281 258.98992187 402.03117187 259.4375 401.4375 C260.11619141 400.56931641 260.11619141 400.56931641 260.80859375 399.68359375 C268.6207079 388.64417998 269.4186042 369.26468047 268 356 C266.79959495 350.18265246 264.71638029 344.76007006 262.4921875 339.26953125 C258.08927277 328.19220103 255.05304714 316.94097822 252.25 305.375 C252.05959137 304.59511719 251.86918274 303.81523437 251.67300415 303.01171875 C235.75059439 237.43821919 237.73055749 164.10388433 263.5 101.125 C266.79698587 92.54555058 267.90482461 85.20425296 264.6875 76.4140625 C262.73093325 72.12149741 260.37539322 68.07106351 258 64 C256.81898208 61.94142251 255.63799456 59.88282757 254.45703125 57.82421875 C251.01366614 51.85756712 247.524717 45.9189294 244 40 C243.66686232 39.13854465 243.33372463 38.27708929 242.99049187 37.38952923 C241.29951002 34.89051 241.29951002 34.89051 239.17298245 34.51684725 C236.65627444 34.29924113 234.17964092 34.25191175 231.65335083 34.25068665 C230.6839909 34.23089207 229.71463096 34.2110975 228.71589649 34.19070309 C225.45258875 34.13073384 222.19002831 34.10691527 218.92626953 34.08325195 C216.59224188 34.0486608 214.25824153 34.01218286 211.92427063 33.97395325 C204.24400862 33.85828898 196.56368857 33.79666773 188.8828125 33.73828125 C186.23856269 33.71542017 183.59431498 33.69231441 180.95006943 33.66896629 C169.9474762 33.57424797 158.94489489 33.4934031 147.94197273 33.44947529 C145.08664011 33.43788682 142.23130793 33.42620244 139.37597656 33.41430664 C138.31150098 33.40989166 138.31150098 33.40989166 137.22552083 33.40538748 C125.74521446 33.35524461 114.26800146 33.21291054 102.78908731 33.03196094 C90.99268716 32.84753437 79.19785938 32.74670188 67.40001571 32.72670144 C60.77974806 32.71340946 54.16359773 32.66164497 47.54462051 32.52111244 C41.30918009 32.39075785 35.08194577 32.36587416 28.84546471 32.42016411 C26.5640227 32.42208725 24.28218001 32.38668066 22.00201988 32.31018829 C3.61810382 31.72782012 -2.2801622 37.58934816 -9.65259194 54.11520708 Z " fill="#2B3D65" transform="translate(135,87)"/>
<path d="M0 0 C1.77531373 -0.03356478 3.55179021 -0.02284129 5.32684612 0.0223465 C6.30708726 0.0155111 7.2873284 0.0086757 8.29727381 0.00163317 C11.5857982 -0.01155724 14.87106541 0.03246835 18.15928936 0.0761795 C20.51467594 0.07843582 22.87006816 0.07716998 25.22545147 0.07263947 C31.62420299 0.07034073 38.02175884 0.11742881 44.42023206 0.17323112 C50.42811355 0.22194019 56.43613832 0.2262139 62.4441826 0.23444611 C74.34342184 0.2519501 86.24222206 0.30517509 98.14122295 0.380867 C109.69914333 0.45431273 121.25694442 0.51093322 132.81505108 0.5449295 C133.5276294 0.54703129 134.24020773 0.54913308 134.97437934 0.55129856 C138.54921845 0.56173895 142.1240584 0.57184859 145.69889891 0.58179379 C175.35029344 0.66471171 205.00123049 0.80619778 234.65220928 0.98438263 C236.69037255 4.51417321 238.72816634 8.04417682 240.76564312 11.57436371 C241.45634173 12.77097342 242.14713485 13.96752858 242.83803082 15.16402435 C246.92258709 22.23783586 250.99721954 29.31682 255.02720928 36.42188263 C255.38766338 37.0548526 255.74811749 37.68782257 256.11949444 38.33997345 C260.41919788 45.97960624 261.22845549 53.93552285 259.00914288 62.45215607 C257.39690672 67.57610757 255.50031394 72.58663293 253.55601788 77.59229279 C252.13558144 81.35172991 250.8976379 85.16379085 249.65220928 88.98438263 C244.04220928 88.98438263 238.43220928 88.98438263 232.65220928 88.98438263 C231.16720928 86.01438263 231.16720928 86.01438263 229.65220928 82.98438263 C226.29576061 81.3061583 222.50553002 81.84028679 218.81408978 81.84394073 C217.42425197 81.83948405 217.42425197 81.83948405 216.00633663 81.83493733 C212.88250719 81.82622309 209.75871595 81.8247398 206.6348753 81.82324982 C204.40302224 81.81862364 202.17116999 81.81359925 199.93931866 81.80820465 C193.86298346 81.79506093 187.78665932 81.78863206 181.71031213 81.78419399 C177.9181915 81.78126695 174.12607391 81.77716289 170.33395481 81.77268982 C159.83997444 81.76057904 149.34599587 81.75019718 138.85200882 81.74681473 C137.84427458 81.74648538 137.84427458 81.74648538 136.81618207 81.74614938 C136.14273146 81.7459311 135.46928084 81.74571282 134.77542263 81.74548793 C133.41070243 81.74504446 132.04598222 81.74459789 130.68126202 81.74414825 C129.66583459 81.74381611 129.66583459 81.74381611 128.62989347 81.74347726 C117.65508801 81.73952725 106.68034887 81.72206719 95.70556904 81.69878873 C84.44491656 81.67509614 73.18429626 81.66287205 61.92361492 81.66144681 C55.59828555 81.66039611 49.27304971 81.65443195 42.94774342 81.6366272 C37.00113668 81.62021434 31.05469447 81.61795785 25.10807323 81.6267662 C22.92108693 81.62754019 20.73409203 81.62314675 18.54712772 81.61330795 C15.57032345 81.60069728 12.59411156 81.60640565 9.61731243 81.61688995 C8.74416993 81.60883355 7.87102743 81.60077714 6.97142607 81.59247661 C2.72227643 81.47778624 2.72227643 81.47778624 -0.96708447 83.25762868 C-2.64847772 85.23694264 -2.64847772 85.23694264 -4.34779072 88.98438263 C-9.29779072 88.98438263 -14.24779072 88.98438263 -19.34779072 88.98438263 C-19.97620869 87.05465607 -19.97620869 87.05465607 -20.61732197 85.08594513 C-21.71862563 81.77232246 -22.89891567 78.50910583 -24.17200947 75.25782013 C-32.76609238 52.97135491 -32.76609238 52.97135491 -28.20301533 42.30957794 C-24.59113191 34.91843261 -20.46435769 27.8157052 -16.28529072 20.73438263 C-15.68652119 19.710867 -15.08775166 18.68735138 -14.47083759 17.63282013 C-12.77488061 14.74244876 -11.07560758 11.85583714 -9.34779072 8.98438263 C-9.04245374 8.32391324 -8.73711675 7.66344384 -8.42252713 6.98296022 C-6.29938332 2.81301863 -4.82934773 0.51724865 0 0 Z " fill="#C8D7EE" transform="translate(141.3477907180786,121.01561737060547)"/>
<path d="M0 0 C1.36689951 -0.00935994 1.36689951 -0.00935994 2.76141316 -0.01890898 C5.79214402 -0.03476848 8.82206271 -0.02226226 11.85279846 -0.00964355 C14.03492194 -0.01506783 16.21704175 -0.0221922 18.39915466 -0.03088379 C24.31035338 -0.04908462 30.22127214 -0.04206255 36.13247561 -0.02936745 C42.32710431 -0.01922179 48.52170945 -0.0286376 54.71633911 -0.03491211 C65.11912832 -0.04218447 75.52180386 -0.03261208 85.92457581 -0.0135498 C97.93922624 0.00821234 109.95356007 0.00117058 121.96820873 -0.02085543 C132.29544851 -0.03902788 142.62260669 -0.04155852 152.94985729 -0.03110075 C159.1126682 -0.02487527 165.27535159 -0.02400415 171.43815422 -0.0372467 C177.23393161 -0.04883112 183.0293601 -0.04073176 188.82509995 -0.01766968 C190.94786437 -0.01239623 193.07065833 -0.01387288 195.19341087 -0.02272034 C219.4235074 -0.11437128 219.4235074 -0.11437128 228.98390198 8.72277832 C231.7755863 11.96908808 233.66241825 15.67190156 235.51905823 19.50793457 C235.84905823 20.16793457 236.17905823 20.82793457 236.51905823 21.50793457 C236.81244389 25.1264926 236.79697372 28.75386676 236.83155823 32.38293457 C236.86056213 33.38969238 236.88956604 34.3964502 236.91944885 35.43371582 C236.92782776 36.40437988 236.93620667 37.37504395 236.94483948 38.37512207 C236.96671326 39.70712646 236.96671326 39.70712646 236.98902893 41.06604004 C236.32148536 44.53449242 235.4072174 45.43324681 232.51905823 47.50793457 C229.08400556 48.11917713 225.67539312 48.04701521 222.1943512 48.01586914 C220.60087262 48.02522908 220.60087262 48.02522908 218.97520256 48.03477812 C215.40366007 48.05077539 211.83279369 48.03807703 208.26124573 48.0255127 C205.70559795 48.03093079 203.14995329 48.03805169 200.59431458 48.04675293 C194.36634703 48.06312702 188.13863124 48.06069168 181.91066027 48.04910237 C176.84975126 48.04007412 171.78889631 48.03884139 166.72798157 48.04319763 C165.64813596 48.04411703 165.64813596 48.04411703 164.54647529 48.045055 C163.08408434 48.04633388 161.6216934 48.04763074 160.15930247 48.04894537 C146.44177177 48.06035551 132.72434793 48.04723068 119.00683475 48.0257439 C107.23286092 48.00787249 95.45904483 48.01097648 83.68507385 48.02941895 C70.01712254 48.05081803 56.34926493 48.05925684 42.68129921 48.04696989 C41.22424445 48.04569567 39.76718968 48.04443819 38.31013489 48.04319763 C37.59320902 48.04258053 36.87628315 48.04196343 36.13763225 48.04132763 C31.0819511 48.03787182 26.02632931 48.043708 20.97065735 48.05311584 C14.16788237 48.06549634 7.36545188 48.05670034 0.56269073 48.03353882 C-1.93831638 48.02823656 -4.43934851 48.02979123 -6.94034576 48.03858948 C-10.34598487 48.04946819 -13.75065774 48.03587318 -17.15623474 48.01586914 C-18.15350145 48.02479203 -19.15076817 48.03371491 -20.17825508 48.04290819 C-26.84611893 47.96657597 -26.84611893 47.96657597 -30.09289551 45.6208725 C-31.74314394 43.10880025 -32.00846187 41.64916581 -32.04734802 38.65637207 C-32.06088318 37.72703857 -32.07441833 36.79770508 -32.08836365 35.84020996 C-32.07353943 34.86430908 -32.05871521 33.8884082 -32.04344177 32.88293457 C-32.03248474 31.88834229 -32.02152771 30.89375 -32.01023865 29.86901855 C-31.72676413 20.3009663 -29.68295411 14.32077044 -22.73094177 7.63293457 C-16.06517477 1.86559703 -8.6179576 -0.09213149 0 0 Z " fill="#FED77F" transform="translate(153.48094177246094,15.4920654296875)"/>
<path d="M0 0 C8.83877568 7.54134072 14.13236212 17.34225672 15.34814453 28.94140625 C16.65830245 47.83396559 10.02155981 66.27864931 -2.13671875 80.8203125 C-2.71035156 81.47773438 -3.28398437 82.13515625 -3.875 82.8125 C-5.0196875 84.25109375 -5.0196875 84.25109375 -6.1875 85.71875 C-18.34907346 100.28708767 -38.10899574 110.11255088 -56.87353516 112.01513672 C-70.62459719 112.96336946 -81.3657349 109.60799017 -92.10546875 101.03125 C-100.4260651 93.41314302 -104.57637217 82.57496183 -105.24609375 71.40234375 C-105.79720662 50.5046792 -97.82900643 33.30642225 -83.875 17.8125 C-83.18792969 17.03132813 -82.50085938 16.25015625 -81.79296875 15.4453125 C-61.63976642 -6.16609928 -25.91347262 -18.25623613 0 0 Z " fill="#2D3E65" transform="translate(300.875,257.1875)"/>
<path d="M0 0 C81.84 0 163.68 0 248 0 C248 2.64 248 5.28 248 8 C247.030625 8.45375 246.06125 8.9075 245.0625 9.375 C241.92920418 10.65786221 241.92920418 10.65786221 241 13 C240.67 17.62 240.34 22.24 240 27 C163.44 27 86.88 27 8 27 C7.67 22.38 7.34 17.76 7 13 C6.67 12.01 6.34 11.02 6 10 C2.99152582 8.77479736 2.99152582 8.77479736 0 8 C0 5.36 0 2.72 0 0 Z " fill="#44C4F1" transform="translate(132,79)"/>
<path d="M0 0 C1.38544069 -0.00935994 1.38544069 -0.00935994 2.79887009 -0.01890898 C5.89514408 -0.03486934 8.99063416 -0.0222226 12.08691406 -0.00964355 C14.30611633 -0.0150633 16.525315 -0.02218513 18.74450684 -0.03088379 C24.77336936 -0.04913739 30.80195843 -0.04204105 36.83082581 -0.02936745 C43.1359227 -0.01925041 49.44099595 -0.02862952 55.74609375 -0.03491211 C67.01353254 -0.04265878 78.28085847 -0.03021703 89.5482707 -0.00987476 C99.76303644 0.00799615 109.97762035 0.00489201 120.19238281 -0.0135498 C132.05627701 -0.03495896 143.92008314 -0.04292231 155.7840004 -0.03110075 C162.06352353 -0.02486003 168.34292141 -0.0240462 174.62243652 -0.0372467 C180.52566515 -0.04878905 186.42854991 -0.04080866 192.33174133 -0.01766968 C194.50014169 -0.012374 196.66857091 -0.01391097 198.83695984 -0.02272034 C201.79339189 -0.03362518 204.74871692 -0.01997298 207.70507812 0 C208.56645763 -0.00892289 209.42783714 -0.01784577 210.31531906 -0.02703905 C214.36724345 0.02618417 216.372061 0.20559617 219.88275146 2.41468048 C221.99626212 4.6606662 222.53676809 5.47540854 222.47753906 8.50793457 C222.49042969 9.16793457 222.50332031 9.82793457 222.51660156 10.50793457 C221.44701277 13.72928436 219.70263354 14.71452696 216.85253906 16.50793457 C213.80240081 17.09018146 210.80286262 17.04795857 207.70507812 17.01586914 C206.31963743 17.02522908 206.31963743 17.02522908 204.90620804 17.03477812 C201.80993405 17.05073848 198.71444396 17.03809174 195.61816406 17.0255127 C193.3989618 17.03093245 191.17976313 17.03805427 188.96057129 17.04675293 C182.93170877 17.06500653 176.90311969 17.05791019 170.87425232 17.04523659 C164.56915543 17.03511955 158.26408217 17.04449866 151.95898438 17.05078125 C140.69154558 17.05852792 129.42421966 17.04608618 118.15680742 17.0257439 C107.94204168 17.00787299 97.72745777 17.01097713 87.51269531 17.02941895 C75.64880112 17.0508281 63.78499499 17.05879145 51.92107773 17.04696989 C45.6415546 17.04072917 39.36215672 17.03991534 33.0826416 17.05311584 C27.17941298 17.06465819 21.27652821 17.0566778 15.37333679 17.03353882 C13.20493644 17.02824314 11.03650721 17.02978011 8.86811829 17.03858948 C5.91168624 17.04949432 2.95636121 17.03584212 0 17.01586914 C-0.86137951 17.02479203 -1.72275902 17.03371491 -2.61024094 17.04290819 C-6.66216532 16.98968497 -8.66698287 16.81027297 -12.17767334 14.60118866 C-14.29118399 12.35520294 -14.83168996 11.5404606 -14.77246094 8.50793457 C-14.78535156 7.84793457 -14.79824219 7.18793457 -14.81152344 6.50793457 C-12.54292159 -0.32456041 -5.97715278 -0.06191633 0 0 Z " fill="#2B3C65" transform="translate(152.1474609375,399.4920654296875)"/>
<path d="M0 0 C1.39134273 -0.00935994 1.39134273 -0.00935994 2.8107934 -0.01890898 C5.92632442 -0.03489421 9.04107906 -0.02221292 12.15661621 -0.00964355 C14.38714556 -0.0150622 16.61767134 -0.02218341 18.84819031 -0.03088379 C24.91216713 -0.04915052 30.97587235 -0.04203566 37.03985405 -0.02936745 C43.37879049 -0.01925719 49.7177033 -0.02862763 56.05664062 -0.03491211 C67.3851962 -0.04266103 78.71361356 -0.03021177 90.0421415 -0.00987476 C100.31522437 0.0079965 110.58812645 0.00489246 120.86120605 -0.0135498 C132.78881441 -0.03495223 144.7163129 -0.04292591 156.64394712 -0.03110075 C162.95866456 -0.02485692 169.27325743 -0.0240547 175.58796692 -0.0372467 C181.52400961 -0.04878088 187.45971008 -0.04082371 193.39571571 -0.01766968 C195.57743575 -0.0123696 197.75918446 -0.01391842 199.94089317 -0.02272034 C202.91305453 -0.03360793 205.88411074 -0.01999407 208.85620117 0 C209.72506659 -0.00892289 210.59393201 -0.01784577 211.48912668 -0.02703905 C217.31922043 0.04933811 217.31922043 0.04933811 220.45969391 2.41468048 C222.03896124 4.66596949 222.49592092 5.78392447 222.49060059 8.50793457 C222.51251465 9.16793457 222.53442871 9.82793457 222.55700684 10.50793457 C221.53846184 13.74703418 219.7738885 14.71673814 216.92810059 16.50793457 C213.89079327 17.09150448 210.90406957 17.05225068 207.81860352 17.02259827 C206.89905994 17.02954379 205.97951636 17.03648932 205.03210783 17.04364532 C201.94966627 17.06194741 198.86799155 17.05164196 195.78552246 17.04138184 C193.57617109 17.04843862 191.36682456 17.05718262 189.15748596 17.06748962 C183.15549261 17.09001891 177.15376251 17.08703571 171.15174294 17.07816815 C166.14400864 17.07306381 161.13632405 17.08034625 156.12859488 17.08764023 C143.64190887 17.10562298 131.15534986 17.09921699 118.66867751 17.08147042 C107.82467085 17.06677128 96.98094121 17.08140505 86.13697022 17.11024059 C75.00049686 17.13963329 63.86412361 17.1500991 52.7276063 17.14105839 C46.47599249 17.13612257 40.22459409 17.13838054 33.9730072 17.1588459 C28.09598908 17.17716365 22.21948703 17.1712917 16.34249687 17.1466465 C14.18376869 17.14162651 12.02500144 17.14515898 9.8663044 17.15779495 C6.92280417 17.17366382 3.98101621 17.15883248 1.03759766 17.13612366 C0.1801091 17.14795939 -0.67737947 17.15979511 -1.56085253 17.1719895 C-5.86206724 17.10441116 -7.5783214 16.88478197 -11.10608673 14.191329 C-13.07189941 11.50793457 -13.07189941 11.50793457 -13.63439941 7.94543457 C-13.07189941 4.50793457 -13.07189941 4.50793457 -11.60373688 2.32483673 C-7.84062328 -0.37565622 -4.52703496 -0.04649077 0 0 Z " fill="#2D3F66" transform="translate(151.0718994140625,201.4920654296875)"/>
<path d="M0 0 C9.9 0 19.8 0 30 0 C45.26940403 26.4119421 45.26940403 26.4119421 50.375 35.4375 C50.91821899 36.39172852 50.91821899 36.39172852 51.47241211 37.36523438 C55.77054672 44.99975749 56.57463755 52.95731347 54.35693359 61.46777344 C52.74469744 66.59172494 50.84810466 71.60225031 48.90380859 76.60791016 C47.48337216 80.36734728 46.24542862 84.17940822 45 88 C39.39 88 33.78 88 28 88 C27.01 86.02 26.02 84.04 25 82 C21.65729864 80.32864932 17.8940933 80.84591665 14.21762085 80.84178162 C13.29711272 80.83684364 12.37660459 80.83190566 11.42820227 80.82681805 C8.32502086 80.81138577 5.22186022 80.80306696 2.11865234 80.79467773 C-0.09836512 80.78510371 -2.31538074 80.77509392 -4.53239441 80.76467896 C-10.56719573 80.73757228 -16.60200491 80.71659398 -22.63683367 80.69667697 C-28.93762182 80.67485288 -35.23838557 80.64744673 -41.53915405 80.62062073 C-52.11984189 80.57632978 -62.70053875 80.53550274 -73.28125 80.49731445 C-84.180674 80.45796641 -95.08008684 80.41654185 -105.97949219 80.37231445 C-106.65104075 80.36959018 -107.3225893 80.36686591 -108.01448782 80.36405908 C-111.38336272 80.35037972 -114.75223746 80.33665942 -118.12111211 80.32291877 C-146.08071858 80.20902437 -174.04034852 80.10220163 -202 80 C-202 79.67 -202 79.34 -202 79 C-135.01 79 -68.02 79 1 79 C1.66 75.37 2.32 71.74 3 68 C3.6424315 65.84470205 4.34190953 63.70446987 5.12890625 61.59765625 C5.52400391 60.52322266 5.91910156 59.44878906 6.32617188 58.34179688 C6.73416016 57.25962891 7.14214844 56.17746094 7.5625 55.0625 C8.37787682 52.86646947 9.19174502 50.66987804 10.00390625 48.47265625 C10.36299072 47.51625244 10.7220752 46.55984863 11.09204102 45.57446289 C14.21961397 36.70641857 14.00419511 27.75178277 10.48828125 19.01953125 C7.92469865 13.81835185 4.90221447 8.90444522 1.828125 3.9921875 C0 1 0 1 0 0 Z " fill="#AEC7E6" transform="translate(346,122)"/>
<path d="M0 0 C0.67740234 -0.04576172 1.35480469 -0.09152344 2.05273438 -0.13867188 C4.05078125 -0.18359375 4.05078125 -0.18359375 7.6875 0.4375 C10.04296875 3.40234375 10.04296875 3.40234375 11.6875 6.4375 C14.53226785 7.85988392 16.97622888 7.60174558 20.15673828 7.64282227 C21.15204056 7.65767166 21.15204056 7.65767166 22.16744995 7.67282104 C24.36420097 7.70444916 26.56097363 7.72919854 28.7578125 7.75390625 C30.27953661 7.77447466 31.801255 7.7954711 33.32296753 7.81687927 C37.3309465 7.87211171 41.33897713 7.92151578 45.3470459 7.96972656 C49.43583787 8.01993305 53.52455468 8.07562356 57.61328125 8.13085938 C65.63795732 8.23845528 73.6626962 8.33989704 81.6875 8.4375 C78.50232609 11.02570442 75.4681322 13.25506256 71.8359375 15.171875 C70.91240479 15.65946289 69.98887207 16.14705078 69.03735352 16.64941406 C68.05565186 17.15698242 67.0739502 17.66455078 66.0625 18.1875 C65.03632568 18.71827148 64.01015137 19.24904297 62.95288086 19.79589844 C39.04653509 32.0092248 6.96098688 47.2487902 -20.3125 46.4375 C-21.52922318 36.02348805 -17.93691249 27.37590848 -14.375 17.8125 C-13.80379836 16.23362927 -13.23412443 14.65420498 -12.66601562 13.07421875 C-8.00651266 0.21720193 -8.00651266 0.21720193 0 0 Z " fill="#C8D7EE" transform="translate(129.3125,407.5625)"/>
<path d="M0 0 C-1.12200355 3.36601064 -2.00415203 4.06243251 -4.6875 6.25 C-17.2189455 17.00077829 -23.48211947 31.46330108 -29.87963867 46.38452148 C-36.1277264 60.57266933 -45.43655039 69.84349894 -59.5546875 76.28515625 C-62.24989407 77.0730521 -63.46495624 77.19556649 -66 76 C-70.17287418 67.50522042 -70.36001775 57.07781945 -68.30859375 47.91015625 C-67.36656654 45.16290536 -66.27153355 42.61040689 -65 40 C-64.57589844 39.09894531 -64.15179688 38.19789063 -63.71484375 37.26953125 C-55.52119034 21.08763635 -42.08987234 8.94811976 -25.390625 1.8984375 C-17.12706342 -0.78095974 -8.57781505 -0.27151349 0 0 Z " fill="#FCD67F" transform="translate(281,265)"/>
<path d="M0 0 C3 1 3 1 4.6640625 4.07421875 C8.23568278 13.23203989 6.78579319 25.12346217 3 34 C2.5978125 34.95261719 2.195625 35.90523438 1.78125 36.88671875 C-5.07906181 51.76978409 -16.2681981 63.23924087 -30.625 70.9375 C-31.68170898 71.50428467 -31.68170898 71.50428467 -32.75976562 72.08251953 C-39.70536314 75.6347614 -46.11014198 77.28937204 -54 77.125 C-55.7015625 77.09792969 -55.7015625 77.09792969 -57.4375 77.0703125 C-58.283125 77.04710937 -59.12875 77.02390625 -60 77 C-57.73992174 74.566625 -55.36051165 72.84133708 -52.5625 71.0625 C-49.32444291 68.95460894 -46.68414265 66.79150836 -44 64 C-43.34 64 -42.68 64 -42 64 C-41.73654785 63.43047607 -41.4730957 62.86095215 -41.20166016 62.27416992 C-39.92061175 59.84975589 -38.42023883 57.80458571 -36.7734375 55.61328125 C-32.46580225 49.53066851 -29.60945795 42.98999958 -26.625 36.1875 C-20.28610785 22.12429657 -13.81938823 8.201014 0 0 Z " fill="#FBD57F" transform="translate(294,276)"/>
</svg>
