<?xml version="1.0" encoding="UTF-8"?>
<svg version="1.1" xmlns="http://www.w3.org/2000/svg" width="512" height="512">
<path d="M0 0 C2.77767407 -0.00651109 5.55529 -0.01795688 8.33294296 -0.03044128 C111.01141441 -0.43067854 111.01141441 -0.43067854 129.51913071 14.36836243 C137.55801969 23.0568586 141.92309224 34.64627267 142.51913071 46.36836243 C143.28225571 46.16211243 144.04538071 45.95586243 144.83163071 45.74336243 C147.51913071 45.36836243 147.51913071 45.36836243 150.51913071 47.36836243 C151.50388109 49.93738206 152.32305305 52.41558474 153.07772446 55.05195618 C153.30814941 55.82209549 153.53857437 56.5922348 153.7759819 57.38571167 C154.513238 59.85615483 155.23556642 62.33064975 155.95663071 64.80586243 C156.90880361 68.0351794 157.86781304 71.26243271 158.82772446 74.48945618 C159.0567244 75.26783844 159.28572433 76.0462207 159.52166367 76.84819031 C161.06915359 82.05342154 162.84043306 87.11242107 164.9373436 92.12641907 C165.6437403 94.84855122 165.24807669 96.68150614 164.51913071 99.36836243 C154.2927473 102.95347385 144.06434761 105.88795004 133.51913071 108.36836243 C133.54233383 109.19336243 133.56553696 110.01836243 133.58944321 110.86836243 C133.75274387 121.31960482 133.37294128 132.2386204 130.51913071 142.36836243 C131.11725571 142.40961243 131.71538071 142.45086243 132.33163071 142.49336243 C134.51913071 143.36836243 134.51913071 143.36836243 136.11288071 145.83711243 C137.86326473 150.2325212 138.07583106 154.05699802 138.20663071 158.74336243 C138.24079086 159.57480774 138.27495102 160.40625305 138.31014633 161.26289368 C138.39200217 163.29759594 138.45725772 165.3329545 138.51913071 167.36836243 C144.55446131 166.58024365 150.16868322 165.70337207 155.76913071 163.24336243 C160.44528745 161.2638392 163.44577998 160.63190829 168.51913071 161.36836243 C174.11410131 163.77645417 177.58609956 166.97158512 180.51913071 172.36836243 C183.64057375 181.73269156 181.74393181 193.30820694 178.51913071 202.36836243 C179.83204086 202.51531555 179.83204086 202.51531555 181.17147446 202.66523743 C188.69342501 204.24511035 195.49944207 209.65630294 200.51913071 215.36836243 C201.13788071 214.79086243 201.75663071 214.21336243 202.39413071 213.61836243 C210.11811556 208.05709333 218.05385991 206.07764368 227.51913071 207.36836243 C232.88517613 209.00264662 236.48326766 211.58103992 239.51913071 216.36836243 C241.58976376 220.52421045 241.62401868 223.70310546 241.39413071 228.30586243 C241.28368737 234.2207168 242.08864523 236.54424223 245.51913071 241.36836243 C246.77478901 248.31337518 245.50273586 254.04974623 242.06991196 260.14179993 C238.14019301 265.78396566 233.11075532 269.35735831 226.51913071 271.36836243 C221.96767211 271.74359718 217.87187001 271.81927553 213.51913071 270.36836243 C211.72303766 271.09556197 211.72303766 271.09556197 209.89413071 272.24336243 C204.16015379 275.25737594 198.61816379 276.29623257 192.33163071 274.36836243 C187.93426 272.41592983 184.8403584 269.59024694 182.51913071 265.36836243 C181.51323954 261.35812082 181.51913071 257.47932329 181.51913071 253.36836243 C180.96483383 254.11086243 180.41053696 254.85336243 179.83944321 255.61836243 C172.4693826 264.35324907 160.02015408 271.91076745 148.51913071 273.36836243 C139.80540107 274.10585257 132.41105972 273.30713939 124.51913071 269.36836243 C123.85913071 268.70836243 123.19913071 268.04836243 122.51913071 267.36836243 C122.23247543 268.61540955 122.23247543 268.61540955 121.94002914 269.88764954 C121.21660525 273.01486912 120.48502555 276.14004303 119.74813461 279.26411438 C119.43275442 280.60841842 119.12049668 281.95345944 118.81161118 283.29927063 C114.40217332 302.48531981 114.40217332 302.48531981 110.51913071 306.36836243 C107.8644995 306.82296101 105.19723933 307.0707948 102.51913071 307.36836243 C102.16850571 308.52336243 101.81788071 309.67836243 101.45663071 310.86836243 C96.0004994 327.13429378 87.94969301 341.75486565 77.51913071 355.36836243 C76.86815414 356.23332336 76.21717758 357.0982843 75.54647446 357.98945618 C73.57920266 360.29787338 71.79146487 361.83297699 69.26913071 363.49336243 C68.56272446 363.97031555 67.85631821 364.44726868 67.12850571 364.93867493 C64.51913071 366.36836243 64.51913071 366.36836243 62.57748032 366.85688782 C59.22889545 367.73715593 57.12960612 368.36883747 55.27254868 371.40937805 C54.23262143 374.09651229 53.38685614 376.78939255 52.58163071 379.55586243 C47.75396626 394.29053494 41.18870317 409.81993676 28.06209946 419.10664368 C23.91556488 421.16398725 20.04315793 420.89846514 15.51913071 420.36836243 C10.01970453 418.43337914 7.118393 415.41211969 4.42928696 410.29414368 C3.14130378 406.1538029 3.18066041 402.24355422 3.20663071 397.93086243 C3.2085643 396.6097345 3.2085643 396.6097345 3.21053696 395.26191711 C3.32204258 387.59311766 4.57715445 380.81260475 6.51913071 373.36836243 C-2.72086929 373.69836243 -11.96086929 374.02836243 -21.48086929 374.36836243 C-20.98586929 377.29711243 -20.49086929 380.22586243 -19.98086929 383.24336243 C-18.20565812 394.27696825 -16.70133917 404.5652082 -22.35586929 414.74336243 C-24.96615652 417.96783488 -26.8288111 419.11765072 -30.92618179 419.73945618 C-39.78839223 419.95907364 -46.38160292 417.33690592 -53.10586929 411.55586243 C-60.53894108 403.440697 -64.50713601 391.94440417 -67.98086929 381.68086243 C-68.23618423 380.92700256 -68.49149918 380.1731427 -68.75455093 379.3964386 C-69.96359885 375.63085101 -70.79364815 372.33283449 -70.48086929 368.36836243 C-71.08672867 368.2935968 -71.69258804 368.21883118 -72.31680679 368.14179993 C-83.71726472 366.35280499 -91.73130986 360.63008971 -98.48086929 351.36836243 C-105.73207644 340.19437108 -108.7559936 325.79952854 -110.22940445 312.72554016 C-110.49485709 310.44398518 -110.49485709 310.44398518 -111.48086929 307.36836243 C-114.29905559 305.60699599 -116.8111994 305.30823734 -120.08633804 304.71211243 C-123.48086929 303.36836243 -123.48086929 303.36836243 -125.40665054 300.02461243 C-125.89926038 298.6497014 -126.36034972 297.26318816 -126.79336929 295.86836243 C-127.0384523 295.15164368 -127.28353531 294.43492493 -127.53604507 293.69648743 C-129.31402834 288.34931396 -130.70184982 282.95581247 -131.48086929 277.36836243 C-132.55336929 278.13148743 -133.62586929 278.89461243 -134.73086929 279.68086243 C-143.64831934 285.19146976 -153.29249109 286.34379831 -163.48086929 284.36836243 C-173.15619074 281.79358553 -181.92018651 276.92095417 -189.48086929 270.36836243 C-189.63942398 271.11601868 -189.79797867 271.86367493 -189.96133804 272.63398743 C-191.87032581 280.69181424 -191.87032581 280.69181424 -194.79336929 283.93086243 C-201.61195563 287.57801326 -206.94098653 287.7392502 -214.48086929 286.36836243 C-215.95554981 285.85023143 -217.41694892 285.2913135 -218.85586929 284.68086243 C-222.28964674 283.02162554 -222.28964674 283.02162554 -225.04336929 284.18086243 C-225.84774429 284.57273743 -226.65211929 284.96461243 -227.48086929 285.36836243 C-234.70337836 286.04973121 -240.4949548 284.17379457 -246.16836929 279.74336243 C-251.90465245 274.49275999 -255.16068943 267.69079055 -255.73086929 259.99336243 C-255.45762705 256.03134996 -254.4243761 253.7889344 -252.48086929 250.36836243 C-251.25993242 247.53245004 -251.25993242 247.53245004 -251.91836929 245.18086243 C-253.18544104 238.84550369 -253.05048297 233.84415074 -249.85977554 228.19648743 C-246.71192893 224.02313837 -242.89677944 221.9099824 -237.83243179 220.77461243 C-228.6874866 219.64750434 -221.65892087 221.0681486 -214.10977554 226.34492493 C-212.51924492 227.54569749 -212.51924492 227.54569749 -210.48086929 227.36836243 C-209.17390592 225.81057761 -209.17390592 225.81057761 -207.85586929 223.80586243 C-203.66938699 218.04305183 -198.54680927 212.35565804 -191.48086929 210.36836243 C-191.97586929 209.19273743 -192.47086929 208.01711243 -192.98086929 206.80586243 C-195.54583105 199.04961444 -196.27933374 189.24795598 -192.79336929 181.68086243 C-190.22742273 177.49527583 -187.15352816 174.92591538 -182.48086929 173.36836243 C-175.43253921 172.81050373 -169.48138974 173.40337722 -162.81680679 175.70039368 C-159.28321213 176.7108363 -156.13306466 176.57126217 -152.48086929 176.36836243 C-152.61364273 175.56656555 -152.74641617 174.76476868 -152.88321304 173.93867493 C-153.99039348 166.81069576 -154.75400199 159.7550439 -155.16836929 152.55586243 C-155.21662857 151.76131653 -155.26488785 150.96677063 -155.31460953 150.14814758 C-155.41398127 148.22331899 -155.45324689 146.29555647 -155.48086929 144.36836243 C-155.15086929 144.03836243 -154.82086929 143.70836243 -154.48086929 143.36836243 C-151.84086929 143.36836243 -149.20086929 143.36836243 -146.48086929 143.36836243 C-147.14086929 133.13836243 -147.80086929 122.90836243 -148.48086929 112.36836243 C-151.12086929 112.03836243 -153.76086929 111.70836243 -156.48086929 111.36836243 C-158.64249039 110.67573547 -158.64249039 110.67573547 -160.25430679 109.88008118 C-160.85114273 109.5855304 -161.44797867 109.29097961 -162.06290054 108.98750305 C-162.65458023 108.68006165 -163.24625992 108.37262024 -163.85586929 108.05586243 C-164.77819351 107.61210266 -164.77819351 107.61210266 -165.71915054 107.15937805 C-169.26295679 105.36421143 -171.19550967 104.14811159 -172.48086929 100.36836243 C-172.3282814 97.55024719 -172.3282814 97.55024719 -171.75821304 94.30976868 C-171.44400406 92.52216125 -171.44400406 92.52216125 -171.12344742 90.69844055 C-170.89077164 89.45513977 -170.65809586 88.21183899 -170.41836929 86.93086243 C-170.21276382 85.72236633 -170.00715836 84.51387024 -169.79532242 83.26875305 C-168.09734955 73.91738033 -165.81381761 64.3677849 -160.48086929 56.36836243 C-158.53555679 55.85664368 -158.53555679 55.85664368 -156.35586929 55.68086243 C-154.43774429 55.52617493 -154.43774429 55.52617493 -152.48086929 55.36836243 C-152.32231461 54.29199524 -152.16375992 53.21562805 -152.00040054 52.10664368 C-149.83541489 38.23286678 -146.45953072 21.45649895 -134.53506851 12.41181946 C-125.10741172 7.62291939 -113.12714213 6.47707096 -102.79336929 5.30586243 C-102.09182724 5.22598083 -101.39028519 5.14609924 -100.66748428 5.063797 C-96.05325463 4.54390891 -91.43588501 4.06284952 -86.81534195 3.60267639 C-84.55981733 3.37628654 -82.30554316 3.13970714 -80.05118179 2.90205383 C-53.42935494 0.16361309 -26.73427578 0.05088788 0 0 Z M-90.48086929 13.30586243 C-91.98352842 13.48186935 -93.48621455 13.6576459 -94.98892593 13.83320618 C-99.15546883 14.32543954 -103.31828094 14.84374633 -107.48086929 15.36836243 C-108.58156754 15.50387512 -109.68226578 15.63938782 -110.81631851 15.77900696 C-113.5207467 16.11966986 -116.21971316 16.48496901 -118.91836929 16.86836243 C-120.00794937 17.00939392 -120.00794937 17.00939392 -121.11954117 17.15327454 C-125.61876241 17.85420001 -128.2889506 19.12073834 -131.48086929 22.36836243 C-138.36448647 32.90605833 -141.77060027 45.46209719 -145.48086929 57.36836243 C-117.26334764 61.53235572 -89.18744469 62.75367525 -60.71480179 62.68621826 C-58.31248186 62.68076392 -55.91017186 62.6784046 -53.50784683 62.67634583 C9.32186734 62.59282342 72.53689342 59.07532503 134.51913071 48.36836243 C133.54395922 39.04500198 132.2123682 28.547721 124.87459946 21.87226868 C122.78855617 20.70426623 120.81677232 20.03775408 118.51913071 19.36836243 C117.50463852 19.03707336 116.49014633 18.7057843 115.44491196 18.36445618 C97.12007393 12.90127564 77.51245739 11.66957065 58.51913071 10.36836243 C56.71968002 10.23482361 56.71968002 10.23482361 54.8838768 10.09858704 C39.12620303 9.03815854 23.32289403 9.18104353 7.53768539 9.18305969 C4.22057176 9.18314023 0.90359837 9.17630103 -2.41348648 9.16255188 C-31.84728845 9.04267115 -61.22828207 9.76225245 -90.48086929 13.30586243 Z M137.0948143 56.13569641 C121.50699005 59.06126338 105.92358142 60.8930108 90.14413071 62.43086243 C88.85510849 62.5587616 87.56608627 62.68666077 86.23800278 62.81843567 C63.68890424 65.05450885 41.1422531 67.06484584 18.51913071 68.36836243 C17.64280991 68.41950195 16.76648911 68.47064148 15.86361313 68.52333069 C-108.14566771 75.6794238 -108.14566771 75.6794238 -156.48086929 62.36836243 C-158.20811676 68.85909507 -159.42436718 75.37295452 -160.54336929 81.99336243 C-160.7167482 83.00398743 -160.89012711 84.01461243 -161.06875992 85.05586243 C-161.88545062 89.82458514 -162.69076534 94.59515713 -163.48086929 99.36836243 C-83.24655259 132.6918858 38.98580925 117.59870409 145.03866196 96.04023743 C145.75268677 95.88627502 146.46671158 95.73231262 147.2023735 95.57368469 C150.03465388 94.95383169 152.76584375 94.28612474 155.51913071 93.36836243 C153.97529889 87.55702803 152.35016421 81.77664971 150.62020493 76.01826477 C148.56654785 69.17123004 146.75067895 62.42177507 145.51913071 55.36836243 C142.42611492 55.36836243 140.0723719 55.55706245 137.0948143 56.13569641 Z M115.88631821 110.32148743 C114.53178706 110.5295703 113.17712506 110.7368027 111.82235336 110.9433136 C111.10396286 111.05339752 110.38557236 111.16348145 109.64541245 111.27690125 C88.84362598 114.43199395 67.97352341 116.50074231 47.00466537 118.16981506 C44.71368599 118.35282113 42.42329429 118.54197094 40.13290024 118.73213196 C-20.6637428 123.66719493 -82.05380222 120.58907717 -142.48086929 113.36836243 C-142.32618179 114.63132141 -142.17149429 115.8942804 -142.01211929 117.19551086 C-141.92510757 117.90592529 -141.83809586 118.61633972 -141.74844742 119.34828186 C-141.42444829 121.79431269 -140.96762143 124.19981274 -140.48086929 126.61836243 C-139.37374411 132.50925984 -138.89650278 138.39526854 -138.48086929 144.36836243 C-129.46723465 146.61215216 -120.50307311 148.24151372 -111.29336929 149.43086243 C-109.3421315 149.68573425 -109.3421315 149.68573425 -107.35147476 149.945755 C-94.76013449 151.55705775 -82.15105555 152.61557655 -69.48086929 153.36836243 C-68.11357681 153.45513245 -68.11357681 153.45513245 -66.71866226 153.5436554 C-7.64302617 157.17195672 52.18250556 153.27990077 110.76522446 145.45429993 C111.8345018 145.31226387 111.8345018 145.31226387 112.92538071 145.1673584 C116.48586161 144.68359858 120.00541762 144.121757 123.51913071 143.36836243 C124.09217471 139.16959583 124.6617376 134.97037597 125.22811508 130.77070618 C125.42117463 129.34284291 125.61517573 127.91510662 125.81014633 126.48750305 C126.09063511 124.43249344 126.36770655 122.37704723 126.64413071 120.32148743 C126.81170883 119.08559875 126.97928696 117.84971008 127.15194321 116.57637024 C127.59494216 113.24417924 127.59494216 113.24417924 127.51913071 109.36836243 C123.53430324 109.25453687 119.82109625 109.70075024 115.88631821 110.32148743 Z M-148.48086929 151.36836243 C-147.93392446 155.64259234 -147.34864699 159.90936503 -146.72916031 164.17353821 C-146.52419575 165.62100987 -146.32929806 167.06994767 -146.14517593 168.5202179 C-144.9714391 177.70130761 -143.45825387 183.84216892 -136.48086929 190.36836243 C-131.30686073 198.21466113 -130.42995743 206.13140027 -131.48086929 215.36836243 C-131.80176529 216.29270081 -132.12266129 217.21703918 -132.4532814 218.16938782 C-135.93147299 228.99731473 -134.15910647 239.4701054 -131.48086929 250.24336243 C-131.15923473 251.59273466 -130.83861218 252.94234847 -130.51895523 254.29219055 C-127.79940855 265.62920584 -124.88301315 276.98077973 -121.22330093 288.05293274 C-120.48086929 290.36836243 -120.48086929 290.36836243 -120.04898453 292.45722961 C-119.57864749 294.64961427 -119.57864749 294.64961427 -117.48086929 297.36836243 C-113.46224866 299.09624886 -109.33284829 299.8379269 -105.04336929 300.61836243 C-103.8235939 300.8623175 -102.60381851 301.10627258 -101.34708023 301.35762024 C-97.73092124 302.06642915 -94.10953912 302.72701135 -90.48086929 303.36836243 C-89.53775894 303.53851868 -88.59464859 303.70867493 -87.62295914 303.88398743 C-23.52843497 315.19406889 42.79852564 308.33672259 106.51913071 298.36836243 C109.95806324 286.48808581 112.95708883 274.56921173 115.57674789 262.48213196 C116.14413042 259.86836374 116.72172262 257.25699855 117.30038071 254.64570618 C119.13769911 246.28447012 120.85474951 237.9123667 122.30038071 229.47383118 C122.49139862 228.38243835 122.49139862 228.38243835 122.68627548 227.26899719 C123.8922129 219.9493749 123.90640573 213.58684049 120.95663071 206.74336243 C117.5616249 198.77247923 119.90312405 192.38095097 122.93709946 184.57929993 C124.22995924 181.95527341 125.29451379 180.39522756 127.11288071 178.21601868 C130.63453853 173.46523322 130.53642705 168.16065861 130.83163071 162.43086243 C130.90446274 161.36545227 130.97729477 160.30004211 131.05233383 159.2023468 C131.2279432 156.5916208 131.38294574 153.98139146 131.51913071 151.36836243 C126.51323186 151.89390218 121.53017579 152.49404849 116.54647446 153.20039368 C63.94578455 160.55760941 10.60230821 163.20589393 -42.48086929 162.36836243 C-43.73303238 162.34902649 -44.98519547 162.32969055 -46.27530289 162.30976868 C-78.34673964 161.70101566 -111.85311511 159.36965897 -143.10977554 151.88398743 C-145.56503174 151.26211419 -145.56503174 151.26211419 -148.48086929 151.36836243 Z M158.51913071 171.36836243 C158.84913071 172.62648743 159.17913071 173.88461243 159.51913071 175.18086243 C161.35951906 183.61487237 161.76876968 192.60408493 157.51913071 200.36836243 C151.77181951 208.08779021 146.36676521 213.01446915 136.64413071 214.55586243 C135.67733383 214.71441711 134.71053696 214.8729718 133.71444321 215.03633118 C132.98999008 215.14590149 132.26553696 215.2554718 131.51913071 215.36836243 C132.06644575 219.16138299 132.38029269 220.22291307 135.14413071 223.11836243 C138.58068685 225.67542079 141.15156844 226.51394784 145.51913071 226.36836243 C155.91254707 223.10234616 161.91389681 215.75331359 166.82332993 206.414505 C171.42402885 197.35471553 174.66401083 188.7416702 173.51913071 178.36836243 C171.97684605 174.25560334 171.18241664 172.81055305 167.51913071 170.36836243 C162.86495902 170.02613798 162.86495902 170.02613798 158.51913071 171.36836243 Z M136.51913071 179.36836243 C131.50611644 184.7922795 127.51324168 191.02355487 127.08163071 198.55586243 C127.22721892 202.32581744 127.22721892 202.32581744 129.14413071 204.86836243 C132.25547033 206.83341903 133.88625058 206.87696564 137.51913071 206.36836243 C144.95320991 203.48576028 149.04035159 198.32592067 152.51913071 191.36836243 C152.64120942 189.57976731 152.69461518 187.78607861 152.70663071 185.99336243 C152.72081039 185.03687805 152.73499008 184.08039368 152.74959946 183.09492493 C152.51202423 180.28428915 152.12212151 178.67793471 150.51913071 176.36836243 C144.8544112 174.59119552 140.97733785 175.61731918 136.51913071 179.36836243 Z M-182.91836929 183.24336243 C-186.42503706 188.01243059 -185.9600864 192.61775711 -185.48086929 198.36836243 C-182.88514914 212.3992822 -174.47625472 226.17154136 -162.66836929 234.30586243 C-158.20561149 235.79344836 -154.13612735 236.07558861 -149.48086929 235.36836243 C-145.94372288 233.30502702 -143.85758295 231.24819181 -142.48086929 227.36836243 C-142.48086929 226.37836243 -142.48086929 225.38836243 -142.48086929 224.36836243 C-143.24270523 224.28199524 -144.00454117 224.19562805 -144.78946304 224.10664368 C-153.78073047 222.8831129 -160.96999497 220.86029603 -166.85586929 213.61836243 C-171.98011131 206.00316943 -173.31440724 198.45529252 -172.48086929 189.36836243 C-171.98325974 186.91433922 -171.32223745 184.73471037 -170.48086929 182.36836243 C-174.75408578 180.23175418 -179.23439601 180.40953683 -182.91836929 183.24336243 Z M-162.41836929 187.18086243 C-165.31968402 191.66471247 -165.32226469 195.1691739 -164.48086929 200.36836243 C-162.59531863 206.65722847 -158.74876463 210.61855516 -153.48086929 214.36836243 C-150.01224046 216.10267685 -146.27324195 215.82559885 -142.48086929 215.36836243 C-139.66659954 214.13758928 -139.66659954 214.13758928 -138.48086929 211.36836243 C-137.6435404 204.02678231 -141.19851238 198.04609406 -145.48086929 192.36836243 C-148.71868885 188.70821858 -151.43733843 186.71020875 -156.10586929 185.18086243 C-159.57581685 185.10444483 -159.57581685 185.10444483 -162.41836929 187.18086243 Z M177.51913071 205.36836243 C177.18938867 219.87026988 177.18938867 219.87026988 183.51913071 232.36836243 C185.85609746 234.30788857 185.85609746 234.30788857 188.51913071 234.36836243 C191.60900463 233.14678436 193.09746318 231.99169703 194.95663071 229.24336243 C195.81076087 224.87780824 195.30037735 221.44755322 193.51913071 217.36836243 C189.70525416 212.42251338 184.92777364 208.45901553 179.51913071 205.36836243 C178.85913071 205.36836243 178.19913071 205.36836243 177.51913071 205.36836243 Z M203.51913071 223.36836243 C202.85913071 224.02836243 202.19913071 224.68836243 201.51913071 225.36836243 C201.0601399 226.79291316 200.64870528 228.23312609 200.26913071 229.68086243 C198.97761875 233.84532954 197.51488675 235.24966268 193.94491196 237.80976868 C190.68598641 241.37226538 190.31545179 246.76023967 189.51913071 251.36836243 C189.36444321 252.22816711 189.20975571 253.0879718 189.05038071 253.97383118 C188.41013923 258.31728755 188.24990432 261.42707449 190.51913071 265.36836243 C192.96863692 267.81786864 193.76636092 267.69107497 197.14413071 267.74336243 C207.24382525 267.46844237 213.7489246 261.40366697 220.51913071 254.36836243 C227.89754403 245.90019785 234.93580985 237.28483573 235.68319321 225.70039368 C235.35178439 220.98965402 232.77795777 218.47909219 229.39413071 215.49336243 C219.18586399 211.49882328 210.43789679 215.63562386 203.51913071 223.36836243 Z M-198.48086929 223.36836243 C-202.26361296 227.20756495 -205.09879586 230.85759414 -205.91836929 236.24336243 C-205.29482557 240.69724619 -203.69022471 242.2319469 -200.48086929 245.36836243 C-198.57896418 246.76297292 -198.57896418 246.76297292 -196.48086929 246.36836243 C-192.18855834 243.01826607 -190.08916104 239.53182539 -188.48086929 234.36836243 C-187.97193075 228.62198362 -188.4957134 223.03300882 -189.48086929 217.36836243 C-192.51521945 217.36836243 -196.24706695 221.51388501 -198.48086929 223.36836243 Z M169.51913071 218.36836243 C168.30263414 219.67529399 167.12034632 221.01422063 165.95663071 222.36836243 C164.99563461 223.48211243 164.99563461 223.48211243 164.01522446 224.61836243 C163.52151352 225.19586243 163.02780258 225.77336243 162.51913071 226.36836243 C164.86209014 227.93033538 167.20927268 229.47682702 169.58163071 230.99336243 C170.27385727 231.43937805 170.96608383 231.88539368 171.67928696 232.34492493 C173.45953919 233.53040091 173.45953919 233.53040091 175.51913071 233.36836243 C175.32577133 232.7882843 175.13241196 232.20820618 174.93319321 231.61054993 C173.46183904 227.19648743 171.99048487 222.78242493 170.51913071 218.36836243 C170.18913071 218.36836243 169.85913071 218.36836243 169.51913071 218.36836243 Z M-242.48086929 231.36836243 C-245.24217914 235.88167577 -245.15862063 240.22936875 -244.48086929 245.36836243 C-240.65166214 258.41761584 -226.96720468 272.16895537 -215.32852554 278.54804993 C-210.78034604 280.52096464 -207.20248707 280.79375647 -202.48086929 279.36836243 C-199.29421899 277.59848013 -199.29421899 277.59848013 -197.48086929 274.36836243 C-197.17194705 270.91229479 -197.80989482 267.75518597 -198.48086929 264.36836243 C-198.66004898 263.24687805 -198.83922867 262.12539368 -199.02383804 260.96992493 C-200.12761986 254.05557551 -200.12761986 254.05557551 -204.48086929 248.93086243 C-205.47086929 248.41523743 -206.46086929 247.89961243 -207.48086929 247.36836243 C-209.09198205 244.70169303 -210.30040347 242.48903289 -210.79727554 239.40351868 C-212.38958334 234.6629909 -218.21016315 231.75011127 -222.31680679 229.25117493 C-229.46677965 225.72654042 -236.46832291 226.08905341 -242.48086929 231.36836243 Z M-181.48086929 228.36836243 C-181.60204117 229.00902649 -181.72321304 229.64969055 -181.84805679 230.30976868 C-182.83766156 235.41765175 -183.96597881 240.39086511 -185.48086929 245.36836243 C-181.52086929 243.05836243 -177.56086929 240.74836243 -173.48086929 238.36836243 C-175.50925239 234.31159623 -177.50218349 231.72893102 -180.48086929 228.36836243 C-180.81086929 228.36836243 -181.14086929 228.36836243 -181.48086929 228.36836243 Z M128.51913071 229.36836243 C127.84363931 232.90840446 127.18032272 236.45062412 126.51913071 239.99336243 C126.23295883 241.49189758 126.23295883 241.49189758 125.94100571 243.02070618 C124.41458202 250.16488039 124.41458202 250.16488039 124.51913071 257.36836243 C126.37623585 259.34272112 126.37623585 259.34272112 128.89413071 260.68086243 C129.70624008 261.17199524 130.51834946 261.66312805 131.35506821 262.16914368 C137.54734845 265.60060583 144.57530741 265.19725166 151.43709946 263.75508118 C161.70465646 260.39182657 169.97742186 253.85490363 176.51913071 245.36836243 C173.26723483 242.00807002 169.88746588 238.79581243 166.45663071 235.61836243 C165.62002914 234.83976868 164.78342758 234.06117493 163.92147446 233.25898743 C161.62944453 231.45517851 160.39777726 230.59072135 157.51913071 230.36836243 C156.57038071 230.84273743 155.62163071 231.31711243 154.64413071 231.80586243 C149.04205198 234.4193592 142.53091967 234.19734961 136.51913071 233.36836243 C133.74217057 232.21744572 131.12657076 230.86093216 128.51913071 229.36836243 Z M238.51913071 239.36836243 C238.19041977 240.0464093 237.86170883 240.72445618 237.52303696 241.42304993 C234.26603262 247.79583348 230.6040435 252.90033112 225.66756821 258.07929993 C223.47696884 260.41328398 221.48852089 262.84647365 219.51913071 265.36836243 C225.93971926 265.25370906 229.14378194 263.79635907 233.75350571 259.31367493 C239.00746488 253.52502079 239.95618126 249.39438237 239.65975571 241.52851868 C239.61334946 240.81566711 239.56694321 240.10281555 239.51913071 239.36836243 C239.18913071 239.36836243 238.85913071 239.36836243 238.51913071 239.36836243 Z M-168.48086929 240.36836243 C-174.90999529 245.93167489 -181.20442424 251.63418377 -187.48086929 257.36836243 C-184.18770253 264.98688255 -176.20841256 268.2043469 -168.99649429 271.38789368 C-160.90096165 274.54314009 -150.53007961 274.86044585 -142.17618179 272.39179993 C-137.58253776 270.45411698 -137.58253776 270.45411698 -134.81753922 266.61225891 C-134.39961858 263.82682846 -134.81290858 261.73388752 -135.40665054 258.98164368 C-135.6264357 257.96135071 -135.84622086 256.94105774 -136.07266617 255.8898468 C-136.3104982 254.83088196 -136.54833023 253.77191711 -136.79336929 252.68086243 C-137.01959976 251.61029602 -137.24583023 250.53972961 -137.47891617 249.4367218 C-138.34870763 245.36707799 -138.34870763 245.36707799 -139.48086929 241.36836243 C-140.14086929 241.03836243 -140.80086929 240.70836243 -141.48086929 240.36836243 C-142.24399429 240.84273743 -143.00711929 241.31711243 -143.79336929 241.80586243 C-149.43535483 244.81399722 -157.07765831 244.25086423 -163.10196304 242.68867493 C-165.29336929 241.86836243 -165.29336929 241.86836243 -168.48086929 240.36836243 Z M-248.48086929 253.36836243 C-249.04117176 260.14179665 -248.98414761 265.09941004 -244.90665054 270.71601868 C-241.64702036 274.49361749 -238.26667675 276.93262019 -233.48086929 278.36836243 C-230.77199989 278.53634505 -230.77199989 278.53634505 -228.48086929 278.36836243 C-232.41509208 273.73222042 -232.41509208 273.73222042 -236.48477554 269.21601868 C-241.05195506 264.28485141 -244.51333709 259.40329571 -247.48086929 253.36836243 C-247.81086929 253.36836243 -248.14086929 253.36836243 -248.48086929 253.36836243 Z M-103.48086929 309.36836243 C-98.13952331 335.657485 -98.13952331 335.657485 -82.48086929 356.36836243 C-61.6421549 368.60222168 -28.80576457 365.70080426 -5.80044937 365.62226868 C-3.12016788 365.61705222 -0.44001746 365.62680186 2.24024677 365.63598251 C37.57483965 367.12106096 37.57483965 367.12106096 68.51913071 353.36836243 C74.09384436 347.68677474 77.9836763 341.56121356 81.70663071 334.55586243 C82.2138768 333.63482727 82.72112289 332.71379211 83.24374008 331.7648468 C89.2000097 321.1085606 89.2000097 321.1085606 91.51913071 309.36836243 C78.76301623 310.18768607 66.05114788 311.41649154 53.32870102 312.63887024 C47.06090641 313.23965223 40.7916646 313.81918303 34.51913071 314.36836243 C33.24956528 314.4801886 31.97999985 314.59201477 30.67196274 314.70722961 C16.52701594 315.76834004 2.32086172 315.61153894 -11.85586929 315.61836243 C-12.55588814 315.61909885 -13.25590698 315.61983528 -13.97713852 315.62059402 C-35.609973 315.63912741 -57.00127018 315.21068948 -78.48086929 312.36836243 C-79.57979507 312.22430969 -80.67872086 312.08025696 -81.81094742 311.93183899 C-86.44675956 311.31119747 -91.07262301 310.65323055 -95.69180679 309.91914368 C-99.50245502 309.27246308 -99.50245502 309.27246308 -103.48086929 309.36836243 Z M-61.48086929 370.36836243 C-55.37695327 392.15682756 -55.37695327 392.15682756 -41.48086929 409.36836243 C-37.8575831 410.57612449 -35.28475402 410.76877135 -31.48086929 410.36836243 C-28.23424751 407.71980255 -27.28291075 405.32164782 -26.79336929 401.29023743 C-26.30411523 396.20663019 -26.95164795 391.55684099 -27.85586929 386.55586243 C-27.99508804 385.72377258 -28.13430679 384.89168274 -28.27774429 384.03437805 C-28.88917016 380.43792496 -29.56363537 376.90065709 -30.48086929 373.36836243 C-33.90489513 372.3739379 -37.22645899 372.08447636 -40.77774429 371.83320618 C-42.58565445 371.7026886 -42.58565445 371.7026886 -44.43008804 371.5695343 C-45.68434586 371.48252258 -46.93860367 371.39551086 -48.23086929 371.30586243 C-50.13545914 371.16954407 -50.13545914 371.16954407 -52.07852554 371.0304718 C-55.21243042 370.80662145 -58.34653077 370.58604243 -61.48086929 370.36836243 Z M25.45663071 371.80586243 C24.33139999 371.86471619 24.33139999 371.86471619 23.18343735 371.92475891 C19.22165305 372.09711197 19.22165305 372.09711197 15.51913071 373.36836243 C14.86301271 375.27713711 14.86301271 375.27713711 14.44881821 377.59492493 C14.27479477 378.46246399 14.10077133 379.33000305 13.92147446 380.22383118 C13.74745102 381.13777649 13.57342758 382.0517218 13.39413071 382.99336243 C13.21237289 383.88410461 13.03061508 384.7748468 12.84334946 385.69258118 C11.53378887 392.37823257 10.56722731 398.60332857 12.89413071 405.18086243 C13.14936508 405.92980774 13.40459946 406.67875305 13.66756821 407.45039368 C14.46311107 409.55189736 14.46311107 409.55189736 16.51913071 411.36836243 C20.41476369 411.98812222 22.10966388 411.62972423 25.45663071 409.49336243 C35.07065863 400.50524778 41.54821781 386.74826735 45.51913071 374.36836243 C45.51913071 373.37836243 45.51913071 372.38836243 45.51913071 371.36836243 C38.81518229 371.23804809 32.14886599 371.43253672 25.45663071 371.80586243 Z " fill="#851818" transform="translate(260.4808692932129,44.63163757324219)"/>
<path d="M0 0 C1.24233398 0.00483398 1.24233398 0.00483398 2.50976562 0.00976562 C3.7559668 0.02233398 3.7559668 0.02233398 5.02734375 0.03515625 C5.89294922 0.03966797 6.75855469 0.04417969 7.65039062 0.04882812 C9.75523914 0.06045712 11.86005133 0.07838552 13.96484375 0.09765625 C14.29484375 1.74765625 14.62484375 3.39765625 14.96484375 5.09765625 C9.05751619 7.5810345 3.89618457 8.69516787 -2.47265625 9.16015625 C-3.40585693 9.23613037 -4.33905762 9.31210449 -5.30053711 9.39038086 C-8.54430941 9.64495276 -11.78907381 9.87448237 -15.03515625 10.09765625 C-16.28200195 10.18402344 -17.52884766 10.27039063 -18.81347656 10.359375 C-22.90760671 10.63667069 -27.00228945 10.90193494 -31.09765625 11.16015625 C-32.341521 11.23951416 -33.58538574 11.31887207 -34.86694336 11.40063477 C-39.25528102 11.66249767 -43.64395291 11.89010623 -48.03515625 12.09765625 C-48.96425812 12.14215912 -49.89335999 12.18666199 -50.85061646 12.23251343 C-73.24912176 13.25887458 -95.64818811 13.28524931 -118.06567383 13.28295898 C-122.26265737 13.28287732 -126.4595327 13.28990227 -130.65649414 13.3034668 C-201.38924481 13.52826388 -201.38924481 13.52826388 -214.03515625 5.09765625 C-214.03515625 4.43765625 -214.03515625 3.77765625 -214.03515625 3.09765625 C-213.36798584 3.15300537 -212.70081543 3.20835449 -212.01342773 3.26538086 C-208.83352512 3.52650078 -205.65310618 3.78079242 -202.47265625 4.03515625 C-201.42529297 4.12216797 -200.37792969 4.20917969 -199.29882812 4.29882812 C-177.70998775 6.00820845 -156.12033834 6.30174188 -134.47265625 6.28515625 C-133.77781506 6.28503666 -133.08297386 6.28491707 -132.36707687 6.28479385 C-95.56481141 6.27681428 -58.95649042 4.63088627 -22.265625 1.78125 C-21.56152496 1.72712952 -20.85742493 1.67300903 -20.13198853 1.61724854 C-16.52348366 1.33015627 -12.93128805 0.97904913 -9.33544922 0.56103516 C-6.20890886 0.20565911 -3.15056603 -0.02203193 0 0 Z " fill="#851818" transform="translate(355.03515625,65.90234375)"/>
<path d="M0 0 C1.81640625 1.4921875 1.81640625 1.4921875 3 3 C3.25 6.125 3.25 6.125 3 9 C2.505 9.495 2.505 9.495 2 10 C1.814375 11.670625 1.814375 11.670625 1.625 13.375 C1 17 1 17 -0.125 18.9375 C-3.3452254 20.76229439 -5.36757018 20.60540497 -9 20 C-10.94194826 18.38887036 -12.55951862 16.6218837 -14.25390625 14.75390625 C-18.66358837 10.32449401 -24.92234852 9.05525138 -31 9 C-38.64228857 9.24949052 -43.68649508 12.40450115 -49.53393555 16.98779297 C-53.51643708 20.0350054 -53.51643708 20.0350054 -56.3203125 19.83203125 C-58 19 -58 19 -59 18 C-59.04092937 15.66702567 -59.04241723 13.33294775 -59 11 C-60.32 10.34 -61.64 9.68 -63 9 C-62.57829429 4.22066863 -60.48075387 1.1492535 -57 -2 C-40.14828739 -13.88764223 -16.75229462 -10.35890682 0 0 Z " fill="#851818" transform="translate(337,251)"/>
<path d="M0 0 C3.53617636 2.89917461 6.48667089 5.50315346 7.00390625 10.26171875 C6.90078125 10.96296875 6.79765625 11.66421875 6.69140625 12.38671875 C5.70140625 12.71671875 4.71140625 13.04671875 3.69140625 13.38671875 C3.73265625 14.50046875 3.77390625 15.61421875 3.81640625 16.76171875 C3.69140625 20.38671875 3.69140625 20.38671875 1.69140625 22.38671875 C-2.51585453 22.38671875 -4.7244376 21.24754256 -7.74609375 18.51171875 C-14.21631956 12.67307681 -19.57101047 11.86352049 -28.15625 12.109375 C-35.82403728 12.78398826 -39.48397444 15.31064655 -44.6484375 20.8515625 C-46.30859375 22.38671875 -46.30859375 22.38671875 -49.49609375 23.57421875 C-52.30859375 23.38671875 -52.30859375 23.38671875 -54.62109375 21.88671875 C-56.74644042 18.73805702 -56.95555283 16.12895249 -57.30859375 12.38671875 C-57.63859375 12.05671875 -57.96859375 11.72671875 -58.30859375 11.38671875 C-58.74609375 8.63671875 -58.74609375 8.63671875 -58.30859375 5.38671875 C-45.67780145 -9.40935223 -15.34744595 -10.66951879 0 0 Z " fill="#851818" transform="translate(232.30859375,248.61328125)"/>
<path d="M0 0 C2.98720363 1.88665493 3.33708678 3.16725114 4.375 6.5 C4.88526396 13.51612944 3.30676088 18.93723477 -0.87109375 24.5546875 C-4.73934812 28.8450899 -9.13897906 32.15646643 -15.04296875 32.73828125 C-21.39974398 32.90863207 -26.55950076 32.63238096 -31.625 28.5 C-37.17981841 22.18770635 -40.20776211 14.88099788 -41 6.5625 C-40.87625 5.551875 -40.7525 4.54125 -40.625 3.5 C-37.625 1.5 -37.625 1.5 -35.58984375 1.65234375 C-33.11475126 2.72012719 -32.50497798 3.73298011 -31.1875 6.0625 C-30.76984375 6.77664063 -30.3521875 7.49078125 -29.921875 8.2265625 C-29.49390625 8.97679687 -29.0659375 9.72703125 -28.625 10.5 C-27.7375377 11.98420418 -26.8420357 13.46363889 -25.9375 14.9375 C-25.34388672 15.92556641 -25.34388672 15.92556641 -24.73828125 16.93359375 C-23.69557623 18.6605347 -23.69557623 18.6605347 -21.625 19.5 C-17.893148 19.91465022 -16.11062474 19.797997 -12.875 17.8125 C-10.02629472 14.88466402 -9.03964104 12.47632644 -8.20703125 8.5078125 C-7.01850329 2.96134868 -7.01850329 2.96134868 -4.8125 0.375 C-2.625 -0.5 -2.625 -0.5 0 0 Z " fill="#851818" transform="translate(274.625,294.5)"/>
</svg>
