<?xml version="1.0" encoding="UTF-8"?>
<svg version="1.1" xmlns="http://www.w3.org/2000/svg" width="512" height="512">
<path d="M0 0 C1.01331642 -0.00694553 2.02663284 -0.01389106 3.07065582 -0.02104706 C6.47636226 -0.03938749 9.88137766 -0.02903288 13.28710938 -0.01878357 C15.72453332 -0.02583841 18.16195288 -0.03458158 20.59936523 -0.04489136 C26.53854312 -0.06509891 32.47754449 -0.06640091 38.4167347 -0.05826581 C43.24309262 -0.05196908 48.06939463 -0.05309982 52.89575195 -0.05953789 C53.58234469 -0.06043954 54.26893743 -0.0613412 54.976336 -0.06227018 C56.37108296 -0.06412135 57.7658299 -0.06598391 59.16057682 -0.06785773 C72.24288267 -0.08444105 85.32508072 -0.07571232 98.4073801 -0.05887216 C110.38052494 -0.04417268 122.35341889 -0.05880599 134.32653141 -0.08764232 C146.61671965 -0.1170222 158.90679203 -0.12801287 171.19701385 -0.11846012 C172.58666482 -0.11743755 173.9763158 -0.11644294 175.3659668 -0.11547661 C176.39160162 -0.11476202 176.39160162 -0.11476202 177.43795633 -0.114033 C182.25921926 -0.1118671 187.0803727 -0.12168214 191.90161133 -0.13624763 C198.38921184 -0.15557379 204.87645907 -0.1487149 211.36404419 -0.12404823 C213.74894983 -0.11902261 216.13389077 -0.12257512 218.51876831 -0.13519669 C221.76696304 -0.15103106 225.01359892 -0.13626599 228.26171875 -0.11352539 C229.21229408 -0.12536112 230.16286942 -0.13719685 231.14225006 -0.14939123 C237.50801329 -0.05843469 237.50801329 -0.05843469 240.72843933 2.90477085 C242.28616611 5.80368832 242.50387404 7.17529496 242.21289062 10.41700745 C241.5084443 22.92822225 243.143701 31.75901471 249.54366708 42.53204656 C258.76552282 58.38508304 260.24248987 72.75139748 259.75056314 90.88711214 C259.66579271 94.60568063 259.66784458 98.32442462 259.65841675 102.04380798 C259.6311685 108.25174881 259.54971427 114.45682509 259.42724609 120.66358948 C259.25469198 129.41654426 259.18940073 138.16811132 259.14139199 146.92250371 C259.10409423 153.02310703 259.04215496 159.12350028 258.97525167 165.22384214 C258.95919466 166.69411398 258.94378263 168.16439301 258.92901468 169.63467836 C258.8796038 174.44119053 258.80166282 179.24637612 258.70947266 184.05226135 C258.69669281 185.26244934 258.68391296 186.47263733 258.67074585 187.71949768 C258.64494446 188.82596649 258.61914307 189.9324353 258.59255981 191.07243347 C258.57584291 192.03269251 258.55912601 192.99295155 258.54190254 193.98230934 C258.05722476 196.96831174 257.21774133 198.34761406 255.13085938 200.5146637 C254.14085937 200.8446637 253.15085937 201.1746637 252.13085938 201.5146637 C251.80085938 208.1146637 251.47085937 214.7146637 251.13085938 221.5146637 C252.78085937 221.8446637 254.43085938 222.1746637 256.13085938 222.5146637 C258.20168676 225.62090477 258.38160999 226.28071625 258.38812828 229.79868889 C258.39457717 230.67794403 258.40102607 231.55719917 258.40767038 232.46309841 C258.40302457 233.91330416 258.40302457 233.91330416 258.39828491 235.39280701 C258.40281603 236.41933667 258.40734714 237.44586634 258.41201556 238.50350296 C258.42472529 241.96023058 258.42303491 245.41680195 258.42138672 248.87355042 C258.42736815 251.3454814 258.4341728 253.81741052 258.44174194 256.28933716 C258.45761303 262.31919742 258.46385247 268.34899575 258.4649667 274.37887113 C258.46591702 279.28430053 258.47002658 284.18971704 258.47636795 289.09514236 C258.49399135 303.01196553 258.503206 316.92875784 258.501707 330.84559225 C258.50162709 331.59619051 258.50154718 332.34678878 258.50146484 333.12013245 C258.50138308 333.87165144 258.50130132 334.62317044 258.50121708 335.39746274 C258.50040557 347.5553126 258.51950618 359.71303815 258.54774158 371.8708521 C258.57652411 384.36330577 258.59027868 396.85569896 258.58855402 409.34818661 C258.5878916 416.35794449 258.59331777 423.36757234 258.61491013 430.37730026 C258.63511246 436.97812523 258.63439332 443.57872365 258.61987686 450.17957878 C258.61779142 452.59618595 258.62247372 455.01281039 258.63459778 457.42938805 C258.77193936 486.71331372 258.77193936 486.71331372 250.13085938 497.5146637 C249.57398438 498.3396637 249.01710938 499.1646637 248.44335938 500.0146637 C241.9468874 507.03787664 232.05407068 512.47701957 222.40158176 513.01802826 C220.74202828 513.03965662 219.082102 513.0401704 217.42250061 513.02259827 C216.49883475 513.02883823 215.57516889 513.03507819 214.62351316 513.04150724 C211.55676605 513.05734516 208.49082397 513.04486907 205.42407227 513.03224182 C203.21386759 513.03766706 201.00366654 513.04479197 198.79347229 513.05348206 C192.80995492 513.07167143 186.82671436 513.06466556 180.84319234 513.05196571 C174.57029446 513.04181412 168.29741972 513.05123751 162.02452087 513.05751038 C150.81658636 513.06524627 139.60876555 513.05284133 128.4008578 513.03247303 C118.25684108 513.01460821 108.11300754 513.01770482 97.96899414 513.03614807 C86.1661655 513.05759748 74.36342601 513.06549885 62.56057733 513.05369902 C56.32117883 513.04747622 50.08190626 513.04659502 43.84251595 513.05984497 C37.97449559 513.07143648 32.10681961 513.06331715 26.23883629 513.04026794 C24.09069006 513.03499827 21.94251463 513.03646462 19.79438019 513.0453186 C4.6947447 513.1017962 -7.39551298 512.46774869 -18.86914062 501.5146637 C-29.29996946 490.5881123 -30.46731776 478.79575713 -30.45109558 464.37298584 C-30.46359787 462.64419462 -30.47779277 460.91541496 -30.49352342 459.1866501 C-30.53142478 454.4579302 -30.54456073 449.72942339 -30.55328882 445.00057161 C-30.56691224 439.89099599 -30.60319509 434.78156988 -30.63606262 429.67208862 C-30.71017625 417.34128465 -30.74604676 405.01048094 -30.77764151 392.67950651 C-30.79340035 386.85911674 -30.81328366 381.03874122 -30.83272743 375.21836281 C-30.89594739 355.84549513 -30.94971631 336.47263876 -30.97484875 317.0996809 C-30.98146753 312.07809631 -30.98810767 307.05651176 -30.99487305 302.03492737 C-30.9965457 300.78697776 -30.99821835 299.53902816 -30.99994168 298.2532619 C-31.02874177 278.07239512 -31.12211615 257.8923793 -31.2429746 237.71187481 C-31.36630171 216.94851353 -31.43242963 196.18558195 -31.44314939 175.42185193 C-31.45052881 163.78172033 -31.48199275 152.14280058 -31.57735252 140.50302696 C-31.65842815 130.58207654 -31.68687089 120.66264772 -31.64971408 110.74140795 C-31.63233263 105.69149402 -31.63784938 100.64469331 -31.71105576 95.59521103 C-31.99752448 74.71192695 -31.39305544 57.46434455 -20.21954554 39.2833311 C-13.71031281 28.6172577 -13.08194805 19.06405507 -14.17700195 6.78761292 C-13.86914062 4.5146637 -13.86914062 4.5146637 -12.46672058 2.40477085 C-8.4987354 -0.48250011 -4.79164512 -0.04153993 0 0 Z " fill="#010101" transform="translate(141.869140625,-0.5146636962890625)"/>
<path d="M0 0 C85.14 0 170.28 0 258 0 C258 30.69 258 61.38 258 93 C250.41 94.32 242.82 95.64 235 97 C199.73188101 105.05506421 168.57345856 119.75958602 137 137 C135.90864746 137.59586914 134.81729492 138.19173828 133.69287109 138.80566406 C130.79466228 140.39020961 127.89723564 141.97617597 125 143.5625 C87.64133758 164.0122061 43.33572679 183 0 183 C0 122.61 0 62.22 0 0 Z " fill="#7EDBD4" transform="translate(127,71)"/>
<path d="M0 0 C0.03738281 1.19238281 0.07476562 2.38476562 0.11328125 3.61328125 C0.17894032 5.179719 0.24538768 6.74612384 0.3125 8.3125 C0.33505859 9.09818359 0.35761719 9.88386719 0.38085938 10.69335938 C0.4340332 11.8293457 0.4340332 11.8293457 0.48828125 12.98828125 C0.51446533 13.68477783 0.54064941 14.38127441 0.56762695 15.09887695 C1.1317609 17.57934619 2.02668877 18.42151927 4 20 C5.98 20.99 5.98 20.99 8 22 C8 28.6 8 35.2 8 42 C5.69 42.66 3.38 43.32 1 44 C0.67 64.13 0.34 84.26 0 105 C-8.25 106.65 -16.5 108.3 -25 110 C-62.33740205 117.90353766 -96.01487638 134.8167352 -128.875 153.75 C-152.27911248 167.1670394 -177.13251568 178.43987338 -203.30078125 185.28125 C-206.02339438 185.96872181 -206.02339438 185.96872181 -208.70947266 186.95288086 C-214.2968385 188.7309052 -220.07650415 189.61973802 -225.83764648 190.65942383 C-228.03330669 191.05721106 -230.22657812 191.46661105 -232.41992188 191.87695312 C-233.85403631 192.138736 -235.28827768 192.39982456 -236.72265625 192.66015625 C-237.99890869 192.89355713 -239.27516113 193.12695801 -240.59008789 193.36743164 C-246.35979533 194.1950523 -252.18840555 194.55295427 -258 195 C-258 160.35 -258 125.7 -258 90 C-255.77641324 88.88820662 -254.1540144 88.69940833 -251.6875 88.421875 C-221.76926299 84.88801336 -192.92416162 78.51392522 -165 67 C-164.34821777 66.73316406 -163.69643555 66.46632813 -163.02490234 66.19140625 C-144.12645493 58.3557949 -126.04294378 48.53869448 -108.3125 38.375 C-76.82715299 20.36385097 -37.3463845 0 0 0 Z " fill="#DEF5F3" transform="translate(385,179)"/>
<path d="M0 0 C0 49.5 0 99 0 150 C-85.14 150 -170.28 150 -258 150 C-258 130.2 -258 110.4 -258 90 C-251.73 89.01 -245.46 88.02 -239 87 C-231.31791083 85.74509972 -223.65186536 84.42787367 -216 83 C-215.27699707 82.8654541 -214.55399414 82.7309082 -213.80908203 82.59228516 C-191.50284558 78.27970967 -169.34739867 69.96135403 -149 60 C-147.76053319 59.40730835 -146.52095534 58.81484883 -145.28125 58.22265625 C-136.18574377 53.81648643 -127.2932753 49.00131301 -118.375 44.25 C-117.72177765 43.90200348 -117.0685553 43.55400696 -116.39553833 43.19546509 C-109.89588721 39.72912479 -103.40843068 36.24652705 -96.98046875 32.6484375 C-68.74597808 16.85643434 -33.09432691 0 0 0 Z " fill="#7EDBD4" transform="translate(385,299)"/>
<path d="M0 0 C84.81 0 169.62 0 257 0 C257 19.53374233 257 19.53374233 251 26 C243.54077544 32.47529833 236.64885329 33.14810867 227.10760498 33.15390015 C225.78130235 33.16047353 225.78130235 33.16047353 224.42820573 33.1671797 C221.47134065 33.18051282 218.51450533 33.18673413 215.55761719 33.19287109 C213.43505216 33.20077622 211.31248845 33.20904543 209.18992615 33.21765137 C202.22558873 33.24381824 195.26124545 33.25917111 188.296875 33.2734375 C185.89679206 33.27879888 183.49670915 33.2841764 181.09662628 33.28956985 C171.11291397 33.31118843 161.12920325 33.32992523 151.14547348 33.34119225 C136.84883773 33.35743454 122.55247358 33.39063121 108.2559402 33.44759309 C98.19629817 33.48630527 88.13672876 33.50582632 78.07701421 33.51111281 C72.07169395 33.51476371 66.06666375 33.52675838 60.06142426 33.55921555 C54.41095871 33.58931924 48.76095842 33.59559951 43.11042976 33.58383179 C41.04085873 33.58361127 38.97126595 33.59189835 36.90176964 33.60948563 C15.23709157 33.78352698 15.23709157 33.78352698 7.12337875 26.25984764 C-0.65102176 18.11702404 0 11.70798375 0 0 Z " fill="#D7D5CF" transform="translate(127,464)"/>
<path d="M0 0 C85.14 0 170.28 0 258 0 C258 30.69 258 61.38 258 93 C257.67 93 257.34 93 257 93 C257 62.64 257 32.28 257 1 C180.44 1 103.88 1 25 1 C25.36533203 37.50558518 25.36533203 37.50558518 25.74829102 74.01098633 C26.00716341 100.47806163 26.02777519 126.92249069 25.58984375 153.38671875 C25.56947115 154.686681 25.54909855 155.98664326 25.5281086 157.32599831 C25.46906005 160.95666062 25.40227838 164.58707303 25.33178711 168.2175293 C25.31367666 169.30216902 25.29556622 170.38680874 25.27690697 171.50431633 C25.25557512 172.48404474 25.23424328 173.46377316 25.21226501 174.47319031 C25.18696921 175.75617272 25.18696921 175.75617272 25.16116238 177.06507397 C25 179 25 179 24 180 C22.56448966 180.29602174 21.11763324 180.5375924 19.66796875 180.75390625 C18.78689453 180.88603516 17.90582031 181.01816406 16.99804688 181.15429688 C16.07056641 181.28900391 15.14308594 181.42371094 14.1875 181.5625 C12.81368164 181.77036133 12.81368164 181.77036133 11.41210938 181.98242188 C7.53404318 182.55579947 3.93372031 183 0 183 C0 122.61 0 62.22 0 0 Z " fill="#5FD0C7" transform="translate(127,71)"/>
<path d="M0 0 C76.56 0 153.12 0 232 0 C234.64 5.61 237.28 11.22 240 17 C158.16 17 76.32 17 -8 17 C-6 11 -6 11 0 0 Z " fill="#E4E3DF" transform="translate(140,39)"/>
<path d="M0 0 C75.24 0 150.48 0 228 0 C228 5.28 228 10.56 228 16 C201.03563374 16.09262298 174.07130584 16.16399239 147.10681248 16.20724869 C134.58653406 16.22786779 122.06635635 16.25597612 109.54614258 16.30175781 C98.63264474 16.34164531 87.71921984 16.36743755 76.80565113 16.37635398 C71.02778305 16.38156543 65.25012363 16.39380104 59.47232246 16.42292023 C54.0312939 16.45011933 48.59055947 16.4584358 43.14946938 16.45243073 C41.15527497 16.45352894 39.16107048 16.46145586 37.16693497 16.4768219 C34.43719063 16.49682016 31.70854657 16.49190347 28.97877502 16.48101807 C28.19567335 16.49266943 27.41257168 16.5043208 26.60573965 16.51632524 C18.48660927 16.4292339 9.75584443 12.86788033 4 7 C2.02 3.535 2.02 3.535 0 0 Z " fill="#E4E3DF" transform="translate(156,464)"/>
<path d="M0 0 C1.03543945 -0.01160156 1.03543945 -0.01160156 2.09179688 -0.0234375 C10.53108309 0.00855979 16.62309364 3.03385004 23.0625 8.25 C30.49583504 16.03730338 32.77592305 23.97453186 32.546875 34.63671875 C31.46983644 42.67107895 27.39808579 50.15062607 21.0625 55.25 C20.52753906 55.68828125 19.99257812 56.1265625 19.44140625 56.578125 C11.58075351 62.67056855 2.76504824 63.40680221 -6.9375 62.25 C-16.51662979 59.26149332 -23.27267251 53.49686503 -28.3125 44.90625 C-31.71822598 37.62178054 -32.40330628 29.43127246 -30.20703125 21.66796875 C-29.26231796 19.40451284 -28.19442995 17.35453074 -26.9375 15.25 C-26.586875 14.62480469 -26.23625 13.99960938 -25.875 13.35546875 C-20.1447784 4.22292808 -10.47602335 -0.11672449 0 0 Z " fill="#020303" transform="translate(182.9375,152.75)"/>
<path d="M0 0 C0 34.65 0 69.3 0 105 C-19 108 -19 108 -25 108 C-25 73.35 -25 38.7 -25 3 C-21.65066474 1.32533237 -17.87359861 1.3290211 -14.1875 0.9375 C-13.37990234 0.84662109 -12.57230469 0.75574219 -11.74023438 0.66210938 C-7.76544704 0.22914728 -4.02055971 0 0 0 Z " fill="#BEEDE9" transform="translate(152,266)"/>
<path d="M0 0 C74.58 0 149.16 0 226 0 C226 2.97 226 5.94 226 9 C151.42 9 76.84 9 0 9 C0 6.03 0 3.06 0 0 Z " fill="#F0EFED" transform="translate(143,15)"/>
<path d="M0 0 C0.99 0 1.98 0 3 0 C3 49.5 3 99 3 150 C-82.14 150 -167.28 150 -255 150 C-255 130.2 -255 110.4 -255 90 C-236 87 -236 87 -230 87 C-230 107.46 -230 127.92 -230 149 C-153.44 149 -76.88 149 2 149 C2 100.16 2 51.32 2 1 C1.34 0.67 0.68 0.34 0 0 Z " fill="#5EC9C0" transform="translate(382,299)"/>
<path d="M0 0 C1.24539634 0.72273 2.47662878 1.47080709 3.6875 2.25 C4.574375 2.806875 5.46125 3.36375 6.375 3.9375 C11.46852644 9.03102644 13.99470203 14.05044325 14.1875 21.3125 C13.77839434 29.5785323 11.81235771 35.12747359 5.625 40.7734375 C-0.13246812 45.16118538 -6.2166355 45.87206904 -13.34765625 45.65625 C-20.06732371 44.73550505 -24.61391614 41.51229465 -28.75 36.25 C-32.93659701 30.01069477 -34.36185966 24.78134175 -33.3125 17.25 C-30.50375626 8.71091746 -25.6751882 3.71944615 -18 -0.625 C-11.74512231 -2.53326777 -6.00176004 -2.86499111 0 0 Z " fill="#030505" transform="translate(265.3125,121.75)"/>
<path d="M0 0 C6.34732399 3.69181089 11.29040741 9.30872222 13.625 16.3125 C14.56899389 24.41736185 13.26190728 30.56457967 8.625 37.3125 C4.42448883 42.12462406 -0.90318978 44.87125038 -7.171875 45.66796875 C-14.3911104 46.006943 -19.73041094 44.9623001 -25.375 40.3125 C-31.38961927 33.89690612 -33.89212686 27.88247297 -33.6796875 19.08984375 C-32.87414776 11.74703921 -28.9913184 7.3058669 -23.37109375 2.7890625 C-16.29999061 -2.44161653 -8.18912422 -3.81538742 0 0 Z " fill="#020403" transform="translate(193.375,89.6875)"/>
<path d="M0 0 C4.46084656 2.81227283 7.83531643 5.90819418 9.875 10.8125 C10.66090613 16.42611521 10.11734268 21.05706407 6.875 25.8125 C2.67867308 30.04322304 -0.96882066 31.95079891 -6.9375 32.125 C-11.82683288 32.04682753 -14.45023241 31.23088845 -18.125 27.8125 C-21.22473532 24.09610646 -23.41752965 20.61020566 -23.625 15.6875 C-22.7341876 8.78370389 -20.02167664 5.33801272 -14.84375 1.01171875 C-10.2567166 -2.18877955 -5.05277354 -1.92005394 0 0 Z " fill="#DBF1EF" transform="translate(190.125,168.1875)"/>
<path d="M0 0 C76.56 0 153.12 0 232 0 C232 0.33 232 0.66 232 1 C163.03 1 94.06 1 23 1 C22.34 2.98 21.68 4.96 21 7 C19.35 10.3 17.7 13.6 16 17 C8.08 17 0.16 17 -8 17 C-6 11 -6 11 0 0 Z " fill="#D5D3CE" transform="translate(140,39)"/>
<path d="M0 0 C3.63525215 2.60789828 4.83397068 4.0702358 5.625 8.5 C4.82883761 12.95850936 3.69186542 14.40783917 0 17 C-3.5 17.625 -3.5 17.625 -7 17 C-10.38677089 14.54999553 -11.78698584 13.13607554 -12.5625 9 C-11.87642343 5.34092496 -10.57265686 3.64832324 -8 1 C-5.11138291 -0.44430855 -3.20352299 -0.37688506 0 0 Z " fill="#D3E9E7" transform="translate(187,103)"/>
<path d="M0 0 C2.5 1.5625 2.5 1.5625 4 4 C4.72125695 8.40768137 4.52001338 10.25937488 1.9375 13.9375 C-1.74062512 16.52001338 -3.59231863 16.72125695 -8 16 C-10.4375 14.5 -10.4375 14.5 -12 12 C-12.79841448 7.98323437 -12.61897146 5.0316191 -10.5 1.5 C-6.9683809 -0.61897146 -4.01676563 -0.79841448 0 0 Z " fill="#DBF1EF" transform="translate(260,136)"/>
</svg>
