<?xml version="1.0" encoding="UTF-8"?>
<svg version="1.1" xmlns="http://www.w3.org/2000/svg" width="512" height="512">
<path d="M0 0 C1.27848312 -0.01073296 1.27848312 -0.01073296 2.58279419 -0.02168274 C3.5199527 -0.02437164 4.45711121 -0.02706055 5.42266846 -0.02983093 C6.40818695 -0.03640213 7.39370544 -0.04297333 8.40908813 -0.04974365 C11.68086823 -0.06950542 14.95260235 -0.08114595 18.22442627 -0.09111023 C19.34042458 -0.09518576 20.45642288 -0.09926128 21.60623932 -0.10346031 C27.51347164 -0.12433377 33.42068065 -0.13862972 39.32794189 -0.147995 C45.4324396 -0.15905938 51.53657279 -0.19345633 57.64094162 -0.23316669 C62.33183473 -0.25930262 67.02264063 -0.26768419 71.71360016 -0.27127647 C73.96386424 -0.27615058 76.21412422 -0.2877879 78.46431732 -0.30631447 C81.61479112 -0.33063991 84.76431716 -0.32975257 87.91485596 -0.32279968 C89.30844833 -0.34201477 89.30844833 -0.34201477 90.73019409 -0.36161804 C97.90538406 -0.30392568 101.50602893 1.78068328 106.67755127 6.83467102 C111.63852978 13.18993728 111.24433005 22.02454656 111.17755127 29.70967102 C111.18528564 30.60363586 111.19302002 31.49760071 111.20098877 32.4186554 C111.17689752 40.65183941 110.19415867 47.48646167 104.92755127 54.14717102 C101.52755127 57.14717102 101.52755127 57.14717102 98.92755127 57.14717102 C105.7559032 74.09711274 113.76302332 89.65439144 123.24005127 105.27217102 C167.81816062 178.94957042 176.43164092 260.33271511 160.25378418 343.85533142 C157.59894571 357.62005591 155.32110255 371.06755753 155.92755127 385.14717102 C155.98169189 386.44654602 156.03583252 387.74592102 156.09161377 389.08467102 C156.99005665 399.11380084 159.79922852 408.71666119 162.31256104 418.43647766 C168.02221787 440.894862 173.00996861 467.26314831 161.49786377 488.70185852 C154.29704795 499.91506922 143.90232967 507.69795146 131.21443272 511.68558025 C128.21048827 512.29190509 125.36001176 512.28334633 122.29447937 512.29434204 C121.29644078 512.29985707 121.29644078 512.29985707 120.27823979 512.30548352 C118.04992624 512.31649153 115.82165938 512.32035933 113.59332275 512.32417297 C111.99483595 512.33043995 110.39635059 512.33708696 108.79786682 512.34408569 C103.5481365 512.36510589 98.29840596 512.37548824 93.04864502 512.38545227 C91.23860217 512.38950101 89.42855947 512.39361797 87.61851692 512.39780235 C79.11130887 512.41685191 70.60410947 512.43108175 62.09688419 512.43941432 C52.29235439 512.44917714 42.48805093 512.47547263 32.68360084 512.51591522 C25.09614801 512.54613326 17.50875983 512.5608887 9.92124802 512.56419533 C5.39421385 512.56653991 0.86742154 512.57542251 -3.65954781 512.60065651 C-7.92368276 512.62404113 -12.18741842 512.62812903 -16.45160103 512.61789513 C-18.00956556 512.61740212 -19.56755045 512.62365256 -21.12545395 512.63745117 C-36.31306957 512.76435268 -49.0638642 508.99348588 -60.32244873 498.39717102 C-71.69720618 486.33303433 -74.52133286 472.44992789 -74.27947998 456.36592102 C-73.83394544 441.93388203 -71.26144598 428.12433296 -67.50994873 414.20967102 C-64.89274389 404.49066016 -62.48987376 395.25482 -62.07244873 385.14717102 C-62.04118896 384.41997864 -62.0099292 383.69278625 -61.97772217 382.94355774 C-61.558924 368.67197799 -64.2480073 354.95877675 -66.94744873 341.02217102 C-83.59013946 254.79475209 -71.24819916 173.44321328 -25.52191162 98.22993469 C-17.53195981 85.04429162 -10.06464123 71.78217745 -5.07244873 57.14717102 C-5.84201904 56.87131165 -6.61158936 56.59545227 -7.40447998 56.31123352 C-11.00309091 54.74112216 -13.06955134 52.43929503 -15.07244873 49.14717102 C-17.23573537 42.48454863 -17.40660451 36.17850233 -17.38494873 29.20967102 C-17.40106201 28.17648743 -17.41717529 27.14330383 -17.43377686 26.07881165 C-17.43847121 18.66642389 -16.99299107 11.66338833 -12.09979248 5.77217102 C-11.41014404 5.23592102 -10.72049561 4.69967102 -10.00994873 4.14717102 C-9.31772217 3.59029602 -8.62549561 3.03342102 -7.91229248 2.45967102 C-5.08637357 0.44372887 -3.42307544 0.01970038 0 0 Z " fill="#09090A" transform="translate(209.07244873046875,-0.1471710205078125)"/>
<path d="M0 0 C61.38 0 122.76 0 186 0 C205.39070134 48.47675334 206.13467797 107.32661017 196 158 C128.02 158 60.04 158 -10 158 C-15.04801763 126.4498898 -15.04801763 126.4498898 -15.19287109 117.78613281 C-15.20869736 116.88707214 -15.22452362 115.98801147 -15.24082947 115.06170654 C-15.25159012 114.11837463 -15.26235077 113.17504272 -15.2734375 112.203125 C-15.29229759 110.68057098 -15.29229759 110.68057098 -15.3115387 109.1272583 C-15.6753872 72.57706978 -14.64045016 34.16105037 0 0 Z " fill="#28E3D5" transform="translate(163,170)"/>
<path d="M0 0 C66 0 132 0 200 0 C199.37264384 5.64620547 198.72924769 10.70716061 197.5 16.15234375 C193.70050257 37.79166897 196.67327974 58.00269772 202 79 C213.14626157 122.96466704 213.14626157 122.96466704 203.89453125 141.078125 C197.05300432 151.62959334 188.00800011 156.93985936 176 160 C172.79275799 160.25447559 172.79275799 160.25447559 169.45500183 160.26069641 C167.54381813 160.27132362 167.54381813 160.27132362 165.59402466 160.28216553 C164.19964564 160.27987215 162.80526696 160.27736252 161.41088867 160.2746582 C159.92856083 160.27900995 158.44623524 160.28419464 156.96391296 160.29014587 C152.95136182 160.30349909 148.93890508 160.30411853 144.92633605 160.30158257 C141.56924129 160.30051011 138.21216541 160.30540338 134.8550747 160.310188 C126.92998 160.32127101 119.00493269 160.32172773 111.07983398 160.31567383 C102.92223685 160.30963779 94.76481236 160.32193839 86.60724467 160.3432439 C79.58788591 160.36089811 72.56858191 160.36685515 65.54920179 160.36360615 C61.36379475 160.36179884 57.17851081 160.36437386 52.99312401 160.37832069 C49.05400638 160.39095636 45.11515639 160.38890113 41.17604256 160.37590981 C39.73699729 160.3735567 38.29793286 160.37623289 36.85890961 160.38453293 C23.65773465 160.455136 13.20835745 158.55305222 3.25 149.5 C2.5075 148.675 1.765 147.85 1 147 C0.319375 146.278125 -0.36125 145.55625 -1.0625 144.8125 C-10.73391168 130.77335401 -9.21841351 112.62618929 -6.56396484 96.55029297 C-4.63013454 86.09979588 -1.62308816 75.86350896 1.29150391 65.65283203 C2.72199489 60.29662422 3.17195129 55.30129395 3.203125 49.76171875 C3.20882507 48.96329056 3.21452515 48.16486237 3.22039795 47.34223938 C3.22982619 45.65029208 3.23637327 43.95832659 3.24023438 42.26635742 C3.24982443 39.73386298 3.2808184 37.2022221 3.3125 34.66992188 C3.37227333 25.21102332 2.6731453 16.44702367 0.64746094 7.19848633 C0 4 0 4 0 0 Z " fill="#222227" transform="translate(156,340)"/>
<path d="M0 0 C1.08864349 0.00539291 1.08864349 0.00539291 2.19927979 0.01089478 C2.96020432 0.01074875 3.72112885 0.01060272 4.50511169 0.01045227 C7.03202113 0.01115155 9.55885776 0.01894462 12.08575439 0.02676392 C13.83310404 0.02862804 15.58045421 0.03005197 17.32780457 0.03105164 C21.93591749 0.03487724 26.54399909 0.04470788 31.15209961 0.05575562 C35.85068335 0.06596883 40.54927214 0.07054906 45.24786377 0.07559204 C54.47378902 0.08633011 63.69969098 0.10340704 72.92559814 0.12442017 C73.1388121 0.70427673 73.35202606 1.2841333 73.57170105 1.88156128 C79.18720884 17.2555883 79.18720884 17.2555883 86.48809814 31.87442017 C86.98422607 32.76234253 87.480354 33.65026489 87.99151611 34.56509399 C92.64122825 42.81049765 97.57017267 50.89145638 102.47393799 58.98721313 C106.34797453 65.40982591 110.09582732 71.87412918 113.61309814 78.49942017 C113.99868896 79.21702515 114.38427979 79.93463013 114.78155518 80.67398071 C117.77353404 86.41807234 119.66100841 91.89679841 121.92559814 98.12442017 C63.84559814 98.12442017 5.76559814 98.12442017 -54.07440186 98.12442017 C-51.91657162 91.65092947 -49.83979566 86.10954804 -46.82440186 80.12442017 C-46.40038086 79.2784729 -45.97635986 78.43252563 -45.53948975 77.5609436 C-40.69881644 68.10347279 -35.1581183 59.0736452 -29.63690186 50.00332642 C-25.25988547 42.81102972 -21.08739912 35.52523196 -17.07440186 28.12442017 C-16.51365967 27.09832642 -15.95291748 26.07223267 -15.37518311 25.01504517 C-11.81701506 18.23928939 -9.32988579 11.36207547 -7.05487061 4.08145142 C-5.5424278 -0.47997968 -4.6151527 0.00964648 0 0 Z " fill="#222227" transform="translate(222.07440185546875,58.875579833984375)"/>
<path d="M0 0 C10.77566292 8.35071184 18.91351542 20.31109487 21.46484375 33.91015625 C22.59453268 51.22588007 18.97944524 65.01310372 7.77734375 78.59765625 C-1.40542074 88.45998016 -14.23297405 94.1166801 -27.62890625 95.1484375 C-43.69606674 95.49852471 -56.70198846 90.05366436 -68.43359375 79.171875 C-79.29668329 67.48092919 -82.8985374 54.05257961 -82.75 38.47265625 C-81.83829035 23.35485262 -74.19997758 11.96389615 -63.375 1.90234375 C-45.49930389 -13.08598947 -18.8955448 -13.06872482 0 0 Z " fill="#F5F5F7" transform="translate(286.53515625,206.08984375)"/>
<path d="M0 0 C8.3316852 6.36905419 14.63703099 13.395529 19.6328125 22.58984375 C20.12128662 23.48425171 20.12128662 23.48425171 20.61962891 24.39672852 C25.21941011 33.28413729 26.88389308 41.80726558 26.8203125 51.77734375 C26.81459229 52.82696289 26.80887207 53.87658203 26.80297852 54.95800781 C26.39218184 73.0109309 19.31948945 87.99063318 6.43603516 100.62939453 C-8.0854751 114.19908166 -24.79714731 117.78513443 -44.04296875 117.4921875 C-59.83810737 116.85488156 -74.98979073 108.52005246 -85.6328125 97.046875 C-91.35198445 90.35631698 -95.07551372 83.13023113 -98.6796875 75.15234375 C-99.05351562 74.33378906 -99.42734375 73.51523437 -99.8125 72.671875 C-104.97071338 57.68517398 -102.78864708 38.14771328 -96.2421875 24.05859375 C-87.43416229 7.62823903 -73.52184495 -3.71729457 -55.93359375 -9.796875 C-36.61171918 -15.09706991 -16.46792414 -11.35470571 0 0 Z M-77.67578125 18.76953125 C-83.37333674 25.5444023 -86.59418325 32.60027595 -88.6796875 41.15234375 C-88.958125 42.08046875 -88.958125 42.08046875 -89.2421875 43.02734375 C-92.21455118 57.46453878 -88.04307659 70.8894147 -80.6796875 83.15234375 C-72.85290093 93.98603138 -61.19446202 101.84745698 -48.0859375 104.796875 C-33.45027013 106.95896223 -18.63001088 104.01738571 -6.6796875 95.15234375 C4.233146 86.94517145 12.24186658 74.81910606 14.3203125 61.15234375 C15.20884966 44.28722488 12.39252975 31.10492923 1.0703125 17.90234375 C-8.89101144 7.40797238 -20.91738259 1.24255838 -35.50341797 0.85961914 C-52.48167368 0.70534062 -65.894393 6.33479231 -77.67578125 18.76953125 Z " fill="#0B0D0E" transform="translate(293.6796875,195.84765625)"/>
<path d="M0 0 C8.58 0 17.16 0 26 0 C45.39070134 48.47675334 46.13467797 107.32661017 36 158 C-31.98 158 -99.96 158 -170 158 C-170 157.67 -170 157.34 -170 157 C-110.6 157 -51.2 157 10 157 C16.3654639 103.95446749 16.48099234 51.38191728 0 0 Z " fill="#24CBBF" transform="translate(323,170)"/>
<path d="M0 0 C0.89163345 -0.00554901 1.78326691 -0.01109802 2.70191956 -0.01681519 C5.64289447 -0.02860564 8.58232671 -0.0043443 11.52319336 0.02148438 C13.56912669 0.02319555 15.61506221 0.02312972 17.66099548 0.0213623 C21.94576025 0.02301515 26.23000156 0.04170858 30.51464844 0.07324219 C36.00833548 0.11294455 41.50133773 0.11728429 46.99514103 0.10977936 C51.21848328 0.10671097 55.44167139 0.11882514 59.66497612 0.13591003 C61.69078034 0.14294337 63.71660203 0.14606416 65.74241829 0.1452179 C68.57209016 0.14701432 71.40093907 0.16838213 74.23046875 0.1953125 C75.06850037 0.1923819 75.90653198 0.18945129 76.7699585 0.18643188 C80.10498208 0.23543894 82.59917405 0.37381328 85.56944275 1.96252441 C87.8359443 4.49164734 87.56853834 6.58525869 87.58178711 9.92773438 C87.58952148 11.78785156 87.58952148 11.78785156 87.59741211 13.68554688 C87.58194336 14.98234375 87.56647461 16.27914063 87.55053711 17.61523438 C87.57374023 19.56042969 87.57374023 19.56042969 87.59741211 21.54492188 C87.59225586 22.785 87.58709961 24.02507813 87.58178711 25.30273438 C87.57727539 26.44097656 87.57276367 27.57921875 87.56811523 28.75195312 C87.05053711 31.61523438 87.05053711 31.61523438 85.57617188 33.26794434 C81.80880604 35.27763098 78.33237428 35.04968777 74.12280273 35.03515625 C73.22156174 35.04362579 72.32032074 35.05209534 71.39176941 35.06082153 C68.41329838 35.0842171 65.43534306 35.08521318 62.45678711 35.08398438 C60.38700147 35.09108366 58.3172178 35.09878232 56.24743652 35.10705566 C51.90977506 35.12050583 47.57229563 35.12206648 43.23461914 35.11621094 C37.67236501 35.11030999 32.11098227 35.14092062 26.54889679 35.18132782 C22.27495609 35.20715755 18.00122663 35.21008661 13.72721863 35.20643616 C11.67626248 35.20813139 9.62529699 35.21781248 7.57441711 35.23558044 C4.70843876 35.25768003 1.84424297 35.24811476 -1.02172852 35.23046875 C-1.87068192 35.24373199 -2.71963531 35.25699524 -3.59431458 35.2706604 C-9.33902013 35.1883433 -9.33902013 35.1883433 -12.47410583 32.24499512 C-15.09352415 27.57599419 -14.56506117 22.85010027 -14.51196289 17.61523438 C-14.54773438 15.99488281 -14.54773438 15.99488281 -14.58422852 14.34179688 C-14.58132812 12.77558594 -14.58132812 12.77558594 -14.57836914 11.17773438 C-14.57909424 10.23027344 -14.57981934 9.2828125 -14.58056641 8.30664062 C-12.73457889 0.43423584 -6.84824957 -0.10864738 0 0 Z " fill="#28E3D5" transform="translate(218.949462890625,11.384765625)"/>
<path d="M0 0 C11.92618991 -0.06946775 23.85233179 -0.12279494 35.77868271 -0.15543652 C41.31639495 -0.17110173 46.85396891 -0.19235579 52.39160156 -0.22631836 C57.73433036 -0.25888103 63.07692604 -0.27684657 68.4197464 -0.28463173 C70.45953721 -0.29018078 72.49932063 -0.30101654 74.53905487 -0.31719017 C77.39305955 -0.3389232 80.24651201 -0.34196864 83.10058594 -0.34057617 C83.94647278 -0.351362 84.79235962 -0.36214783 85.66387939 -0.3732605 C89.02223868 -0.35549519 91.52782283 -0.25112995 94.52386475 1.34233093 C96.78118731 3.87725704 96.51800456 5.97086552 96.53125 9.3125 C96.53898437 11.17261719 96.53898437 11.17261719 96.546875 13.0703125 C96.53140625 14.36710937 96.5159375 15.66390625 96.5 17 C96.52320313 18.94519531 96.52320313 18.94519531 96.546875 20.9296875 C96.54171875 22.16976562 96.5365625 23.40984375 96.53125 24.6875 C96.52673828 25.82574219 96.52222656 26.96398437 96.51757812 28.13671875 C96 31 96 31 94.52960205 32.65766907 C90.7369419 34.67024058 87.23939098 34.3939304 83.00878906 34.34057617 C82.10112289 34.34101425 81.19345673 34.34145233 80.25828552 34.34190369 C77.26051261 34.33981499 74.26330013 34.31647991 71.265625 34.29296875 C69.18626206 34.28737309 67.10689516 34.28310285 65.02752686 34.28010559 C59.55626494 34.2686545 54.08524217 34.23918486 48.61407471 34.20599365 C43.0305098 34.17529858 37.44690622 34.16160145 31.86328125 34.14648438 C20.90874913 34.11431556 9.95439446 34.06311586 -1 34 C-1 33.67 -1 33.34 -1 33 C33.65 32.505 33.65 32.505 69 32 C69 22.1 69 12.2 69 2 C46.23 1.67 23.46 1.34 0 1 C0 0.67 0 0.34 0 0 Z " fill="#23C6BB" transform="translate(210,12)"/>
<path d="M0 0 C3.5 0.1875 3.5 0.1875 7 1 C9.13220854 4.1983128 9.26782625 5.2737601 8.60595703 8.94824219 C7.36557211 13.14815953 5.10855803 16.84657953 2.9375 20.625 C2.44378906 21.50075684 1.95007813 22.37651367 1.44140625 23.27880859 C-0.02351502 25.86187088 -1.5069118 28.43313295 -3 31 C-3.62044189 32.06927734 -3.62044189 32.06927734 -4.25341797 33.16015625 C-10.33121351 43.55414234 -10.33121351 43.55414234 -14 46 C-17.0625 45.8125 -17.0625 45.8125 -20 45 C-22.11633508 41.82549739 -22.2987133 40.73983247 -21.64160156 37.08740234 C-20.27846835 32.65255112 -17.74587899 28.77073485 -15.375 24.8125 C-14.83246582 23.88719482 -14.28993164 22.96188965 -13.73095703 22.00854492 C-12.65333319 20.17227776 -11.57125116 18.33861846 -10.484375 16.5078125 C-9.21198126 14.35813676 -7.95808239 12.20008168 -6.71875 10.03125 C-2.27698864 2.27698864 -2.27698864 2.27698864 0 0 Z " fill="#F1F1F3" transform="translate(217,78)"/>
<path d="M0 0 C1.66259766 1.15625 1.66259766 1.15625 3 3 C3.38818359 5.6796875 3.38818359 5.6796875 3.3984375 8.875 C3.40230469 10.02484375 3.40617187 11.1746875 3.41015625 12.359375 C3.39855469 13.56078125 3.38695312 14.7621875 3.375 16 C3.38660156 17.20140625 3.39820313 18.4028125 3.41015625 19.640625 C3.40628906 20.79046875 3.40242188 21.9403125 3.3984375 23.125 C3.39505371 24.17945313 3.39166992 25.23390625 3.38818359 26.3203125 C3 29 3 29 1.66259766 30.84375 C-0.93168324 32.64793713 -2.9345097 32.38318629 -6 32 C-7.66259766 30.84375 -7.66259766 30.84375 -9 29 C-9.38818359 26.3203125 -9.38818359 26.3203125 -9.3984375 23.125 C-9.40230469 21.97515625 -9.40617187 20.8253125 -9.41015625 19.640625 C-9.39855469 18.43921875 -9.38695312 17.2378125 -9.375 16 C-9.38660156 14.79859375 -9.39820313 13.5971875 -9.41015625 12.359375 C-9.40628906 11.20953125 -9.40242188 10.0596875 -9.3984375 8.875 C-9.39505371 7.82054687 -9.39166992 6.76609375 -9.38818359 5.6796875 C-9 3 -9 3 -7.66259766 1.15625 C-5.06831676 -0.64793713 -3.0654903 -0.38318629 0 0 Z " fill="#09090A" transform="translate(334,442)"/>
<path d="M0 0 C1.66259766 1.15625 1.66259766 1.15625 3 3 C3.38818359 5.6796875 3.38818359 5.6796875 3.3984375 8.875 C3.40230469 10.02484375 3.40617187 11.1746875 3.41015625 12.359375 C3.39855469 13.56078125 3.38695312 14.7621875 3.375 16 C3.38660156 17.20140625 3.39820313 18.4028125 3.41015625 19.640625 C3.40628906 20.79046875 3.40242188 21.9403125 3.3984375 23.125 C3.39505371 24.17945313 3.39166992 25.23390625 3.38818359 26.3203125 C3 29 3 29 1.66259766 30.84375 C-0.93168324 32.64793713 -2.9345097 32.38318629 -6 32 C-7.66259766 30.84375 -7.66259766 30.84375 -9 29 C-9.38818359 26.3203125 -9.38818359 26.3203125 -9.3984375 23.125 C-9.40230469 21.97515625 -9.40617187 20.8253125 -9.41015625 19.640625 C-9.39855469 18.43921875 -9.38695312 17.2378125 -9.375 16 C-9.38660156 14.79859375 -9.39820313 13.5971875 -9.41015625 12.359375 C-9.40628906 11.20953125 -9.40242188 10.0596875 -9.3984375 8.875 C-9.39505371 7.82054687 -9.39166992 6.76609375 -9.38818359 5.6796875 C-9 3 -9 3 -7.66259766 1.15625 C-5.06831676 -0.64793713 -3.0654903 -0.38318629 0 0 Z " fill="#09090A" transform="translate(284,442)"/>
<path d="M0 0 C1.66259766 1.15625 1.66259766 1.15625 3 3 C3.38818359 5.6796875 3.38818359 5.6796875 3.3984375 8.875 C3.40230469 10.02484375 3.40617188 11.1746875 3.41015625 12.359375 C3.39855469 13.56078125 3.38695312 14.7621875 3.375 16 C3.38660156 17.20140625 3.39820313 18.4028125 3.41015625 19.640625 C3.40628906 20.79046875 3.40242187 21.9403125 3.3984375 23.125 C3.39505371 24.17945313 3.39166992 25.23390625 3.38818359 26.3203125 C3 29 3 29 1.66259766 30.84375 C-0.93168324 32.64793713 -2.9345097 32.38318629 -6 32 C-7.66259766 30.84375 -7.66259766 30.84375 -9 29 C-9.38818359 26.3203125 -9.38818359 26.3203125 -9.3984375 23.125 C-9.40230469 21.97515625 -9.40617188 20.8253125 -9.41015625 19.640625 C-9.39855469 18.43921875 -9.38695312 17.2378125 -9.375 16 C-9.38660156 14.79859375 -9.39820313 13.5971875 -9.41015625 12.359375 C-9.40628906 11.20953125 -9.40242187 10.0596875 -9.3984375 8.875 C-9.39505371 7.82054687 -9.39166992 6.76609375 -9.38818359 5.6796875 C-9 3 -9 3 -7.66259766 1.15625 C-5.06831676 -0.64793713 -3.0654903 -0.38318629 0 0 Z " fill="#09090A" transform="translate(234,442)"/>
<path d="M0 0 C1.66259766 1.15625 1.66259766 1.15625 3 3 C3.38818359 5.6796875 3.38818359 5.6796875 3.3984375 8.875 C3.40230469 10.02484375 3.40617188 11.1746875 3.41015625 12.359375 C3.39855469 13.56078125 3.38695312 14.7621875 3.375 16 C3.38660156 17.20140625 3.39820313 18.4028125 3.41015625 19.640625 C3.40628906 20.79046875 3.40242187 21.9403125 3.3984375 23.125 C3.39505371 24.17945313 3.39166992 25.23390625 3.38818359 26.3203125 C3 29 3 29 1.66259766 30.84375 C-0.93168324 32.64793713 -2.9345097 32.38318629 -6 32 C-7.66259766 30.84375 -7.66259766 30.84375 -9 29 C-9.38818359 26.3203125 -9.38818359 26.3203125 -9.3984375 23.125 C-9.40230469 21.97515625 -9.40617188 20.8253125 -9.41015625 19.640625 C-9.39855469 18.43921875 -9.38695312 17.2378125 -9.375 16 C-9.38660156 14.79859375 -9.39820313 13.5971875 -9.41015625 12.359375 C-9.40628906 11.20953125 -9.40242187 10.0596875 -9.3984375 8.875 C-9.39505371 7.82054687 -9.39166992 6.76609375 -9.38818359 5.6796875 C-9 3 -9 3 -7.66259766 1.15625 C-5.06831676 -0.64793713 -3.0654903 -0.38318629 0 0 Z " fill="#09090A" transform="translate(184,442)"/>
<path d="M0 0 C3.23150813 0.82859183 4.47745908 1.939018 6.4375 4.625 C7.01826001 7.86066289 6.57024551 9.35318776 5.125 12.3125 C3.4375 14.625 3.4375 14.625 0.4375 16.625 C-5.00694444 16.18055556 -5.00694444 16.18055556 -7.5625 13.625 C-8.13602504 9.36452825 -7.95792713 6.6070356 -5.375 3.1875 C-2.5625 0.625 -2.5625 0.625 0 0 Z " fill="#EBEBED" transform="translate(191.5625,126.375)"/>
</svg>
