<?xml version="1.0" encoding="UTF-8"?>
<svg version="1.1" xmlns="http://www.w3.org/2000/svg" width="512" height="512">
<path d="M0 0 C1.76593899 -0.00967334 1.76593899 -0.00967334 3.56755352 -0.0195421 C4.85693734 -0.01644489 6.14632116 -0.01334769 7.47477722 -0.01015663 C8.86146448 -0.01389356 10.24814962 -0.01849525 11.63483143 -0.02388728 C15.44483458 -0.03612704 19.25474999 -0.03585568 23.06476831 -0.03349853 C27.17389436 -0.03309062 31.28299218 -0.04412688 35.3921051 -0.05361366 C43.44166374 -0.07022894 51.49119308 -0.07572341 59.54076743 -0.07683842 C66.08189546 -0.07778845 72.62301382 -0.08189647 79.16413879 -0.08823967 C97.70268419 -0.10585192 116.24120642 -0.11507833 134.77976024 -0.11357872 C135.77925012 -0.11349881 136.77874 -0.1134189 137.80851746 -0.11333656 C138.80922496 -0.1132548 139.80993246 -0.11317304 140.84096444 -0.1130888 C157.06828999 -0.11227545 173.29552282 -0.13142564 189.52282155 -0.1596133 C206.17826338 -0.18831687 222.83365995 -0.20215505 239.48912716 -0.20042574 C248.84267022 -0.19976107 258.19611602 -0.20528757 267.54963684 -0.22678185 C275.51126772 -0.24496022 283.47275724 -0.24936844 291.43439984 -0.235763 C295.49783768 -0.22921695 299.56100406 -0.22917486 303.62441635 -0.2464695 C307.34276178 -0.26213306 311.06061897 -0.2594062 314.778952 -0.24190123 C316.76432517 -0.23735284 318.74971308 -0.25254103 320.73502827 -0.26838052 C321.91232093 -0.25918293 323.08961359 -0.24998534 324.30258179 -0.24050903 C325.82670071 -0.24116114 325.82670071 -0.24116114 327.38160992 -0.24182642 C330.89939637 0.39207719 332.57608818 1.83243922 335.15129089 4.25726891 C337.40362112 7.51418194 337.3947385 10.3167385 337.37834167 14.21918297 C337.37819061 15.42012596 337.37803955 16.62106895 337.37788391 17.85840416 C337.36756134 19.15018578 337.35723877 20.44196739 337.34660339 21.77289391 C337.34287123 23.11238964 337.34002522 24.45188811 337.33802795 25.79138756 C337.33040746 29.30955156 337.31077276 32.8275493 337.28862 36.34564781 C337.26812732 39.93856113 337.25901894 43.53150143 337.24894714 47.12445641 C337.22752524 54.16879508 337.19340854 61.21302111 337.15129089 68.25726891 C337.74882675 68.25060707 338.34636261 68.24394524 338.96200562 68.23708153 C345.24110983 68.17016172 351.520111 68.12523593 357.79948425 68.09247398 C360.13578921 68.07748631 362.47206651 68.05708923 364.80827332 68.03095055 C390.05165349 67.75580364 390.05165349 67.75580364 400.15129089 71.25726891 C400.83602478 71.49147545 401.52075867 71.72568199 402.22624207 71.9669857 C416.9901258 77.64786705 428.2968222 89.21067296 435.15129089 103.25726891 C438.24504501 110.92833175 440.26047812 118.21966362 440.31242371 126.50946617 C440.32203125 127.75168434 440.33163879 128.99390251 440.34153748 130.27376366 C440.34638843 131.62373227 440.35066653 132.97370304 440.35441589 134.32367516 C440.35724327 135.01019598 440.36007065 135.6967168 440.3629837 136.40404129 C440.37794714 140.04237689 440.38719258 143.68067318 440.39152527 147.31903648 C440.39698338 151.0452068 440.42096258 154.7710068 440.44949722 158.49706173 C440.46829144 161.38931321 440.47333818 164.28147882 440.47486115 167.17378616 C440.47785422 168.54547636 440.48576688 169.91716629 440.49904633 171.28879547 C440.6593086 189.12581182 435.84309792 205.18013187 423.15129089 218.25726891 C409.40177247 230.38681461 395.17829126 235.62697664 377.11613464 235.45258141 C375.437239 235.44833656 375.437239 235.44833656 373.72442627 235.44400597 C370.17910184 235.43288622 366.63403789 235.4077968 363.08879089 235.38226891 C360.67277894 235.3722285 358.25676299 235.36310451 355.84074402 235.35492516 C349.94417203 235.3329738 344.04775008 235.2995787 338.15129089 235.25726891 C338.15926697 236.11086998 338.16724304 236.96447105 338.17546082 237.84393883 C338.33460847 267.10437124 328.84682286 292.56682855 308.21379089 313.56976891 C286.94340735 334.49648978 260.54110696 341.56776688 231.44352722 341.54779625 C229.68610858 341.55379249 227.92869255 341.56060052 226.17127991 341.56815147 C221.42925046 341.58570781 216.68729335 341.59050246 211.94523454 341.59178305 C208.9734074 341.59321117 206.00159826 341.59749322 203.02977562 341.60277748 C192.6359428 341.62124388 182.24216105 341.6294524 171.84831238 341.62787437 C162.20189838 341.62667409 152.55570851 341.64776304 142.90935117 341.6793617 C134.59212894 341.70562316 126.27497947 341.71623754 117.95771617 341.71496356 C113.00585729 341.71445679 108.05419785 341.71998029 103.10238075 341.74131966 C98.43921735 341.7608692 93.77644025 341.7607139 89.11326218 341.74628639 C87.41591379 341.7442177 85.71854013 341.74878121 84.02123451 341.76100731 C56.39395265 341.9468958 33.16521758 332.43437636 13.15129089 313.25726891 C12.51449402 312.67203453 11.87769714 312.08680016 11.22160339 311.48383141 C-5.91716176 295.25913372 -15.37361559 270.50134181 -16.04353142 247.1937027 C-16.15533589 240.95551931 -16.15384294 234.71721232 -16.15510559 228.47821617 C-16.16273689 226.08212084 -16.17116604 223.68602794 -16.18032837 221.28993797 C-16.20216868 214.81530375 -16.21107924 208.34070385 -16.21615481 201.86603856 C-16.21942589 197.81904955 -16.22595612 193.7720699 -16.2331562 189.72508621 C-16.25268902 178.50322245 -16.26911667 167.2813673 -16.27203274 156.05948544 C-16.27222031 155.34385423 -16.27240788 154.62822303 -16.27260113 153.89090603 C-16.27296736 152.44047574 -16.27333106 150.99004545 -16.27369224 149.53961516 C-16.27387505 148.81971482 -16.27405786 148.09981448 -16.27424622 147.35809898 C-16.27442676 146.63731436 -16.27460731 145.91652974 -16.27479333 145.17390316 C-16.27834294 133.46782142 -16.30542901 121.76192268 -16.3427441 110.05590452 C-16.38081415 98.01630205 -16.40019004 85.97679058 -16.40049225 73.93712658 C-16.40107655 67.1853611 -16.40955337 60.43381498 -16.43848991 53.68210602 C-16.46459031 47.34128627 -16.46692042 41.00090202 -16.45083427 34.66005325 C-16.44901414 32.33240754 -16.45576104 30.00473718 -16.47165298 27.677145 C-16.49201056 24.50241033 -16.48162191 21.32921484 -16.46343994 18.15450096 C-16.47663991 17.23145418 -16.48983988 16.3084074 -16.50343984 15.35738951 C-16.44832987 11.15158958 -16.2393021 8.16432363 -13.62278843 4.7636919 C-9.30204925 0.85983813 -5.74790246 0.00796978 0 0 Z M337.15129089 93.25726891 C337.15129089 132.19726891 337.15129089 171.13726891 337.15129089 211.25726891 C374.72805401 214.41813684 374.72805401 214.41813684 406.04972839 199.40961266 C412.91073804 192.12883659 416.21787815 184.02687965 416.32829285 174.03070641 C416.34112808 173.0119442 416.35396332 171.99318199 416.3671875 170.9435482 C416.37457443 169.85082603 416.38196136 168.75810387 416.38957214 167.63226891 C416.40167976 165.92454308 416.40167976 165.92454308 416.41403198 164.18231773 C416.42785099 161.7716072 416.43858288 159.36087728 416.44645691 156.95014 C416.45794595 154.5024899 416.47834843 152.05486425 416.50798035 149.60736656 C417.33594747 127.15333528 417.33594747 127.15333528 408.15129089 107.25726891 C407.45004089 106.26726891 406.74879089 105.27726891 406.02629089 104.25726891 C401.13580626 98.50375758 394.1405996 95.58703847 387.15129089 93.25726891 C370.65129089 93.25726891 354.15129089 93.25726891 337.15129089 93.25726891 Z " fill="#FBC55A" transform="translate(43.84870910644531,170.74273109436035)"/>
<path d="M0 0 C20.52249985 19.09822541 34.67635096 43.74490803 36.0637207 72.28393555 C36.96305586 105.05114079 28.97943954 133.75763374 6.33154297 158.21923828 C-12.57373695 178.13103398 -40.02799423 191.97061877 -67.7109375 192.8671875 C-100.25477636 193.51313387 -128.85629375 183.20266046 -152.79711914 160.99804688 C-166.31125852 147.93581704 -175.46989957 131.512337 -181.0625 113.6875 C-181.27422852 113.0289502 -181.48595703 112.37040039 -181.70410156 111.69189453 C-190.28818147 83.82424369 -185.38678904 54.43660815 -172.25 29 C-156.70215737 1.71029704 -132.25713009 -16.74887008 -102.3828125 -25.375 C-66.06294797 -34.2626845 -27.99838795 -24.49858946 0 0 Z " fill="#EA654B" transform="translate(279.0625,259.3125)"/>
<path d="M0 0 C1.76593899 -0.00967334 1.76593899 -0.00967334 3.56755352 -0.0195421 C4.85693734 -0.01644489 6.14632116 -0.01334769 7.47477722 -0.01015663 C8.86146448 -0.01389356 10.24814962 -0.01849525 11.63483143 -0.02388728 C15.44483458 -0.03612704 19.25474999 -0.03585568 23.06476831 -0.03349853 C27.17389436 -0.03309062 31.28299218 -0.04412688 35.3921051 -0.05361366 C43.44166374 -0.07022894 51.49119308 -0.07572341 59.54076743 -0.07683842 C66.08189546 -0.07778845 72.62301382 -0.08189647 79.16413879 -0.08823967 C97.70268419 -0.10585192 116.24120642 -0.11507833 134.77976024 -0.11357872 C135.77925012 -0.11349881 136.77874 -0.1134189 137.80851746 -0.11333656 C138.80922496 -0.1132548 139.80993246 -0.11317304 140.84096444 -0.1130888 C157.06828999 -0.11227545 173.29552282 -0.13142564 189.52282155 -0.1596133 C206.17826338 -0.18831687 222.83365995 -0.20215505 239.48912716 -0.20042574 C248.84267022 -0.19976107 258.19611602 -0.20528757 267.54963684 -0.22678185 C275.51126772 -0.24496022 283.47275724 -0.24936844 291.43439984 -0.235763 C295.49783768 -0.22921695 299.56100406 -0.22917486 303.62441635 -0.2464695 C307.34276178 -0.26213306 311.06061897 -0.2594062 314.778952 -0.24190123 C316.76432517 -0.23735284 318.74971308 -0.25254103 320.73502827 -0.26838052 C321.91232093 -0.25918293 323.08961359 -0.24998534 324.30258179 -0.24050903 C325.82670071 -0.24116114 325.82670071 -0.24116114 327.38160992 -0.24182642 C330.89939637 0.39207719 332.57608818 1.83243922 335.15129089 4.25726891 C337.40362112 7.51418194 337.3947385 10.3167385 337.37834167 14.21918297 C337.37819061 15.42012596 337.37803955 16.62106895 337.37788391 17.85840416 C337.36756134 19.15018578 337.35723877 20.44196739 337.34660339 21.77289391 C337.34287123 23.11238964 337.34002522 24.45188811 337.33802795 25.79138756 C337.33040746 29.30955156 337.31077276 32.8275493 337.28862 36.34564781 C337.26812732 39.93856113 337.25901894 43.53150143 337.24894714 47.12445641 C337.22752524 54.16879508 337.19340854 61.21302111 337.15129089 68.25726891 C337.74882675 68.25060707 338.34636261 68.24394524 338.96200562 68.23708153 C345.24110983 68.17016172 351.520111 68.12523593 357.79948425 68.09247398 C360.13578921 68.07748631 362.47206651 68.05708923 364.80827332 68.03095055 C390.05165349 67.75580364 390.05165349 67.75580364 400.15129089 71.25726891 C400.83602478 71.49147545 401.52075867 71.72568199 402.22624207 71.9669857 C416.9901258 77.64786705 428.2968222 89.21067296 435.15129089 103.25726891 C438.24504501 110.92833175 440.26047812 118.21966362 440.31242371 126.50946617 C440.32203125 127.75168434 440.33163879 128.99390251 440.34153748 130.27376366 C440.34638843 131.62373227 440.35066653 132.97370304 440.35441589 134.32367516 C440.35724327 135.01019598 440.36007065 135.6967168 440.3629837 136.40404129 C440.37794714 140.04237689 440.38719258 143.68067318 440.39152527 147.31903648 C440.39698338 151.0452068 440.42096258 154.7710068 440.44949722 158.49706173 C440.46829144 161.38931321 440.47333818 164.28147882 440.47486115 167.17378616 C440.47785422 168.54547636 440.48576688 169.91716629 440.49904633 171.28879547 C440.6593086 189.12581182 435.84309792 205.18013187 423.15129089 218.25726891 C409.40177247 230.38681461 395.17829126 235.62697664 377.11613464 235.45258141 C375.437239 235.44833656 375.437239 235.44833656 373.72442627 235.44400597 C370.17910184 235.43288622 366.63403789 235.4077968 363.08879089 235.38226891 C360.67277894 235.3722285 358.25676299 235.36310451 355.84074402 235.35492516 C349.94417203 235.3329738 344.04775008 235.2995787 338.15129089 235.25726891 C338.15926697 236.11086998 338.16724304 236.96447105 338.17546082 237.84393883 C338.33460847 267.10437124 328.84682286 292.56682855 308.21379089 313.56976891 C286.94340735 334.49648978 260.54110696 341.56776688 231.44352722 341.54779625 C229.68610858 341.55379249 227.92869255 341.56060052 226.17127991 341.56815147 C221.42925046 341.58570781 216.68729335 341.59050246 211.94523454 341.59178305 C208.9734074 341.59321117 206.00159826 341.59749322 203.02977562 341.60277748 C192.6359428 341.62124388 182.24216105 341.6294524 171.84831238 341.62787437 C162.20189838 341.62667409 152.55570851 341.64776304 142.90935117 341.6793617 C134.59212894 341.70562316 126.27497947 341.71623754 117.95771617 341.71496356 C113.00585729 341.71445679 108.05419785 341.71998029 103.10238075 341.74131966 C98.43921735 341.7608692 93.77644025 341.7607139 89.11326218 341.74628639 C87.41591379 341.7442177 85.71854013 341.74878121 84.02123451 341.76100731 C56.39395265 341.9468958 33.16521758 332.43437636 13.15129089 313.25726891 C12.51449402 312.67203453 11.87769714 312.08680016 11.22160339 311.48383141 C-5.91716176 295.25913372 -15.37361559 270.50134181 -16.04353142 247.1937027 C-16.15533589 240.95551931 -16.15384294 234.71721232 -16.15510559 228.47821617 C-16.16273689 226.08212084 -16.17116604 223.68602794 -16.18032837 221.28993797 C-16.20216868 214.81530375 -16.21107924 208.34070385 -16.21615481 201.86603856 C-16.21942589 197.81904955 -16.22595612 193.7720699 -16.2331562 189.72508621 C-16.25268902 178.50322245 -16.26911667 167.2813673 -16.27203274 156.05948544 C-16.27222031 155.34385423 -16.27240788 154.62822303 -16.27260113 153.89090603 C-16.27296736 152.44047574 -16.27333106 150.99004545 -16.27369224 149.53961516 C-16.27387505 148.81971482 -16.27405786 148.09981448 -16.27424622 147.35809898 C-16.27442676 146.63731436 -16.27460731 145.91652974 -16.27479333 145.17390316 C-16.27834294 133.46782142 -16.30542901 121.76192268 -16.3427441 110.05590452 C-16.38081415 98.01630205 -16.40019004 85.97679058 -16.40049225 73.93712658 C-16.40107655 67.1853611 -16.40955337 60.43381498 -16.43848991 53.68210602 C-16.46459031 47.34128627 -16.46692042 41.00090202 -16.45083427 34.66005325 C-16.44901414 32.33240754 -16.45576104 30.00473718 -16.47165298 27.677145 C-16.49201056 24.50241033 -16.48162191 21.32921484 -16.46343994 18.15450096 C-16.47663991 17.23145418 -16.48983988 16.3084074 -16.50343984 15.35738951 C-16.44832987 11.15158958 -16.2393021 8.16432363 -13.62278843 4.7636919 C-9.30204925 0.85983813 -5.74790246 0.00796978 0 0 Z M8.15129089 24.25726891 C8.06879089 61.73289391 7.98629089 99.20851891 7.90129089 137.81976891 C7.86487488 149.638619 7.82845886 161.4574691 7.79093933 173.63446617 C7.77755891 184.25878483 7.77755891 184.25878483 7.76951599 194.88310814 C7.76579992 199.60335931 7.75085208 204.32342925 7.72898865 209.0436306 C7.70141396 215.07742359 7.69335172 221.11095563 7.69900179 227.14480579 C7.6978215 229.3511625 7.68997177 231.55752897 7.67443037 233.76383126 C7.57180299 249.05177414 8.59380841 262.78490423 15.90129089 276.56976891 C16.24345642 277.232911 16.58562195 277.89605309 16.93815613 278.57929039 C20.0240876 284.37255036 23.72524049 289.4058108 28.15129089 294.25726891 C28.66820496 294.86570641 29.18511902 295.47414391 29.71769714 296.10101891 C40.60136263 308.10305603 57.22883529 315.72664481 73.15129089 317.25726891 C75.65759913 317.35051426 78.16582543 317.40013987 80.67384338 317.41116905 C81.38668381 317.41555131 82.09952424 317.41993356 82.8339659 317.42444861 C85.1993467 317.43769855 87.56469039 317.44398407 89.93009949 317.45014 C91.63604393 317.45805206 93.34198674 317.46632168 95.04792786 317.47492027 C100.63184539 317.50101892 106.21576994 317.51643859 111.79972839 317.53070641 C113.73096851 317.53607162 115.66220859 317.54144914 117.59344864 317.54683876 C125.63508393 317.56845217 133.67671731 317.58718358 141.71837425 317.59846115 C153.1946667 317.61466804 164.67061895 317.64778429 176.14678323 317.704862 C184.24227551 317.74373516 192.33767748 317.76311444 200.43326056 317.76838171 C205.25505887 317.77201225 210.07649336 317.7837858 214.89818954 317.81648445 C219.44397419 317.8468717 223.98918068 317.8527695 228.53504562 317.84110069 C230.1884478 317.84088247 231.84187927 317.84897426 233.49518585 317.86675453 C254.52394979 318.08029524 274.6342788 312.24092402 290.07536316 297.4591732 C305.41992348 282.14610506 314.48833704 262.6399564 314.65715027 240.84662437 C314.64757451 236.81301642 314.57285139 232.78223447 314.49504089 228.74945641 C314.47055863 226.44266928 314.44882291 224.13585176 314.42948914 221.82901573 C314.38891472 217.3047091 314.34026256 212.7806606 314.28074503 208.25656283 C314.14315175 197.72218025 314.08536508 187.18790334 314.03800964 176.65277672 C314.02941084 174.79267236 314.0207868 172.93256812 314.01213837 171.07246399 C313.99896358 168.23440057 313.98580668 165.3963371 313.97279024 162.55827296 C313.88747328 144.16615557 313.76372266 125.77423227 313.65129089 107.38226891 C313.48629089 79.95101891 313.32129089 52.51976891 313.15129089 24.25726891 C212.50129089 24.25726891 111.85129089 24.25726891 8.15129089 24.25726891 Z M337.15129089 93.25726891 C337.15129089 132.19726891 337.15129089 171.13726891 337.15129089 211.25726891 C374.72805401 214.41813684 374.72805401 214.41813684 406.04972839 199.40961266 C412.91073804 192.12883659 416.21787815 184.02687965 416.32829285 174.03070641 C416.34112808 173.0119442 416.35396332 171.99318199 416.3671875 170.9435482 C416.37457443 169.85082603 416.38196136 168.75810387 416.38957214 167.63226891 C416.40167976 165.92454308 416.40167976 165.92454308 416.41403198 164.18231773 C416.42785099 161.7716072 416.43858288 159.36087728 416.44645691 156.95014 C416.45794595 154.5024899 416.47834843 152.05486425 416.50798035 149.60736656 C417.33594747 127.15333528 417.33594747 127.15333528 408.15129089 107.25726891 C407.45004089 106.26726891 406.74879089 105.27726891 406.02629089 104.25726891 C401.13580626 98.50375758 394.1405996 95.58703847 387.15129089 93.25726891 C370.65129089 93.25726891 354.15129089 93.25726891 337.15129089 93.25726891 Z " fill="#000000" transform="translate(43.84870910644531,170.74273109436035)"/>
<path d="M0 0 C20.52249985 19.09822541 34.67635096 43.74490803 36.0637207 72.28393555 C36.96305586 105.05114079 28.97943954 133.75763374 6.33154297 158.21923828 C-12.57373695 178.13103398 -40.02799423 191.97061877 -67.7109375 192.8671875 C-100.25477636 193.51313387 -128.85629375 183.20266046 -152.79711914 160.99804688 C-166.31125852 147.93581704 -175.46989957 131.512337 -181.0625 113.6875 C-181.27422852 113.0289502 -181.48595703 112.37040039 -181.70410156 111.69189453 C-190.28818147 83.82424369 -185.38678904 54.43660815 -172.25 29 C-156.70215737 1.71029704 -132.25713009 -16.74887008 -102.3828125 -25.375 C-66.06294797 -34.2626845 -27.99838795 -24.49858946 0 0 Z M-141.3125 24.9375 C-156.51904098 42.94101575 -163.72513519 65.67435353 -162.32568359 89.10302734 C-159.82675107 113.64263744 -147.10086394 134.54018869 -128.7734375 150.52734375 C-108.93049852 166.33879224 -85.57874492 170.85067705 -60.69921875 168.29296875 C-44.51643348 166.18428578 -30.47081139 159.10969499 -18.0625 148.6875 C-17.10537109 147.97207031 -17.10537109 147.97207031 -16.12890625 147.2421875 C0.26847073 134.59386438 9.74155938 111.85896191 12.6171875 91.96484375 C15.10336722 66.52698055 7.64585792 44.97195129 -8.21875 24.96875 C-21.37467663 9.52483613 -41.55364666 -1.8296953 -61.84033203 -4.13598633 C-66.05811994 -4.47101826 -70.27133032 -4.45579273 -74.5 -4.4375 C-75.39009766 -4.44136719 -76.28019531 -4.44523437 -77.19726562 -4.44921875 C-102.75555072 -4.41188013 -123.88220491 6.68210219 -141.3125 24.9375 Z " fill="#020100" transform="translate(279.0625,259.3125)"/>
<path d="M0 0 C5.99554074 2.64919242 9.02681713 7.62600689 11.76171875 13.37890625 C12.24060547 14.38244141 12.71949219 15.38597656 13.21289062 16.41992188 C13.69951172 17.45697266 14.18613281 18.49402344 14.6875 19.5625 C15.18572266 20.60341797 15.68394531 21.64433594 16.19726562 22.71679688 C20.18455337 31.1295953 20.18455337 31.1295953 21 35 C22.16015625 34.98324219 23.3203125 34.96648437 24.515625 34.94921875 C34.56254285 34.955846 50.28618882 35.47208083 58.84765625 41.24609375 C61.42158506 43.89171974 62.31101975 46.48537392 62.5 50.0625 C61.69633013 56.39140023 58.75119873 59.48653559 54.078125 63.625 C53.13582031 64.49769531 52.19351563 65.37039063 51.22265625 66.26953125 C49.74125256 67.64018495 48.25409373 68.9964356 46.73193359 70.32177734 C40.38441236 75.75471347 40.38441236 75.75471347 37.52905273 83.29150391 C37.75960618 86.63344022 38.26676606 89.73382388 39 93 C39.25189478 94.5077136 39.50328438 96.01551179 39.75390625 97.5234375 C40.02074219 98.79445313 40.28757812 100.06546875 40.5625 101.375 C43.35556301 114.71220998 43.35556301 114.71220998 40.25 119.8125 C37.77130684 123.32398198 36.19744993 124.54984411 32.03833008 125.40185547 C24.79501687 125.71622801 19.79828136 122.72636407 13.6875 119.125 C11.7539329 118.02339072 9.82034017 116.92182642 7.88671875 115.8203125 C7.04326904 115.32805176 6.19981934 114.83579102 5.33081055 114.32861328 C4.56164307 113.8901709 3.79247559 113.45172852 3 113 C2.36296143 112.59120605 1.72592285 112.18241211 1.06958008 111.76123047 C-2.80001977 110.33791888 -6.09570369 111.60491831 -9.74487305 113.19921875 C-10.65793213 113.69035156 -11.57099121 114.18148437 -12.51171875 114.6875 C-13.51654297 115.22117187 -14.52136719 115.75484375 -15.55664062 116.3046875 C-16.58982422 116.86414063 -17.62300781 117.42359375 -18.6875 118 C-20.75293497 119.10598245 -22.81929943 120.21023136 -24.88671875 121.3125 C-26.25123169 122.04919922 -26.25123169 122.04919922 -27.64331055 122.80078125 C-31.91682592 124.97539096 -35.2319923 125.32882812 -40 125 C-43.27211863 123.66140601 -44.72337587 122.35961137 -46.875 119.5625 C-49.59412821 110.95192733 -46.60581372 101.03240695 -45.01708984 92.31933594 C-44.88641113 91.5874707 -44.75573242 90.85560547 -44.62109375 90.1015625 C-44.5017749 89.45525879 -44.38245605 88.80895508 -44.25952148 88.14306641 C-43.43766264 82.32398362 -43.43766264 82.32398362 -46.09545898 77.23925781 C-47.047269 76.29510991 -48.01524317 75.36706685 -48.99609375 74.453125 C-49.50423111 73.955849 -50.01236847 73.458573 -50.53590393 72.94622803 C-52.1561722 71.36603487 -53.79571971 69.80780238 -55.4375 68.25 C-57.07116606 66.67374405 -58.70063645 65.09329031 -60.3283844 63.51092529 C-61.34121376 62.52922123 -62.35829964 61.55188591 -63.37998962 60.57940674 C-66.81354252 57.29084469 -68.16520584 55.49457567 -68.375 50.75 C-68.33623792 47.3112495 -67.95342583 45.28060332 -65.8125 42.5625 C-61.1722205 38.33468979 -57.64888443 37.80038812 -51.4765625 37.984375 C-38.10717483 38.19023463 -38.10717483 38.19023463 -26.53649902 32.59301758 C-20.71846435 25.25424324 -17.52900156 15.9293094 -14.58203125 7.14453125 C-11.45254961 0.92420355 -6.70484457 -0.85334385 0 0 Z " fill="#020100" transform="translate(207,279)"/>
<path d="M0 0 C3.37640236 1.67441995 5.47572252 3.9230011 7.13995647 7.34175968 C8.05447605 10.1683757 8.25405825 12.37988984 8.26069641 15.34434509 C8.26778122 16.40273087 8.27486603 17.46111664 8.28216553 18.55157471 C8.27968811 19.70236511 8.27721069 20.85315552 8.2746582 22.03881836 C8.2823246 23.86888176 8.2823246 23.86888176 8.29014587 25.73591614 C8.30165299 29.07484142 8.3041173 32.41351821 8.30158257 35.75244594 C8.30051125 38.54316412 8.30540033 41.33385952 8.310188 44.12457281 C8.32127476 50.7099377 8.32172523 57.29524554 8.31567383 63.88061523 C8.30963345 70.66702187 8.32194844 77.45322122 8.3432439 84.23959249 C8.36087463 90.07329786 8.36685896 95.90693733 8.36360615 101.74066836 C8.36179554 105.22175617 8.36440716 108.70269608 8.37832069 112.18375969 C8.39325978 116.06651789 8.383916 119.94901316 8.37231445 123.83178711 C8.38378006 125.55493637 8.38378006 125.55493637 8.39547729 127.31289673 C8.35205882 133.88174077 8.03448156 138.8571441 3.25 143.8125 C0.06852616 145.49161119 -2.4013018 145.87801023 -6 146 C-10.56833627 144.55336018 -13.61106632 143.24699322 -16 139 C-17.00122316 135.99633051 -17.13035904 133.9968942 -17.14044189 130.85820007 C-17.14900711 129.26212418 -17.14900711 129.26212418 -17.15774536 127.63380432 C-17.15886322 126.46647263 -17.15998108 125.29914093 -17.16113281 124.09643555 C-17.16609772 122.86693176 -17.17106262 121.63742798 -17.17617798 120.3706665 C-17.18828796 116.99656607 -17.19574517 113.62252763 -17.20018864 110.24841285 C-17.20312104 108.13956736 -17.20722618 106.03072729 -17.21169281 103.92188454 C-17.22536566 97.32136615 -17.2350332 90.72086017 -17.2388947 84.12032861 C-17.24337424 76.5055623 -17.26091805 68.89097559 -17.2898953 61.27626389 C-17.31152561 55.38740729 -17.32159971 49.49860117 -17.32293582 43.60970527 C-17.32398294 40.09392217 -17.32987075 36.57830797 -17.34775543 33.06256676 C-17.36732701 29.13890183 -17.36294174 25.2154606 -17.35644531 21.29174805 C-17.3656601 20.13048904 -17.37487488 18.96923004 -17.3843689 17.77278137 C-17.35500968 12.1187694 -17.28914543 7.83868287 -14 3 C-9.9045309 -1.01050086 -5.4379974 -0.91776928 0 0 Z " fill="#000000" transform="translate(209,0)"/>
<path d="M0 0 C3.12578143 1.6720747 5.39281175 3.7856235 7 7 C7.11192574 9.00001837 7.15930779 11.00376635 7.17700195 13.00683594 C7.18983719 14.26864685 7.20267242 15.53045776 7.21589661 16.83050537 C7.22406511 18.21512459 7.23150863 19.59974825 7.23828125 20.984375 C7.24235678 21.68113594 7.2464323 22.37789688 7.25063133 23.09577179 C7.27149523 26.78552453 7.28579404 30.47524008 7.29516602 34.16503906 C7.3062156 37.96933911 7.34059683 41.77305182 7.38033772 45.57714462 C7.40653612 48.50776222 7.41486078 51.43824076 7.41844749 54.36896515 C7.42330725 55.77075404 7.43490398 57.17253697 7.45348549 58.57421112 C7.47793469 60.54119179 7.47448646 62.50845851 7.4699707 64.47558594 C7.47877007 66.15198151 7.47877007 66.15198151 7.48774719 67.86224365 C6.88293013 71.75312936 5.41450227 73.92700664 3 77 C-0.79180519 79.4917577 -4.49183779 79.21194884 -8.84375 78.6171875 C-12.20231429 77.65585931 -13.89568506 75.69615352 -16 73 C-17.3675413 70.26491741 -17.1575399 68.05477658 -17.19287109 64.99316406 C-17.20893402 63.73135315 -17.22499695 62.46954224 -17.24154663 61.16949463 C-17.25303482 59.78487827 -17.26364324 58.40025438 -17.2734375 57.015625 C-17.27876118 56.31886406 -17.28408485 55.62210312 -17.28956985 54.90422821 C-17.31629951 51.21448365 -17.33567277 47.52477285 -17.35009766 43.83496094 C-17.36342543 40.78517586 -17.39125476 37.73606173 -17.43212891 34.68652344 C-17.48152285 31.00126367 -17.50622695 27.31661149 -17.51332474 23.63103485 C-17.52002615 22.22921875 -17.53521966 20.82741561 -17.55921555 19.42578888 C-17.75842126 7.08325331 -17.75842126 7.08325331 -14.59228516 3.15527344 C-10.00766599 -0.65646305 -5.82814025 -0.82111624 0 0 Z " fill="#000000" transform="translate(299,67)"/>
<path d="M0 0 C3.73166114 1.65851606 5.88725996 3.52648103 8 7 C8.38095093 9.87705994 8.38095093 9.87705994 8.38818359 13.24975586 C8.39764008 14.5146434 8.40709656 15.77953094 8.4168396 17.08274841 C8.41146915 18.46011671 8.40531601 19.83748215 8.3984375 21.21484375 C8.40045942 22.632046 8.40337185 24.04924723 8.40713501 25.46644592 C8.41155428 28.43468139 8.40514137 31.40264571 8.39111328 34.37084961 C8.37403687 38.16841995 8.38385469 41.96535346 8.40183067 45.76290035 C8.4126928 48.68922181 8.40921085 51.61539336 8.4014473 54.54171944 C8.39945117 55.9415043 8.40188388 57.34130293 8.40888596 58.7410717 C8.41653777 60.70099488 8.40279954 62.66096599 8.38818359 64.62084961 C8.38579681 65.73463486 8.38341003 66.8484201 8.38095093 67.99595642 C7.94820451 71.4084408 7.04851095 73.25799625 5 76 C1.42102749 78.38598167 -0.71590055 78.78579503 -5 79 C-10.24837775 77.39880001 -12.99842645 75.56536227 -16 71 C-16.50120544 68.04064941 -16.50120544 68.04064941 -16.50170898 64.72851562 C-16.51108994 63.48372437 -16.52047089 62.23893311 -16.53013611 60.9564209 C-16.51965739 59.60635691 -16.50828832 58.25629958 -16.49609375 56.90625 C-16.49624884 55.512898 -16.49773952 54.11954556 -16.50050354 52.72619629 C-16.50188557 49.8109217 -16.48936329 46.89614027 -16.46655273 43.98095703 C-16.43816793 40.25176394 -16.44090767 36.52338974 -16.45364285 32.79413605 C-16.46061143 29.91840673 -16.45279744 27.04286534 -16.44038582 24.16716003 C-16.43588272 22.79250307 -16.43552452 21.41782585 -16.43945122 20.04316711 C-16.44237466 18.11923891 -16.42365618 16.19531493 -16.40405273 14.27148438 C-16.39864975 13.17848022 -16.39324677 12.08547607 -16.38768005 10.95935059 C-15.81717176 6.60438306 -14.16893741 3.96854814 -10.8125 1.1875 C-7.08880979 -0.38472476 -3.98583696 -0.59827979 0 0 Z " fill="#000000" transform="translate(119,67)"/>
<path d="M0 0 C3.59279896 3.15569285 5.28018029 7.1958777 7.40234375 11.40625 C9.0934128 14.15165305 10.18754549 15.45290288 13 17 C16.19743304 17.71655579 16.19743304 17.71655579 19.625 18.0625 C25.78980892 18.78980892 25.78980892 18.78980892 28 21 C27.28972656 21.69867188 26.57945312 22.39734375 25.84765625 23.1171875 C24.92855469 24.02726562 24.00945312 24.93734375 23.0625 25.875 C22.14597656 26.77992188 21.22945312 27.68484375 20.28515625 28.6171875 C17.00300531 32.03960131 16.84656296 33.863948 16.8984375 38.55859375 C17.08544972 43.05407973 17.53938628 47.52546671 18 52 C14.45042534 50.9351276 11.29733707 49.65321453 8.0625 47.875 C4.09689255 45.89967855 1.4894742 45.23907217 -3 46 C-5.97635148 47.43030224 -8.80797443 48.99730338 -11.64453125 50.6875 C-14 52 -14 52 -16 52 C-16.09941255 46.63172252 -15.76247238 41.60437024 -14.92578125 36.296875 C-15.02123649 33.34278642 -16.14708047 32.22921938 -18 30 C-18 29.34 -18 28.68 -18 28 C-18.556875 27.773125 -19.11375 27.54625 -19.6875 27.3125 C-22.66159588 25.62449964 -24.72008865 23.53323483 -27 21 C-27 20.34 -27 19.68 -27 19 C-25.97519531 18.87882812 -24.95039063 18.75765625 -23.89453125 18.6328125 C-22.53381021 18.46389541 -21.1731355 18.2946048 -19.8125 18.125 C-19.13896484 18.04636719 -18.46542969 17.96773438 -17.77148438 17.88671875 C-12.15050146 17.18122898 -12.15050146 17.18122898 -7 15 C-5.76801388 12.69185712 -5.76801388 12.69185712 -5 10 C-4.14273021 8.22051575 -3.2677278 6.44946276 -2.375 4.6875 C-1.92898437 3.80449219 -1.48296875 2.92148437 -1.0234375 2.01171875 C-0.68570313 1.34785156 -0.34796875 0.68398438 0 0 Z " fill="#F8C359" transform="translate(203,318)"/>
</svg>
