<?xml version="1.0" encoding="UTF-8"?>
<svg version="1.1" xmlns="http://www.w3.org/2000/svg" width="512" height="512">
<path d="M0 0 C5.68003488 0.2989492 11.52352827 1.20448781 16 5 C16.96875 7.18359375 16.96875 7.18359375 17 10 C15.79189287 12.60321856 14.55823987 14.88625528 13.0625 17.3125 C12.21575453 18.75214862 11.37207541 20.19360452 10.53125 21.63671875 C10.10328125 22.36681152 9.6753125 23.0969043 9.234375 23.84912109 C3.71158492 33.47249541 -0.82497337 43.6714769 -5.4375 53.75 C-5.87505615 54.70342285 -6.3126123 55.6568457 -6.76342773 56.63916016 C-7.17020752 57.53683105 -7.5769873 58.43450195 -7.99609375 59.359375 C-8.35888428 60.15827148 -8.7216748 60.95716797 -9.09545898 61.78027344 C-9.9365287 63.84424262 -10.52359831 65.82624271 -11 68 C-10.29230469 68.10441406 -9.58460938 68.20882812 -8.85546875 68.31640625 C2.26970904 70.97975251 11.88426585 79.81863323 18.0703125 89.109375 C24.68351033 100.67555363 26.36287618 112.39980586 27.91113281 125.43530273 C28.02424805 126.35384033 28.13736328 127.27237793 28.25390625 128.21875 C28.35002197 129.04310547 28.4461377 129.86746094 28.54516602 130.71679688 C29.02934936 133.14732971 29.67859327 134.90470855 31 137 C33.75582495 138.35283699 33.75582495 138.35283699 36.9375 139.375 C42.72394194 141.65492742 42.72394194 141.65492742 45.25 144.8125 C46.92744593 151.94164519 46.35842619 158.44307267 43 165 C39.67181644 167.81615532 38.42872212 168 34 168 C34.16532227 168.82113281 34.33064453 169.64226562 34.50097656 170.48828125 C35.06000839 174.42228998 35.07647111 178.22871738 34.984375 182.1875 C34.96883072 183.01053619 34.95328644 183.83357239 34.93727112 184.68154907 C34.88162345 187.45455432 34.81616104 190.2272269 34.75 193 C34.71898697 194.44400177 34.71898697 194.44400177 34.68734741 195.91717529 C34.37834916 210.11267304 33.8381309 224.29318936 33.19140625 238.4765625 C33.11926038 240.07330266 33.04712699 241.67004338 32.9750061 243.26678467 C32.64969213 250.4320588 32.31635284 257.59672252 31.95624638 264.76033974 C31.80706883 267.76596041 31.66642643 270.77194233 31.52760124 273.7780571 C31.46028261 275.19028423 31.38902595 276.60232972 31.31363106 278.01414871 C31.21003638 279.95896417 31.12089975 281.90453364 31.0324707 283.85009766 C30.97775101 284.94601227 30.92303131 286.04192688 30.86665344 287.17105103 C31.00376534 290.07988177 31.55545524 291.52417324 33 294 C34.15103067 299.02255457 34.16105758 303.97354111 34.16796875 309.09765625 C34.17129715 309.96837265 34.17462555 310.83908905 34.17805481 311.7361908 C34.18310274 313.5759936 34.1854638 315.41580551 34.18530273 317.25561523 C34.18747401 320.02929383 34.20561037 322.80256431 34.22460938 325.57617188 C34.31070916 351.3832043 34.31070916 351.3832043 30.61401367 355.56958008 C30.08138916 355.95911865 29.54876465 356.34865723 29 356.75 C25.79787483 359.15159388 25.60960446 359.34889881 24.92578125 362.9765625 C24.76932129 363.7809375 24.61286133 364.5853125 24.45166016 365.4140625 C24.3026123 366.26742188 24.15356445 367.12078125 24 368 C23.85224121 368.84304688 23.70448242 369.68609375 23.55224609 370.5546875 C23.24997575 372.32007843 22.95158044 374.0861365 22.65673828 375.8527832 C17.27945588 407.62127524 17.27945588 407.62127524 6.9921875 415.546875 C-22.8893572 432.76674821 -81.37970237 424.80542801 -113.375 417.1875 C-121.97928201 414.68257375 -126.83531823 411.62248671 -131.25 403.75 C-136.00845524 393.33844807 -138.39017311 381.39597817 -138.53125 369.96875 C-138.6859375 369.3190625 -138.840625 368.669375 -139 368 C-140.88740264 366.81929882 -140.88740264 366.81929882 -143 366 C-153.81750832 353.21567199 -152.11435734 330.79965123 -152.72479248 314.98297119 C-152.78286937 313.50437482 -152.84583133 312.02596156 -152.91387939 310.54779053 C-153.00769815 308.4435529 -153.07907342 306.33966428 -153.14453125 304.234375 C-153.18940674 303.00944336 -153.23428223 301.78451172 -153.28051758 300.52246094 C-152.94858388 296.35436747 -151.82590171 293.73252939 -150 290 C-149.01 290 -148.02 290 -147 290 C-147.96734681 279.82600724 -148.9409904 269.65263657 -149.92196274 259.47994804 C-150.377637 254.75269171 -150.83140302 250.02527091 -151.28027344 245.29736328 C-153.41811324 222.79565925 -155.76568267 200.37382315 -159 178 C-160.90652344 177.56300781 -160.90652344 177.56300781 -162.8515625 177.1171875 C-166.64014077 176.24881155 -168.58076162 175.16361942 -171 172 C-173.09867924 168.55941433 -173.47216576 165.42621735 -173.8125 161.4375 C-173.92207031 160.30183594 -174.03164062 159.16617188 -174.14453125 157.99609375 C-174 155 -174 155 -172.79296875 153.21484375 C-170.76084492 151.8379581 -168.796299 150.98993929 -166.5 150.125 C-163.40056724 148.80673477 -162.14913604 148.18642005 -160 145.5 C-158.33126259 141.32815649 -157.86739152 137.76271667 -157.7890625 133.265625 C-156.87305387 93.7014256 -156.87305387 93.7014256 -144.625 79.75 C-124.84652702 61.63231483 -93.27591964 60.84428959 -68 60 C-66.90945312 59.95875 -65.81890625 59.9175 -64.6953125 59.875 C-53.09318365 59.65241719 -41.54003057 60.93047782 -30 62 C-29.54786133 61.04037354 -29.09572266 60.08074707 -28.62988281 59.09204102 C-13.49770329 26.98194965 -13.49770329 26.98194965 -6 11.3125 C-5.25411621 9.74834351 -5.25411621 9.74834351 -4.49316406 8.15258789 C-4.04166992 7.2114917 -3.59017578 6.27039551 -3.125 5.30078125 C-2.73570312 4.48778564 -2.34640625 3.67479004 -1.9453125 2.8371582 C-1 1 -1 1 0 0 Z " fill="#E9A955" transform="translate(317,30)"/>
<path d="M0 0 C1.04123016 -0.00358521 2.08246033 -0.00717041 3.15524292 -0.01086426 C6.12453838 -0.01640789 9.09325948 -0.00581366 12.0625 0.01171875 C12.93572403 0.01094833 13.80894806 0.01017792 14.70863342 0.00938416 C24.57274263 0.12104157 32.31659289 1.8884065 40 8.3125 C44.63969863 14.11212329 44.15840638 21.32037363 44.16796875 28.41015625 C44.17129715 29.28087265 44.17462555 30.15158905 44.17805481 31.0486908 C44.18310274 32.8884936 44.1854638 34.72830551 44.18530273 36.56811523 C44.18747401 39.34179383 44.20561037 42.11506431 44.22460938 44.88867188 C44.31070916 70.6957043 44.31070916 70.6957043 40.61401367 74.88208008 C39.8150769 75.46638794 39.8150769 75.46638794 39 76.0625 C35.79787483 78.46409388 35.60960446 78.66139881 34.92578125 82.2890625 C34.69109131 83.495625 34.69109131 83.495625 34.45166016 84.7265625 C34.22808838 86.00660156 34.22808838 86.00660156 34 87.3125 C33.85224121 88.15554688 33.70448242 88.99859375 33.55224609 89.8671875 C33.24997575 91.63257843 32.95158044 93.3986365 32.65673828 95.1652832 C27.27945588 126.93377524 27.27945588 126.93377524 16.9921875 134.859375 C-12.8893572 152.07924821 -71.37970237 144.11792801 -103.375 136.5 C-111.97928201 133.99507375 -116.83531823 130.93498671 -121.25 123.0625 C-126.00845524 112.65094807 -128.39017311 100.70847817 -128.53125 89.28125 C-128.6859375 88.6315625 -128.840625 87.981875 -129 87.3125 C-130.88740264 86.13179882 -130.88740264 86.13179882 -133 85.3125 C-143.81750832 72.52817199 -142.11435734 50.11215123 -142.72479248 34.29547119 C-142.78286937 32.81687482 -142.84583133 31.33846156 -142.91387939 29.86029053 C-143.00769815 27.7560529 -143.07907342 25.65216428 -143.14453125 23.546875 C-143.18940674 22.32194336 -143.23428223 21.09701172 -143.28051758 19.83496094 C-142.94179569 15.58162819 -142.02185768 13.0591861 -140 9.3125 C-137.21399112 8.38383037 -135.35414117 8.15077525 -132.46240234 8.06201172 C-131.54987701 8.02987579 -130.63735168 7.99773987 -129.69717407 7.96463013 C-128.21898697 7.91639603 -128.21898697 7.91639603 -126.7109375 7.8671875 C-115.94710465 7.45668133 -105.25299186 6.66871724 -94.52688599 5.69836426 C-89.41642234 5.23896051 -84.30370643 4.80558978 -79.19140625 4.3671875 C-73.33511793 3.86300544 -67.4791002 3.35659441 -61.62451172 2.83300781 C-41.06725689 1.00525977 -20.64405128 0.02893103 0 0 Z " fill="#FDF5EA" transform="translate(307,310.6875)"/>
<path d="M0 0 C5.68003488 0.2989492 11.52352827 1.20448781 16 5 C16.96875 7.18359375 16.96875 7.18359375 17 10 C15.79189287 12.60321856 14.55823987 14.88625528 13.0625 17.3125 C12.21575453 18.75214862 11.37207541 20.19360452 10.53125 21.63671875 C10.10328125 22.36681152 9.6753125 23.0969043 9.234375 23.84912109 C3.71158492 33.47249541 -0.82497337 43.6714769 -5.4375 53.75 C-5.87505615 54.70342285 -6.3126123 55.6568457 -6.76342773 56.63916016 C-7.17020752 57.53683105 -7.5769873 58.43450195 -7.99609375 59.359375 C-8.35888428 60.15827148 -8.7216748 60.95716797 -9.09545898 61.78027344 C-9.9365287 63.84424262 -10.52359831 65.82624271 -11 68 C-10.29230469 68.10441406 -9.58460938 68.20882812 -8.85546875 68.31640625 C2.26970904 70.97975251 11.88426585 79.81863323 18.0703125 89.109375 C24.68351033 100.67555363 26.36287618 112.39980586 27.91113281 125.43530273 C28.02424805 126.35384033 28.13736328 127.27237793 28.25390625 128.21875 C28.35002197 129.04310547 28.4461377 129.86746094 28.54516602 130.71679688 C29.02934936 133.14732971 29.67859327 134.90470855 31 137 C33.75582495 138.35283699 33.75582495 138.35283699 36.9375 139.375 C42.72394194 141.65492742 42.72394194 141.65492742 45.25 144.8125 C46.93265358 151.96377773 46.3380532 158.41773445 43 165 C37.17300606 170.17955017 27.68092125 169.20156751 20.30493164 169.37304688 C19.25006058 169.40084732 18.19518951 169.42864777 17.10835266 169.45729065 C13.62570595 169.54819302 10.14294338 169.63341279 6.66015625 169.71875 C4.21657775 169.7817765 1.77300995 169.84521928 -0.67054749 169.90905762 C-7.11383711 170.07652077 -13.55723303 170.23943447 -20.00067139 170.40106201 C-30.2509416 170.65866558 -40.50106192 170.92204519 -50.75113106 171.18751526 C-54.29546431 171.27850617 -57.83985497 171.3668962 -61.38426208 171.45495605 C-81.14568208 171.95522498 -100.89888575 172.62651975 -120.625 173.9375 C-121.92115234 174.02177246 -123.21730469 174.10604492 -124.55273438 174.19287109 C-133.42883128 174.7857067 -142.28779418 175.50033139 -151.13916016 176.39038086 C-163.50475849 177.61168971 -163.50475849 177.61168971 -167.75 175.875 C-172.58528811 171.84559325 -173.24449832 167.34251072 -173.875 161.3125 C-174.39124433 155.57424571 -174.39124433 155.57424571 -172.7890625 153.22265625 C-170.75934167 151.83553263 -168.79971433 150.99122573 -166.5 150.125 C-163.40056724 148.80673477 -162.14913604 148.18642005 -160 145.5 C-158.33126259 141.32815649 -157.86739152 137.76271667 -157.7890625 133.265625 C-156.87305387 93.7014256 -156.87305387 93.7014256 -144.625 79.75 C-124.84652702 61.63231483 -93.27591964 60.84428959 -68 60 C-66.90945312 59.95875 -65.81890625 59.9175 -64.6953125 59.875 C-53.09318365 59.65241719 -41.54003057 60.93047782 -30 62 C-29.54786133 61.04037354 -29.09572266 60.08074707 -28.62988281 59.09204102 C-13.49770329 26.98194965 -13.49770329 26.98194965 -6 11.3125 C-5.25411621 9.74834351 -5.25411621 9.74834351 -4.49316406 8.15258789 C-4.04166992 7.2114917 -3.59017578 6.27039551 -3.125 5.30078125 C-2.73570312 4.48778564 -2.34640625 3.67479004 -1.9453125 2.8371582 C-1 1 -1 1 0 0 Z " fill="#565456" transform="translate(317,30)"/>
<path d="M0 0 C-5.22565267 40.38689324 -5.22565267 40.38689324 -16.125 54.8125 C-41.80023372 74.34800391 -96.24021984 64.15665609 -125.83251953 60.44140625 C-146.72507412 57.52991105 -146.72507412 57.52991105 -153 50 C-160.10926011 39.65318952 -162.47860885 26.53171355 -163.54760742 14.21313477 C-163.6335466 13.23361343 -163.71948578 12.2540921 -163.80802917 11.24488831 C-163.90305473 10.13366859 -163.90305473 10.13366859 -164 9 C-162.37343979 8.99120064 -162.37343979 8.99120064 -160.71401978 8.98222351 C-150.27851162 8.92393664 -139.84319116 8.85067568 -129.40787697 8.76428509 C-124.04846435 8.72035625 -118.68911453 8.68095377 -113.32958984 8.65356445 C-91.18959089 8.53691148 -69.11490412 8.20682179 -47.0234375 6.64453125 C-46.17967182 6.5867771 -45.33590614 6.52902294 -44.46657181 6.46951866 C-35.64322144 5.85040548 -26.91752818 4.95112422 -18.18603516 3.5222168 C-17.45095922 3.40238088 -16.71588329 3.28254496 -15.95853233 3.15907764 C-12.78367427 2.60777769 -9.79578706 1.93143255 -6.7383728 0.90486145 C-4 0 -4 0 0 0 Z " fill="#E9A955" transform="translate(342,389)"/>
<path d="M0 0 C-2.03366463 6.36207367 -4.35550829 12.55571974 -6.87890625 18.73828125 C-7.63863148 20.61593284 -8.39806034 22.49370436 -9.15722656 24.37158203 C-9.74703308 25.82736664 -9.74703308 25.82736664 -10.34875488 27.31256104 C-19.67158777 50.35523223 -28.56105456 73.45980839 -35.84375 97.2421875 C-36.84993227 100.51227989 -37.9028989 103.75948841 -39 107 C-40.32 107 -41.64 107 -43 107 C-44.7109375 104.83984375 -44.7109375 104.83984375 -46.375 101.9375 C-48.89693643 97.67422651 -51.40489759 94.19545224 -55.03125 90.828125 C-56.67017112 87.73532225 -55.75384201 85.33795807 -55 82 C-54.01161292 79.04427271 -52.83199117 76.18490404 -51.625 73.3125 C-50.88933868 71.52136111 -50.1550395 69.72966235 -49.421875 67.9375 C-49.02806641 66.9784375 -48.63425781 66.019375 -48.22851562 65.03125 C-46.5108147 60.79297999 -44.86528581 56.52777138 -43.21362305 52.26342773 C-36.52202557 35.01270179 -29.3033882 17.99896114 -22 1 C-19.08340625 0.83196579 -16.16673658 0.66552033 -13.25 0.5 C-12.425 0.45230469 -11.6 0.40460938 -10.75 0.35546875 C-9.55117188 0.28779297 -9.55117188 0.28779297 -8.328125 0.21875 C-7.5949707 0.17685547 -6.86181641 0.13496094 -6.10644531 0.09179688 C-4.07266386 0.00316662 -2.03571175 0 0 0 Z " fill="#FDF4E8" transform="translate(271,200)"/>
<path d="M0 0 C5.70178746 0.40727053 11.48988903 1.17596576 16 5 C16.96875 7.18359375 16.96875 7.18359375 17 10 C15.79189287 12.60321856 14.55823987 14.88625528 13.0625 17.3125 C12.21575453 18.75214862 11.37207541 20.19360452 10.53125 21.63671875 C10.10328125 22.36681152 9.6753125 23.0969043 9.234375 23.84912109 C-0.67138231 41.10974648 -12.84629172 62.49157235 -17 82 C-22.99205127 82.53500458 -26.32482737 81.7312708 -31.43359375 78.58203125 C-33.54039891 76.45421058 -33.67346147 74.95386006 -34 72 C-33.3894043 69.74047852 -33.3894043 69.74047852 -32.32421875 67.37890625 C-31.91703613 66.46173828 -31.50985352 65.54457031 -31.09033203 64.59960938 C-30.62739746 63.59736328 -30.16446289 62.59511719 -29.6875 61.5625 C-29.20909668 60.50224609 -28.73069336 59.44199219 -28.23779297 58.34960938 C-26.51342493 54.55610642 -24.76121022 50.77649631 -23 47 C-22.64395691 46.23548523 -22.28791382 45.47097046 -21.92108154 44.68328857 C-19.17055431 38.78184748 -16.40304945 32.8885314 -13.625 27 C-13.23541107 26.17339874 -12.84582214 25.34679749 -12.44442749 24.49514771 C-8.52439104 16.19294202 -4.61595971 7.94459998 0 0 Z " fill="#FCF4E9" transform="translate(317,30)"/>
<path d="M0 0 C3.26014647 2.14740187 6.23556618 4.47113236 8 8 C8.63423821 12.61181781 8.62651542 15.96300897 6.1875 20 C1.61216735 22.87079696 -2.63310385 23.55790575 -8 23 C-11.23168214 21.39984671 -13.36771637 19.26456725 -15 16 C-15.60323909 12.54225841 -15.72674003 9.44411578 -15 6 C-11.19786763 1.07845809 -6.16177771 -1.34438786 0 0 Z " fill="#FCF4E9" transform="translate(193,170)"/>
<path d="M0 0 C3.24670458 0.25731458 4.16190542 1.16674984 6.48046875 3.5546875 C7.3923801 4.6535886 8.29419001 5.76092496 9.1875 6.875 C9.9136853 7.7568396 9.9136853 7.7568396 10.65454102 8.65649414 C12.11227646 10.43034767 13.55731782 12.21389453 15 14 C17.9941998 17.67145928 20.99125568 21.34044576 24 25 C24.42297363 25.5161084 24.84594727 26.0322168 25.28173828 26.56396484 C31.43554288 34.03373346 37.90921723 41.08924913 44.75 47.9375 C45.44673828 48.63504395 46.14347656 49.33258789 46.86132812 50.05126953 C50.92761866 54.07419915 55.09719966 57.85384183 59.54003906 61.45922852 C61 63 61 63 61 66 C57.16428302 65.47546807 55.14585255 64.65481554 52.36328125 61.97265625 C51.70851807 61.35036133 51.05375488 60.72806641 50.37915039 60.08691406 C49.69715576 59.41885742 49.01516113 58.75080078 48.3125 58.0625 C47.60279053 57.38026367 46.89308105 56.69802734 46.16186523 55.99511719 C44.09875455 54.00593209 42.04897136 52.00372758 40 50 C39.01639398 49.05518838 38.03212624 48.11106461 37.046875 47.16796875 C32.14698191 42.39904765 27.75028924 37.39464398 23.484375 32.0546875 C20.54761282 28.44376294 17.49984353 24.94183126 14.4375 21.4375 C6.63670271 12.45888198 6.63670271 12.45888198 3.1875 8.3125 C2.56230469 7.56613281 1.93710938 6.81976563 1.29296875 6.05078125 C0 4 0 4 0 0 Z " fill="#5F5C5E" transform="translate(202,323)"/>
<path d="M0 0 C3.55481171 0.56290945 4.93595468 1.67449253 7.1875 4.4375 C9.9000936 7.68448035 12.65674981 10.86612798 15.5 14 C18.18983431 16.98062721 20.86310364 19.97245233 23.5 23 C29.84535277 30.2767807 36.35723254 37.40252837 42.88891602 44.51171875 C47.29395453 49.31013383 51.65319146 54.14874701 56 59 C55.67 59.99 55.34 60.98 55 62 C50.64032476 61.54691597 48.85513467 58.99148413 46.0625 55.8125 C45.0906084 54.71937176 44.11791782 53.62695349 43.14453125 52.53515625 C42.63486816 51.95910645 42.12520508 51.38305664 41.60009766 50.78955078 C38.86546021 47.73112959 36.05296629 44.7456601 33.25 41.75 C29.34182976 37.55443102 25.48473507 33.3297054 21.73828125 28.98828125 C19.52743511 26.45947072 17.26403557 23.98127436 15 21.5 C10.94239611 17.04773555 6.93048271 12.56476696 3 8 C2.175 7.071875 1.35 6.14375 0.5 5.1875 C0.005 4.465625 -0.49 3.74375 -1 3 C-0.67 2.01 -0.34 1.02 0 0 Z " fill="#5F5D5E" transform="translate(253,320)"/>
<path d="M0 0 C2.25 0 2.25 0 5 1 C5.9765625 2.63671875 5.9765625 2.63671875 6.875 4.6875 C9.70119622 11.0721862 14.94682074 14.76574656 21 18 C35.9222843 22.52495144 52.52524201 22.18807082 68 23 C68.5625 24.9375 68.5625 24.9375 69 27 C68 28 68 28 66.20703125 28.1328125 C25.70379562 28.00066491 25.70379562 28.00066491 13 19 C12.36320313 18.56945312 11.72640625 18.13890625 11.0703125 17.6953125 C6.01718465 13.85667031 2.68277583 8.70949728 0 3 C0 2.01 0 1.02 0 0 Z " fill="#635B55" transform="translate(195,410)"/>
<path d="M0 0 C3.08347724 1.34190279 4.85164966 2.7024024 6.91796875 5.34375 C7.44567871 6.00826172 7.97338867 6.67277344 8.51708984 7.35742188 C9.34394287 8.41799805 9.34394287 8.41799805 10.1875 9.5 C11.34823111 10.95994903 12.51099465 12.41828449 13.67578125 13.875 C14.24248535 14.58398438 14.80918945 15.29296875 15.39306641 16.0234375 C18.07671149 19.32437803 20.9225242 22.46654447 23.8046875 25.59375 C25.04266772 26.95068206 26.27094671 28.31712105 27.46411133 29.71362305 C33.12264732 36.32529734 39.33307546 42.33025935 45.58789062 48.37304688 C46.41353516 49.18451172 47.23917969 49.99597656 48.08984375 50.83203125 C48.84128662 51.56139893 49.59272949 52.2907666 50.36694336 53.04223633 C52 55 52 55 52 58 C47.25338976 57.54210545 45.23922381 55.7214525 41.9453125 52.37109375 C41.48067596 51.9031691 41.01603943 51.43524445 40.537323 50.95314026 C39.05693681 49.45706143 37.59123919 47.94743186 36.125 46.4375 C35.14800908 45.44900554 34.17015172 44.46136663 33.19140625 43.47460938 C27.93230887 38.14864942 22.84963147 32.70373863 18 27 C17.06402298 25.92038137 16.12783551 24.84094514 15.19140625 23.76171875 C2.13689418 8.55733722 2.13689418 8.55733722 -1 3 C-0.67 2.01 -0.34 1.02 0 0 Z " fill="#5F5D5E" transform="translate(177,336)"/>
<path d="M0 0 C4.78874847 0.393841 6.99056272 2.09436458 10.125 5.6875 C11.42449834 9.89175933 11.43596397 11.90268616 9.8125 16 C8.125 18.6875 8.125 18.6875 6.125 20.6875 C1.4867022 21.55319409 -1.93674992 21.28108679 -5.9375 18.75 C-8.56584213 14.59552373 -8.75680492 11.47444101 -7.875 6.6875 C-5.89789657 1.99187935 -5.06861143 0.89926977 0 0 Z " fill="#FAF2E8" transform="translate(262.875,113.3125)"/>
<path d="M0 0 C2.91211842 1.34040481 3.85500285 2.41500343 6 5 C6.6875 8.5 6.6875 8.5 6 12 C3.54905772 14.98087575 1.20472002 16.86351998 -2 19 C-6.18917469 18.92242269 -8.50020985 18.33319343 -12 16 C-14.47034034 12.2944895 -14.42058747 10.37310793 -13.62890625 6.09375 C-11.58769746 -0.7018271 -6.2554917 -1.23165121 0 0 Z " fill="#FAF2E7" transform="translate(257,163)"/>
<path d="M0 0 C2.5647293 1.50012468 4.89183465 2.89183465 7 5 C6.63378692 9.76077007 5.86298657 13.14597961 3 17 C-0.7373856 19.4915904 -2.57331583 19.45793285 -7 19 C-10.75514634 16.9591596 -11.77457968 15.71604102 -13.0625 11.625 C-12.98555937 7.16244349 -11.83426017 5.38536632 -9 2 C-5.46569344 -0.35620437 -4.16428713 -0.48991613 0 0 Z " fill="#F8F0E6" transform="translate(313,154)"/>
<path d="M0 0 C1.32 0.33 2.64 0.66 4 1 C4.07476562 2.24265625 4.14953125 3.4853125 4.2265625 4.765625 C5.129341 17.74628139 6.90523611 30.49129656 9.0625 43.3125 C9.19819397 44.12424683 9.33388794 44.93599365 9.47369385 45.77233887 C9.86405301 48.09523137 10.2604209 50.41698542 10.66015625 52.73828125 C10.77991318 53.44251724 10.8996701 54.14675323 11.02305603 54.87232971 C11.65379412 58.546155 11.65379412 58.546155 13 62 C13.039992 63.99960012 13.04346799 66.00047242 13 68 C11.68 67.67 10.36 67.34 9 67 C6.5429667 58.90987217 4.98677599 50.76334787 3.69238281 42.41992188 C3.37422857 40.37002963 3.04725324 38.32169431 2.71875 36.2734375 C1.1821407 26.6189143 -0.18171396 17.22221519 -0.0625 7.4375 C-0.05798828 6.71498047 -0.05347656 5.99246094 -0.04882812 5.24804688 C-0.03724279 3.49866056 -0.01931762 1.74931801 0 0 Z " fill="#605955" transform="translate(172,227)"/>
<path d="M0 0 C3.5386994 1.65139305 4.81070153 2.71605229 7 6 C7.44670637 10.02035732 7.38249016 12.29621811 5.4375 15.875 C2.18423621 18.71117869 0.30444539 19.14842915 -4 19 C-8.19663424 16.30781954 -10.77799239 13.88803042 -12 9 C-12.4375 6.4375 -12.4375 6.4375 -12 4 C-8.32765309 -0.11747987 -5.38527173 -0.67315897 0 0 Z " fill="#FAF2E8" transform="translate(229,105)"/>
<path d="M0 0 C1.32 0 2.64 0 4 0 C2.80502477 6.10303082 1.13912847 11.76682524 -1.15234375 17.54296875 C-1.60354332 18.70110832 -1.60354332 18.70110832 -2.06385803 19.88264465 C-2.69532817 21.4997135 -3.32992128 23.11556607 -3.9675293 24.73022461 C-4.93813118 27.18909899 -5.8985486 29.65176568 -6.85742188 32.11523438 C-7.47597181 33.69554383 -8.09509287 35.27562988 -8.71484375 36.85546875 C-8.9993187 37.5837236 -9.28379364 38.31197845 -9.57688904 39.06230164 C-13.84483135 49.84483135 -13.84483135 49.84483135 -17 53 C-18.9375 52.9375 -18.9375 52.9375 -21 52 C-23.62334906 48.62712264 -24.36372697 46.24348127 -24 42 C-22.125 42.3125 -22.125 42.3125 -20 43 C-19.34 43.99 -18.68 44.98 -18 46 C-11.83038225 30.73105774 -5.88008189 15.3825846 0 0 Z " fill="#605E5F" transform="translate(246,240)"/>
<path d="M0 0 C4.60626036 0.86247508 7.02508713 3.61228844 10.1875 6.875 C10.76193848 7.45854248 11.33637695 8.04208496 11.92822266 8.64331055 C16.96477625 13.82551468 21.51021022 19.34127087 26 25 C30.14138912 30.02819622 34.39889466 34.38507524 39.49609375 38.45703125 C41 40 41 40 41 43 C37.03894115 42.48115288 35.09047583 41.59016733 32.29296875 38.75390625 C31.62821533 38.08657471 30.96346191 37.41924316 30.27856445 36.73168945 C29.58851318 36.01585693 28.89846191 35.30002441 28.1875 34.5625 C27.46973389 33.83184326 26.75196777 33.10118652 26.01245117 32.34838867 C21.7332478 27.94451521 17.79048873 23.42451672 14.08203125 18.52734375 C9.49510282 12.9593462 4.16646306 8.02470035 -1 3 C-0.67 2.01 -0.34 1.02 0 0 Z " fill="#5F5D5E" transform="translate(299,317)"/>
<path d="M0 0 C3.67944715 0.74104452 5.17714319 2.40234856 7.23046875 5.44921875 C7.77240496 8.76857806 7.54950343 10.66226655 6.29296875 13.76171875 C3.00944105 16.44824141 -0.59772572 16.7886966 -4.76953125 16.44921875 C-7.32105093 14.59936698 -8.3792984 13.22968445 -9.76953125 10.44921875 C-10.04419516 7.29058374 -10.00103003 5.03568232 -8.83203125 2.07421875 C-5.93497542 -0.20831009 -3.61915294 -0.17121604 0 0 Z " fill="#FAF3E8" transform="translate(319.76953125,122.55078125)"/>
<path d="M0 0 C7.68351151 0.08340311 7.68351151 0.08340311 11.19140625 2.15625 C12.44140625 4.53125 12.44140625 4.53125 12.56640625 7.46875 C11.0447845 11.61094253 9.13005201 13.16494895 5.44140625 15.53125 C2.37890625 16.15625 2.37890625 16.15625 -0.55859375 15.53125 C-3.9285571 13.04040752 -5.37669802 11.64536135 -6.05859375 7.46875 C-5.35756317 3.35019533 -4.28728562 0.8901845 0 0 Z " fill="#F9F1E7" transform="translate(196.55859375,139.46875)"/>
<path d="M0 0 C2.18776238 1.63950386 2.91335087 2.68920461 3.65234375 5.33984375 C4.41216818 12.26153202 4.41216818 12.26153202 2.5 15.6875 C0 17 0 17 -3.4375 17.1875 C-7.55503708 15.81498764 -8.9418186 14.51890511 -11.1796875 10.91015625 C-12 9 -12 9 -12.125 5.75 C-11 3 -11 3 -8.8125 1.125 C-5.57825225 -0.1686991 -3.45179065 -0.45023356 0 0 Z " fill="#F7EFE5" transform="translate(335,174)"/>
<path d="M0 0 C3.29887477 3.01611407 2.97186237 5.61536823 3.1875 10 C2.1975 10.33 1.2075 10.66 0.1875 11 C-0.1425 11.99 -0.4725 12.98 -0.8125 14 C-8.0125 14.48 -8.0125 14.48 -11.3125 12.5 C-13.58485685 8.71273859 -13.36973448 6.38822151 -12.8125 2 C-9.34653166 -2.26580718 -4.82041456 -1.71392518 0 0 Z " fill="#F8F0E5" transform="translate(243.8125,140)"/>
<path d="M0 0 C0.99 0.33 1.98 0.66 3 1 C1.68214545 9.06028644 -0.72119826 16.56185678 -3.4375 24.25 C-3.83259766 25.3946875 -4.22769531 26.539375 -4.63476562 27.71875 C-6.4829054 33.00793538 -8.41766909 38.01757683 -11 43 C-11.99 42.67 -12.98 42.34 -14 42 C-13.38798218 37.60595176 -12.30696816 33.69881162 -10.78515625 29.53515625 C-10.34623047 28.32279297 -9.90730469 27.11042969 -9.45507812 25.86132812 C-8.99122666 24.59492704 -8.52703132 23.32865186 -8.0625 22.0625 C-7.15444402 19.57532731 -6.25049298 17.08673615 -5.34765625 14.59765625 C-4.94554932 13.49945557 -4.54344238 12.40125488 -4.12915039 11.26977539 C-3.31792839 8.92065187 -2.58948071 6.5423376 -1.91577148 4.15014648 C-1 1 -1 1 0 0 Z " fill="#615E5F" transform="translate(319,42)"/>
<path d="M0 0 C3.48282712 1.44409905 5.29059349 3.05556491 7.5625 6.0625 C7.63688159 9.70719779 6.94953713 11.4819443 4.9375 14.5 C2.5625 16.0625 2.5625 16.0625 -1 16.0625 C-4.4375 15.0625 -4.4375 15.0625 -6.4375 13.4375 C-7.91076389 9.93849825 -7.40864747 7.68811724 -6.4375 4.0625 C-4.42524619 1.18785171 -3.55407299 0.09113008 0 0 Z " fill="#F4EDE3" transform="translate(187.4375,111.9375)"/>
<path d="M0 0 C0.99 0.33 1.98 0.66 3 1 C3.25385233 9.13972783 2.4597933 17.04890144 1.5 25.125 C1.28537109 26.98898437 1.28537109 26.98898437 1.06640625 28.890625 C0.71597384 31.92770585 0.36039867 34.9640885 0 38 C-1.32 38 -2.64 38 -4 38 C-3.76379283 32.90901404 -3.51532248 27.81883281 -3.25537109 22.72900391 C-3.16864464 20.99674858 -3.08529629 19.26432074 -3.00537109 17.53173828 C-2.89002972 15.04406696 -2.76262864 12.55726518 -2.6328125 10.0703125 C-2.59938751 9.29317902 -2.56596252 8.51604553 -2.53152466 7.71536255 C-2.22774341 2.22774341 -2.22774341 2.22774341 0 0 Z " fill="#635B55" transform="translate(339,258)"/>
<path d="M0 0 C3.36937448 0.57991413 4.96552427 1.60349679 7.3125 4.0625 C8.22128906 5.00996094 8.22128906 5.00996094 9.1484375 5.9765625 C11.53870078 8.58870676 13.85640077 11.25734977 16.15625 13.94921875 C18.7695681 16.85598146 21.6184176 19.49774975 24.49609375 22.140625 C26 24 26 24 26 28 C21.54360181 27.58520399 19.11704295 24.48943439 16.1875 21.4375 C15.65777588 20.89609375 15.12805176 20.3546875 14.58227539 19.796875 C10.56964577 15.66714648 6.64168325 11.46334437 3 7 C2.44441406 6.3296875 1.88882813 5.659375 1.31640625 4.96875 C0 3 0 3 0 0 Z " fill="#5F5D5E" transform="translate(172,363)"/>
<path d="M0 0 C2 2 2 2 2.08203125 4.05859375 C1.99308594 4.84363281 1.90414063 5.62867188 1.8125 6.4375 C1.73644531 7.21996094 1.66039062 8.00242188 1.58203125 8.80859375 C0.90245297 11.36727438 0.07861356 12.39309176 -2 14 C-5.83188635 13.87227046 -8.44165536 11.7004749 -11 9 C-11.5 5.375 -11.5 5.375 -11 2 C-6.93150591 -0.71232939 -4.83523216 -0.30699887 0 0 Z " fill="#F8F1E6" transform="translate(293,178)"/>
<path d="M0 0 C0.99 0.33 1.98 0.66 3 1 C2.93433838 1.65266846 2.86867676 2.30533691 2.80102539 2.9777832 C2.120433 10.04431959 1.7150252 17.09468387 1.4375 24.1875 C1.39431641 25.23486328 1.35113281 26.28222656 1.30664062 27.36132812 C1.20200491 29.90746397 1.09982454 32.45367178 1 35 C-0.32 35 -1.64 35 -3 35 C-3.05886171 31.20840036 -3.09388224 27.41692081 -3.125 23.625 C-3.14175781 22.56410156 -3.15851563 21.50320312 -3.17578125 20.41015625 C-3.21661275 13.75462229 -2.85284315 7.42784867 -1 1 C-0.67 0.67 -0.34 0.34 0 0 Z " fill="#F6EEE4" transform="translate(171,132)"/>
<path d="M0 0 C2.54685809 0.0785782 3.81954973 0.17584047 6.0625 1.4375 C7.54151666 4.21065624 7.44851984 6.22434125 7.0625 9.3125 C5.9375 11.1875 5.9375 11.1875 4.0625 12.3125 C0.43218224 12.85318562 -1.25964079 12.77629841 -4.3125 10.6875 C-6.38111448 7.66414037 -6.40629799 5.90661792 -5.9375 2.3125 C-3.9375 0.3125 -3.9375 0.3125 0 0 Z " fill="#FBF3E8" transform="translate(226.9375,181.6875)"/>
<path d="M0 0 C1.89453125 0.25 1.89453125 0.25 4 1 C9.02313272 9.688662 8.14652129 21.37843539 8 31 C6.68 31 5.36 31 4 31 C3.9498877 30.43079834 3.89977539 29.86159668 3.84814453 29.27514648 C3.61407662 26.66191893 3.3696142 24.04976061 3.125 21.4375 C3.04636719 20.54224609 2.96773438 19.64699219 2.88671875 18.72460938 C2.50703287 14.73790766 2.09284587 10.93895087 0.9296875 7.09765625 C0 4 0 4 0 0 Z " fill="#F5EDE3" transform="translate(330,126)"/>
<path d="M0 0 C3.4375 0.75 3.4375 0.75 5.4375 2.75 C5.79814764 6.06795832 5.75173956 8.12152087 4.25 11.125 C2.4375 12.75 2.4375 12.75 0 13.3125 C-2.5625 12.75 -2.5625 12.75 -4.875 10.625 C-6.82452646 7.30358454 -7.15159219 5.53702122 -6.5625 1.75 C-3.5625 -0.25 -3.5625 -0.25 0 0 Z " fill="#F5EEE3" transform="translate(287.5625,144.25)"/>
<path d="M0 0 C0 1.32 0 2.64 0 4 C-3.20782086 4.95376567 -6.08187396 5.11621181 -9.421875 5.09765625 C-10.44667969 5.09443359 -11.47148437 5.09121094 -12.52734375 5.08789062 C-13.59082031 5.07951172 -14.65429688 5.07113281 -15.75 5.0625 C-16.82894531 5.05798828 -17.90789062 5.05347656 -19.01953125 5.04882812 C-21.67974383 5.03705727 -24.33984365 5.02061399 -27 5 C-27 3.68 -27 2.36 -27 1 C-23.4375865 0.83144992 -19.87505676 0.66549228 -16.3125 0.5 C-15.30509766 0.45230469 -14.29769531 0.40460938 -13.25976562 0.35546875 C-11.79506836 0.28779297 -11.79506836 0.28779297 -10.30078125 0.21875 C-9.40528564 0.17685547 -8.50979004 0.13496094 -7.5871582 0.09179688 C-5.05557612 0.00197194 -2.53292812 -0.01596803 0 0 Z " fill="#5F5955" transform="translate(318,432)"/>
<path d="M0 0 C5.07489955 1.79114102 10.78354138 4.53269636 14 9 C14.5 11.3125 14.5 11.3125 14 14 C12.49500852 16.21568191 10.83528767 18.02706576 9 20 C7.68 19.67 6.36 19.34 5 19 C5.28875 18.46375 5.5775 17.9275 5.875 17.375 C7.16711808 14.64719516 8.08558592 11.87387282 9 9 C8.278125 8.731875 7.55625 8.46375 6.8125 8.1875 C4.02409874 7.01017502 1.55904276 5.60854116 -1 4 C-0.67 2.68 -0.34 1.36 0 0 Z " fill="#EFE8DE" transform="translate(345,172)"/>
<path d="M0 0 C5.56852895 2.40488433 9.61395629 6.92522391 14 11 C14.59296875 11.515625 15.1859375 12.03125 15.796875 12.5625 C17.1875 13.8125 17.1875 13.8125 19 16 C18.8125 18.3125 18.8125 18.3125 18 20 C15.08653407 18.68692751 13.0549021 17.28818412 10.8359375 14.99609375 C10.27132813 14.42052734 9.70671875 13.84496094 9.125 13.25195312 C8.5475 12.65318359 7.97 12.05441406 7.375 11.4375 C6.21839849 10.24650616 5.05964222 9.05759995 3.8984375 7.87109375 C3.38974121 7.34443115 2.88104492 6.81776855 2.35693359 6.27514648 C1.00599895 4.8835783 1.00599895 4.8835783 -1 4 C-0.67 2.68 -0.34 1.36 0 0 Z " fill="#615E60" transform="translate(326,318)"/>
<path d="M0 0 C0.99 0.33 1.98 0.66 3 1 C3 8.59 3 16.18 3 24 C1.68 23.67 0.36 23.34 -1 23 C-1.02887512 19.35418313 -1.04675585 15.70839537 -1.0625 12.0625 C-1.07087891 11.02158203 -1.07925781 9.98066406 -1.08789062 8.90820312 C-1.09272461 7.42416992 -1.09272461 7.42416992 -1.09765625 5.91015625 C-1.10289307 4.99371338 -1.10812988 4.07727051 -1.11352539 3.13305664 C-1 1 -1 1 0 0 Z " fill="#635B55" transform="translate(339,211)"/>
<path d="M0 0 C1.98 0.495 1.98 0.495 4 1 C4 2.32 4 3.64 4 5 C7.3 5.66 10.6 6.32 14 7 C14 8.32 14 9.64 14 11 C9.71293615 11.25218023 6.06102684 11.39788506 2 9.875 C-0.66285369 7.37857467 -0.84728706 5.588754 -1 2 C-0.67 1.34 -0.34 0.68 0 0 Z " fill="#EEE7DD" transform="translate(151,190)"/>
<path d="M0 0 C1.32 0 2.64 0 4 0 C4 0.66 4 1.32 4 2 C6.31 2.66 8.62 3.32 11 4 C11 4.99 11 5.98 11 7 C7.18634321 7.35475877 5.41557542 7.2619932 2.125 5.1875 C0 3 0 3 0 0 Z " fill="#615F60" transform="translate(288,101)"/>
<path d="M0 0 C2.35964273 0.40683495 3.85934088 0.89814339 5.8125 2.3125 C7 4 7 4 6.6875 6.1875 C6.460625 6.785625 6.23375 7.38375 6 8 C3.53199953 6.84826645 1.95216435 5.95216435 0 4 C0 2.68 0 1.36 0 0 Z " fill="#ECE5DB" transform="translate(321,112)"/>
<path d="M0 0 C0.99 0 1.98 0 3 0 C2.67 1.65 2.34 3.3 2 5 C1.01 5 0.02 5 -1 5 C-0.67 3.35 -0.34 1.7 0 0 Z " fill="#695E55" transform="translate(327,415)"/>
<path d="M0 0 C1.32 0 2.64 0 4 0 C3.67 1.32 3.34 2.64 3 4 C1.68 3.67 0.36 3.34 -1 3 C-0.67 2.01 -0.34 1.02 0 0 Z " fill="#6E6155" transform="translate(337,301)"/>
<path d="M0 0 C0.99 0.33 1.98 0.66 3 1 C3 2.32 3 3.64 3 5 C1.68 4.67 0.36 4.34 -1 4 C-0.67 2.68 -0.34 1.36 0 0 Z " fill="#675D55" transform="translate(339,242)"/>
</svg>
