<?xml version="1.0" encoding="UTF-8"?>
<svg version="1.1" xmlns="http://www.w3.org/2000/svg" width="512" height="512">
<path d="M0 0 C0.66888689 -0.00453111 1.33777378 -0.00906223 2.02692997 -0.01373065 C4.26697589 -0.02638512 6.506779 -0.02475364 8.74685669 -0.02310181 C10.35345777 -0.02908641 11.96005597 -0.0358918 13.56665039 -0.04345703 C17.93032895 -0.06113108 22.29392909 -0.065813 26.65763998 -0.0670886 C30.30077478 -0.06898782 33.94389132 -0.0763456 37.58701909 -0.08343279 C46.18262541 -0.09971963 54.77818984 -0.10460147 63.37380981 -0.10317993 C72.23980066 -0.10197835 81.10554813 -0.12308281 89.97147739 -0.15466726 C97.58433931 -0.18082099 105.19712169 -0.19154761 112.8100282 -0.19026911 C117.35644975 -0.18975922 121.90265503 -0.19545747 126.44903183 -0.21662521 C130.72548161 -0.23599249 135.00150846 -0.23614258 139.27797318 -0.22159195 C140.84609342 -0.21950087 142.41424003 -0.2242226 143.98231506 -0.23631287 C146.12623872 -0.25177038 148.26870497 -0.24245612 150.41259766 -0.22705078 C151.61126402 -0.22814032 152.80993038 -0.22922985 154.04491997 -0.2303524 C158.80605481 0.49036737 161.90637527 2.73311671 165.14968872 6.22055054 C167.66931154 10.57791806 167.95351757 15.7078638 166.77859497 20.55648804 C164.75245412 25.34391818 162.09674414 27.52165395 157.43093872 29.67367554 C154.99380447 30.36351614 152.85534813 30.30693435 150.33328247 30.26742554 C151.71135172 34.60660926 153.11389384 38.93750839 154.52078247 43.26742554 C154.90814575 44.48816772 155.29550903 45.70890991 155.6946106 46.96664429 C158.74902838 56.30659949 161.46502875 63.20153641 169.33328247 69.26742554 C170.97500965 71.41579028 172.45096499 73.49807871 173.89578247 75.76742554 C174.26896606 76.31656616 174.64214966 76.86570679 175.02664185 77.43148804 C180.85522793 86.47339897 182.93577174 96.15291176 182.84794617 106.77954102 C182.8548917 107.87304694 182.86183722 108.96655286 182.86899322 110.09319532 C182.8871508 113.72261166 182.87703003 117.35136601 182.86672974 120.98080444 C182.87379371 123.59686264 182.88254074 126.21291676 182.89283752 128.82896423 C182.91438907 135.17546128 182.9143739 141.52177842 182.90621198 147.86829998 C182.89989304 153.02860523 182.90106628 158.18885832 182.90748405 163.34916306 C182.90838571 164.0856714 182.90928736 164.82217974 182.91021634 165.58100652 C182.91206767 167.07752981 182.91393023 168.57405309 182.9158039 170.07057635 C182.93235059 184.07683871 182.92368888 198.08300008 182.90681832 212.08925633 C182.89211417 224.88878169 182.90676529 237.68807245 182.93558849 250.48756762 C182.9650128 263.65266585 182.97594657 276.81765592 182.96640629 289.98278558 C182.9653838 291.47296355 182.96438919 292.96314154 182.96342278 294.45331955 C182.96294639 295.18639002 182.96247 295.91946049 182.96197917 296.67474521 C182.95981959 301.82640432 182.96959439 306.97796043 182.9841938 312.12959671 C183.00358617 319.06877958 182.99658632 326.00751944 182.9719944 332.94668388 C182.96698861 335.49033198 182.9704701 338.03401336 182.98314285 340.57763481 C182.99909663 344.0553489 182.9840982 347.53163035 182.96147156 351.00927734 C182.97330729 352.01084669 182.98514301 353.01241603 182.9973374 354.04433596 C182.89592692 361.73930187 180.91357017 368.47178635 175.52738672 374.18194449 C172.40771217 376.98649752 169.01834203 379.25739305 165.33328247 381.26742554 C166.07384888 381.88230835 166.07384888 381.88230835 166.82937622 382.50961304 C167.79037231 383.31785522 167.79037231 383.31785522 168.77078247 384.14242554 C169.40886841 384.67609741 170.04695435 385.20976929 170.70437622 385.75961304 C172.90496112 387.79660529 173.29770184 388.87778842 173.57156372 391.87680054 C173.82342646 402.53457107 173.82342646 402.53457107 169.33328247 407.26742554 C165.19258449 410.34979202 162.12507139 410.64555546 157.01481628 410.65510559 C156.28790523 410.66049113 155.56099419 410.66587667 154.81205553 410.6714254 C152.38153927 410.68570834 149.95156738 410.67860065 147.52102661 410.67147827 C145.77634748 410.67718168 144.03167208 410.68414582 142.28700256 410.692276 C137.55145585 410.71022584 132.81609425 410.70903559 128.08052373 410.70333362 C124.12666756 410.7002444 120.17284708 410.70633125 116.21899599 410.71237236 C106.89125728 410.72642198 97.56361015 410.72485266 88.23587036 410.71347046 C78.61379761 410.70198853 68.99200355 410.71606518 59.36996752 410.74286693 C51.10740097 410.76502001 42.84492193 410.7716622 34.58232778 410.76579052 C29.64805423 410.76241884 24.71395934 410.7648501 19.77971077 410.78204155 C15.13963691 410.79750234 10.49997608 410.7935648 5.85991859 410.7747364 C4.15796233 410.77104812 2.45597553 410.77416598 0.75404739 410.78462219 C-1.57153395 410.79781806 -3.89574508 410.78629862 -6.2212677 410.76863098 C-7.52187606 410.7684217 -8.82248442 410.76821241 -10.16250515 410.76799679 C-15.22631199 410.04463991 -18.40088332 407.90682866 -21.50656128 403.88461304 C-23.62187447 399.11269439 -23.5214252 394.36202165 -22.66671753 389.26742554 C-20.69986772 385.72468995 -18.3040895 383.08611152 -14.66671753 381.26742554 C-15.25839722 380.90390991 -15.8500769 380.54039429 -16.45968628 380.16586304 C-23.73919584 375.53452742 -29.15420333 370.86942406 -31.66671753 362.26742554 C-32.0894218 358.63192859 -32.07615115 355.02688559 -32.05439758 351.37004089 C-32.05978312 350.28221823 -32.06516866 349.19439556 -32.07071739 348.07360858 C-32.08500913 344.43342747 -32.07788993 340.79360939 -32.07077026 337.15341187 C-32.07647329 334.54133817 -32.08343729 331.92926697 -32.09156799 329.31719971 C-32.10874702 322.96068114 -32.10959759 316.60426146 -32.10435509 310.2477257 C-32.10030915 305.07779071 -32.10176199 299.90788488 -32.10710335 294.73795128 C-32.10785177 294.00134293 -32.10860019 293.26473459 -32.10937129 292.50580477 C-32.11090283 291.00920528 -32.11244118 289.51260579 -32.11398626 288.01600631 C-32.12770899 273.98587747 -32.12227605 259.95580441 -32.11080105 245.92567685 C-32.10087706 233.10781782 -32.11379526 220.29010332 -32.13773524 207.47226659 C-32.16215815 194.29602743 -32.17172578 181.11985549 -32.16508251 167.94359416 C-32.16159632 160.55220031 -32.16378214 153.16091746 -32.18133354 145.76954079 C-32.1976435 138.81488136 -32.19282414 131.86050138 -32.1740284 124.90584946 C-32.17034772 122.35820632 -32.17343567 119.81054272 -32.18391418 117.26291847 C-32.19716132 113.77487371 -32.18554219 110.28773495 -32.16792297 106.79972839 C-32.17752798 105.80057413 -32.18713299 104.80141987 -32.19702905 103.77198821 C-32.09919877 94.30581446 -29.5573756 85.29237353 -24.22921753 77.39242554 C-23.62593628 76.4965271 -23.02265503 75.60062866 -22.40109253 74.67758179 C-19.74854438 70.99149574 -17.10105346 67.52246948 -13.66671753 64.51742554 C-7.82834965 57.94926168 -5.34998875 48.8955498 -2.85421753 40.64242554 C-2.54290894 39.63824585 -2.23160034 38.63406616 -1.91085815 37.59945679 C-1.15507881 35.15770813 -0.40719254 32.71384969 0.33328247 30.26742554 C-0.91839722 30.13594116 -2.1700769 30.00445679 -3.45968628 29.86898804 C-7.77361123 29.41582599 -10.3577324 28.19164495 -13.66671753 25.26742554 C-16.74393574 20.30417036 -17.10937845 16.40084011 -16.31124878 10.63851929 C-15.12972315 6.29193712 -12.71159007 3.59798406 -8.91541862 1.12788963 C-5.86797545 -0.03821263 -3.26255592 0.00912844 0 0 Z " fill="#E43935" transform="translate(180.66671752929688,50.732574462890625)"/>
<path d="M0 0 C18.81 0 37.62 0 57 0 C50.18273928 19.42452369 43.15855172 38.74391731 35.86499023 57.99414062 C35.54909439 58.83008255 35.23319855 59.66602448 34.9077301 60.52729797 C34.3135845 62.09901465 33.71753564 63.67001365 33.11924744 65.24015808 C31.89280181 68.48563694 30.84305817 71.62776733 30 75 C42.54 75 55.08 75 68 75 C66.61675367 79.14973899 65.45206787 82.29785949 63.41796875 86.02734375 C62.90508301 86.9719043 62.39219727 87.91646484 61.86376953 88.88964844 C61.31060059 89.89543945 60.75743164 90.90123047 60.1875 91.9375 C59.6085498 92.9987207 59.02959961 94.05994141 58.43310547 95.15332031 C54.04333449 103.17252306 49.54378479 111.12693617 45.01831055 119.07006836 C40.38454159 127.23847822 35.95207555 135.50956102 31.5425415 143.8001709 C26.80770309 152.69677057 21.92911294 161.49838604 16.92944336 170.2487793 C11.8453054 179.18564905 7.00543099 188.24746069 2.19921875 197.3359375 C-5.40907803 211.67209498 -5.40907803 211.67209498 -9 217 C-9.33 217 -9.66 217 -10 217 C-9.36172416 207.58549084 -7.83856593 198.35064601 -6.26953125 189.05859375 C-5.99356052 187.40703937 -5.71790746 185.75543188 -5.44255066 184.10377502 C-4.86417119 180.63964351 -4.28313354 177.17597262 -3.69995117 173.71264648 C-2.97132177 169.38532308 -2.24741072 165.05722938 -1.52531624 160.72881126 C2.19031257 138.46265678 6.04683207 116.22532198 10 94 C-1.55 94 -13.1 94 -25 94 C-23.68 88.72 -22.36 83.44 -21 78 C-20.32503057 75.14778541 -19.65627933 72.29407299 -19 69.4375 C-17.32929482 62.2547053 -15.47390228 55.13224366 -13.54296875 48.01464844 C-12.5322186 44.2643291 -11.54917621 40.50670945 -10.5625 36.75 C-10.35391357 35.95891846 -10.14532715 35.16783691 -9.93041992 34.3527832 C-8.83289603 30.18757284 -7.74625614 26.01990512 -6.67578125 21.84765625 C-6.45784912 21.00428711 -6.23991699 20.16091797 -6.01538086 19.29199219 C-5.60248418 17.69329655 -5.19288959 16.09374267 -4.78735352 14.49316406 C-4.59713623 13.75936523 -4.40691895 13.02556641 -4.2109375 12.26953125 C-3.96802979 11.31977417 -3.96802979 11.31977417 -3.72021484 10.35083008 C-2.6462381 6.84529719 -1.28734452 3.43291872 0 0 Z " fill="#FABE2D" transform="translate(234,146)"/>
<path d="M0 0 C0.73180931 -0.00508782 1.46361863 -0.01017564 2.21760398 -0.01541764 C4.6825684 -0.03117887 7.14750343 -0.03967686 9.61250305 -0.04811096 C11.37481881 -0.05764653 13.13713267 -0.06753755 14.89944458 -0.07775879 C20.69871286 -0.10918036 26.49799564 -0.12941567 32.2973175 -0.14796448 C33.77659237 -0.15291046 33.77659237 -0.15291046 35.28575158 -0.15795636 C44.58446571 -0.18874039 53.88318302 -0.21545191 63.1819334 -0.23237514 C75.08123299 -0.25428383 86.98008143 -0.29625353 98.87920064 -0.36581272 C107.24276062 -0.41304548 115.60619885 -0.43730782 123.96988803 -0.44457203 C128.96642733 -0.44952973 133.96245851 -0.46462156 138.95885277 -0.50431633 C143.66135276 -0.54118286 148.36305444 -0.54959238 153.06567192 -0.5363102 C154.78981469 -0.53636415 156.51399283 -0.54666131 158.23800278 -0.56806183 C172.88969797 -0.74018406 172.88969797 -0.74018406 177.49099731 3.07919312 C181.86489189 8.50921974 181.61516512 13.33867415 180.97309875 20.16062927 C178.79425481 24.76041093 176.50120392 26.95219488 171.97309875 29.16062927 C168.59472752 29.54094601 168.59472752 29.54094601 164.65463257 29.54830933 C163.92772152 29.55369486 163.20081047 29.5590804 162.45187181 29.56462914 C160.02135555 29.57891208 157.59138366 29.57180438 155.1608429 29.56468201 C153.41616376 29.57038541 151.67148836 29.57734956 149.92681885 29.58547974 C145.19127214 29.60342958 140.45591054 29.60223933 135.72034001 29.59653735 C131.76648384 29.59344813 127.81266337 29.59953498 123.85881227 29.6055761 C114.53107356 29.61962572 105.20342643 29.6180564 95.87568665 29.60667419 C86.25361389 29.59519227 76.63181983 29.60926892 67.0097838 29.63607067 C58.74721725 29.65822374 50.48473821 29.66486594 42.22214407 29.65899426 C37.28787052 29.65562257 32.35377563 29.65805383 27.41952705 29.67524529 C22.7794532 29.69070607 18.13979237 29.68676854 13.49973488 29.66794014 C11.79777862 29.66425186 10.09579182 29.66736972 8.39386368 29.67782593 C6.06828233 29.69102179 3.7440712 29.67950236 1.41854858 29.66183472 C0.11794023 29.66162543 -1.18266813 29.66141615 -2.52268887 29.66120052 C-7.5864957 28.93784365 -10.76106703 26.80003239 -13.866745 22.77781677 C-15.98205819 18.00589813 -15.88160891 13.25522538 -15.02690125 8.16062927 C-11.27350679 1.39992795 -7.48833572 0.03908495 0 0 Z " fill="#BCBCBC" transform="translate(173.0269012451172,431.83937072753906)"/>
<path d="M0 0 C0.66888689 -0.00453111 1.33777378 -0.00906223 2.02692997 -0.01373065 C4.26697589 -0.02638512 6.506779 -0.02475364 8.74685669 -0.02310181 C10.35345777 -0.02908641 11.96005597 -0.0358918 13.56665039 -0.04345703 C17.93032895 -0.06113108 22.29392909 -0.065813 26.65763998 -0.0670886 C30.30077478 -0.06898782 33.94389132 -0.0763456 37.58701909 -0.08343279 C46.18262541 -0.09971963 54.77818984 -0.10460147 63.37380981 -0.10317993 C72.23980066 -0.10197835 81.10554813 -0.12308281 89.97147739 -0.15466726 C97.58433931 -0.18082099 105.19712169 -0.19154761 112.8100282 -0.19026911 C117.35644975 -0.18975922 121.90265503 -0.19545747 126.44903183 -0.21662521 C130.72548161 -0.23599249 135.00150846 -0.23614258 139.27797318 -0.22159195 C140.84609342 -0.21950087 142.41424003 -0.2242226 143.98231506 -0.23631287 C146.12623872 -0.25177038 148.26870497 -0.24245612 150.41259766 -0.22705078 C151.61126402 -0.22814032 152.80993038 -0.22922985 154.04491997 -0.2303524 C158.80605481 0.49036737 161.90637527 2.73311671 165.14968872 6.22055054 C167.66931154 10.57791806 167.95351757 15.7078638 166.77859497 20.55648804 C164.89568337 25.00549155 162.41556613 27.4025608 157.97341919 29.46992493 C152.13181913 31.23448491 145.91473719 30.82028122 139.86453247 30.78500366 C138.29999136 30.79043029 136.73545536 30.79755598 135.17092896 30.8062439 C130.93946708 30.82441603 126.70839708 30.81743517 122.47692871 30.80472755 C118.03906229 30.79456808 113.6012284 30.8040014 109.1633606 30.81027222 C101.71212773 30.81754006 94.2610537 30.80798362 86.80984497 30.78890991 C78.2073519 30.76714279 69.6052381 30.77419477 61.00275421 30.79621553 C53.60377008 30.81439418 46.20489983 30.81691583 38.80590057 30.80646086 C34.39252001 30.80023945 29.97931746 30.79935292 25.56594849 30.81260681 C21.41579522 30.82420067 17.26612876 30.81607555 13.11602783 30.79302979 C11.59713548 30.78776149 10.07820184 30.78922418 8.55932617 30.79808044 C-5.96119167 30.87491129 -5.96119167 30.87491129 -12.66671753 26.26742554 C-15.93130927 22.10406162 -16.98418826 18.43306825 -16.72921753 13.14242554 C-15.97392337 8.13282143 -14.35389782 5.69736069 -10.66671753 2.26742554 C-7.15383292 -0.01833969 -4.1370129 0.01157512 0 0 Z " fill="#BCBCBC" transform="translate(180.66671752929688,50.732574462890625)"/>
</svg>
