<?xml version="1.0" encoding="UTF-8"?>
<svg version="1.1" xmlns="http://www.w3.org/2000/svg" width="512" height="512">
<path d="M0 0 C1.01331642 -0.00623996 2.02663284 -0.01247993 3.07065582 -0.01890898 C6.47637492 -0.03490224 9.88138459 -0.02220956 13.28710938 -0.00964355 C15.72453226 -0.01506184 18.16195186 -0.02218283 20.59936523 -0.03088379 C26.53855182 -0.04725601 32.47755321 -0.04482345 38.4167347 -0.03323323 C43.24309067 -0.02420413 48.06938996 -0.02297262 52.89575195 -0.02732849 C53.58234469 -0.02794142 54.26893743 -0.02855436 54.976336 -0.02918586 C56.37108296 -0.03046475 57.7658299 -0.0317616 59.16057682 -0.03307623 C72.24288806 -0.04448575 85.32508724 -0.03136253 98.4073801 -0.00987476 C109.63557516 0.0079966 120.86360481 0.00489259 132.09179688 -0.0135498 C145.12689692 -0.03495 158.1618987 -0.04338708 171.19701385 -0.03110075 C172.58666482 -0.02982654 173.9763158 -0.02856905 175.3659668 -0.02732849 C176.04972334 -0.02671139 176.73347989 -0.02609429 177.43795633 -0.02545848 C182.25919863 -0.02200302 187.08037867 -0.02783814 191.90161133 -0.0372467 C198.38917798 -0.04962865 204.87650539 -0.04082857 211.36404419 -0.01766968 C213.74894693 -0.01236815 216.13387591 -0.01392087 218.51876831 -0.02272034 C221.76677765 -0.033602 225.01377446 -0.02000071 228.26171875 0 C229.21229408 -0.00892289 230.16286942 -0.01784577 231.14225006 -0.02703905 C237.50223724 0.04926935 237.50223724 0.04926935 240.71929932 2.39655304 C242.40408195 4.91661509 242.59869541 6.26232911 242.52148438 9.27355957 C242.50214844 10.60773926 242.50214844 10.60773926 242.48242188 11.96887207 C242.43214844 13.34945801 242.43214844 13.34945801 242.38085938 14.75793457 C242.3628125 15.69379395 242.34476562 16.62965332 242.32617188 17.59387207 C242.27911611 19.89960472 242.2133965 22.20324402 242.13085938 24.50793457 C243.19933105 24.4869873 244.26780273 24.46604004 245.36865234 24.44445801 C249.37551189 24.37144136 253.38231402 24.32591345 257.38964844 24.28820801 C259.11598639 24.26823172 260.84225791 24.24104085 262.56835938 24.20617676 C276.75768654 23.92698861 286.2514657 24.92612413 296.93164062 35.13684082 C303.42717113 42.14001491 306.36370337 49.20556067 306.42138672 58.82336426 C306.42810394 59.52994171 306.43482117 60.23651917 306.44174194 60.96450806 C306.46064405 63.28634801 306.46464246 65.60789758 306.46679688 67.92980957 C306.47323134 69.55637731 306.47996018 71.18294391 306.48696899 72.80950928 C306.49892311 76.21552205 306.50265186 79.62143356 306.50146484 83.02746582 C306.50126202 87.3693441 306.52853437 91.71056518 306.56300926 96.05228806 C306.58536635 99.41199665 306.58929967 102.77154944 306.58824539 106.13132477 C306.59058926 107.73074859 306.59934357 109.3301775 306.61491013 110.92952728 C306.73218817 124.22601594 304.95714998 133.41879727 295.50195312 143.30871582 C288.94591993 149.38951761 282.00982052 152.77324664 272.94189453 152.73498535 C271.7411026 152.73483429 270.54031067 152.73468323 269.3031311 152.73452759 C267.38094254 152.71904373 267.38094254 152.71904373 265.41992188 152.70324707 C264.08328463 152.69951247 262.74664463 152.69666761 261.41000366 152.69467163 C257.90830805 152.68707034 254.40678087 152.66745245 250.90515137 152.64526367 C247.32546262 152.62472931 243.74574641 152.61565375 240.16601562 152.60559082 C233.15422811 152.58420286 226.14255185 152.55010973 219.13085938 152.50793457 C218.88924072 153.62385986 218.64762207 154.73978516 218.39868164 155.88952637 C216.74464431 163.46595815 215.05224735 171.02274507 213.09570312 178.52746582 C212.84636017 179.48396782 212.84636017 179.48396782 212.59197998 180.45979309 C212.42514709 181.09950546 212.25831421 181.73921783 212.08642578 182.39831543 C207.01934536 201.8368056 204.22030016 220.61538622 203.06054688 240.66809082 C202.96954678 242.2098116 202.87832121 243.75151909 202.78686523 245.29321289 C202.56559999 249.03130398 202.34737596 252.76956507 202.13085938 256.50793457 C202.88992458 256.5042474 203.64898979 256.50056023 204.43105698 256.49676132 C222.89200403 256.40846358 241.35290899 256.34225095 259.81402206 256.30068588 C268.7416517 256.28005157 277.66914046 256.25191446 286.59667969 256.20617676 C294.37699674 256.16633549 302.1572118 256.14050808 309.93762803 256.13158059 C314.05819464 256.12636121 318.1784694 256.11407602 322.29894257 256.08501434 C326.17640888 256.05788786 330.05346282 256.04948384 333.93101501 256.05550385 C335.3548583 256.05440235 336.7787152 256.04643161 338.2024765 256.03111267 C340.14527945 256.01123243 342.08830308 256.01837531 344.03118896 256.0269165 C345.11890469 256.02322933 346.20662041 256.01954216 347.32729721 256.01574326 C350.83937075 256.63232031 352.00481048 257.68771264 354.13085938 260.50793457 C354.8656656 264.51596852 355.13012368 266.88201299 352.97851562 270.38293457 C351.13378204 272.54790308 349.1612408 274.51553647 347.13085938 276.50793457 C346.26976562 277.42703613 345.40867187 278.3461377 344.52148438 279.29309082 C322.63254078 302.4622668 289.7389251 319.44088966 257.49959481 320.6027627 C254.39861783 320.64236438 251.29900118 320.65081655 248.19776917 320.64837646 C246.41691206 320.65283315 246.41691206 320.65283315 244.60007805 320.65737987 C241.32170528 320.66452847 238.04336456 320.66723671 234.7649852 320.66797733 C231.2221577 320.66983646 227.67934137 320.67738816 224.13652039 320.68411255 C216.39643166 320.69766276 208.65634813 320.70371569 200.91624951 320.70812321 C196.07638201 320.71089178 191.23651648 320.71513029 186.39665031 320.71962738 C172.97723421 320.73181674 159.55781969 320.74211605 146.13839817 320.74550247 C144.85142073 320.74583182 144.85142073 320.74583182 143.53844374 320.74616782 C142.24850793 320.74649524 142.24850793 320.74649524 140.93251282 320.74682927 C139.19011597 320.74727273 137.44771912 320.74771929 135.70532227 320.74816895 C134.84104604 320.74839038 133.97676982 320.7486118 133.08630341 320.74883994 C119.09824271 320.75278358 105.11023424 320.77022583 91.1221937 320.79352847 C76.73566841 320.81729996 62.34916925 320.82970699 47.96262401 320.83087039 C39.89537295 320.83178401 31.82818993 320.83745673 23.76095772 320.85569 C16.88817956 320.87116961 10.01549047 320.87616556 3.14269818 320.8679519 C-0.35716613 320.86407271 -3.85685153 320.86483925 -7.35669327 320.87900925 C-52.30522671 321.03007992 -87.87835256 307.3576986 -119.93164062 275.57043457 C-124.56577023 270.94930392 -125.930706 269.18436944 -126.29492188 262.57824707 C-125.66762298 259.52807813 -124.2688513 258.44500283 -121.86914062 256.50793457 C-119.06557846 256.01574326 -119.06557846 256.01574326 -115.76947021 256.0269165 C-114.51867676 256.02141785 -113.2678833 256.01591919 -111.97918701 256.01025391 C-110.59582135 256.02440956 -109.21245957 256.03894879 -107.82910156 256.05383301 C-106.37040234 256.05496147 -104.91170084 256.05432766 -103.45300293 256.05206299 C-99.49448937 256.05091483 -95.53646015 256.07444024 -91.5780592 256.10235882 C-87.44075663 256.12735566 -83.30344309 256.12971311 -79.16607666 256.13446045 C-71.33209076 256.1468953 -63.49832801 256.17972372 -55.66444039 256.21985841 C-46.74556458 256.26456033 -37.82667813 256.28655917 -28.90771818 256.30664015 C-10.56139912 256.34845597 7.78471219 256.41881785 26.13085938 256.50793457 C25.87904508 252.02885315 25.62170487 247.55013056 25.35962296 243.07164097 C25.27152357 241.55362397 25.18483682 240.0355242 25.09968948 238.51733875 C23.60806399 211.97780268 17.54758877 186.90677193 11.05126953 161.22460938 C9.94397407 156.84079198 8.8458721 152.45467844 7.74804688 148.06848145 C7.53230987 147.2065984 7.31657286 146.34471535 7.09429836 145.45671463 C6.4447021 142.86058783 5.79550967 140.26436042 5.14648438 137.66809082 C4.9335631 136.81663231 4.72064182 135.9651738 4.50126839 135.08791351 C-8.49147612 83.10056567 -8.49147612 83.10056567 -10.80664062 64.63293457 C-11.00116377 63.20305038 -11.19714226 61.77336346 -11.39453125 60.34387207 C-13.12437347 47.62059473 -14.09195306 34.99105793 -14.16430664 22.1505127 C-14.1759793 20.70770583 -14.19666305 19.26494695 -14.22583008 17.8223877 C-14.26835914 15.70686399 -14.28463233 13.59258144 -14.29492188 11.47668457 C-14.30950439 10.23338379 -14.32408691 8.99008301 -14.33911133 7.70910645 C-13.86914062 4.50793457 -13.86914062 4.50793457 -12.45658875 2.33960724 C-8.48533885 -0.47166841 -4.75490256 -0.04463345 0 0 Z M237.13085938 72.50793457 C236.27359313 76.5825006 235.41815924 80.65736276 234.56738281 84.73327637 C234.27744337 86.11956959 233.98643559 87.50563983 233.69433594 88.89147949 C233.27452638 90.88414694 232.85857262 92.87758625 232.44335938 94.87121582 C232.19199219 96.07044678 231.940625 97.26967773 231.68164062 98.50524902 C231.04064966 101.49093238 231.04064966 101.49093238 231.13085938 104.50793457 C240.04085938 104.50793457 248.95085937 104.50793457 258.13085938 104.50793457 C258.13085938 93.94793457 258.13085938 83.38793457 258.13085938 72.50793457 C251.20085937 72.50793457 244.27085937 72.50793457 237.13085938 72.50793457 Z " fill="#000000" transform="translate(141.869140625,143.4920654296875)"/>
<path d="M0 0 C73.92 0 147.84 0 224 0 C224 15.02018852 224 15.02018852 223.30078125 21.921875 C223.22589478 22.70095215 223.1510083 23.4800293 223.07385254 24.28271484 C222.82976245 26.77290435 222.57328415 29.26150595 222.3125 31.75 C222.1780397 33.04339294 222.1780397 33.04339294 222.04086304 34.36291504 C219.72093246 56.37771609 215.01749429 77.44052825 209.4229126 98.83045959 C205.93293283 112.17655484 202.55223536 125.54991293 199.19451904 138.92977905 C198.53190907 141.56928471 197.86672243 144.20811809 197.19903564 146.84634399 C196.24645558 150.6138392 195.30028707 154.38289551 194.35546875 158.15234375 C194.07655289 159.25051422 193.79763702 160.34868469 193.51026917 161.48013306 C190.98334872 171.61492601 189.05687793 181.71561034 187 192 C137.5 192 88 192 37 192 C34.03 178.14 34.03 178.14 31 164 C29.64694861 158.30571918 28.27685818 152.62440559 26.8359375 146.953125 C26.47252497 145.50700403 26.1095519 144.06077257 25.74697876 142.61444092 C24.81577489 138.90447683 23.8789403 135.19596077 22.94061279 131.48779297 C21.9907436 127.72972629 21.04638143 123.97027642 20.1015625 120.2109375 C18.71047597 114.67796082 17.31636946 109.14576061 15.91943359 103.61425781 C14.55097049 98.19092764 13.18706701 92.76648174 11.82885742 87.34057617 C11.66283461 86.67814281 11.49681179 86.01570946 11.32575798 85.33320236 C9.38916884 77.58820026 7.63646938 69.81344196 6 62 C5.5978125 60.08767578 5.5978125 60.08767578 5.1875 58.13671875 C3.38038303 48.77171151 2.29725365 39.35988592 1.3125 29.875 C1.18093506 28.6365332 1.04937012 27.39806641 0.91381836 26.12207031 C0.04562376 17.29182478 0 8.96238771 0 0 Z " fill="#653A20" transform="translate(144,160)"/>
<path d="M0 0 C140.58 0 281.16 0 426 0 C405.37784008 20.62215992 374.97276922 32.0645842 345.95764667 32.2861352 C344.90043751 32.28440223 343.84322835 32.28266927 342.75398254 32.28088379 C341.01299436 32.28979716 341.01299436 32.28979716 339.2368347 32.29889059 C335.38548015 32.3160981 331.53425114 32.31926684 327.68286133 32.32226562 C324.90542383 32.3304711 322.12799909 32.34154575 319.35057068 32.35235596 C311.82917978 32.37937412 304.30781042 32.39154945 296.7863791 32.40037727 C292.07589606 32.40592887 287.36542105 32.41440838 282.65494347 32.42338562 C269.57333424 32.44775436 256.4917314 32.46835442 243.41009998 32.4751358 C242.57486035 32.47557494 241.73962072 32.47601407 240.8790708 32.47646651 C240.04200292 32.47690306 239.20493504 32.47733962 238.34250146 32.4777894 C236.64670996 32.47867629 234.95091845 32.47956941 233.25512695 32.48046875 C231.9934106 32.48113304 231.9934106 32.48113304 230.70620503 32.48181075 C217.10599203 32.48969065 203.50599438 32.52455681 189.9058644 32.57118779 C175.89090506 32.61884687 161.87605323 32.64355007 147.86101168 32.64587164 C140.01311054 32.64769252 132.16548993 32.6588734 124.31766701 32.69551086 C117.62927654 32.72662883 110.94125324 32.73637163 104.25280396 32.72003466 C100.85267886 32.71232974 97.45387785 32.71693507 94.0537529 32.74214935 C59.91986087 32.98014945 25.74512316 24.74609007 0 1 C0 0.67 0 0.34 0 0 Z " fill="#653A20" transform="translate(43,416)"/>
<path d="M0 0 C47.85 0 95.7 0 145 0 C144.67 10.56 144.34 21.12 144 32 C96.48 32 48.96 32 0 32 C0 21.44 0 10.88 0 0 Z " fill="#31342D" transform="translate(184,368)"/>
<path d="M0 0 C0.67453043 -0.00638882 1.34906087 -0.01277764 2.04403162 -0.01936007 C4.29766372 -0.03458527 6.54953056 -0.01416828 8.80310059 0.00622559 C10.42132652 0.0027236 12.039549 -0.00293586 13.65776062 -0.0105896 C18.04838486 -0.02483627 22.43838272 -0.00777747 26.82894707 0.01569557 C31.42437378 0.03580428 36.01977448 0.029925 40.61523438 0.02758789 C48.33242115 0.02764146 56.04936309 0.04739822 63.76647949 0.07946777 C72.68759387 0.11636058 81.6083875 0.12514332 90.5295682 0.11817026 C99.11262625 0.11186423 107.69557436 0.12262141 116.27861023 0.14213562 C119.93081733 0.15030875 123.58296823 0.15301933 127.23518372 0.15144348 C131.53625924 0.1505643 135.83703013 0.16478968 140.13802528 0.19067001 C141.71622046 0.19782995 143.29444804 0.19991626 144.87265587 0.19655228 C147.02765731 0.19283514 149.18177086 0.20759174 151.33666992 0.22705078 C153.14516544 0.23264385 153.14516544 0.23264385 154.99019623 0.23834991 C158.50636641 0.6622081 160.39848025 1.43427944 163.16833496 3.62145996 C164.3401441 7.57631579 164.57314826 9.69038938 162.91833496 13.49645996 C161.16833496 15.62145996 161.16833496 15.62145996 158.16833496 16.62145996 C155.97074418 16.71987241 153.77023639 16.75648856 151.57044983 16.76190186 C150.5601591 16.76635854 150.5601591 16.76635854 149.52945846 16.77090526 C147.26787678 16.77959138 145.00634803 16.78110041 142.74475098 16.78259277 C141.1252023 16.78722092 139.50565471 16.79224558 137.8861084 16.79763794 C133.48326574 16.81076221 129.08043833 16.81720668 124.67757916 16.8216486 C121.92819275 16.82457862 119.17881051 16.82868324 116.42942619 16.83315277 C107.83092345 16.84682632 99.23243025 16.85649429 90.63391739 16.86035466 C80.70086854 16.8648385 70.76795709 16.88240207 60.83495003 16.91135526 C53.16100231 16.93294915 45.48709332 16.94305768 37.81311554 16.94439578 C33.22765221 16.94544524 28.64231807 16.95138317 24.05688667 16.96921539 C19.74523011 16.98565703 15.4338004 16.98787071 11.12212372 16.97907639 C9.53865134 16.97830397 7.95516696 16.98267557 6.37172508 16.99253464 C4.21194566 17.00519496 2.05297694 16.99941048 -0.10679626 16.98895264 C-1.31597938 16.9904192 -2.52516249 16.99188576 -3.77098751 16.99339676 C-7.09592615 16.58934667 -8.46240748 15.93975153 -10.83166504 13.62145996 C-11.61682129 11.75427246 -11.61682129 11.75427246 -11.89416504 9.74645996 C-12.0088916 9.08903809 -12.12361816 8.43161621 -12.24182129 7.75427246 C-11.01608552 1.38044644 -5.678386 -0.00335575 0 0 Z " fill="#000000" transform="translate(179.8316650390625,175.3785400390625)"/>
<path d="M0 0 C4.57211069 -0.06915798 9.14238114 -0.12880076 13.71459961 -0.16479492 C15.2673968 -0.17981105 16.82015209 -0.20023028 18.37280273 -0.22631836 C20.61452624 -0.26302073 22.85568539 -0.27979787 25.09765625 -0.29296875 C25.78336197 -0.30845261 26.46906769 -0.32393646 27.17555237 -0.33988953 C33.33112081 -0.34200237 37.5193453 1.44237961 42.6875 4.6875 C48.95448349 10.95448349 49.46764684 17.12296308 49.53013611 25.63710022 C49.51965756 27.00937581 49.50828851 28.38164484 49.49609375 29.75390625 C49.49624901 31.18301975 49.4977424 32.61213367 49.50050354 34.04124451 C49.50188197 37.02435102 49.48942253 40.00697348 49.46655273 42.98999023 C49.43814328 46.79848576 49.44091962 50.60617975 49.45364285 54.41473484 C49.46062298 57.36173761 49.45278473 60.30855762 49.44038582 63.25553703 C49.43589575 64.65924311 49.43551296 66.06296898 49.43945122 67.46667671 C49.45426056 77.38619211 49.07812431 84.50551544 42 92 C37.27396404 95.30822517 33.46975741 96.12735378 27.77246094 96.11352539 C26.73168396 96.11344986 25.69090698 96.11337433 24.61859131 96.11329651 C23.50179993 96.10813522 22.38500854 96.10297394 21.234375 96.09765625 C19.51157318 96.09553383 19.51157318 96.09553383 17.75396729 96.09336853 C14.08595169 96.08777143 10.41799715 96.07521944 6.75 96.0625 C4.26302171 96.05748463 1.77604247 96.05292178 -0.7109375 96.04882812 C-6.80731519 96.03780295 -12.90364724 96.02054027 -19 96 C-17.68 90.72 -16.36 85.44 -15 80 C-13.74864258 79.98018066 -12.49728516 79.96036133 -11.20800781 79.93994141 C-6.563598 79.86384707 -1.91949992 79.77513537 2.72460938 79.68261719 C4.73431238 79.64434331 6.74408351 79.60948764 8.75390625 79.578125 C11.6434768 79.53244009 14.53257896 79.47445113 17.421875 79.4140625 C18.31992859 79.40251129 19.21798218 79.39096008 20.14324951 79.37905884 C21.4041037 79.3492543 21.4041037 79.3492543 22.69042969 79.31884766 C23.42767273 79.30552399 24.16491577 79.29220032 24.92449951 79.2784729 C27.35208845 78.95275978 28.94797846 78.33612941 31 77 C32.00130279 73.99609163 32.13233868 71.98108328 32.14526367 68.84179688 C32.15164352 67.79060669 32.15802338 66.7394165 32.16459656 65.65637207 C32.16570938 64.52195679 32.1668222 63.3875415 32.16796875 62.21875 C32.17129715 61.05371948 32.17462555 59.88868896 32.17805481 58.68835449 C32.18312018 56.22371821 32.18546326 53.75907507 32.18530273 51.29443359 C32.18749121 47.51518531 32.20565678 43.73622794 32.22460938 39.95703125 C32.22754291 37.56510517 32.22952797 35.1731777 32.23046875 32.78125 C32.23765427 31.64683472 32.24483978 30.51241943 32.25224304 29.34362793 C32.2476281 27.76684265 32.2476281 27.76684265 32.24291992 26.15820312 C32.24434494 25.23237427 32.24576996 24.30654541 32.24723816 23.35266113 C32.1558967 20.73041773 32.1558967 20.73041773 30 18 C26.63448877 16.87816292 23.90939768 16.79199032 20.36328125 16.68359375 C19.06455078 16.64169922 17.76582031 16.59980469 16.42773438 16.55664062 C15.05599239 16.51683013 13.68424756 16.47711784 12.3125 16.4375 C10.92902355 16.39429165 9.54555973 16.35067661 8.16210938 16.30664062 C4.77486286 16.20042035 1.38744491 16.09969312 -2 16 C-1.34 10.72 -0.68 5.44 0 0 Z " fill="#31342D" transform="translate(383,184)"/>
<path d="M0 0 C2.5 1.5 2.5 1.5 4 4 C4.45431382 7.18019671 4.69194288 8.98553579 4 12 C1.59342686 15.11438877 -0.84786909 16.8995936 -4.125 19.0625 C-6.88181198 20.92035155 -8.45574461 22.08307315 -10 25 C-10.66430408 28.81974849 -10.28007433 30.52283633 -8.3125 33.875 C-4.66868217 37.86534805 0.21918212 40.37985128 4.84375 43.0703125 C9.64372884 46.00495303 13.19600297 48.81273094 16.25 53.5625 C16.75015625 54.32691406 17.2503125 55.09132812 17.765625 55.87890625 C21.15555297 61.70400399 20.52789271 68.47727089 20 75 C19.09191872 78.03948449 17.81379897 80.41248258 16 83 C15.46375 83.845625 14.9275 84.69125 14.375 85.5625 C9.49279806 90.57318094 3.21860751 95.74043488 -3.875 96.3125 C-6.82968653 96.25340627 -7.89058393 96.06564964 -10.5 94.5 C-12.58926073 91.01789878 -12.89405291 87.89496093 -12 84 C-9.59342686 80.88561123 -7.15213091 79.1004064 -3.875 76.9375 C-1.11818802 75.07964845 0.45574461 73.91692685 2 71 C2.66430408 67.18025151 2.28007433 65.47716367 0.3125 62.125 C-3.33131783 58.13465195 -8.21918212 55.62014872 -12.84375 52.9296875 C-17.64372884 49.99504697 -21.19600297 47.18726906 -24.25 42.4375 C-24.75015625 41.67308594 -25.2503125 40.90867188 -25.765625 40.12109375 C-29.15739836 34.29282497 -28.52149328 27.52590894 -28 21 C-27.11476671 17.93536085 -25.84036798 15.58992183 -24 13 C-23.319375 11.989375 -22.63875 10.97875 -21.9375 9.9375 C-16.28212245 3.60138255 -8.6354859 -1.66649728 0 0 Z " fill="#050302" transform="translate(316,32)"/>
<path d="M0 0 C2.5 1.5 2.5 1.5 4 4 C4.45431382 7.18019671 4.69194288 8.98553579 4 12 C1.59342686 15.11438877 -0.84786909 16.8995936 -4.125 19.0625 C-6.88181198 20.92035155 -8.45574461 22.08307315 -10 25 C-10.66430408 28.81974849 -10.28007433 30.52283633 -8.3125 33.875 C-4.66868217 37.86534805 0.21918212 40.37985128 4.84375 43.0703125 C9.64372884 46.00495303 13.19600297 48.81273094 16.25 53.5625 C16.75015625 54.32691406 17.2503125 55.09132812 17.765625 55.87890625 C21.15555297 61.70400399 20.52789271 68.47727089 20 75 C19.09191872 78.03948449 17.81379897 80.41248258 16 83 C15.46375 83.845625 14.9275 84.69125 14.375 85.5625 C9.49279806 90.57318094 3.21860751 95.74043488 -3.875 96.3125 C-6.82968653 96.25340627 -7.89058393 96.06564964 -10.5 94.5 C-12.58926073 91.01789878 -12.89405291 87.89496093 -12 84 C-9.59342686 80.88561123 -7.15213091 79.1004064 -3.875 76.9375 C-1.11818802 75.07964845 0.45574461 73.91692685 2 71 C2.66430408 67.18025151 2.28007433 65.47716367 0.3125 62.125 C-3.33131783 58.13465195 -8.21918212 55.62014872 -12.84375 52.9296875 C-17.64372884 49.99504697 -21.19600297 47.18726906 -24.25 42.4375 C-24.75015625 41.67308594 -25.2503125 40.90867188 -25.765625 40.12109375 C-29.15739836 34.29282497 -28.52149328 27.52590894 -28 21 C-27.11476671 17.93536085 -25.84036798 15.58992183 -24 13 C-23.319375 11.989375 -22.63875 10.97875 -21.9375 9.9375 C-16.28212245 3.60138255 -8.6354859 -1.66649728 0 0 Z " fill="#050302" transform="translate(260,32)"/>
<path d="M0 0 C2.5 1.5 2.5 1.5 4 4 C4.45431382 7.18019671 4.69194288 8.98553579 4 12 C1.59342686 15.11438877 -0.84786909 16.8995936 -4.125 19.0625 C-6.88181198 20.92035155 -8.45574461 22.08307315 -10 25 C-10.66430408 28.81974849 -10.28007433 30.52283633 -8.3125 33.875 C-4.66868217 37.86534805 0.21918212 40.37985128 4.84375 43.0703125 C9.64372884 46.00495303 13.19600297 48.81273094 16.25 53.5625 C16.75015625 54.32691406 17.2503125 55.09132812 17.765625 55.87890625 C21.15555297 61.70400399 20.52789271 68.47727089 20 75 C19.09191872 78.03948449 17.81379897 80.41248258 16 83 C15.46375 83.845625 14.9275 84.69125 14.375 85.5625 C9.49279806 90.57318094 3.21860751 95.74043488 -3.875 96.3125 C-6.82968653 96.25340627 -7.89058393 96.06564964 -10.5 94.5 C-12.58926073 91.01789878 -12.89405291 87.89496093 -12 84 C-9.59342686 80.88561123 -7.15213091 79.1004064 -3.875 76.9375 C-1.11818802 75.07964845 0.45574461 73.91692685 2 71 C2.66430408 67.18025151 2.28007433 65.47716367 0.3125 62.125 C-3.33131783 58.13465195 -8.21918212 55.62014872 -12.84375 52.9296875 C-17.64372884 49.99504697 -21.19600297 47.18726906 -24.25 42.4375 C-24.75015625 41.67308594 -25.2503125 40.90867188 -25.765625 40.12109375 C-29.15739836 34.29282497 -28.52149328 27.52590894 -28 21 C-27.11476671 17.93536085 -25.84036798 15.58992183 -24 13 C-23.319375 11.989375 -22.63875 10.97875 -21.9375 9.9375 C-16.28212245 3.60138255 -8.6354859 -1.66649728 0 0 Z " fill="#050302" transform="translate(204,32)"/>
<path d="M0 0 C0.66 0.33 1.32 0.66 2 1 C-1.63 4.63 -5.26 8.26 -9 12 C-9 7.8407692 -6.75316432 5.85455565 -4 3 C-1.6875 1.125 -1.6875 1.125 0 0 Z " fill="#28140D" transform="translate(301,36)"/>
<path d="M0 0 C0.66 0.33 1.32 0.66 2 1 C-1.63 4.63 -5.26 8.26 -9 12 C-9 7.8407692 -6.75316432 5.85455565 -4 3 C-1.6875 1.125 -1.6875 1.125 0 0 Z " fill="#28140D" transform="translate(245,36)"/>
<path d="M0 0 C0.66 0.33 1.32 0.66 2 1 C-1.63 4.63 -5.26 8.26 -9 12 C-9 7.8407692 -6.75316432 5.85455565 -4 3 C-1.6875 1.125 -1.6875 1.125 0 0 Z " fill="#28140D" transform="translate(189,36)"/>
</svg>
