<?xml version="1.0" encoding="UTF-8"?>
<svg version="1.1" xmlns="http://www.w3.org/2000/svg" width="512" height="512">
<path d="M0 0 C1.20085236 0.00539291 1.20085236 0.00539291 2.42596436 0.01089478 C3.26491745 0.01074875 4.10387054 0.01060272 4.96824646 0.01045227 C7.75487816 0.01115167 10.54144388 0.01894531 13.32806396 0.02676392 C15.25477563 0.028628 17.18148777 0.03005195 19.10820007 0.03105164 C24.18978169 0.03487758 29.27133491 0.04470851 34.35290527 0.05575562 C39.53407405 0.0659681 44.7152474 0.07054891 49.89642334 0.07559204 C60.07026597 0.08633071 70.24408005 0.10392812 80.41790771 0.12442017 C80.41790771 10.35442017 80.41790771 20.58442017 80.41790771 31.12442017 C57.64790771 31.12442017 34.87790771 31.12442017 11.41790771 31.12442017 C10.75790771 32.77442017 10.09790771 34.42442017 9.41790771 36.12442017 C8.78081746 37.37352594 8.11874463 38.61027764 7.42962646 39.83145142 C7.05491211 40.49692993 6.68019775 41.16240845 6.29412842 41.84805298 C5.70571167 42.88204224 5.70571167 42.88204224 5.10540771 43.93692017 C4.70604004 44.6481604 4.30667236 45.35940063 3.89520264 46.0921936 C1.8044031 49.79126786 -0.36844492 53.36556117 -2.76959229 56.87442017 C-3.36771729 57.94692017 -3.96584229 59.01942017 -4.58209229 60.12442017 C-3.89103463 62.15697838 -3.89103463 62.15697838 -2.58209229 64.12442017 C-2.00128906 65.09641357 -2.00128906 65.09641357 -1.40875244 66.08804321 C-0.98384521 66.76391479 -0.55893799 67.43978638 -0.12115479 68.13613892 C0.35064209 68.8947522 0.82243896 69.65336548 1.30853271 70.43496704 C2.28715118 72.00204423 3.2688547 73.56719967 4.25384521 75.13027954 C12.41790771 88.29704882 12.41790771 88.29704882 12.41790771 93.12442017 C13.5870874 93.06641235 14.75626709 93.00840454 15.96087646 92.94863892 C17.50901351 92.90172567 19.05719389 92.85622718 20.60540771 92.81192017 C21.3743335 92.77002563 22.14325928 92.7281311 22.93548584 92.68496704 C26.97699271 92.59823943 28.95031739 92.82521081 32.43353271 95.05410767 C35.17805388 99.30055183 35.1214743 102.60933925 34.98040771 107.56192017 C34.99136475 108.39529907 35.00232178 109.22867798 35.01361084 110.08731079 C34.94798078 115.62211238 34.10189324 118.78654181 30.41790771 123.12442017 C29.48152387 123.90074909 29.48152387 123.90074909 28.52622318 124.69276142 C21.84903656 130.40949201 20.74799467 135.86597473 19.60125732 144.35366821 C19.39753002 145.681271 19.19087641 147.00842748 18.98155212 148.3351593 C18.42299947 151.92865809 17.90534104 155.52698795 17.39483714 159.12758231 C16.84571493 162.948526 16.25826736 166.76358067 15.67512512 170.57945251 C14.56995997 177.84935813 13.49840587 185.12379929 12.43913132 192.40051728 C11.25819725 200.50294613 10.04249099 208.60000894 8.82244372 216.69662642 C7.28832544 226.87865097 5.76010843 237.06149117 4.25881958 247.24841309 C2.29704963 260.55668595 0.32825324 273.86165985 -1.78863525 287.14639282 C-1.95546908 288.19687333 -2.12230291 289.24735384 -2.29419231 290.32966709 C-3.03883095 295.00935312 -3.79211046 299.68732715 -4.56233215 304.36286926 C-4.82252106 305.97426988 -5.08104547 307.58594036 -5.33770752 309.19790649 C-5.51848957 310.32590117 -5.51848957 310.32590117 -5.70292377 311.47668362 C-6.27852223 315.28979987 -6.66543676 319.03735257 -6.80404663 322.89257812 C-6.8320765 323.66656543 -6.86010637 324.44055273 -6.88898563 325.23799419 C-6.92799022 326.69423566 -6.94475759 328.15132731 -6.93412685 329.60805225 C-7.00837646 333.0903307 -7.56388939 335.09533716 -9.41984558 338.06062317 C-14.12713884 341.13277364 -18.29874678 340.82361726 -23.81060791 340.77139282 C-24.94447433 340.78015442 -26.07834076 340.78891602 -27.24656677 340.79794312 C-30.99421465 340.81994778 -34.74068243 340.80537899 -38.48834229 340.78848267 C-41.09238919 340.79185045 -43.69643456 340.79670275 -46.30047607 340.80297852 C-51.75792219 340.8120675 -57.21502966 340.80010737 -62.67242432 340.77627563 C-68.97621439 340.74906517 -75.27919585 340.75787991 -81.58296633 340.78540766 C-87.65445434 340.81085684 -93.72558469 340.80813142 -99.79710388 340.79349899 C-102.37751885 340.79016177 -104.95795443 340.79426307 -107.53834534 340.80589676 C-111.1439798 340.81858494 -114.74805821 340.79925333 -118.35357666 340.77139282 C-119.42178146 340.78151398 -120.48998627 340.79163513 -121.59056091 340.80206299 C-126.19986675 340.73602607 -128.82009709 340.61922648 -132.7474823 338.06895447 C-135.01992512 334.42170198 -135.21138118 331.53110248 -135.16436768 327.36489868 C-135.33854649 319.95876284 -136.05785269 312.78493107 -137.18927002 305.46401978 C-137.34984925 304.42322234 -137.51042849 303.38242491 -137.67587376 302.31008816 C-138.19918436 298.96456728 -138.73235429 295.62070059 -139.26568604 292.27676392 C-139.64173126 289.87635035 -140.01696123 287.47580895 -140.39143372 285.07514954 C-141.38624156 278.7111713 -142.39152247 272.3488911 -143.39904785 265.98691559 C-144.43682918 259.4228619 -145.46530449 252.85735175 -146.49420166 246.29190063 C-147.71940258 238.47641079 -148.94516559 230.66101352 -150.17520142 222.84628296 C-152.46201468 208.31274194 -154.72230497 193.77569737 -156.92974854 179.22988892 C-157.16828369 177.66084914 -157.40684403 176.09181319 -157.64543152 174.52278137 C-158.49570709 168.92710659 -159.3455043 163.33137247 -160.18460083 157.73400879 C-160.72932498 154.10564453 -161.28009366 150.47824602 -161.83209229 146.85098267 C-161.98336075 145.82848923 -162.13462921 144.80599579 -162.29048157 143.7525177 C-163.43001721 136.31538521 -164.34916453 130.76701288 -170.08209229 125.49942017 C-173.54588045 122.29429151 -176.19323013 119.81361111 -176.88848877 115.00552368 C-176.95858384 112.56542169 -177.00293588 110.12800817 -177.01959229 107.68692017 C-177.05246338 106.84065063 -177.08533447 105.9943811 -177.11920166 105.12246704 C-177.15561449 100.89526899 -176.95105282 98.69317356 -174.60552979 95.07754517 C-170.58619692 92.4810769 -167.46439257 92.34733777 -162.76959229 92.31192017 C-161.98133057 92.28678345 -161.19306885 92.26164673 -160.38092041 92.23574829 C-158.44850855 92.17719036 -156.51524902 92.14786529 -154.58209229 92.12442017 C-154.08580322 91.09703735 -153.58951416 90.06965454 -153.07818604 89.01113892 C-146.90814889 76.36493526 -140.37818636 65.35940734 -130.58209229 55.12442017 C-130.00717041 54.48633423 -129.43224854 53.84824829 -128.83990479 53.19082642 C-116.22797979 39.64356727 -96.3144123 32.31030507 -78.10943604 31.21426392 C-77.2754126 31.18461548 -76.44138916 31.15496704 -75.58209229 31.12442017 C-74.79963135 31.08445923 -74.01717041 31.04449829 -73.21099854 31.00332642 C-57.82553943 30.57384726 -43.79393519 34.74323693 -29.58209229 40.12442017 C-29.20512207 39.47594116 -28.82815186 38.82746216 -28.4397583 38.15933228 C-15.73711936 16.3179094 -15.73711936 16.3179094 -10.26959229 7.18692017 C-9.9035791 6.57389038 -9.53756592 5.9608606 -9.16046143 5.32925415 C-6.23928092 0.47198367 -5.77360951 0.0109474 0 0 Z " fill="#3C3235" transform="translate(303.58209228515625,85.87557983398438)"/>
<path d="M0 0 C49.17 0 98.34 0 149 0 C147.25314118 12.810298 145.50382925 25.59578488 143.51953125 38.3671875 C143.32597046 39.62281494 143.13240967 40.87844238 142.9329834 42.17211914 C142.22825105 46.74006987 141.52019965 51.30750805 140.8125 55.875 C139.224375 66.14625 137.63625 76.4175 136 87 C95.41 87 54.82 87 13 87 C10.855 73.01625 8.71 59.0325 6.5 44.625 C5.82130859 40.20561035 5.14261719 35.7862207 4.44335938 31.23291016 C3.61816406 25.84643555 3.61816406 25.84643555 3.23254395 23.32675171 C2.96226029 21.56258863 2.69138361 19.79851635 2.42004395 18.03451538 C2.00976234 15.36648236 1.60134849 12.69816956 1.19335938 10.02978516 C1.07157066 9.24067057 0.94978195 8.45155598 0.82430267 7.63852882 C0 2.22805267 0 2.22805267 0 0 Z " fill="#FEFEFE" transform="translate(158,259)"/>
<path d="M0 0 C56.1 0 112.2 0 170 0 C169.01 1.65 168.02 3.3 167 5 C166.27705899 7.48933408 166.27705899 7.48933408 165.90234375 10.09765625 C165.65967773 11.54881836 165.65967773 11.54881836 165.41210938 13.02929688 C165.17717773 14.53073242 165.17717773 14.53073242 164.9375 16.0625 C164.69676758 17.52333008 164.69676758 17.52333008 164.45117188 19.01367188 C164.14493579 20.87691553 163.84283063 22.74084744 163.54663086 24.60571289 C162.719667 29.74071891 161.85506687 34.86959878 161 40 C110.51 40 60.02 40 8 40 C7.34 35.71 6.68 31.42 6 27 C5.3467906 22.97612806 4.6835593 18.95608106 4 14.9375 C3.835 13.93267578 3.67 12.92785156 3.5 11.89257812 C3.335 10.92642578 3.17 9.96027344 3 8.96484375 C2.855625 8.1049585 2.71125 7.24507324 2.5625 6.35913086 C2.00789545 3.63650563 2.00789545 3.63650563 0 0 Z " fill="#9B6F5B" transform="translate(148,208)"/>
<path d="M0 0 C39.27 0 78.54 0 119 0 C117.87478461 11.25215393 117.87478461 11.25215393 117.0625 16.453125 C116.88976562 17.566875 116.71703125 18.680625 116.5390625 19.828125 C116.27222656 21.52195312 116.27222656 21.52195312 116 23.25 C115.73316406 24.96703125 115.73316406 24.96703125 115.4609375 26.71875 C114.66648994 31.81744332 113.84835988 36.90984069 113 42 C77.69 42 42.38 42 6 42 C4.02 28.14 2.04 14.28 0 0 Z " fill="#9C6F5B" transform="translate(173,357)"/>
<path d="M0 0 C5.15623742 2.83837044 8.96432554 6.65800115 12.875 11 C13.535 11.66 14.195 12.32 14.875 13 C15.34808594 12.40832031 15.82117188 11.81664062 16.30859375 11.20703125 C21.71665037 4.74477256 28.09335675 -1.18406265 36.85546875 -2.23828125 C43.61609215 -2.46562965 48.50845545 -1.00856357 53.6015625 3.54296875 C59.74882205 10.15960033 61.48177969 16.9135307 61.22265625 25.84765625 C59.90638487 37.78283604 54.20140179 48.00769533 44.93359375 55.55859375 C38.56159896 60.02019921 31.55793059 61.2230425 23.875 60 C20.87498832 58.72440448 18.25179813 57.24740224 15.875 55 C15.875 54.34 15.875 53.68 15.875 53 C15.24851563 53.42152344 14.62203125 53.84304688 13.9765625 54.27734375 C13.15929687 54.82519531 12.34203125 55.37304688 11.5 55.9375 C10.68789062 56.48277344 9.87578125 57.02804687 9.0390625 57.58984375 C3.92584939 60.92173894 -1.1523736 60.53340437 -7.125 60 C-10.15663438 59.10834283 -12.53704429 57.79641178 -15.125 56 C-16.03185547 55.38125 -16.03185547 55.38125 -16.95703125 54.75 C-22.14671605 50.770111 -25.14074403 45.74243195 -28.125 40 C-28.46789062 39.39800781 -28.81078125 38.79601562 -29.1640625 38.17578125 C-32.79878752 30.61759137 -32.44639316 19.87569607 -30.28125 11.88671875 C-27.63409071 5.9932121 -23.72186783 2.17311963 -18.125 -1 C-11.88770278 -3.07909907 -5.97643444 -2.75266996 0 0 Z " fill="#3E3437" transform="translate(218.125,272)"/>
<path d="M0 0 C1.07227844 -0.01562485 2.14455688 -0.03124969 3.24932861 -0.04734802 C6.78776666 -0.08760012 10.32301735 -0.0692295 13.86157227 -0.04663086 C16.32488293 -0.05456142 18.78818734 -0.06472024 21.2514801 -0.07701111 C26.41235523 -0.0933125 31.57212451 -0.08018573 36.73291016 -0.046875 C43.34256703 -0.00690831 49.94920079 -0.04349985 56.55862331 -0.10265446 C61.64522085 -0.13909856 66.73109885 -0.13303435 71.81776619 -0.11437798 C74.25420053 -0.11089339 76.69069412 -0.12101727 79.12701225 -0.14506721 C82.53701175 -0.17270399 85.94184986 -0.14262438 89.3515625 -0.09765625 C90.85657066 -0.12733994 90.85657066 -0.12733994 92.39198303 -0.15762329 C96.59539363 -0.05001942 99.19642762 0.10284419 102.3824482 2.99630928 C104.18437613 5.27608754 105.74288513 7.56279801 107.24047852 10.05102539 C107.68216086 10.74341277 108.12384321 11.43580015 108.57890987 12.14916897 C109.66993629 13.88039997 110.68109252 15.63919182 111.67797852 17.42602539 C112.02795898 18.02801758 112.37793945 18.63000977 112.73852539 19.25024414 C114.33488474 22.06808393 115.24047852 23.75842901 115.24047852 27.05102539 C68.71047852 27.05102539 22.18047852 27.05102539 -25.75952148 27.05102539 C-24.23799817 22.48645545 -22.89185344 19.22169723 -20.50952148 15.17602539 C-19.94749023 14.20922852 -19.38545898 13.24243164 -18.80639648 12.24633789 C-18.13092773 11.19188477 -17.45545898 10.13743164 -16.75952148 9.05102539 C-16.38526 8.38274499 -16.01099852 7.71446459 -15.62539577 7.02593327 C-11.41932878 0.31280544 -7.60968811 -0.11068138 0 0 Z " fill="#FBFBFB" transform="translate(187.759521484375,151.948974609375)"/>
<path d="M0 0 C61.71 0 123.42 0 187 0 C187 1.65 187 3.3 187 5 C125.29 5 63.58 5 0 5 C0 3.35 0 1.7 0 0 Z " fill="#9D705C" transform="translate(139,191)"/>
<path d="M0 0 C0.93199219 0.32355469 1.86398437 0.64710938 2.82421875 0.98046875 C8.20769847 2.9519972 12.53045848 5.40493399 17 9 C17 9.33 17 9.66 17 10 C-11.71 10 -40.42 10 -70 10 C-53.15438967 -6.84561033 -21.26530126 -8.11035736 0 0 Z " fill="#F2F2F2" transform="translate(259,133)"/>
<path d="M0 0 C1.82867363 0.01665459 1.82867363 0.01665459 3.69429016 0.03364563 C4.70444183 0.03255043 4.70444183 0.03255043 5.73500061 0.03143311 C7.95963778 0.03491506 10.18217741 0.07379828 12.40644836 0.11299133 C13.94914608 0.12231746 15.4918586 0.12943452 17.03457642 0.13442993 C21.09396795 0.15351599 25.15246417 0.20262922 29.21150208 0.25794983 C33.35383491 0.3091085 37.49631251 0.33193665 41.63887024 0.35713196 C49.76623412 0.41074766 57.89287048 0.4960784 66.01972961 0.60127258 C66.01972961 3.24127258 66.01972961 5.88127258 66.01972961 8.60127258 C44.56972961 8.60127258 23.11972961 8.60127258 1.01972961 8.60127258 C0.35972961 10.58127258 -0.30027039 12.56127258 -0.98027039 14.60127258 C-1.82159117 16.20127573 -2.71557875 17.7746953 -3.65995789 19.31611633 C-4.17687195 20.16754211 -4.69378601 21.0189679 -5.22636414 21.89619446 C-5.7639032 22.76824524 -6.30144226 23.64029602 -6.85527039 24.53877258 C-7.91580866 26.27666195 -8.9757166 28.01493615 -10.03495789 29.75361633 C-10.53737 30.57587708 -11.0397821 31.39813782 -11.55741882 32.24531555 C-13.42228907 35.33316695 -15.20998941 38.45838245 -16.98027039 41.60127258 C-18.96027039 40.28127258 -20.94027039 38.96127258 -22.98027039 37.60127258 C-22.39414358 33.20887693 -20.76235898 30.1606914 -18.48808289 26.38252258 C-18.14147614 25.80216248 -17.79486938 25.22180237 -17.4377594 24.62385559 C-16.33372056 22.77881841 -15.21971731 20.94003767 -14.10527039 19.10127258 C-13.36371614 17.86599676 -12.62282404 16.63032319 -11.88261414 15.39424133 C-9.92287508 12.12524383 -7.9520351 8.86303201 -5.98027039 5.60127258 C-5.58594315 4.7267897 -5.19161591 3.85230682 -4.78533936 2.95132446 C-2.98027039 0.60127258 -2.98027039 0.60127258 0 0 Z " fill="#FCFCFC" transform="translate(306.9802703857422,97.39872741699219)"/>
<path d="M0 0 C34.65 0 69.3 0 105 0 C105 1.65 105 3.3 105 5 C70.35 5 35.7 5 0 5 C0 3.35 0 1.7 0 0 Z " fill="#936958" transform="translate(180,410)"/>
<path d="M0 0 C3.40117013 1.40738074 5.11029552 2.83301691 7 6 C7.34057617 8.93261719 7.34057617 8.93261719 7.29296875 12.296875 C7.28330078 13.50214844 7.27363281 14.70742188 7.26367188 15.94921875 C7.23853516 17.20347656 7.21339844 18.45773437 7.1875 19.75 C7.17396484 21.01972656 7.16042969 22.28945313 7.14648438 23.59765625 C7.1111324 26.73219844 7.06178248 29.86588545 7 33 C1.77107213 28.9332924 -0.95253212 25.34545831 -3 19 C-3.72373802 12.63405943 -3.78897956 6.8621193 -1 1 C-0.67 0.67 -0.34 0.34 0 0 Z " fill="#F7F6F6" transform="translate(201,284)"/>
<path d="M0 0 C2.96068097 2.34264617 3.92122227 3.53819954 4.56640625 7.3203125 C4.55811758 15.39347653 4.12235928 22.35990464 -1 29 C-2.62772888 30.38059924 -4.28802214 31.72536775 -6 33 C-6.11656783 28.79190116 -6.18737611 24.58422004 -6.25 20.375 C-6.28351563 19.18519531 -6.31703125 17.99539063 -6.3515625 16.76953125 C-6.47498083 5.72359087 -6.47498083 5.72359087 -2 1 C-1.34 0.67 -0.68 0.34 0 0 Z " fill="#F6F6F6" transform="translate(263,284)"/>
<path d="M0 0 C5.71933321 4.90228561 9.47658539 10.78822449 10.41796875 18.36328125 C10.55805253 24.25347085 10.43401707 28.05903395 7 33 C3.83884224 31.63016497 3.0072908 31.0109362 1 28 C0.78881836 25.51977539 0.78881836 25.51977539 0.83984375 22.59765625 C0.85080078 21.54255859 0.86175781 20.48746094 0.87304688 19.40039062 C0.89431641 18.29888672 0.91558594 17.19738281 0.9375 16.0625 C0.97199458 13.88678608 1.00212045 11.7109974 1.02734375 9.53515625 C1.04531006 8.569729 1.06327637 7.60430176 1.08178711 6.60961914 C1.00720742 4.22997044 0.68389792 2.2701658 0 0 Z " fill="#F1F1F1" transform="translate(217,285)"/>
<path d="M0 0 C2.04532597 4.09065194 1.2731755 9.31639826 1.3125 13.8125 C1.34150391 14.90626953 1.37050781 16.00003906 1.40039062 17.12695312 C1.46473672 25.24940975 1.46473672 25.24940975 -1.01953125 29.26171875 C-1.67308594 29.83535156 -2.32664063 30.40898437 -3 31 C-6 30 -6 30 -7.1640625 28.29296875 C-9.39679196 22.16861272 -8.7768735 14.99169923 -6.25 9.0625 C-4.54149361 5.7065053 -2.53238085 2.80370737 0 0 Z " fill="#F5F5F5" transform="translate(246,287)"/>
</svg>
