<?xml version="1.0" encoding="UTF-8"?>
<svg version="1.1" xmlns="http://www.w3.org/2000/svg" width="512" height="512">
<path d="M0 0 C2.11435974 -0.00322944 4.22871929 -0.00659463 6.34307861 -0.01008606 C10.75004593 -0.01602336 15.15699382 -0.01793174 19.56396484 -0.01733398 C24.01029556 -0.01725303 28.45652257 -0.0241553 32.90283203 -0.0378418 C58.18602461 -0.11440887 83.3110444 0.01482452 108.515625 2.16796875 C109.97754272 2.28859177 109.97754272 2.28859177 111.46899414 2.41165161 C116.37783174 2.82229351 121.27834089 3.28328891 126.17626953 3.80810547 C128.44582143 4.0488231 130.71678389 4.27066004 132.98828125 4.4921875 C162.06167883 7.46321977 162.06167883 7.46321977 173.515625 14.16796875 C174.49917969 14.73902344 175.48273438 15.31007813 176.49609375 15.8984375 C185.35565335 22.55743378 190.05673606 36.65858283 192.515625 47.16796875 C192.58958847 49.50012952 192.61090519 51.83658158 192.515625 54.16796875 C193.423125 53.96171875 194.330625 53.75546875 195.265625 53.54296875 C199.78464044 53.02154389 199.78464044 53.02154389 202.515625 55.16796875 C203.65833774 58.01388473 204.54512343 60.68037362 205.35546875 63.62109375 C205.72872032 64.89880646 205.72872032 64.89880646 206.10951233 66.20233154 C206.90553845 68.93684644 207.68016878 71.67685258 208.453125 74.41796875 C209.47654579 77.98757825 210.50915915 81.55448157 211.54296875 85.12109375 C211.91607681 86.42258362 211.91607681 86.42258362 212.29672241 87.75036621 C214.11365954 94.01644607 216.22614985 100.08488983 218.63500977 106.15136719 C219.64311217 109.60468387 219.667882 112.58894786 219.515625 116.16796875 C211.67050274 119.61592604 203.69255944 121.84692943 195.390625 123.91796875 C193.52664063 124.39169922 193.52664063 124.39169922 191.625 124.875 C188.59002514 125.6454167 185.55362537 126.40958769 182.515625 127.16796875 C182.55042969 128.13992187 182.58523438 129.111875 182.62109375 130.11328125 C182.90989938 142.34089043 181.41433452 154.10409366 179.515625 166.16796875 C180.27875 166.49796875 181.041875 166.82796875 181.828125 167.16796875 C185.54302314 169.93254411 186.46356356 172.74263096 187.515625 177.16796875 C187.93058377 180.03942799 187.99003618 182.83187358 187.953125 185.73046875 C187.94917725 186.55530762 187.94522949 187.38014648 187.94116211 188.22998047 C187.24313764 220.71294347 187.24313764 220.71294347 182.515625 230.16796875 C183.78792969 229.31525391 183.78792969 229.31525391 185.0859375 228.4453125 C210.24711402 211.77865929 210.24711402 211.77865929 222.515625 214.16796875 C227.79485352 215.83777998 232.15634475 217.87130733 235.078125 222.73046875 C239.23176516 232.66308653 237.05751104 241.26535838 233.515625 251.16796875 C229.49981077 260.25036726 224.1224703 267.79787779 217.515625 275.16796875 C216.72285156 276.08449219 216.72285156 276.08449219 215.9140625 277.01953125 C212.36384074 280.86105326 208.27786591 284.10780789 204.140625 287.29296875 C203.52155273 287.77878418 202.90248047 288.26459961 202.26464844 288.76513672 C198.10152949 291.83391007 194.22183479 293.72226689 189.296875 295.32421875 C177.52973014 299.28765485 177.52973014 299.28765485 169.48596191 308.23309326 C165.60430718 318.39339497 164.25301444 329.35053854 162.72665405 340.06005859 C161.71798538 346.79430587 160.29295259 353.373419 156.515625 359.16796875 C152.77502924 361.66475373 148.89736629 361.72979462 144.515625 362.16796875 C144.2475 363.20953125 143.979375 364.25109375 143.703125 365.32421875 C140.83072417 376.01146141 136.90446216 385.51416957 131.515625 395.16796875 C131.14888672 395.82603516 130.78214844 396.48410156 130.40429688 397.16210938 C123.81221405 408.84442658 116.23185053 418.86228796 106.515625 428.16796875 C105.855625 428.82796875 105.195625 429.48796875 104.515625 430.16796875 C104.75796875 430.89685303 105.0003125 431.6257373 105.25 432.37670898 C116.27517644 466.02734966 116.27517644 466.02734966 110.703125 479.73046875 C104.46278161 490.03755278 92.25931094 494.9086345 81.1953125 498.13671875 C64.60360222 502.07497086 46.3071167 502.4848393 31.015625 494.29296875 C27.31323295 491.14593551 22.90494642 487.30168706 22.27734375 482.25 C22.08860921 476.47869648 22.85977088 472.68693727 26.515625 468.16796875 C31.82155208 463.78955591 36.74483482 461.85451209 43.328125 460.04296875 C45.02496743 459.5712695 46.71916506 459.08991962 48.41015625 458.59765625 C49.15112549 458.39382324 49.89209473 458.18999023 50.65551758 457.97998047 C52.87872241 457.20900818 52.87872241 457.20900818 54.515625 454.16796875 C54.83205205 452.08799197 54.83205205 452.08799197 54.765625 449.85546875 C54.77078125 449.11683594 54.7759375 448.37820313 54.78125 447.6171875 C54.45598462 444.61804933 53.49815064 442.01236583 52.515625 439.16796875 C51.17402817 439.1779615 51.17402817 439.1779615 49.80532837 439.18815613 C41.24866104 439.24903947 32.6920696 439.29432655 24.13523293 439.32340527 C19.73931027 439.33885886 15.34357103 439.35970953 10.94775391 439.39428711 C-13.32987687 439.58012127 -36.99389255 439.21645796 -60.7890625 433.75 C-67.83687903 432.2280802 -72.75223612 433.16488551 -79.1015625 436.62109375 C-83.53293521 439.49785374 -86.79953639 443.17398544 -90.1875 447.18359375 C-96.59241982 454.74255318 -102.79273392 460.45100721 -112.984375 461.54296875 C-117.35144489 461.0750684 -119.17176326 460.0485007 -122.484375 457.16796875 C-130.97859406 446.50808477 -132.23120834 433.34819416 -131.484375 420.16796875 C-129.7391054 407.37425515 -124.9055294 395.2472907 -114.484375 387.16796875 C-111.89546404 385.59579373 -109.2682028 384.34934105 -106.484375 383.16796875 C-105.164375 382.50796875 -103.844375 381.84796875 -102.484375 381.16796875 C-103.474375 374.56796875 -104.464375 367.96796875 -105.484375 361.16796875 C-107.5675 360.75546875 -109.650625 360.34296875 -111.796875 359.91796875 C-118.00946804 358.68775231 -118.00946804 358.68775231 -120.05004883 356.4543457 C-121.66966132 353.87261447 -122.60706693 351.43091883 -123.5703125 348.5390625 C-123.9408374 347.43014648 -124.3113623 346.32123047 -124.69311523 345.17871094 C-125.07798096 343.99954102 -125.46284668 342.82037109 -125.859375 341.60546875 C-126.26293213 340.39922852 -126.66648926 339.19298828 -127.08227539 337.95019531 C-129.16626023 331.62133632 -130.97840064 325.34619873 -132.38891602 318.8359375 C-134.17346603 310.34041705 -134.17346603 310.34041705 -139.921875 304.10546875 C-141.76569736 303.10695961 -143.62098943 302.1294757 -145.484375 301.16796875 C-147.78606155 299.61446636 -150.04807879 298.0435971 -152.296875 296.41796875 C-152.88734619 295.99789551 -153.47781738 295.57782227 -154.08618164 295.14501953 C-159.49273711 291.2610967 -164.57407189 287.04377372 -169.59375 282.67578125 C-171.26658644 281.22448261 -172.95635805 279.79138653 -174.6875 278.41015625 C-186.2661399 269.04369552 -195.39620272 255.45815655 -199.484375 241.16796875 C-200.1284161 234.74428609 -200.40725117 228.57883243 -196.484375 223.16796875 C-191.04179275 218.25637013 -187.54561443 217.76844831 -180.3359375 217.81640625 C-170.16782647 218.74452997 -160.67802425 222.94958162 -151.484375 227.16796875 C-151.69586182 225.75040283 -151.69586182 225.75040283 -151.91162109 224.30419922 C-156.62327318 192.60284272 -156.62327318 192.60284272 -157.859375 179.04296875 C-157.98578369 177.68727783 -157.98578369 177.68727783 -158.11474609 176.30419922 C-158.28562144 174.26221858 -158.39310374 172.21505274 -158.484375 170.16796875 C-156.74480842 168.42840217 -154.2907128 168.79606489 -151.921875 168.60546875 C-150.90996094 168.52167969 -149.89804688 168.43789062 -148.85546875 168.3515625 C-148.07300781 168.29097656 -147.29054687 168.23039063 -146.484375 168.16796875 C-146.61714844 167.07742187 -146.74992187 165.986875 -146.88671875 164.86328125 C-148.17463058 153.97324417 -148.99236185 143.12173519 -149.484375 132.16796875 C-151.01771484 131.99007812 -151.01771484 131.99007812 -152.58203125 131.80859375 C-161.68660061 130.31394973 -169.92601169 126.35508082 -177.484375 121.16796875 C-176.11852554 105.55426602 -174.39288409 88.79540136 -168.484375 74.16796875 C-168.15050781 73.32621094 -167.81664062 72.48445313 -167.47265625 71.6171875 C-166.32955558 69.29488824 -165.49797081 67.79710713 -163.484375 66.16796875 C-160.05167364 65.51939384 -156.93096452 65.68611546 -153.484375 66.16796875 C-153.53658203 64.44126953 -153.53658203 64.44126953 -153.58984375 62.6796875 C-153.58498558 58.25972185 -152.85661245 54.25771034 -151.796875 49.98046875 C-151.61680908 49.2443335 -151.43674316 48.50819824 -151.2512207 47.74975586 C-148.20221831 35.72697027 -143.83742371 21.9585413 -133.42529297 14.17407227 C-123.36250947 8.95787971 -111.01462408 7.97958016 -99.921875 6.60546875 C-99.11010803 6.50157837 -98.29834106 6.39768799 -97.4619751 6.29064941 C-84.95365158 4.69280764 -72.42834436 3.42748026 -59.859375 2.41796875 C-58.75914505 2.32949173 -58.75914505 2.32949173 -57.63668823 2.23922729 C-38.42645911 0.721797 -19.26924113 0.00708606 0 0 Z M-105.66064453 18.72119141 C-108.3160647 19.14133829 -110.96535365 19.47406488 -113.63671875 19.7734375 C-119.98061022 20.5380646 -125.4461965 21.20110681 -130.171875 25.91796875 C-134.58787772 32.04149252 -137.06887332 39.08239782 -139.484375 46.16796875 C-139.7932666 47.06950684 -140.1021582 47.97104492 -140.42041016 48.89990234 C-142.48994689 54.97374253 -144.50389849 61.06457774 -146.484375 67.16796875 C-134.24336507 69.24036339 -122.07246273 70.90032503 -109.69140625 71.83203125 C-108.87392221 71.89483906 -108.05643818 71.95764687 -107.2141819 72.02235794 C-86.56842879 73.57051592 -65.92694342 73.63861545 -45.23351669 73.55448914 C-42.11698939 73.54276223 -39.00048597 73.53625439 -35.88394165 73.53088379 C-3.40507197 73.46558205 28.92879426 72.76481826 61.33209229 70.39904785 C64.57948217 70.16333363 67.82744839 69.93760949 71.07568359 69.71386719 C128.03002809 67.42410851 128.03002809 67.42410851 183.515625 56.16796875 C182.06230755 45.51030747 180.31443614 34.84353505 173.515625 26.16796875 C169.40745288 23.41946155 165.29494162 22.30204388 160.515625 21.16796875 C158.6284375 20.64203125 158.6284375 20.64203125 156.703125 20.10546875 C144.84808299 16.91707114 132.69315356 15.50813901 120.515625 14.16796875 C119.68047363 14.07273926 118.84532227 13.97750977 117.98486328 13.87939453 C45.16139578 5.80088349 -33.34046652 6.5475511 -105.66064453 18.72119141 Z M188.5422821 65.46641541 C177.97633582 67.81019975 167.45086954 69.39217949 156.703125 70.60546875 C155.82755951 70.70680115 154.95199402 70.80813354 154.04989624 70.91253662 C99.76857484 77.18659968 45.2131818 81.43572964 -9.421875 82.73046875 C-10.28889038 82.75131531 -11.15590576 82.77216187 -12.04919434 82.79364014 C-25.53038275 83.11385619 -38.9993629 83.38351131 -52.484375 83.16796875 C-54.37446289 83.14114014 -54.37446289 83.14114014 -56.30273438 83.11376953 C-132.35556313 81.95299283 -132.35556313 81.95299283 -155.70703125 73.71875 C-157.65184708 73.01996725 -157.65184708 73.01996725 -160.484375 73.16796875 C-161.32268395 78.14808256 -162.15878691 83.12856005 -162.99291992 88.109375 C-163.27650542 89.80088098 -163.56067506 91.49228913 -163.84545898 93.18359375 C-164.25661401 95.62604184 -164.66561023 98.06884351 -165.07421875 100.51171875 C-165.20030014 101.25788452 -165.32638153 102.00405029 -165.45628357 102.77282715 C-166.25437323 107.56036085 -166.91048866 112.34827599 -167.484375 117.16796875 C-137.57485412 126.84710733 -106.22530764 130.63691153 -74.93359375 132.26171875 C-74.12781639 132.30421501 -73.32203903 132.34671127 -72.49184418 132.3904953 C-53.94134512 133.34778718 -35.40706146 133.48590937 -16.8355751 133.42591858 C-14.1801275 133.41780296 -11.5246885 133.41287912 -8.86923218 133.40856934 C16.96879306 133.36035264 42.7394653 133.10694508 68.515625 131.16796875 C69.41514893 131.10244812 70.31467285 131.03692749 71.24145508 130.96942139 C117.37938483 127.60868682 162.49111433 120.93492703 207.515625 110.16796875 C206.91656842 104.18549833 205.16775329 98.99483645 203.140625 93.35546875 C199.78480313 83.72531054 197.81016572 74.26538634 196.515625 64.16796875 C193.76517508 64.16796875 191.21482956 64.87044209 188.5422821 65.46641541 Z M164.828125 129.3046875 C104.50834314 138.45643932 43.54193504 143.03305407 -17.484375 142.16796875 C-18.95605465 142.14989965 -20.42773434 142.13183344 -21.89941406 142.11376953 C-62.72840254 141.57916341 -102.99532453 138.39106246 -143.484375 133.16796875 C-143.17385116 134.89204863 -142.8624867 136.61597711 -142.55078125 138.33984375 C-142.37748291 139.29987305 -142.20418457 140.25990234 -142.02563477 141.24902344 C-141.51950449 143.97851985 -140.97684713 146.69805854 -140.421875 149.41796875 C-139.1560564 156.28528382 -138.84151512 163.20373635 -138.484375 170.16796875 C-113.59442903 175.79213923 -87.93506217 178.59464672 -62.484375 180.16796875 C-61.54059998 180.23152054 -61.54059998 180.23152054 -60.57775879 180.2963562 C-42.88387458 181.45805757 -25.15868744 181.35540994 -7.43554688 181.35327148 C-3.91693901 181.353191 -0.39846351 181.36002165 3.12011719 181.3737793 C59.44586898 181.59039528 114.69291104 176.44492608 170.515625 169.16796875 C171.22930736 163.65059668 171.94134921 158.13301635 172.65185547 152.61523438 C172.89391451 150.73724612 173.13642584 148.8593161 173.37939453 146.98144531 C173.72807156 144.28595839 174.07513421 141.59026784 174.421875 138.89453125 C174.5312439 138.05177643 174.64061279 137.20902161 174.7532959 136.34072876 C175.30942136 132.26757813 175.30942136 132.26757813 175.515625 128.16796875 C171.88143824 128.16796875 168.4084326 128.74737673 164.828125 129.3046875 Z M-149.484375 177.16796875 C-148.84764582 185.39411998 -147.77207067 193.50755506 -146.515625 201.66015625 C-146.31959686 202.94359421 -146.12356873 204.22703217 -145.92160034 205.54936218 C-145.28324223 209.71505506 -144.63489613 213.87916016 -143.984375 218.04296875 C-143.87351814 218.75387035 -143.76266129 219.46477196 -143.64844513 220.19721603 C-137.317826 260.7519368 -130.23158607 301.29855549 -117.734375 340.48046875 C-117.4647998 341.34736328 -117.19522461 342.21425781 -116.91748047 343.10742188 C-116.52520264 344.2762793 -116.52520264 344.2762793 -116.125 345.46875 C-115.79290527 346.47675659 -115.79290527 346.47675659 -115.45410156 347.50512695 C-114.11222553 349.80611327 -112.97980308 350.23853979 -110.484375 351.16796875 C-108.15800415 351.76367113 -105.81512084 352.2960511 -103.46484375 352.7890625 C-102.77831726 352.93362885 -102.09179077 353.07819519 -101.38446045 353.22714233 C-99.14845061 353.69432091 -96.91053462 354.15116645 -94.671875 354.60546875 C-93.90561798 354.76203949 -93.13936096 354.91861023 -92.34988403 355.07992554 C-79.45065431 357.70341492 -66.5897602 359.86066385 -53.484375 361.16796875 C-52.51338867 361.26948242 -51.54240234 361.37099609 -50.54199219 361.47558594 C-33.8435123 363.17929309 -17.25926441 363.41291266 -0.484375 363.16796875 C-0.82428467 362.49209717 -1.16419434 361.81622559 -1.5144043 361.11987305 C-4.59115505 354.73549066 -6.4615985 349.00414181 -7.296875 341.98046875 C-7.47114014 340.62417358 -7.47114014 340.62417358 -7.64892578 339.24047852 C-9.14048553 326.78848079 -9.33741 315.27750733 -5.484375 303.16796875 C27.73111656 296.26032228 27.73111656 296.26032228 41.515625 302.16796875 C40.80034348 310.03606545 39.34646201 317.68144823 37.765625 325.41796875 C37.52585937 326.65160156 37.28609375 327.88523437 37.0390625 329.15625 C34.56355418 341.2913449 30.30942142 352.24604613 24.515625 363.16796875 C38.01567726 363.3300234 51.36627661 362.92880722 64.828125 361.91796875 C65.73360077 361.85172302 66.63907654 361.78547729 67.57199097 361.71722412 C84.31949497 360.48117164 100.89974915 358.62544977 117.515625 356.16796875 C118.24551636 356.06037231 118.97540771 355.95277588 119.72741699 355.84191895 C129.99680462 354.32665667 140.25891135 352.76672523 150.515625 351.16796875 C158.81165182 320.32128702 165.67652793 289.38815022 170.828125 257.85546875 C170.99320557 256.84873108 171.15828613 255.84199341 171.32836914 254.80474854 C174.68800047 234.18081381 177.59911379 213.54565435 178.703125 192.66796875 C178.78507041 191.23563474 178.8677541 189.80334277 178.95117188 188.37109375 C179.14770643 184.97048612 179.3347022 181.56944738 179.515625 178.16796875 C174.3847602 178.62091967 169.28927536 179.17053261 164.19921875 179.96484375 C77.53519359 193.35029269 -14.24438845 195.92513296 -149.484375 177.16796875 Z M206.390625 227.54296875 C205.75535889 227.89584961 205.12009277 228.24873047 204.46557617 228.61230469 C197.46410854 232.59931157 190.84997319 237.19520943 184.515625 242.16796875 C183.84015625 242.66570801 183.1646875 243.16344727 182.46875 243.67626953 C179.47095821 247.5007024 179.11649673 251.61042815 178.33984375 256.33203125 C178.16556351 257.32045013 177.99128326 258.30886902 177.8117218 259.32723999 C177.44729029 261.41217319 177.09054173 263.49846196 176.7409668 265.5859375 C176.20345054 268.7910276 175.64188491 271.99118508 175.07617188 275.19140625 C174.72514859 277.21720343 174.37549171 279.24323795 174.02734375 281.26953125 C173.85974045 282.23098053 173.69213715 283.19242981 173.51945496 284.18301392 C173.37212418 285.07088593 173.2247934 285.95875793 173.07299805 286.87353516 C172.94072311 287.65644928 172.80844818 288.4393634 172.67216492 289.2460022 C172.34164208 291.25195813 172.34164208 291.25195813 173.515625 293.16796875 C196.92424231 281.43592477 217.3701316 266.91316551 226.078125 241.23046875 C227.39415157 236.40112123 228.2345925 232.92040831 226.515625 228.16796875 C224.56476436 225.55705775 224.56476436 225.55705775 221.515625 224.16796875 C215.5339786 223.67418603 211.6230195 224.52217562 206.390625 227.54296875 Z M-187.859375 228.73046875 C-190.18085834 232.21269376 -190.01313497 234.003984 -189.484375 238.16796875 C-183.52619728 260.83724846 -163.03888956 278.05867662 -143.671875 289.79296875 C-142.28105442 290.59340921 -140.88729127 291.3889227 -139.484375 292.16796875 C-138.41908979 288.97211313 -138.53588296 287.80632461 -139.11767578 284.57641602 C-139.28179962 283.64857803 -139.44592346 282.72074005 -139.61502075 281.76478577 C-139.89453079 280.26473244 -139.89453079 280.26473244 -140.1796875 278.734375 C-140.36900848 277.70489243 -140.55832947 276.67540985 -140.75338745 275.61473083 C-141.15786276 273.43596858 -141.56668313 271.25800919 -141.97949219 269.08081055 C-142.60558742 265.75061488 -143.20160572 262.41590212 -143.796875 259.08007812 C-144.19346455 256.9644965 -144.59184347 254.84924936 -144.9921875 252.734375 C-145.16638214 251.73636368 -145.34057678 250.73835236 -145.52005005 249.71009827 C-146.59579478 244.13476076 -146.59579478 244.13476076 -149.89916992 239.63476562 C-150.7522876 239.15072266 -151.60540527 238.66667969 -152.484375 238.16796875 C-153.1343042 237.79148193 -153.7842334 237.41499512 -154.45385742 237.02709961 C-155.07623291 236.73198486 -155.6986084 236.43687012 -156.33984375 236.1328125 C-157.04004639 235.79958984 -157.74024902 235.46636719 -158.46166992 235.12304688 C-159.1910376 234.78724609 -159.92040527 234.45144531 -160.671875 234.10546875 C-161.80363159 233.58049805 -161.80363159 233.58049805 -162.95825195 233.04492188 C-175.29340863 226.86247126 -175.29340863 226.86247126 -187.859375 228.73046875 Z M1.515625 329.16796875 C2.08614218 344.41116162 2.08614218 344.41116162 7.96875 357.8828125 C9.47781926 359.39653252 9.47781926 359.39653252 11.828125 359.29296875 C17.21420468 357.03833075 19.69583511 353.0624966 21.97265625 347.80078125 C25.00832683 339.67054601 25.00832683 339.67054601 26.515625 331.16796875 C23.88310517 327.96625544 21.65042055 325.41001806 17.4140625 324.9296875 C16.58132812 324.90519531 15.74859375 324.88070313 14.890625 324.85546875 C13.66472656 324.79939453 13.66472656 324.79939453 12.4140625 324.7421875 C8.33003901 325.34213165 5.09856703 327.1848546 1.515625 329.16796875 Z M132.515625 363.16796875 C131.39220703 363.30372314 130.26878906 363.43947754 129.11132812 363.5793457 C84.68274104 368.91791523 40.31094847 372.83097621 -4.484375 372.16796875 C-5.49097168 372.15540039 -6.49756836 372.14283203 -7.53466797 372.12988281 C-22.56826001 371.8956179 -37.46461086 370.73875597 -52.421875 369.29296875 C-53.27152832 369.21187866 -54.12118164 369.13078857 -54.99658203 369.04724121 C-65.3693083 368.04600312 -75.66533017 366.78852012 -85.95457458 365.1267395 C-89.84028714 364.50873919 -93.53343197 363.99339104 -97.484375 364.16796875 C-96.70059027 366.96207156 -95.90777802 369.75304358 -95.109375 372.54296875 C-94.88765625 373.33703125 -94.6659375 374.13109375 -94.4375 374.94921875 C-94.21835938 375.70976562 -93.99921875 376.4703125 -93.7734375 377.25390625 C-93.57443848 377.95563965 -93.37543945 378.65737305 -93.17041016 379.38037109 C-92.54112473 381.38242408 -92.54112473 381.38242408 -90.484375 383.16796875 C-88.72998551 383.77983021 -86.95507558 384.33349878 -85.171875 384.85546875 C-78.99240258 386.82064559 -73.7037907 389.57990895 -68.1015625 392.77734375 C-65.68396421 394.32437524 -65.68396421 394.32437524 -63.484375 394.16796875 C-63.814375 395.81796875 -64.144375 397.46796875 -64.484375 399.16796875 C-70.62373208 398.73964151 -75.81474819 396.62079087 -81.49609375 394.32421875 C-88.28965534 391.69559884 -95.66484411 390.89197153 -102.80078125 392.78125 C-110.50784763 396.20493702 -115.62514221 403.07443864 -118.70703125 410.74609375 C-122.69952182 423.18500908 -122.6819957 435.95208159 -116.859375 447.85546875 C-115.68098069 450.05349598 -115.68098069 450.05349598 -114.484375 451.16796875 C-111.27276317 451.59360405 -109.86883626 451.42966087 -107.16015625 449.5859375 C-106.38027344 448.84988281 -105.60039062 448.11382812 -104.796875 447.35546875 C-103.92675781 446.53820312 -103.05664062 445.7209375 -102.16015625 444.87890625 C-99.4837218 442.16730696 -96.98445507 439.35457654 -94.484375 436.48046875 C-87.74169221 428.92273639 -79.98126971 423.84757394 -69.7265625 422.91796875 C-61.78085595 422.60560682 -54.91761107 424.0887556 -47.3359375 426.1484375 C-32.24717194 430.1425225 -16.76548861 430.32864924 -1.2578125 430.3359375 C0.38202949 430.33916316 2.02187121 430.34252813 3.66171265 430.34602356 C7.08226181 430.35197029 10.50278588 430.35386815 13.92333984 430.35327148 C18.2493542 430.35317025 22.57520303 430.36680292 26.90117836 430.38404369 C30.28523457 430.3953092 33.66925263 430.39718628 37.05332565 430.39666176 C38.64529361 430.39782087 40.23726327 430.40212191 41.82921219 430.40999413 C56.65054253 430.47641996 71.71598499 429.71533787 86.203125 426.35546875 C87.31723755 426.10108032 87.31723755 426.10108032 88.45385742 425.84155273 C96.55188729 423.86020554 101.91095973 420.36259878 107.515625 414.16796875 C107.96292969 413.71292969 108.41023437 413.25789063 108.87109375 412.7890625 C119.41780309 401.50719379 130.00603818 381.28406314 133.515625 366.16796875 C133.185625 365.17796875 132.855625 364.18796875 132.515625 363.16796875 Z M84.21875 435.04296875 C83.01347656 435.2234375 81.80820312 435.40390625 80.56640625 435.58984375 C78.68501953 435.87601562 78.68501953 435.87601562 76.765625 436.16796875 C75.49589844 436.35875 74.22617187 436.54953125 72.91796875 436.74609375 C69.7834523 437.21744961 66.64936884 437.6915079 63.515625 438.16796875 C63.67643555 438.92859619 63.83724609 439.68922363 64.00292969 440.47290039 C65.20091276 446.77029809 65.35597731 453.55353935 63.390625 459.66796875 C58.69996679 465.92217969 53.68114512 468.1640893 46.390625 470.29296875 C39.45088076 472.22775631 39.45088076 472.22775631 33.515625 476.16796875 C33.69317894 480.69559417 34.01955527 482.648826 37.203125 485.98046875 C47.17295885 492.56432129 61.67580706 491.48039441 73.09375 489.48046875 C82.39368615 487.49553247 93.79003251 484.44298535 99.703125 476.48046875 C103.99474984 468.6371544 103.24449637 461.09450153 100.87158203 452.71142578 C98.98986181 446.43123609 96.85906743 440.29115704 94.515625 434.16796875 C90.93067565 434.16796875 87.75308133 434.50948478 84.21875 435.04296875 Z " fill="#851818" transform="translate(237.484375,5.83203125)"/>
<path d="M0 0 C1.41635742 -0.01836914 1.41635742 -0.01836914 2.86132812 -0.03710938 C3.76173828 -0.03904297 4.66214844 -0.04097656 5.58984375 -0.04296875 C6.40187256 -0.04707764 7.21390137 -0.05118652 8.05053711 -0.05541992 C10.0625 0.1875 10.0625 0.1875 12.0625 2.1875 C11.90853882 4.2073822 11.90853882 4.2073822 11.0625 6.1875 C5.64918478 8.76187032 0.57633291 9.7644836 -5.3515625 10.27734375 C-6.16178864 10.35476303 -6.97201477 10.43218231 -7.80679321 10.51194763 C-17.8521659 11.42964844 -27.92410089 12.00587639 -37.99462891 12.56518555 C-41.27412892 12.74786263 -44.55306861 12.93880374 -47.83203125 13.13085938 C-54.53225849 13.51707083 -61.23409289 13.86150403 -67.9375 14.1875 C-68.96197235 14.23876038 -69.9864447 14.29002075 -71.04196167 14.34283447 C-95.60602203 15.52346861 -120.20560274 15.40916327 -144.79174805 15.42773438 C-149.75861932 15.43212653 -154.72531763 15.44607641 -159.69213867 15.46875 C-241.40118359 15.83368458 -241.40118359 15.83368458 -257.9375 6.1875 C-257.9375 5.5275 -257.9375 4.8675 -257.9375 4.1875 C-256.01345337 4.32381836 -256.01345337 4.32381836 -254.05053711 4.46289062 C-179.70925301 9.59707735 -105.412207 7.75560705 -31.16015625 2.08984375 C-30.15618301 2.01384445 -29.15220978 1.93784515 -28.11781311 1.85954285 C-23.75975996 1.520991 -19.41608109 1.14471114 -15.07373047 0.64160156 C-10.04142853 0.06226634 -5.06192458 0.00355722 0 0 Z " fill="#851818" transform="translate(379.9375,30.8125)"/>
<path d="M0 0 C3.18394908 3.1115866 3.18394908 3.1115866 3.3125 6.8125 C2.75 10.6875 2.75 10.6875 0.75 13.6875 C0.605625 14.8425 0.46125 15.9975 0.3125 17.1875 C-0.25 20.6875 -0.25 20.6875 -1.3125 22.625 C-4.58514955 24.41967878 -7.71368079 24.64454608 -11.25 23.6875 C-12.93778279 22.12246505 -14.18220887 20.42272884 -15.55078125 18.57421875 C-19.68649591 13.98214937 -26.22183739 11.52778933 -32.25 10.6875 C-42.86844603 10.49266613 -51.13200156 12.75044685 -59 20 C-61.47411788 22.27525261 -62.06125681 22.65901046 -65.5625 23.1875 C-68.25 22.6875 -68.25 22.6875 -70.25 20.6875 C-70.375 17.0625 -70.375 17.0625 -70.25 13.6875 C-71.57 13.0275 -72.89 12.3675 -74.25 11.6875 C-74.03423428 6.40123983 -72.9529386 3.27609312 -69.3125 -0.609375 C-49.94075982 -16.60573621 -20.1086947 -11.96850165 0 0 Z " fill="#851818" transform="translate(353.25,257.3125)"/>
<path d="M0 0 C3.50866937 2.72624832 6.30058933 5.71853512 8.2421875 9.7421875 C8.1171875 12.7421875 8.1171875 12.7421875 7.2421875 14.7421875 C5.9221875 15.0721875 4.6021875 15.4021875 3.2421875 15.7421875 C3.7371875 16.7321875 3.7371875 16.7321875 4.2421875 17.7421875 C4.4296875 20.7421875 4.4296875 20.7421875 4.2421875 23.7421875 C2.2421875 25.7421875 2.2421875 25.7421875 -0.5703125 26.10546875 C-4.46644052 25.66142475 -5.8546366 24.51183914 -8.7578125 21.9296875 C-15.91277604 15.85815922 -21.9563048 13.39900073 -31.2890625 13.5234375 C-39.3845285 14.24075727 -46.72184052 17.11588763 -52.0078125 23.4296875 C-52.5853125 24.1928125 -53.1628125 24.9559375 -53.7578125 25.7421875 C-56.84955002 27.28805626 -59.35210802 27.03578271 -62.7578125 26.7421875 C-65.1328125 25.2421875 -65.1328125 25.2421875 -66.7578125 22.7421875 C-67.32500224 20.06234607 -67.53309056 17.48379522 -67.7578125 14.7421875 C-68.0878125 14.4121875 -68.4178125 14.0821875 -68.7578125 13.7421875 C-69.60329154 8.75386119 -69.60329154 8.75386119 -68.7578125 5.7421875 C-66.12756398 3.06334316 -63.07791669 1.44806925 -59.7578125 -0.2578125 C-58.71367187 -0.82822266 -58.71367187 -0.82822266 -57.6484375 -1.41015625 C-40.22351102 -10.08986587 -16.56878681 -10.64001964 0 0 Z " fill="#851818" transform="translate(229.7578125,254.2578125)"/>
</svg>
