<?xml version="1.0" encoding="UTF-8"?>
<svg version="1.1" xmlns="http://www.w3.org/2000/svg" width="512" height="512">
<path d="M0 0 C4.69129315 3.61405045 9.21198453 7.4128842 13.6875 11.2890625 C23.78113717 20.00986449 34.41776004 28.12751625 45.85546875 35.0078125 C46.50854004 35.40194336 47.16161133 35.79607422 47.83447266 36.20214844 C59.64031953 43.09343499 70.31721187 44.21955454 83.85546875 44.0078125 C84.18546875 44.9978125 84.51546875 45.9878125 84.85546875 47.0078125 C101.08576169 45.49437682 115.22513369 39.72867188 130.16796875 33.5078125 C164.94463033 19.10258956 200.53979852 14.77777601 236.16723633 29.45214844 C248.41442749 34.76648789 259.77377364 41.19027979 269.85546875 50.0078125 C271.30566406 51.24144531 271.30566406 51.24144531 272.78515625 52.5 C296.62294393 73.19091016 310.19500064 102.94969353 313.85546875 134.0078125 C314.13243116 138.4084738 314.19007889 142.78674193 314.16796875 147.1953125 C314.1630542 148.37077637 314.15813965 149.54624023 314.15307617 150.75732422 C314.02383357 160.44057761 313.08898961 169.59269778 310.85546875 179.0078125 C310.62996338 180.01352295 310.62996338 180.01352295 310.39990234 181.03955078 C303.38327201 211.40123158 284.75020232 239.40553231 259.85546875 258.0078125 C258.8603125 258.75675781 257.86515625 259.50570313 256.83984375 260.27734375 C234.87004326 276.15945321 209.93921885 283.68850513 183.30078125 287.125 C181.89587296 287.30884459 180.49100602 287.49300556 179.08618164 287.67749023 C175.67641292 288.12457772 172.26610519 288.56738731 168.85546875 289.0078125 C168.7493779 289.78375763 168.64328705 290.55970276 168.53398132 291.35916138 C167.53010095 298.68743782 166.51600782 306.01419487 165.49054241 313.33947945 C164.96375381 317.10512965 164.44086895 320.87123483 163.92700195 324.63867188 C163.43053157 328.27747863 162.92368143 331.91470403 162.40973854 335.55108261 C162.21590067 336.93556731 162.02574751 338.32057327 161.83942223 339.70608902 C161.57691357 341.65323773 161.29983174 343.59840463 161.0222168 345.54345703 C160.7923835 347.20225388 160.7923835 347.20225388 160.5579071 348.89456177 C159.51253457 353.52771823 157.85785205 356.97833776 154.54296875 360.3828125 C151.35797805 362.30862083 149.50704005 362.1387654 145.85546875 362.0078125 C145.73429687 363.24015625 145.613125 364.4725 145.48828125 365.7421875 C142.41209949 396.45118176 142.41209949 396.45118176 135.04296875 403.8203125 C127.84399813 408.76078254 122.68497052 409.37309854 114.13671875 409.09765625 C112.04950527 409.07608242 109.96226155 409.05728668 107.875 409.04101562 C104.60798167 409.00191763 101.34520072 408.94498268 98.07958984 408.84008789 C85.71771449 407.87234921 85.71771449 407.87234921 74.98852539 412.54614258 C73.20658794 415.65046393 72.00323375 418.62534628 70.85546875 422.0078125 C69.47877064 424.13447032 67.94654654 425.88657052 66.29296875 427.8203125 C65.52984375 428.71878906 64.76671875 429.61726563 63.98046875 430.54296875 C63.27921875 431.35636719 62.57796875 432.16976563 61.85546875 433.0078125 C61.31921875 433.66652344 60.78296875 434.32523437 60.23046875 435.00390625 C41.66583936 457.654772 10.6288436 472.889376 -18.09863281 476.71044922 C-35.41626712 478.4011256 -53.49132013 478.42467205 -70.14453125 473.0078125 C-71.15676758 472.69432861 -71.15676758 472.69432861 -72.18945312 472.37451172 C-86.26009297 467.93167724 -98.93271526 460.59412357 -110.14453125 451.0078125 C-110.94117188 450.33234375 -111.7378125 449.656875 -112.55859375 448.9609375 C-138.95870785 425.91192147 -155.27172424 393.75223027 -157.984375 358.734375 C-159.49587839 333.00195136 -152.13736798 310.4481933 -141.62304688 287.28173828 C-139.09891736 281.69247527 -136.63533312 276.07709284 -134.18411255 270.45553589 C-133.36176716 268.5757841 -132.5308334 266.70001951 -131.69897461 264.82446289 C-121.04886802 240.47971016 -112.65873868 213.07851447 -121.89453125 186.88037109 C-127.26261086 173.25203471 -135.81976304 162.23858125 -145.04394531 151.02905273 C-163.54166004 128.54775793 -174.48802532 106.95936075 -172.14453125 77.0078125 C-168.34399131 46.81798553 -141.08671986 15.31651561 -118.14453125 -2.9921875 C-79.92435861 -31.48318689 -37.37347525 -27.95861247 0 0 Z " fill="#EAF0FC" transform="translate(185.14453125,28.9921875)"/>
<path d="M0 0 C5.09658783 2.62046782 9.04685785 6.8710423 10.85546875 12.296875 C10.92349842 14.02482852 10.9404252 15.75522865 10.91796875 17.484375 C10.90894531 18.38542969 10.89992188 19.28648437 10.890625 20.21484375 C10.87322266 21.24544922 10.87322266 21.24544922 10.85546875 22.296875 C11.48453125 22.25046875 12.11359375 22.2040625 12.76171875 22.15625 C19.07384411 21.89007604 23.71599565 22.46350767 28.85546875 26.296875 C33.38269081 30.65739703 36.7631897 34.12616671 36.953125 40.65234375 C36.93572266 42.54919922 36.93572266 42.54919922 36.91796875 44.484375 C36.90894531 45.75667969 36.89992188 47.02898437 36.890625 48.33984375 C36.87322266 49.80357422 36.87322266 49.80357422 36.85546875 51.296875 C37.57992187 51.25046875 38.304375 51.2040625 39.05078125 51.15625 C43.74059574 50.98116359 47.04349931 50.91988919 51.35546875 52.921875 C55.51300012 56.8715298 57.00405911 60.60052053 57.2890625 66.265625 C57.30620679 68.10929575 57.30711147 69.95317878 57.29296875 71.796875 C57.31294922 72.72113281 57.33292969 73.64539063 57.35351562 74.59765625 C57.34929797 80.4939361 56.71576263 83.78363178 52.85546875 88.296875 C48.63691745 92.00408675 45.17856796 92.41862875 39.66796875 92.359375 C38.58128906 92.35035156 37.49460937 92.34132813 36.375 92.33203125 C35.12783203 92.31462891 35.12783203 92.31462891 33.85546875 92.296875 C33.76982666 93.08860107 33.68418457 93.88032715 33.59594727 94.69604492 C33.20560517 98.29241085 32.81182322 101.8883921 32.41796875 105.484375 C32.2159082 107.35319336 32.2159082 107.35319336 32.00976562 109.25976562 C31.87763672 110.46181641 31.74550781 111.66386719 31.609375 112.90234375 C31.48892822 114.00731201 31.36848145 115.11228027 31.24438477 116.25073242 C30.85546875 119.296875 30.85546875 119.296875 30.31225586 121.95825195 C29.70097255 125.08785259 29.79313056 128.11762725 29.85546875 131.296875 C31.21671875 131.85375 31.21671875 131.85375 32.60546875 132.421875 C36.46240304 134.6470294 37.89863162 136.30793777 39.85546875 140.296875 C40.13695365 145.94454002 39.52959933 151.12501978 38.54296875 156.671875 C37.30976475 164.0291975 36.35027911 171.38144841 35.54296875 178.796875 C34.26696046 190.25697449 32.80344565 201.68921546 31.25161743 213.11499023 C30.98881918 215.05995236 30.72980795 217.00543015 30.47470093 218.95141602 C30.11218577 221.70874169 29.73560475 224.46380532 29.35546875 227.21875 C29.24922684 228.04586487 29.14298492 228.87297974 29.03352356 229.72515869 C28.19511304 235.63356305 26.82026919 240.27897184 22.54296875 244.671875 C19.35797805 246.59768333 17.50704005 246.4278279 13.85546875 246.296875 C13.73429688 247.52921875 13.613125 248.7615625 13.48828125 250.03125 C10.41209949 280.74024426 10.41209949 280.74024426 3.04296875 288.109375 C-3.32851305 292.48196055 -8.18679774 293.74426062 -15.75390625 293.625 C-17.03173225 293.62307396 -17.03173225 293.62307396 -18.33537292 293.62110901 C-21.1887554 293.61219005 -24.04133915 293.58045859 -26.89453125 293.546875 C-28.92390406 293.53141292 -30.95328272 293.51670398 -32.98266602 293.50268555 C-37.49070052 293.4681168 -41.99847399 293.4218543 -46.50634766 293.37060547 C-52.68207288 293.30437432 -58.85722065 293.27623817 -65.03321648 293.26032448 C-71.11729398 293.24367271 -77.20107433 293.20749001 -83.28497505 293.15836143 C-87.05141903 293.1283648 -90.81753695 293.10602813 -94.58410645 293.10241699 C-98.1695958 293.0982184 -101.75413092 293.06971487 -105.33931923 293.02369499 C-107.30068002 293.00448123 -109.26223292 293.00974441 -111.22367859 293.01576233 C-119.44822413 292.88021755 -124.72238667 291.61852339 -130.65660095 285.81916809 C-134.87071767 281.11230908 -136.2867122 276.39167066 -137.21484375 270.26171875 C-137.38886719 269.12283203 -137.56289062 267.98394531 -137.7421875 266.81054688 C-137.91621094 265.63041016 -138.09023437 264.45027344 -138.26953125 263.234375 C-138.45128906 262.05037109 -138.63304687 260.86636719 -138.8203125 259.64648438 C-140.14453125 250.85984492 -140.14453125 250.85984492 -140.14453125 246.296875 C-141.19640625 246.235 -142.24828125 246.173125 -143.33203125 246.109375 C-147.86829427 245.14263042 -149.29017651 243.88520667 -152.14453125 240.296875 C-154.0424798 236.3235221 -154.70698008 232.48865138 -155.328125 228.14453125 C-155.42811798 227.45686676 -155.52811096 226.76920227 -155.63113403 226.06069946 C-155.95419385 223.8277519 -156.26827007 221.59364644 -156.58203125 219.359375 C-156.80479824 217.80502856 -157.02802739 216.25074829 -157.25170898 214.6965332 C-157.89202873 210.23128145 -158.52076057 205.76446585 -159.14453125 201.296875 C-159.29567383 200.21438477 -159.44681641 199.13189453 -159.60253906 198.01660156 C-160.20947424 193.64154776 -160.80355711 189.265 -161.38671875 184.88671875 C-161.9682337 180.54137633 -162.58738136 176.20222213 -163.21484375 171.86328125 C-163.39974365 170.5688208 -163.58464355 169.27436035 -163.77514648 167.94067383 C-164.13636684 165.41498184 -164.50275481 162.89002144 -164.87524414 160.3659668 C-167.35843498 142.86474828 -167.35843498 142.86474828 -164.51953125 136.859375 C-161.927074 134.06225007 -159.56495025 132.90400338 -156.14453125 131.296875 C-156.59716942 127.0462488 -157.05771066 122.79651256 -157.51953125 118.546875 C-157.64585937 117.35964844 -157.7721875 116.17242187 -157.90234375 114.94921875 C-158.7332164 107.346734 -159.79638598 99.82502894 -161.14453125 92.296875 C-162.19640625 92.07 -163.24828125 91.843125 -164.33203125 91.609375 C-168.31630507 90.48601991 -170.45633623 88.45945737 -173.14453125 85.296875 C-175.18286933 81.22019885 -174.50563304 76.09052529 -174.58203125 71.609375 C-174.62779297 70.53236328 -174.67355469 69.45535156 -174.72070312 68.34570312 C-174.8105439 61.97482067 -174.31418064 58.15556112 -169.82006836 53.48681641 C-167.08747279 51.54616788 -164.41847752 51.36235393 -161.14453125 51.296875 C-161.23154297 50.04583984 -161.23154297 50.04583984 -161.3203125 48.76953125 C-161.63049312 41.03274048 -161.24314575 35.35910325 -156.14453125 29.296875 C-151.21656904 24.76199927 -147.11530265 22.16938215 -140.30403137 22.17662048 C-139.3070372 22.17524582 -138.31004303 22.17387115 -137.28283691 22.17245483 C-136.1902356 22.17605011 -135.09763428 22.17964539 -133.97192383 22.18334961 C-132.82056442 22.18320358 -131.66920502 22.18305756 -130.48295593 22.1829071 C-126.66830578 22.18360509 -122.85370415 22.19139221 -119.0390625 22.19921875 C-116.3977613 22.20108333 -113.75645975 22.20250705 -111.11515808 22.20350647 C-104.86787296 22.20661552 -98.62060533 22.21482318 -92.37332791 22.22485596 C-85.26094144 22.2360303 -78.14855413 22.24153088 -71.03616107 22.24655139 C-56.40560877 22.25700614 -41.77507026 22.27459736 -27.14453125 22.296875 C-27.1612085 21.69576904 -27.17788574 21.09466309 -27.19506836 20.4753418 C-27.20803955 19.67781494 -27.22101074 18.88028809 -27.234375 18.05859375 C-27.25105225 17.27186279 -27.26772949 16.48513184 -27.28491211 15.67456055 C-26.98527472 10.59948488 -24.85809241 6.99594515 -21.296875 3.46484375 C-14.90977367 -1.48486998 -7.72171121 -2.53170859 0 0 Z " fill="#2C1765" transform="translate(317.14453125,144.703125)"/>
<path d="M0 0 C0.75590376 -0.00397441 1.51180753 -0.00794881 2.29061747 -0.01204365 C4.83110093 -0.02169113 7.37103091 -0.00983403 9.91149902 0.00190735 C11.72971302 -0.00051981 13.54792568 -0.00423839 15.36613464 -0.00915527 C20.31028659 -0.01857827 25.25424106 -0.00912701 30.19837761 0.00417686 C35.36597609 0.01547365 40.5335646 0.01138522 45.70117188 0.00942993 C54.38020056 0.00854639 63.05915122 0.01963982 71.73815918 0.03804016 C81.78052449 0.05920868 91.82277546 0.06271801 101.86515856 0.0564782 C111.51499476 0.05078867 121.16479059 0.05642536 130.81462097 0.06765175 C134.92621098 0.07230318 139.03777635 0.07316924 143.14936829 0.0710659 C147.98875948 0.06918586 152.82803389 0.07726501 157.66739845 0.0931263 C159.44639922 0.09737829 161.22541183 0.09821359 163.00441551 0.0954361 C165.42714524 0.09222674 167.84952325 0.1012644 170.2722168 0.11352539 C170.98125735 0.10974607 171.6902979 0.10596674 172.42082453 0.10207289 C176.05727537 0.13477422 177.51882033 0.29602975 180.6361084 2.3742218 C181.91137991 10.14515901 180.09495104 18.6097659 178.9486084 26.3117218 C178.58256295 28.86768847 178.21668571 31.42367924 177.85095215 33.97969055 C177.65306629 35.34479024 177.45498259 36.70986126 177.25671387 38.0749054 C176.25655894 44.97973319 175.29630955 51.89017434 174.33517456 58.80052185 C174.02137916 61.05057584 173.70461827 63.3001953 173.3873291 65.54975891 C173.18620431 66.98601063 172.98527425 68.42228963 172.7845459 69.8585968 C172.686129 70.55602493 172.5877121 71.25345306 172.48631287 71.97201538 C171.97494171 75.66186159 171.52335486 79.34947453 171.14880371 83.05586243 C171.06869049 83.82351929 170.98857727 84.59117615 170.90603638 85.38209534 C170.75664429 86.84307692 170.61727719 88.30513318 170.48995972 89.76820374 C170.01394731 94.38255387 168.98370582 98.02662438 165.6361084 101.3742218 C163.58007895 101.47761756 161.52044356 101.50945237 159.46182251 101.5146637 C158.8097164 101.51763482 158.1576103 101.52060594 157.4857434 101.5236671 C155.28471301 101.53238916 153.08373677 101.53386528 150.88269043 101.53535461 C149.31107465 101.53998031 147.73946 101.54500463 146.16784668 101.55039978 C141.8868497 101.56354974 137.60586841 101.56997378 133.32485437 101.57441044 C130.65287596 101.57733699 127.98090187 101.58144099 125.30892563 101.58591461 C116.95656259 101.59959639 108.60420941 101.60925971 100.25183594 101.6131165 C90.59608776 101.61759907 80.94048101 101.63515329 71.28477585 101.6641171 C63.83083971 101.68570351 56.37694345 101.69581915 48.92297637 101.69715762 C44.4666227 101.69820784 40.01040185 101.70416146 35.55408096 101.72197723 C31.36310606 101.73840551 27.17236456 101.74063913 22.98136902 101.73183823 C21.44101717 101.73106502 19.90065305 101.73544767 18.36033249 101.74529648 C16.2613942 101.75793254 14.16329303 101.75218578 12.06436157 101.74171448 C10.88853075 101.74318104 9.71269993 101.7446476 8.50123787 101.7461586 C5.6361084 101.3742218 5.6361084 101.3742218 3.78487968 100.01092148 C-3.12712727 90.16311306 -2.30570524 69.78084424 -3.83898926 58.28193665 C-4.53238245 53.11986619 -5.25028497 47.96133652 -5.96862793 42.8026886 C-7.21347743 33.85157224 -8.45757636 24.89977993 -9.6138916 15.9367218 C-9.76342285 14.78301086 -9.9129541 13.62929993 -10.0670166 12.44062805 C-10.86834781 4.16372015 -10.86834781 4.16372015 -9.30948639 1.72402668 C-6.37904489 -0.30904015 -3.44039071 -0.03578134 0 0 Z " fill="#FDFAFD" transform="translate(168.3638916015625,282.6257781982422)"/>
<path d="M0 0 C59.07 0 118.14 0 179 0 C178 18 178 18 175 39 C118.9 39 62.8 39 5 39 C1 13 1 13 0 0 Z " fill="#69CCF2" transform="translate(164,237)"/>
<path d="M0 0 C1.28593051 -0.00807831 1.28593051 -0.00807831 2.59783942 -0.01631981 C5.48143209 -0.03067093 8.36457032 -0.0234781 11.2481842 -0.01637268 C13.31107962 -0.02207251 15.37397188 -0.02903526 17.43685913 -0.03717041 C23.04838657 -0.05515977 28.65975814 -0.05392258 34.2713058 -0.04822803 C38.95096393 -0.04514448 43.63059175 -0.05121931 48.31024557 -0.05726677 C59.34752664 -0.07132939 70.38473034 -0.06973629 81.42201233 -0.05836487 C92.81975114 -0.04688178 104.21725471 -0.06095869 115.61496252 -0.08776134 C125.39081768 -0.10989185 135.16659885 -0.11656171 144.94247729 -0.11068493 C150.78549966 -0.10730782 156.62837122 -0.10978036 162.4713726 -0.12693596 C167.96499861 -0.14236077 173.45827516 -0.13849917 178.95188713 -0.11963081 C180.97074312 -0.11593253 182.98962474 -0.11908924 185.00845718 -0.1295166 C187.7595449 -0.14264363 190.50946156 -0.13125303 193.26049805 -0.11352539 C194.06389946 -0.1231304 194.86730088 -0.1327354 195.6950478 -0.14263147 C199.2848448 -0.09486844 201.2927331 0.08140399 204.18747807 2.29231167 C206.71736392 5.81164634 206.31362284 9.1227924 206.25624084 13.32518005 C206.2800885 14.12375427 206.30393616 14.92232849 206.32850647 15.74510193 C206.32657288 16.52305115 206.32463928 17.30100037 206.32264709 18.1025238 C206.32373474 19.15621155 206.32373474 19.15621155 206.32484436 20.23118591 C205.3123751 23.69081492 203.47986377 25.14713949 200.69374084 27.38768005 C197.67907545 27.87786411 195.23262059 28.06084531 192.22290039 28.01586914 C190.94665726 28.02651072 190.94665726 28.02651072 189.64463145 28.03736728 C186.79457448 28.05496498 183.94587808 28.03683375 181.09584045 28.01878357 C179.05235167 28.02392167 177.00886731 28.03120212 174.96539307 28.04046631 C169.41584427 28.05900112 163.86677511 28.04602885 158.3172462 28.02637601 C152.51350377 28.01000773 146.70979215 28.01879977 140.90603638 28.02389526 C131.16030705 28.02841789 121.41476956 28.01253491 111.66908264 27.98460388 C100.39511588 27.95254235 89.12149495 27.95257071 77.8475036 27.96981865 C67.00909641 27.98567065 56.17081625 27.97895928 45.33241463 27.96188164 C40.71643768 27.95500166 36.10056227 27.95605329 31.48458672 27.96342659 C26.05163879 27.97107586 20.61908549 27.95900755 15.18620491 27.93157768 C13.18993425 27.92467886 11.19362684 27.92461183 9.19735718 27.93179321 C6.47699384 27.94045333 3.7578581 27.92459071 1.03759766 27.90234375 C0.24334238 27.91058452 -0.55091291 27.91882528 -1.36923653 27.92731577 C-4.93016938 27.87338292 -6.92078343 27.68056614 -9.79639339 25.49566555 C-11.56881105 23.02112059 -11.80936497 21.74667341 -11.80235291 18.7275238 C-11.80299744 17.85160583 -11.80364197 16.97568787 -11.80430603 16.07322693 C-11.78432556 15.16637146 -11.76434509 14.25951599 -11.74375916 13.32518005 C-11.750849 12.4144574 -11.75793884 11.50373474 -11.76524353 10.56541443 C-11.7025481 4.02097645 -11.7025481 4.02097645 -10.30014706 1.77984524 C-7.13475907 -0.43028049 -3.72517365 -0.02778993 0 0 Z " fill="#FAF7FC" transform="translate(161.30625915527344,202.61231994628906)"/>
<path d="M0 0 C45.54 0 91.08 0 138 0 C135.99376515 30.09352269 135.99376515 30.09352269 130 36 C124.51424504 39.5510836 119.62843449 39.42660746 113.31640625 39.38818359 C112.25227509 39.39344055 111.18814392 39.39869751 110.09176636 39.40411377 C106.58186064 39.41729405 103.07241016 39.40858233 99.5625 39.3984375 C97.11922112 39.40045879 94.67594283 39.40337069 92.23266602 39.40713501 C87.11501312 39.41155571 81.99751743 39.40513529 76.87988281 39.39111328 C70.32265204 39.37402179 63.76578965 39.3838643 57.20857239 39.40183067 C52.16423776 39.41267523 47.11999035 39.40921903 42.07565308 39.4014473 C39.65794837 39.39944716 37.24023572 39.401898 34.82254028 39.40888596 C31.44267827 39.41651121 28.06341148 39.40488037 24.68359375 39.38818359 C23.68601044 39.39425629 22.68842712 39.40032898 21.66061401 39.40658569 C16.3515106 39.35803898 12.57763706 38.99931489 8 36 C2.89385629 30.75201896 1.80849372 24.83269836 0.875 17.75 C0.70742187 16.52796875 0.53984375 15.3059375 0.3671875 14.046875 C-0.05606012 9.38214591 0 4.68389112 0 0 Z " fill="#6ACCF2" transform="translate(185,391)"/>
<path d="M0 0 C7.12662352 4.01085012 12.50285398 10.06889642 14.75 18 C14.97218339 22.0144498 14.92801886 25.98468571 14.75 30 C15.513125 30.28746094 16.27625 30.57492187 17.0625 30.87109375 C23.05190857 33.38699357 26.88982587 37.57946075 29.83203125 43.2734375 C32.10416286 50.0221518 32.07367219 58.04652084 29.0625 64.5625 C24.86707878 71.46654404 18.40687441 76.47436313 10.75 79 C6.25569816 79.41149404 1.76074716 79.41388468 -2.74975586 79.42553711 C-4.9144212 79.4373738 -7.07617478 79.48654147 -9.24023438 79.53710938 C-18.61595529 79.64783614 -26.24025799 78.58895993 -33.40966797 72.02172852 C-36.37014811 68.97052525 -38.42347134 66.2851176 -39.4375 62.125 C-39.8396875 60.578125 -39.8396875 60.578125 -40.25 59 C-40.87003906 58.69191406 -41.49007812 58.38382812 -42.12890625 58.06640625 C-45.61378325 56.31434102 -46.65451854 53.55619998 -48.25390625 50.11328125 C-50.41089738 43.37162662 -50.63259541 36.08767339 -48.3515625 29.34375 C-46.8661092 26.64292583 -45.19685064 24.39504647 -43.25 22 C-42.77240234 21.41154297 -42.29480469 20.82308594 -41.80273438 20.21679688 C-18.42370422 -8.30048166 -18.42370422 -8.30048166 0 0 Z " fill="#2F1863" transform="translate(263.25,295)"/>
<path d="M0 0 C1.59719479 -0.00542483 3.19438458 -0.01254952 4.79156494 -0.02124023 C9.11592102 -0.03943227 13.43989418 -0.0324236 17.76425672 -0.01972389 C22.2951542 -0.00957657 26.82601953 -0.01899421 31.35691833 -0.02526855 C38.96375397 -0.03253918 46.57043409 -0.02297187 54.17724609 -0.00390625 C62.96663954 0.01786923 71.75566191 0.01080393 80.54504639 -0.01121187 C88.09854192 -0.02937323 95.65192586 -0.03192084 103.20543617 -0.0214572 C107.71378183 -0.01522731 112.22195315 -0.01437287 116.73028755 -0.02760315 C120.96824107 -0.03917206 125.20571678 -0.03111718 129.44361877 -0.00802612 C130.9972142 -0.00274489 132.55084996 -0.00424283 134.10442924 -0.01307678 C136.22853012 -0.02403982 138.35110856 -0.01026269 140.47511292 0.00964355 C141.66250848 0.01115166 142.84990404 0.01265976 144.07328129 0.01421356 C150.55438312 1.01359837 153.32540569 4.50227713 157.33764648 9.51757812 C157.33764648 13.80757812 157.33764648 18.09757812 157.33764648 22.51757812 C96.61764648 22.51757812 35.89764648 22.51757812 -26.66235352 22.51757812 C-26.66235352 9.54321915 -26.66235352 9.54321915 -22.66235352 4.51757812 C-15.94686215 -0.90580774 -8.21286061 -0.04676642 0 0 Z " fill="#68C6EE" transform="translate(189.662353515625,173.482421875)"/>
<path d="M0 0 C0.85787613 -0.00233643 1.71575226 -0.00467285 2.59962463 -0.00708008 C5.40893307 -0.00868308 8.21656209 0.02520497 11.02563477 0.06005859 C12.98478097 0.06685296 14.94393536 0.07157217 16.90309143 0.0743103 C20.99423195 0.08495683 25.08482156 0.11158084 29.17578125 0.15136719 C34.4307476 0.20246864 39.68539907 0.22742173 44.94058132 0.24230385 C49.94814306 0.25705231 54.95563027 0.28228843 59.96313477 0.31005859 C61.40257352 0.31742476 61.40257352 0.31742476 62.87109184 0.32493973 C65.56909303 0.34113685 68.26692227 0.36453469 70.96484375 0.390625 C72.17489578 0.39701492 72.17489578 0.39701492 73.40939331 0.40353394 C78.91441301 0.46836809 78.91441301 0.46836809 80.02954102 1.58349609 C80.15454102 4.08349609 80.15454102 4.08349609 80.02954102 6.58349609 C78.0116139 8.60142321 73.86985965 7.73756998 71.10083008 7.74121094 C70.26990845 7.74629166 69.43898682 7.75137238 68.58288574 7.75660706 C66.77186398 7.76733556 64.96082875 7.77594594 63.1497879 7.78272629 C60.28344214 7.79448168 57.41724935 7.81392679 54.55096436 7.83584595 C46.39901828 7.89756734 38.24708588 7.95148734 30.0949707 7.98486328 C25.11405006 8.00580854 20.13340468 8.04111524 15.1526413 8.08562088 C13.25328564 8.09978738 11.35388124 8.10850478 9.4544754 8.11167526 C6.79463427 8.11658372 4.13552295 8.13974124 1.47583008 8.16699219 C0.29890594 8.16248299 0.29890594 8.16248299 -0.90179443 8.15788269 C-5.42865539 8.22676236 -8.36539955 8.7871247 -11.97045898 11.58349609 C-13.93054116 14.43611569 -14.25478672 16.60313979 -13.97045898 20.02099609 C-13.90858398 21.1328125 -13.90858398 21.1328125 -13.84545898 22.26708984 C-12.50429539 25.81758097 -10.23804315 27.82133232 -6.97045898 29.58349609 C-3.26405052 30.29942752 0.37526382 30.23335951 4.14038086 30.17944336 C5.80491051 30.18553116 5.80491051 30.18553116 7.50306702 30.19174194 C9.90768824 30.19725406 12.31235731 30.19126522 14.71693039 30.17508125 C18.52571126 30.14966725 22.33340951 30.15445872 26.14224243 30.16697693 C33.54306348 30.18596668 40.94347604 30.17206751 48.34426117 30.15150452 C58.39736205 30.12462626 68.4501016 30.11842993 78.50322342 30.14649773 C82.25023102 30.14985508 85.99657119 30.12864555 89.74349976 30.10609436 C92.04897201 30.10860634 94.35444344 30.11216709 96.65991211 30.11694336 C97.69705856 30.10405777 98.73420502 30.09117218 99.80278015 30.07789612 C106.04595029 30.12093749 110.83556786 30.96038979 116.02954102 34.58349609 C118.08813477 36.87255859 118.08813477 36.87255859 119.46704102 39.20849609 C119.94012695 39.98451172 120.41321289 40.76052734 120.90063477 41.56005859 C123.09021818 45.48464063 123.16386575 48.03302452 123.15454102 52.58349609 C123.15711914 53.84162109 123.15969727 55.09974609 123.16235352 56.39599609 C123.02954102 59.58349609 123.02954102 59.58349609 122.02954102 61.58349609 C120.36342196 61.6262171 118.69571217 61.62413441 117.02954102 61.58349609 C114.76591408 59.31986916 115.63778872 53.94378488 115.50610352 50.88037109 C115.00071934 47.38410679 113.95811148 45.49182161 112.02954102 42.58349609 C112.02954102 41.92349609 112.02954102 41.26349609 112.02954102 40.58349609 C106.35447167 38.16769935 101.03374886 38.29732033 94.97875977 38.31225586 C93.3240416 38.30441574 93.3240416 38.30441574 91.63589478 38.29641724 C89.24601663 38.28619344 86.85611633 38.28039966 84.46621704 38.27853584 C80.6834271 38.27486977 76.90089873 38.25813695 73.11816406 38.23777771 C63.72477412 38.18938699 54.33135523 38.15771115 44.93786621 38.13647461 C36.99643897 38.11849608 29.0552498 38.08910834 21.11392212 38.04243279 C18.60692322 38.03078109 16.09989096 38.02485242 13.59286499 38.02475166 C10.08848551 38.02455972 6.5846217 38.00630086 3.08032227 37.98413086 C2.045336 37.98870804 1.01034973 37.99328522 -0.05599976 37.9980011 C-6.98051203 37.92832322 -11.33313432 36.9141551 -16.65795898 32.20849609 C-21.31318693 26.9241833 -22.60483104 23.43093095 -22.37670898 16.36865234 C-21.61572676 11.15153386 -19.29238897 7.50173538 -15.24285793 4.15625572 C-10.0599418 0.71001076 -6.16151772 -0.12754285 0 0 Z " fill="#2F1A66" transform="translate(189.970458984375,72.41650390625)"/>
<path d="M0 0 C6.27 0 12.54 0 19 0 C19.71468996 4.91094103 20.42765611 9.82206853 21.13623047 14.73388672 C21.37772936 16.40428105 21.62023392 18.07453031 21.86376953 19.74462891 C22.21391929 22.147085 22.56043298 24.5500419 22.90625 26.953125 C23.0156189 27.69806213 23.12498779 28.44299927 23.2376709 29.21051025 C23.71175833 32.52769143 24 35.63943722 24 39 C17.73 39 11.46 39 5 39 C4.34784308 34.93842735 3.70315448 30.87588982 3.0625 26.8125 C2.88009766 25.68134766 2.69769531 24.55019531 2.50976562 23.38476562 C1.28890989 15.59348627 0.51811465 7.86988884 0 0 Z " fill="#A4DFF6" transform="translate(164,237)"/>
<path d="M0 0 C9.89554874 4.29652464 20.0392638 3.5708569 30.625 3 C27.96470349 8.6983866 25.10407421 12.3060798 19.32543945 15.11962891 C14.0066624 16.85360504 8.35687932 16.36931637 2.8125 16.375 C1.56662109 16.39949219 0.32074219 16.42398437 -0.96289062 16.44921875 C-8.87460999 16.47440194 -14.73674969 16.02513984 -20.92089844 10.65844727 C-24.31725189 7.06844208 -25.08495647 3.83405882 -25.375 -1 C-16.64092934 -4.88180918 -8.48863537 -3.72060551 0 0 Z " fill="#F6BE63" transform="translate(255.375,351)"/>
<path d="M0 0 C5.94 0 11.88 0 18 0 C19.15738695 4.80192459 20.11898144 9.50067255 20.67578125 14.41015625 C20.78212891 15.33763672 20.88847656 16.26511719 20.99804688 17.22070312 C21.20797175 19.11785032 21.40586276 21.01636712 21.59179688 22.91601562 C22.35973123 29.36935871 24.06806293 33.80969459 28 39 C25.79229195 39.08165496 23.58369575 39.13948488 21.375 39.1875 C19.53035156 39.23970703 19.53035156 39.23970703 17.6484375 39.29296875 C12.55354477 38.88384995 9.30233586 37.33851186 5.75 33.6875 C-0.39133601 24.25616256 -0.33588943 10.91640647 0 0 Z " fill="#A4DFF6" transform="translate(185,391)"/>
<path d="M0 0 C1.94712891 -0.04350586 1.94712891 -0.04350586 3.93359375 -0.08789062 C17.03034115 -0.17466826 17.03034115 -0.17466826 22.75 4.3125 C24.84375 6.56640625 24.84375 6.56640625 26.25 8.875 C26.97703125 10.02162109 26.97703125 10.02162109 27.71875 11.19140625 C28.75 13.3125 28.75 13.3125 28.75 16.3125 C20.57630788 19.43588312 11.3053247 19.96200705 3.0390625 16.96875 C1.23631479 16.13972068 -0.56649402 15.3106061 -2.359375 14.46044922 C-10.3095291 10.97387056 -18.75685349 11.81881872 -27.25 12.3125 C-26.00898266 8.70003368 -24.81873323 6.50489875 -21.875 4.0625 C-21.28976563 3.56234375 -20.70453125 3.0621875 -20.1015625 2.546875 C-14.44970044 -1.22103304 -6.48002081 0.04769397 0 0 Z " fill="#FBC263" transform="translate(258.25,329.6875)"/>
<path d="M0 0 C1.2684375 0.7425 1.2684375 0.7425 2.5625 1.5 C0.78600185 8.60599262 -3.80303049 14.87838825 -9.54296875 19.421875 C-12.97070682 21.37250532 -16.78173678 22.31497236 -20.53125 23.484375 C-28.14284732 26.14434181 -31.60260911 30.63453991 -35.4375 37.5 C-36.0975 38.49 -36.7575 39.48 -37.4375 40.5 C-39.45284562 36.46930876 -39.01626777 31.87291206 -38.4375 27.5 C-37.00562486 24.01475499 -34.84212559 21.38021697 -32.4375 18.5 C-31.98165527 17.943125 -31.52581055 17.38625 -31.05615234 16.8125 C-12.70717572 -5.54494941 -12.70717572 -5.54494941 0 0 Z " fill="#FAC162" transform="translate(259.4375,301.5)"/>
<path d="M0 0 C1.27479721 -0.00637985 2.54959442 -0.0127597 3.86302185 -0.01933289 C5.26553306 -0.02086144 6.66804478 -0.02197547 8.07055664 -0.02270508 C9.49923232 -0.02591598 10.92790767 -0.02927992 12.35658264 -0.03279114 C15.35524254 -0.03878872 18.35387359 -0.0406304 21.35253906 -0.04003906 C25.20079238 -0.03993742 29.04886129 -0.0535893 32.89707088 -0.07081127 C35.84897211 -0.08191339 38.80082852 -0.08395882 41.75274849 -0.08342934 C43.17176512 -0.08461217 44.59078281 -0.08905087 46.00977898 -0.0967617 C47.99217238 -0.10652487 49.97461955 -0.10242885 51.95703125 -0.09765625 C53.6512748 -0.09979378 53.6512748 -0.09979378 55.37974548 -0.10197449 C58.04321289 0.14526367 58.04321289 0.14526367 60.04321289 2.14526367 C59.48765734 6.70081923 59.48765734 6.70081923 58.04321289 8.14526367 C56.05978089 8.24982187 54.07260048 8.28381972 52.08642578 8.29052734 C50.81162857 8.2969072 49.53683136 8.30328705 48.22340393 8.30986023 C46.82089272 8.31138879 45.418381 8.31250281 44.01586914 8.31323242 C42.58719346 8.31644332 41.15851811 8.31980726 39.72984314 8.32331848 C36.73118324 8.32931606 33.73255219 8.33115775 30.73388672 8.33056641 C26.8856334 8.33046476 23.03756449 8.34411664 19.1893549 8.36133862 C16.23745367 8.37244073 13.28559727 8.37448617 10.33367729 8.37395668 C8.91466066 8.37513952 7.49564298 8.37957821 6.0766468 8.38728905 C4.0942534 8.39705222 2.11180623 8.3929562 0.12939453 8.38818359 C-1.56484901 8.39032112 -1.56484901 8.39032112 -3.2933197 8.39250183 C-5.95678711 8.14526367 -5.95678711 8.14526367 -7.95678711 6.14526367 C-7.19963907 -0.06335026 -6.00446479 0.02027802 0 0 Z " fill="#EFF9FD" transform="translate(270.956787109375,246.854736328125)"/>
<path d="M0 0 C1.0528418 0.01353516 1.0528418 0.01353516 2.12695312 0.02734375 C3.85561525 0.05086296 5.58410145 0.08673287 7.3125 0.125 C6.673125 1.1975 6.03375 2.27 5.375 3.375 C2.6096507 8.80798307 2.58633843 14.10055463 2.3125 20.125 C-3.2975 20.125 -8.9075 20.125 -14.6875 20.125 C-15.18213415 7.88280488 -15.18213415 7.88280488 -12.859375 4.32421875 C-8.67747911 0.08967309 -5.66256549 -0.13746658 0 0 Z " fill="#A4DFF6" transform="translate(178.6875,174.875)"/>
<path d="M0 0 C3.64331077 1.61924923 6.20425519 3.40851039 8 7 C8 9.97 8 12.94 8 16 C0.41 16 -7.18 16 -15 16 C-15 6 -15 6 -12 2.375 C-7.86216259 -0.58179475 -4.98118409 -0.72307511 0 0 Z " fill="#FCF9FD" transform="translate(313,151)"/>
<path d="M0 0 C0.15855469 0.64066406 0.31710938 1.28132813 0.48046875 1.94140625 C2.10165658 7.95144511 4.09827283 12.14920406 8 17 C2.26763402 17.45858928 -0.55296547 16.65645061 -5 13 C-8.78575609 9.21424391 -9.58419203 6.30155158 -10 1 C-6.52674819 -0.1577506 -3.63932552 -0.06866652 0 0 Z " fill="#F9D69D" transform="translate(240,349)"/>
<path d="M0 0 C3.9125631 3.74245166 3.9125631 3.74245166 4.1328125 6.91015625 C4.11111111 12.88888889 4.11111111 12.88888889 3 14 C0.98035801 14.07244053 -1.04167124 14.08377188 -3.0625 14.0625 C-4.16722656 14.05347656 -5.27195312 14.04445313 -6.41015625 14.03515625 C-7.69212891 14.01775391 -7.69212891 14.01775391 -9 14 C-8.60167969 13.49210937 -8.20335937 12.98421875 -7.79296875 12.4609375 C-4.71433825 8.46096502 -2.08404386 4.63120857 0 0 Z " fill="#EEB762" transform="translate(267,309)"/>
<path d="M0 0 C-0.40992188 0.45890625 -0.81984375 0.9178125 -1.2421875 1.390625 C-1.78101563 2.00421875 -2.31984375 2.6178125 -2.875 3.25 C-3.40867188 3.85328125 -3.94234375 4.4565625 -4.4921875 5.078125 C-6.09117363 6.93092806 -6.09117363 6.93092806 -6.875 9.1875 C-8 11 -8 11 -10.3828125 11.609375 C-11.28773438 11.65578125 -12.19265625 11.7021875 -13.125 11.75 C-14.03507813 11.80671875 -14.94515625 11.8634375 -15.8828125 11.921875 C-16.93082031 11.96054687 -16.93082031 11.96054687 -18 12 C-16.63835184 6.85599584 -13.3115928 3.8743952 -9 1 C-5.93935941 0.00500087 -3.21148348 -0.08920787 0 0 Z " fill="#FAD79E" transform="translate(249,330)"/>
</svg>
