<?xml version="1.0" encoding="UTF-8"?>
<svg version="1.1" xmlns="http://www.w3.org/2000/svg" width="512" height="512">
<path d="M0 0 C2.06747485 2.48096983 3.71007585 5.10895876 5.25 7.9375 C5.60578125 8.58589844 5.9615625 9.23429687 6.328125 9.90234375 C7.27519522 12.85918507 7.20196634 14.10216842 6 17 C3.72768847 19.14049676 1.16835409 20.79248887 -1.4375 22.5 C-2.98909841 23.55478854 -4.53985141 24.61082154 -6.08984375 25.66796875 C-6.89663574 26.21243652 -7.70342773 26.7569043 -8.53466797 27.31787109 C-12.57640398 30.07560145 -16.53751985 32.94258313 -20.5 35.8125 C-21.21599365 36.32683594 -21.9319873 36.84117188 -22.66967773 37.37109375 C-24.03346772 38.35502825 -25.38875082 39.3509131 -26.73329163 40.36099243 C-29 42 -29 42 -31.30493164 43.38998413 C-34.91615608 45.74231616 -37.48541695 47.61217595 -39.01403809 51.73484802 C-39.59785988 55.04550833 -39.9203294 58.29108633 -40.15625 61.64453125 C-40.27432007 62.85066574 -40.39239014 64.05680023 -40.51403809 65.29948425 C-40.88135743 69.13473854 -41.19193814 72.97207576 -41.5 76.8125 C-41.84945843 80.66878341 -42.21018637 84.52390067 -42.57165527 88.3790741 C-42.79179916 90.77428334 -43.00243323 93.17038891 -43.20275879 95.56733704 C-43.29375854 96.64573349 -43.3847583 97.72412994 -43.47851562 98.83520508 C-43.55573853 99.78671951 -43.63296143 100.73823395 -43.71252441 101.71858215 C-44 104 -44 104 -45 106 C-44.16427822 105.99723462 -44.16427822 105.99723462 -43.31167316 105.99441338 C-29.74898182 105.95022607 -16.18630311 105.91726711 -2.62355518 105.89637566 C3.93531665 105.88593337 10.49413656 105.87176593 17.05297852 105.84912109 C23.38124922 105.82740877 29.70946996 105.81543472 36.03777504 105.81024551 C38.45352274 105.80654688 40.86926767 105.7993245 43.28499413 105.78853989 C46.66556102 105.77404656 50.04592076 105.77202118 53.42651367 105.77294922 C54.92839485 105.76216339 54.92839485 105.76216339 56.46061707 105.75115967 C65.23868079 105.77727802 65.23868079 105.77727802 69 108 C71.92870009 112.34255531 72.56527723 115.81829205 72 121 C70.34860695 124.5386994 69.28394771 125.81070153 66 128 C64.0103005 128.39013716 62.00980131 128.73202649 60 129 C60.38671875 129.59425781 60.7734375 130.18851563 61.171875 130.80078125 C69.17472163 143.53798517 72.31376561 156.28666791 72.26742554 171.23123169 C72.27195665 172.31879537 72.27648776 173.40635904 72.28115618 174.52687919 C72.29375289 178.14833452 72.29218285 181.76963855 72.29052734 185.39111328 C72.29651559 187.99713839 72.30332182 190.60316172 72.31088257 193.20918274 C72.32743941 199.54054219 72.33298972 205.87186439 72.33410732 212.20324369 C72.33506046 217.35495178 72.33918394 222.50664767 72.34550858 227.6583519 C72.36310751 242.29334609 72.37234971 256.92831104 72.37084763 271.56331588 C72.37076772 272.35098609 72.3706878 273.13865631 72.37060547 273.95019531 C72.37052371 274.73883747 72.37044195 275.52747964 72.37035771 276.34002005 C72.36954549 289.10971556 72.38867054 301.87929292 72.4168822 314.64895429 C72.44568123 327.78914071 72.45941861 340.92926965 72.45769465 354.06948841 C72.4570331 361.43526318 72.46242141 368.80091413 72.48405075 376.16666031 C72.5042789 383.09919911 72.50351746 390.03147347 72.48901749 396.9640255 C72.48693546 399.49870753 72.4915938 402.03340613 72.5037384 404.56805992 C72.58544165 422.81146296 71.68989133 438.99783661 62 455 C61.34 455.66 60.68 456.32 60 457 C61.85625 457.309375 61.85625 457.309375 63.75 457.625 C67.13031745 458.48805977 67.97307042 458.97172394 70.5 461.625 C72.43296814 465.97417832 72.52602634 468.26576298 72 473 C69.86111111 477.56944444 69.86111111 477.56944444 67 479 C64.429516 479.10861302 61.88547125 479.1566232 59.31425476 479.16062927 C58.11029351 479.168261 58.11029351 479.168261 56.8820098 479.17604691 C54.17744516 479.19181311 51.47290731 479.20030737 48.76831055 479.20874023 C46.83526437 479.21827522 44.90221992 479.22816622 42.96917725 479.23838806 C36.60837845 479.26981016 30.2475664 479.29004196 23.88671875 479.30859375 C22.80555794 479.31189107 21.72439713 479.31518839 20.61047387 479.31858563 C10.41965014 479.34936459 0.22882353 479.37608 -9.96203327 479.39300442 C-23.01091166 479.41492718 -36.05937939 479.45692942 -49.10809356 479.52644199 C-58.27586217 479.57362761 -67.44351976 479.59793061 -76.61140603 479.6052013 C-82.09076328 479.61016527 -87.56965799 479.62531714 -93.04888344 479.6649456 C-98.20278418 479.70172976 -103.35595662 479.71024863 -108.50996399 479.69693947 C-110.40264991 479.69699355 -112.29536743 479.7073446 -114.18793297 479.7286911 C-116.7706086 479.75626667 -119.35060847 479.74691371 -121.93330383 479.72825623 C-122.6838922 479.74505115 -123.43448057 479.76184608 -124.20781404 479.77914995 C-127.07245512 479.72736433 -129.3283244 479.55523064 -131.584391 477.69028676 C-134.71318001 474.05137332 -135.81088008 471.62241623 -135.48046875 466.9609375 C-134.58874127 463.3215294 -132.74205802 461.45034972 -130 459 C-127.63427189 457.98332346 -125.5510133 457.50019869 -123 457 C-123.38671875 456.39414062 -123.7734375 455.78828125 -124.171875 455.1640625 C-132.08237373 442.43677493 -135.31694177 430.66411487 -135.26069641 415.71061707 C-135.26452196 414.61685314 -135.26834751 413.52308921 -135.27228898 412.39618093 C-135.28255646 408.75389832 -135.2786387 405.1117752 -135.2746582 401.46948242 C-135.27900815 398.84873815 -135.28419224 396.22799515 -135.29014587 393.60725403 C-135.30285826 387.24080133 -135.30469087 380.87439087 -135.30234561 374.50792762 C-135.30055829 369.32949716 -135.30232095 364.15107946 -135.30657005 358.97265053 C-135.30716524 358.23396201 -135.30776043 357.4952735 -135.30837366 356.73420048 C-135.30958549 355.23325433 -135.31079962 353.73230817 -135.31201603 352.23136202 C-135.32287839 338.1730644 -135.32073536 324.1147908 -135.31463119 310.05649183 C-135.30946407 297.21689155 -135.32071436 284.37736718 -135.33972941 271.53778192 C-135.35913729 258.33094046 -135.36735858 245.12413486 -135.36360615 231.91727906 C-135.36169847 224.51194243 -135.36413927 217.10667039 -135.37832069 209.70134544 C-135.39152686 202.73519651 -135.3889345 195.76920151 -135.37590981 188.8030529 C-135.37354911 186.2526011 -135.37626044 183.70213855 -135.38453293 181.15169907 C-135.47333739 151.63484687 -135.47333739 151.63484687 -128.5 138.4375 C-127.9121875 137.30183594 -127.324375 136.16617188 -126.71875 134.99609375 C-125.28261745 132.4926536 -123.80200281 130.2470096 -122 128 C-122.886875 128.061875 -123.77375 128.12375 -124.6875 128.1875 C-128.42581453 127.97589729 -130.06716504 127.28109386 -133 125 C-135.57073939 121.57234748 -135.43037452 118.16028704 -135 114 C-133.30588079 110.67450673 -132.12227923 108.58205029 -128.77534485 106.84622192 C-125.48482541 105.84291969 -122.72289243 105.75998911 -119.28198242 105.77294922 C-118.62776306 105.77265717 -117.9735437 105.77236511 -117.29949951 105.77206421 C-115.15135121 105.77345018 -113.00355596 105.78897629 -110.85546875 105.8046875 C-109.3604603 105.80842025 -107.8654494 105.81126598 -106.37043762 105.81326294 C-102.44622986 105.82087882 -98.52217145 105.84050959 -94.59802246 105.8626709 C-90.5894574 105.88317351 -86.58086807 105.89227408 -82.57226562 105.90234375 C-74.71477541 105.92375755 -66.85740631 105.95786862 -59 106 C-58.94059235 105.13230988 -58.88118469 104.26461975 -58.81997681 103.37063599 C-58.02783418 92.01312625 -57.05112818 80.69798784 -55.7578125 69.38623047 C-55.50249807 67.04443699 -55.27235213 64.69976332 -55.06738281 62.35302734 C-53.15075045 40.6987093 -53.15075045 40.6987093 -45.76005554 34.27165222 C-43.18086682 32.36055136 -40.542044 30.64354661 -37.76367188 29.03686523 C-35.47679663 27.69240799 -33.4439766 26.10205885 -31.37890625 24.44140625 C-30.10770564 23.48053287 -28.83559315 22.52086448 -27.5625 21.5625 C-20.95779826 16.55551146 -14.48873959 11.4021374 -8.08813477 6.13696289 C-7.46350342 5.62383545 -6.83887207 5.11070801 -6.1953125 4.58203125 C-5.64891113 4.13061768 -5.10250977 3.6792041 -4.53955078 3.21411133 C-3.08371818 2.06602133 -1.54267582 1.02845055 0 0 Z " fill="#AA2929" transform="translate(287,16)"/>
<path d="M0 0 C3.89908131 2.89507077 7.64784664 5.96185357 11.375 9.07421875 C14.62916816 11.75701033 17.94346696 14.34953204 21.28515625 16.921875 C22.12626953 17.57240845 22.12626953 17.57240845 22.984375 18.23608398 C29.92259421 23.56044094 36.76608078 22.96139253 45.22265625 22.421875 C54.64296554 21.0900803 64.92684846 16.40504667 72.5078125 10.703125 C74.22265625 9.421875 74.22265625 9.421875 76.22265625 9.421875 C76.22265625 37.471875 76.22265625 65.521875 76.22265625 94.421875 C63.23355982 99.06083801 53.39312502 101.55174173 40.03515625 101.734375 C38.78774658 101.76108276 38.78774658 101.76108276 37.51513672 101.78833008 C24.33701268 101.77133111 14.95377496 95.32300755 5.48046875 86.69140625 C1.37435425 82.56397974 -2.1688821 77.98238465 -5.77734375 73.421875 C-11.82392912 65.81783582 -18.17632491 59.71085896 -28.01171875 58.04296875 C-37.54834037 57.34697307 -44.78027361 61.87509472 -52.77734375 66.421875 C-53.48761719 66.81761719 -54.19789063 67.21335937 -54.9296875 67.62109375 C-63.95445423 72.66386576 -72.51181224 78.14813328 -80.82421875 84.29296875 C-83.41372914 86.15974542 -86.03159939 87.8008899 -88.77734375 89.421875 C-89.12581617 79.53890218 -89.39185247 69.65740214 -89.55452633 59.76952457 C-89.63263392 55.17706068 -89.73840697 50.58881452 -89.90893555 45.9987793 C-90.07267671 41.56336564 -90.16174109 37.13198819 -90.2005024 32.69378471 C-90.22809454 31.00638661 -90.28199395 29.3191958 -90.3632946 27.63353157 C-90.86012266 16.89946556 -90.86012266 16.89946556 -88.77734375 12.421875 C-85.14895047 8.49718302 -80.38023155 6.26457989 -75.53377914 4.17885494 C-73.33820404 3.23261671 -71.25437517 2.11247151 -69.15625 0.96875 C-67.88932881 0.35883991 -66.61726254 -0.24051897 -65.33984375 -0.828125 C-64.64665039 -1.15111572 -63.95345703 -1.47410645 -63.23925781 -1.80688477 C-40.74866181 -11.98761434 -20.65764455 -14.99066412 0 0 Z " fill="#FEFEFE" transform="translate(261.77734375,275.578125)"/>
<path d="M0 0 C2.06747485 2.48096983 3.71007585 5.10895876 5.25 7.9375 C5.60578125 8.58589844 5.9615625 9.23429687 6.328125 9.90234375 C7.27519522 12.85918507 7.20196634 14.10216842 6 17 C3.72768847 19.14049676 1.16835409 20.79248887 -1.4375 22.5 C-2.98909841 23.55478854 -4.53985141 24.61082154 -6.08984375 25.66796875 C-6.89663574 26.21243652 -7.70342773 26.7569043 -8.53466797 27.31787109 C-12.57640398 30.07560145 -16.53751985 32.94258313 -20.5 35.8125 C-21.21599365 36.32683594 -21.9319873 36.84117188 -22.66967773 37.37109375 C-24.03346772 38.35502825 -25.38875082 39.3509131 -26.73329163 40.36099243 C-29 42 -29 42 -31.30493164 43.38998413 C-34.91615608 45.74231616 -37.48541695 47.61217595 -39.01403809 51.73484802 C-39.59785988 55.04550833 -39.9203294 58.29108633 -40.15625 61.64453125 C-40.27432007 62.85066574 -40.39239014 64.05680023 -40.51403809 65.29948425 C-40.88135743 69.13473854 -41.19193814 72.97207576 -41.5 76.8125 C-41.84945843 80.66878341 -42.21018637 84.52390067 -42.57165527 88.3790741 C-42.79179916 90.77428334 -43.00243323 93.17038891 -43.20275879 95.56733704 C-43.29375854 96.64573349 -43.3847583 97.72412994 -43.47851562 98.83520508 C-43.55573853 99.78671951 -43.63296143 100.73823395 -43.71252441 101.71858215 C-44 104 -44 104 -45 106 C-44.16427822 105.99723462 -44.16427822 105.99723462 -43.31167316 105.99441338 C-29.74898182 105.95022607 -16.18630311 105.91726711 -2.62355518 105.89637566 C3.93531665 105.88593337 10.49413656 105.87176593 17.05297852 105.84912109 C23.38124922 105.82740877 29.70946996 105.81543472 36.03777504 105.81024551 C38.45352274 105.80654688 40.86926767 105.7993245 43.28499413 105.78853989 C46.66556102 105.77404656 50.04592076 105.77202118 53.42651367 105.77294922 C54.92839485 105.76216339 54.92839485 105.76216339 56.46061707 105.75115967 C65.23868079 105.77727802 65.23868079 105.77727802 69 108 C71.92870009 112.34255531 72.56527723 115.81829205 72 121 C70.34860695 124.5386994 69.28394771 125.81070153 66 128 C63.400331 128.1954395 60.90786772 128.27392681 58.30789185 128.26069641 C57.51664724 128.26452196 56.72540264 128.26834751 55.91018093 128.27228898 C53.25011227 128.28263488 50.59025883 128.27862383 47.93017578 128.2746582 C46.02653808 128.27900383 44.12290213 128.28418648 42.2192688 128.29014587 C37.04157027 128.30356399 31.86394462 128.30411136 26.68623209 128.30158257 C22.36704635 128.30051465 18.04787546 128.30539172 13.72869289 128.310188 C3.53998323 128.32129317 -6.64868956 128.32171508 -16.83740234 128.31567383 C-27.354627 128.30963373 -37.87171788 128.32194369 -48.38891971 128.3432439 C-57.41234691 128.36084806 -66.43573149 128.36686308 -75.45917523 128.36360615 C-80.85116594 128.36179107 -86.24306127 128.36445178 -91.63503647 128.37832069 C-96.70591556 128.39087493 -101.7765859 128.38897771 -106.8474617 128.37590981 C-108.709481 128.37353913 -110.57151487 128.37629623 -112.43351746 128.38453293 C-114.9738969 128.39496076 -117.51357076 128.38693183 -120.05392456 128.3742218 C-120.79215796 128.38159609 -121.53039137 128.38897037 -122.29099548 128.39656812 C-126.70230303 128.35008321 -129.4741236 127.68149371 -133 125 C-135.57073939 121.57234748 -135.43037452 118.16028704 -135 114 C-133.30588079 110.67450673 -132.12227923 108.58205029 -128.77534485 106.84622192 C-125.48482541 105.84291969 -122.72289243 105.75998911 -119.28198242 105.77294922 C-118.62776306 105.77265717 -117.9735437 105.77236511 -117.29949951 105.77206421 C-115.15135121 105.77345018 -113.00355596 105.78897629 -110.85546875 105.8046875 C-109.3604603 105.80842025 -107.8654494 105.81126598 -106.37043762 105.81326294 C-102.44622986 105.82087882 -98.52217145 105.84050959 -94.59802246 105.8626709 C-90.5894574 105.88317351 -86.58086807 105.89227408 -82.57226562 105.90234375 C-74.71477541 105.92375755 -66.85740631 105.95786862 -59 106 C-58.94059235 105.13230988 -58.88118469 104.26461975 -58.81997681 103.37063599 C-58.02783418 92.01312625 -57.05112818 80.69798784 -55.7578125 69.38623047 C-55.50249807 67.04443699 -55.27235213 64.69976332 -55.06738281 62.35302734 C-53.15075045 40.6987093 -53.15075045 40.6987093 -45.76005554 34.27165222 C-43.18086682 32.36055136 -40.542044 30.64354661 -37.76367188 29.03686523 C-35.47679663 27.69240799 -33.4439766 26.10205885 -31.37890625 24.44140625 C-30.10770564 23.48053287 -28.83559315 22.52086448 -27.5625 21.5625 C-20.95779826 16.55551146 -14.48873959 11.4021374 -8.08813477 6.13696289 C-7.46350342 5.62383545 -6.83887207 5.11070801 -6.1953125 4.58203125 C-5.64891113 4.13061768 -5.10250977 3.6792041 -4.53955078 3.21411133 C-3.08371818 2.06602133 -1.54267582 1.02845055 0 0 Z " fill="#C5C5C5" transform="translate(287,16)"/>
<path d="M0 0 C1.18558527 -0.00657338 1.18558527 -0.00657338 2.39512175 -0.01327956 C5.05823192 -0.02669309 7.72130897 -0.03285211 10.38444519 -0.03897095 C12.28793488 -0.04686984 14.19142307 -0.05513865 16.09490967 -0.06375122 C22.35831772 -0.0899937 28.62173254 -0.10528003 34.88517761 -0.11953735 C37.03895764 -0.12489592 39.19273763 -0.13027342 41.34651756 -0.13566971 C50.30324759 -0.15730076 59.2599758 -0.17603887 68.21672535 -0.1872921 C81.06586134 -0.20354033 93.91469535 -0.23673687 106.76371747 -0.29369295 C115.79136217 -0.33234999 124.81892595 -0.35191971 133.84665126 -0.35721266 C139.24211045 -0.36087163 144.63724774 -0.37295096 150.03261757 -0.4053154 C155.10766602 -0.4353218 160.18219652 -0.4417344 165.25731468 -0.42993164 C167.12096458 -0.42971029 168.984638 -0.43806603 170.84820557 -0.45558548 C173.39121208 -0.47819287 175.93232698 -0.4700226 178.4753418 -0.45410156 C179.21425732 -0.46798365 179.95317284 -0.48186574 180.71447974 -0.49616849 C184.65490244 -0.43530965 186.27635241 0.02908415 189.36269665 2.56690025 C192.63880248 6.67026108 193.00180535 9.9909693 192.42814636 15.15390015 C190.28925747 19.72334459 190.28925747 19.72334459 187.42814636 21.15390015 C184.85766236 21.26251317 182.31361761 21.31052335 179.74240112 21.31452942 C178.93976029 21.31961724 178.13711945 21.32470506 177.31015617 21.32994705 C174.60559152 21.34571326 171.90105367 21.35420752 169.19645691 21.36264038 C167.26341073 21.37217536 165.33036628 21.38206636 163.39732361 21.39228821 C157.03652481 21.42371031 150.67571276 21.4439421 144.31486511 21.4624939 C143.2337043 21.46579122 142.15254349 21.46908854 141.03862023 21.47248578 C130.8477965 21.50326474 120.65696989 21.52998015 110.46611309 21.54690456 C97.4172347 21.56882732 84.36876697 21.61082957 71.3200528 21.68034214 C62.15228419 21.72752776 52.9846266 21.75183076 43.81674033 21.75910145 C38.33738308 21.76406541 32.85848837 21.77921729 27.37926292 21.81884575 C22.22536218 21.8556299 17.07218974 21.86414878 11.91818237 21.85083961 C10.02549645 21.8508937 8.13277893 21.86124475 6.24021339 21.88259125 C3.65753776 21.91016681 1.07753789 21.90081386 -1.50515747 21.88215637 C-2.25574584 21.8989513 -3.00633421 21.91574623 -3.77966768 21.9330501 C-6.64430876 21.88126448 -8.90017804 21.70913079 -11.15624464 19.8441869 C-14.28800736 16.20181492 -15.35806125 13.77856157 -15.07185364 9.1187439 C-14.16789574 5.56647184 -12.17076349 3.69093119 -9.57185364 1.15390015 C-6.5234312 -0.37031107 -3.34508405 0.00223313 0 0 Z " fill="#C4C2C2" transform="translate(166.5718536376953,473.8460998535156)"/>
<path d="M0 0 C63.03 0 126.06 0 191 0 C188.232306 6.919235 188.232306 6.919235 185 10 C182.33625306 10.49378526 180.30761396 10.65720899 177.64752197 10.60127258 C176.53371096 10.60768077 176.53371096 10.60768077 175.39739871 10.61421841 C172.90787452 10.62245811 170.42003313 10.59494961 167.93066406 10.56762695 C166.1468459 10.56621668 164.36302484 10.56700805 162.57920837 10.56983948 C157.73430484 10.57127587 152.89001845 10.54185004 148.04525852 10.50696969 C142.98306457 10.4757433 137.92085695 10.47277838 132.85858154 10.46684265 C123.27147574 10.45129328 113.68465453 10.41024995 104.09767413 10.3600952 C93.18368171 10.30423581 82.26967579 10.27672379 71.35557604 10.25161803 C48.90355949 10.19933512 26.45179568 10.1113715 4 10 C3.32845067 8.71086513 2.66291141 7.41859796 2 6.125 C1.62875 5.40570313 1.2575 4.68640625 0.875 3.9453125 C0 2 0 2 0 0 Z " fill="#801C1C" transform="translate(161,464)"/>
<path d="M0 0 C0.72691105 -0.00991665 1.4538221 -0.0198333 2.20276076 -0.03005046 C4.63355496 -0.05697516 7.06288172 -0.04825114 9.49378967 -0.03947449 C11.23847913 -0.05116351 12.9831557 -0.0649333 14.72781372 -0.08062744 C19.46343214 -0.11624061 24.19856112 -0.11974261 28.93429255 -0.11531663 C32.88817773 -0.11412733 36.84196096 -0.1275726 40.7958203 -0.14069957 C50.12360131 -0.17103123 59.45113244 -0.17434903 68.77894592 -0.1615448 C78.40131145 -0.14886046 88.02267438 -0.18405096 97.64484876 -0.2424286 C105.9074566 -0.29072959 114.16974305 -0.30810463 122.4324885 -0.30095404 C127.36698975 -0.29707218 132.30073589 -0.30520681 137.23510551 -0.34356117 C141.87557294 -0.37838239 146.51443525 -0.37461132 151.15489769 -0.34122276 C152.8568647 -0.33544228 154.5589413 -0.34329072 156.26076889 -0.36582947 C169.10632893 -0.5240097 169.10632893 -0.5240097 173.05497932 2.43174171 C175.12183314 5.08070403 176.68153381 7.23262023 176.68153381 10.65510559 C113.98153381 10.65510559 51.28153381 10.65510559 -13.31846619 10.65510559 C-11.67539902 2.43976974 -8.20858339 0.03650013 0 0 Z " fill="#832222" transform="translate(174.31846618652344,142.3448944091797)"/>
<path d="M0 0 C2.06747485 2.48096983 3.71007585 5.10895876 5.25 7.9375 C5.60578125 8.58589844 5.9615625 9.23429687 6.328125 9.90234375 C7.27519522 12.85918507 7.20196634 14.10216842 6 17 C3.72768847 19.14049676 1.16835409 20.79248887 -1.4375 22.5 C-2.98909841 23.55478854 -4.53985141 24.61082154 -6.08984375 25.66796875 C-6.89663574 26.21243652 -7.70342773 26.7569043 -8.53466797 27.31787109 C-12.57640398 30.07560145 -16.53751985 32.94258313 -20.5 35.8125 C-21.21599365 36.32683594 -21.9319873 36.84117188 -22.66967773 37.37109375 C-24.03344572 38.35501238 -25.38872709 39.35085254 -26.73329163 40.3608551 C-29 42 -29 42 -31.30493164 43.39122009 C-34.91112901 45.7417692 -37.48388354 47.6115352 -39.01403809 51.72798157 C-39.59791054 55.02924172 -39.92034379 58.26519796 -40.15625 61.609375 C-40.27432007 62.81313782 -40.39239014 64.01690063 -40.51403809 65.25714111 C-40.88134546 69.0856715 -41.19187867 72.91629667 -41.5 76.75 C-41.73573856 79.34280036 -41.97528176 81.9352578 -42.21875 84.52734375 C-42.560667 88.1686829 -42.89681608 91.80949323 -43.20275879 95.45404053 C-43.33925842 97.07152191 -43.33925842 97.07152191 -43.47851562 98.72167969 C-43.55573853 99.67097351 -43.63296143 100.62026733 -43.71252441 101.59832764 C-44 104 -44 104 -45 107 C-49.62 107 -54.24 107 -59 107 C-58.27810527 94.40041869 -57.19654433 81.84944473 -55.7578125 69.31079102 C-55.50230491 66.97586224 -55.27219697 64.63801615 -55.06738281 62.2980957 C-53.15278193 40.70447802 -53.15278193 40.70447802 -45.76005554 34.27618408 C-43.18081476 32.36424032 -40.54177778 30.64609604 -37.76367188 29.03787231 C-35.47736524 27.69244384 -33.44411351 26.10192472 -31.37890625 24.44140625 C-30.10770564 23.48053287 -28.83559315 22.52086448 -27.5625 21.5625 C-20.95779826 16.55551146 -14.48873959 11.4021374 -8.08813477 6.13696289 C-7.46350342 5.62383545 -6.83887207 5.11070801 -6.1953125 4.58203125 C-5.64891113 4.13061768 -5.10250977 3.6792041 -4.53955078 3.21411133 C-3.08371818 2.06602133 -1.54267582 1.02845055 0 0 Z " fill="#AA2828" transform="translate(287,16)"/>
<path d="M0 0 C4.23410406 0.73928801 5.97709109 1.63738173 8.9375 4.6875 C10.68893202 8.19036405 10.48168567 11.86539591 9.9375 15.6875 C8.66578656 18.74581573 7.68109587 19.50382165 4.9375 21.6875 C1.76535333 22.47910261 -0.889658 22.4749626 -4.0625 21.6875 C-7.95075604 18.6092973 -9.82719174 16.40188872 -10.5 11.5 C-9.99258421 7.07823387 -8.92766877 5.18294311 -5.91015625 2.015625 C-3.80731706 0.5040704 -2.57079236 0.13658859 0 0 Z " fill="#FDFAFA" transform="translate(293.0625,252.3125)"/>
<path d="M0 0 C3.375 1.0625 3.375 1.0625 5.3125 2.625 C6.85181792 6.15637641 7.05803974 9.27473417 6.375 13.0625 C4.8125 15.5625 4.8125 15.5625 2.375 17.0625 C-1.53114682 17.62052097 -3.67611671 17.64642818 -7.0625 15.5625 C-9.23532082 12.08598669 -9.50925242 8.98733969 -8.625 5.0625 C-5.9636004 1.11072483 -4.808262 0.08290107 0 0 Z " fill="#FCF8F8" transform="translate(311.625,227.9375)"/>
<path d="M0 0 C1.875 1.1875 1.875 1.1875 3 3 C3.5 5.875 3.5 5.875 3 9 C0.875 11.9375 0.875 11.9375 -2 14 C-5.54459212 14.07089184 -7.22015672 13.65406211 -9.9375 11.375 C-11.49800943 7.88680246 -10.99154664 5.63567102 -10 2 C-6.93558602 -1.63189805 -4.37003477 -1.30171248 0 0 Z " fill="#FBF6F6" transform="translate(321,253)"/>
<path d="M0 0 C1.8125 1.125 1.8125 1.125 3 3 C3.39310741 6.14485925 3.47555213 8.13281671 1.9375 10.9375 C-1.18142449 12.64787795 -3.65557801 11.80513863 -7 11 C-8.52150158 7.95699684 -8.23899393 5.345915 -8 2 C-4.76746204 -0.15502531 -3.74849077 -0.46856135 0 0 Z " fill="#FCF8F8" transform="translate(291,206)"/>
<path d="M0 0 C1.39935013 2.79870027 1.25265405 4.90498792 1 8 C-0.1875 9.875 -0.1875 9.875 -2 11 C-4.85480169 11.42822025 -6.34492892 11.40659584 -8.8125 9.875 C-10.55198782 7.12844028 -10.39769128 5.18153026 -10 2 C-7.65446208 -2.27715738 -4.20919664 -1.01332512 0 0 Z " fill="#FDFAFA" transform="translate(307,187)"/>
</svg>
