<?xml version="1.0" encoding="UTF-8"?>
<svg version="1.1" xmlns="http://www.w3.org/2000/svg" width="512" height="512">
<path d="M0 0 C9.10803889 4.6663983 20.12114442 11.22769644 25.38671875 20.390625 C25.87134769 23.96476345 26.12638931 26.18496199 24.21484375 29.30078125 C23.10973395 31.41649061 23.10973395 31.41649061 24.21484375 33.6875 C24.6840625 34.49703125 25.15328125 35.3065625 25.63671875 36.140625 C28.04540757 40.56421156 29.38391742 44.46778211 30.38671875 49.390625 C31.07894531 49.23078125 31.77117187 49.0709375 32.484375 48.90625 C35.64007991 48.34561333 38.61976063 48.18591769 41.82421875 48.140625 C42.91605469 48.11484375 44.00789063 48.0890625 45.1328125 48.0625 C56.50194604 49.20896725 66.26022468 61.46215809 73.12353516 69.76416016 C81.90272902 81.06817823 92.78152908 97.50303301 92.7578125 112.18359375 C92.18683037 115.57943482 89.81532775 117.08656005 87.38671875 119.390625 C87.66847464 121.39854052 88.01884205 123.39668973 88.38671875 125.390625 C88.54943105 129.24466589 88.52628247 133.09616605 88.51171875 136.953125 C88.51558594 137.98115234 88.51945312 139.00917969 88.5234375 140.06835938 C88.52150391 141.56012695 88.52150391 141.56012695 88.51953125 143.08203125 C88.51840332 143.98123291 88.51727539 144.88043457 88.51611328 145.80688477 C88.3850502 148.42394252 87.96551363 150.83835224 87.38671875 153.390625 C87.99 153.83792969 88.59328125 154.28523437 89.21484375 154.74609375 C97.3953614 160.93425952 101.81823606 166.30300906 104.38671875 176.390625 C105.13871399 183.70455126 104.15477507 191.10733229 103.38671875 198.390625 C103.96413818 198.36967773 104.54155762 198.34873047 105.13647461 198.32714844 C130.50040731 197.53334803 152.25111203 202.27160149 171.51171875 220.015625 C187.72108593 237.05369194 195.6507235 261.23744119 196.38671875 284.390625 C196.4640625 286.02064453 196.4640625 286.02064453 196.54296875 287.68359375 C197.54672325 326.03538037 182.88847256 364.23943352 156.84375 392.24609375 C139.56896613 410.33508581 115.28382235 426.75128821 89.77734375 429.69140625 C84.00400907 429.7230121 84.00400907 429.7230121 80.94921875 428.078125 C79.38671875 426.390625 79.38671875 426.390625 77.38671875 423.390625 C76.8345166 423.4620874 76.28231445 423.5335498 75.71337891 423.60717773 C68.05417791 424.49462816 60.46443428 424.50468798 52.76171875 424.453125 C51.47136719 424.44861328 50.18101562 424.44410156 48.8515625 424.43945312 C45.696565 424.42776795 42.54166738 424.41138544 39.38671875 424.390625 C38.06671875 427.030625 36.74671875 429.670625 35.38671875 432.390625 C36.06734375 433.07125 36.74796875 433.751875 37.44921875 434.453125 C37.90941406 434.91976563 38.36960937 435.38640625 38.84375 435.8671875 C39.85718036 436.86778963 40.89621189 437.84322685 41.9609375 438.7890625 C51.14864041 447.22718592 61.49014216 462.36660478 62.625 475.0546875 C62.86490632 484.62568698 61.2358693 491.72667616 54.57421875 498.828125 C49.63428924 503.70694198 44.26704097 505.71261775 37.39051586 505.79651731 C36.65373685 505.79050727 35.91695783 505.78449722 35.15785217 505.77830505 C34.35713946 505.78369059 33.55642675 505.78907613 32.73145002 505.79462487 C30.06307672 505.80886976 27.39520192 505.8018094 24.72680664 505.79467773 C22.8077403 505.80038311 20.88867736 505.80734802 18.96961975 505.81547546 C13.76713467 505.8334032 8.56481829 505.83223921 3.3623116 505.82653308 C-0.98413701 505.82344076 -5.33055324 505.82953415 -9.67699724 505.83557183 C-19.93207184 505.84961411 -30.18706312 505.84805813 -40.44213867 505.83666992 C-51.01509823 505.82518802 -61.58780416 505.83926634 -72.1607303 505.8660664 C-81.2454405 505.88823036 -90.33007112 505.89485922 -99.41480643 505.88898998 C-104.83759833 505.88562101 -110.26022763 505.88803172 -115.68299675 505.90524101 C-120.78272477 505.92071914 -125.8820773 505.9167448 -130.98179054 505.89793587 C-132.85061446 505.89425246 -134.71946625 505.89735122 -136.58826447 505.90782166 C-139.14508409 505.92105045 -141.70066401 505.90946804 -144.25743103 505.89183044 C-144.99197933 505.90143545 -145.72652762 505.91104046 -146.48333496 505.92093652 C-153.36238763 505.82370554 -159.43644597 503.11928946 -164.36328125 498.265625 C-169.68393495 492.5310074 -171.80481002 486.14220848 -172.11328125 478.390625 C-171.88300542 472.38042591 -170.30052535 467.72338581 -167.61328125 462.390625 C-167.17757812 461.49472656 -166.741875 460.59882813 -166.29296875 459.67578125 C-162.81613202 452.90259931 -158.52801537 447.18044635 -153.61328125 441.390625 C-152.69645306 440.26575663 -151.7797596 439.14077842 -150.86328125 438.015625 C-148.86842282 435.68829017 -146.79251628 433.54239068 -144.61328125 431.390625 C-145.20753906 430.33488281 -145.80179687 429.27914063 -146.4140625 428.19140625 C-149.17309652 423.27204971 -151.8970155 418.33369803 -154.61328125 413.390625 C-155.06203613 412.57803223 -155.51079102 411.76543945 -155.97314453 410.92822266 C-191.00797145 347.14094153 -208.19653991 274.61992146 -212.80078125 202.390625 C-212.84384399 201.7168985 -212.88690674 201.043172 -212.93127441 200.34902954 C-214.37416885 177.28360443 -214.37416885 177.28360443 -212.36328125 171.015625 C-212.13125 170.24476563 -211.89921875 169.47390625 -211.66015625 168.6796875 C-210.61328125 166.390625 -210.61328125 166.390625 -208.5859375 164.03515625 C-206.16662623 160.79184193 -205.85815439 158.4398321 -205.30078125 154.453125 C-203.57756336 144.28952817 -199.77620118 135.1627432 -192.17578125 127.953125 C-189.50299399 125.18305238 -188.67457039 123.9067757 -188.21484375 120.03515625 C-188.27320057 117.47541396 -188.37094471 114.91632774 -188.50390625 112.359375 C-188.8945897 98.18314686 -183.50102908 85.76857902 -174.36328125 75.140625 C-154.35536772 54.36188733 -126.87757587 44.85965945 -100.3687439 35.09063721 C-69.76848485 24.96076337 -69.76848485 24.96076337 -48.15234375 2.73046875 C-37.44763388 -13.54395058 -14.52588704 -6.46990861 0 0 Z M99.38671875 245.390625 C97.51781651 247.25952724 97.67804779 250.36685694 97.29296875 252.87890625 C97.07123889 254.28321277 96.84836416 255.68733886 96.62451172 257.09130859 C96.50541443 257.84079773 96.38631714 258.59028687 96.26361084 259.36248779 C89.79653088 299.52541075 78.86429821 339.41152304 62.11425781 376.54760742 C61.26432523 378.37043816 61.26432523 378.37043816 61.38671875 380.390625 C80.81007975 380.9108936 98.60466182 372.57583409 113.38671875 360.390625 C114.00546875 359.8853125 114.62421875 359.38 115.26171875 358.859375 C128.23130536 347.09067603 137.16847742 328.13675953 138.60644531 310.73095703 C139.30100505 294.03525835 137.74405566 281.56387131 128.38671875 267.390625 C125.8110194 263.39738619 124.96879703 261.19672476 125.38671875 256.390625 C125.71671875 255.400625 126.04671875 254.410625 126.38671875 253.390625 C117.36237075 248.71793888 109.68406296 245.61867521 99.38671875 245.390625 Z " fill="#ECF5FD" transform="translate(264.61328125,6.609375)"/>
<path d="M0 0 C9.10803889 4.6663983 20.12114442 11.22769644 25.38671875 20.390625 C25.87134769 23.96476345 26.12638931 26.18496199 24.21484375 29.30078125 C23.10973395 31.41649061 23.10973395 31.41649061 24.21484375 33.6875 C24.6840625 34.49703125 25.15328125 35.3065625 25.63671875 36.140625 C28.04540757 40.56421156 29.38391742 44.46778211 30.38671875 49.390625 C31.07894531 49.23078125 31.77117187 49.0709375 32.484375 48.90625 C35.64007991 48.34561333 38.61976063 48.18591769 41.82421875 48.140625 C42.91605469 48.11484375 44.00789063 48.0890625 45.1328125 48.0625 C56.50194604 49.20896725 66.26022468 61.46215809 73.12353516 69.76416016 C82.10652431 81.33058337 94.27980376 99.19107291 92.38671875 114.390625 C90.88671875 116.953125 90.88671875 116.953125 88.38671875 118.390625 C82.96844952 119.16466346 82.96844952 119.16466346 80.38671875 118.390625 C76.08396552 114.88974851 74.3894265 111.5675317 72.57421875 106.390625 C68.03493036 94.23613213 60.9437668 84.09067225 52.38671875 74.390625 C51.43925781 73.30007812 51.43925781 73.30007812 50.47265625 72.1875 C47.80856663 69.30042491 46.25379092 67.6750431 42.4453125 66.42578125 C39.29205619 66.05426928 39.29205619 66.05426928 37.18359375 68.26953125 C36.508125 69.15511719 35.83265625 70.04070312 35.13671875 70.953125 C24.63594563 83.41519955 7.72658387 88.49513078 -7.8046875 91.80078125 C-8.78483826 92.01127106 -9.76498901 92.22176086 -10.77484131 92.43862915 C-22.86502678 94.95885433 -35.07042916 96.78382755 -47.27609253 98.64120483 C-54.24272981 99.70272277 -61.20378014 100.80002495 -68.1640625 101.90234375 C-69.18571849 102.064117 -69.18571849 102.064117 -70.22801399 102.2291584 C-131.44275064 109.93197817 -131.44275064 109.93197817 -181.2109375 142.4296875 C-185.79971612 149.3596797 -186.83716539 155.92443348 -186.78125 164.1328125 C-187.68808647 167.68352429 -188.76001378 168.90009713 -191.125 171.6171875 C-195.28222283 176.69959255 -195.56022636 180.48243651 -195.23828125 186.890625 C-195.19924683 188.41478027 -195.19924683 188.41478027 -195.15942383 189.96972656 C-194.43196441 211.17177602 -192.22745454 232.4942714 -188.61328125 253.390625 C-188.43539062 254.45055664 -188.2575 255.51048828 -188.07421875 256.60253906 C-178.05642735 316.15830893 -158.22696517 377.78837915 -124.60595703 428.55078125 C-122.93987843 431.63872231 -123.03668936 433.99513943 -123.61328125 437.390625 C-125.64107487 440.77028103 -128.34012822 443.04295504 -131.30078125 445.578125 C-140.46775779 453.50356297 -150.38908365 463.89343772 -153.25 476.109375 C-153.43229114 479.88091589 -153.0334693 481.6994345 -151.04295254 484.97374535 C-148.35043609 487.65208634 -146.96068953 487.98513995 -143.22589403 488.05934203 C-142.15707598 488.04261161 -142.15707598 488.04261161 -141.06666565 488.02554321 C-140.30315149 488.03334317 -139.53963733 488.04114312 -138.75298637 488.04917943 C-136.1923379 488.06913717 -133.63316948 488.05332113 -131.07250977 488.03759766 C-129.23768241 488.04437219 -127.40286185 488.0532744 -125.5680542 488.06414795 C-120.58240803 488.08696903 -115.5972784 488.07809292 -110.61162305 488.06225252 C-105.39690573 488.04960618 -100.18223306 488.06133029 -94.96751404 488.06918335 C-86.20864918 488.07828441 -77.44999499 488.06628084 -68.69116211 488.04248047 C-58.56290243 488.01527686 -48.4351461 488.02407605 -38.30689865 488.0516125 C-29.61462359 488.07429966 -20.9225001 488.07750529 -12.230205 488.06441915 C-7.03715543 488.05662141 -1.84434246 488.05559182 3.34869194 488.07210159 C8.23179565 488.08654102 13.11425037 488.07653419 17.99728394 488.04763031 C19.78995244 488.04101632 21.58267552 488.04292253 23.37532234 488.05394363 C25.82199304 488.06759921 28.26658169 488.05048574 30.71311951 488.02554321 C31.42343415 488.03669682 32.1337488 488.04785043 32.86558813 488.05934203 C36.74141595 487.98264273 38.28437422 487.47500298 41.318223 484.97374535 C43.95444709 481.68165056 44.30947738 480.1998539 44.05078125 476.1015625 C40.52780023 461.71951057 27.93064141 450.07713629 17.06640625 440.9140625 C14.64512557 438.71801723 14.40965374 437.58806538 14.02734375 434.296875 C14.49639263 429.19851757 16.44827489 426.15781655 19.13671875 421.890625 C20.15901033 420.19384719 21.17707403 418.49451662 22.19140625 416.79296875 C22.72088867 415.90722168 23.25037109 415.02147461 23.79589844 414.10888672 C48.5088972 371.8813655 66.95203703 324.3726849 75.88671875 276.203125 C76.10500336 275.04379959 76.10500336 275.04379959 76.32769775 273.86105347 C78.71476242 261.11121513 80.62383335 248.31949715 82.26171875 235.453125 C82.36508545 234.64404694 82.46845215 233.83496887 82.57495117 233.00137329 C84.41090829 218.46714563 85.58064563 203.98681737 85.76171875 189.328125 C85.79910156 188.14541016 85.83648437 186.96269531 85.875 185.74414062 C85.89240234 184.03581055 85.89240234 184.03581055 85.91015625 182.29296875 C85.92997559 181.27710693 85.94979492 180.26124512 85.97021484 179.21459961 C85.13764272 175.18515953 83.62996952 173.90201803 80.38671875 171.390625 C77.25966023 170.66962817 74.20902224 170.73413272 71.01147461 170.78503418 C70.06334617 170.78020633 69.11521772 170.77537848 68.13835812 170.77040434 C64.95896864 170.76015965 61.78085528 170.78550613 58.6015625 170.81054688 C56.32325103 170.81028027 54.04493886 170.8077478 51.76663208 170.80311584 C46.85943314 170.7977081 41.95259328 170.80777473 37.04544067 170.8296051 C29.289242 170.86342036 21.53334871 170.85939068 13.77709961 170.8494873 C2.90571563 170.83913993 -7.96554251 170.84263303 -18.83691406 170.86083984 C-19.52659763 170.86198829 -20.2162812 170.86313673 -20.92686427 170.86431998 C-25.82233752 170.87259353 -30.71780946 170.88153197 -35.61328125 170.890625 C-41.2054029 170.90101201 -46.79752488 170.91109828 -52.38964844 170.92041016 C-53.07849078 170.92156379 -53.76733312 170.92271743 -54.47704947 170.92390603 C-65.9615809 170.94253239 -77.44600357 170.9414125 -88.93054485 170.92674875 C-96.64412945 170.91833973 -104.35717105 170.93422904 -112.07067871 170.96854401 C-116.86519972 170.98496024 -121.65954248 170.98084556 -126.45407486 170.97109795 C-128.68054948 170.97083741 -130.90704398 170.97920091 -133.13344955 170.99673653 C-136.16882977 171.0194845 -139.20264649 171.01167196 -142.23803711 170.99621582 C-143.12276231 171.01029968 -144.00748751 171.02438354 -144.91902256 171.03889418 C-149.28816544 170.9833825 -151.07792886 170.79810125 -154.66017151 168.07152557 C-156.61328125 165.390625 -156.61328125 165.390625 -157.23828125 161.890625 C-156.43036816 157.36631171 -155.2596466 156.16098307 -151.61328125 153.390625 C-148.452426 152.66961898 -145.36834743 152.72824712 -142.13760376 152.77589417 C-141.17863579 152.77021091 -140.21966782 152.76452765 -139.23164022 152.75867218 C-136.01547741 152.7457444 -132.80056696 152.76858141 -129.58447266 152.79125977 C-127.27984859 152.78939613 -124.9752254 152.78536042 -122.67060852 152.77931213 C-116.40806537 152.76932123 -110.14597344 152.79053614 -103.88349581 152.81779218 C-97.33244465 152.84159651 -90.78140286 152.83867705 -84.23031616 152.83909607 C-73.22605945 152.84285138 -62.22196738 152.8672419 -51.21777344 152.90356445 C-39.90167169 152.94089227 -28.58569517 152.96215878 -17.26953125 152.96508789 C-16.57285873 152.9652707 -15.87618621 152.96545351 -15.1584024 152.96564186 C-14.46292286 152.96582083 -13.76744333 152.9659998 -13.05088866 152.9661842 C-11.65050101 152.96654962 -10.25011337 152.966922 -8.84972572 152.96730137 C-8.15906353 152.96748688 -7.46840134 152.9676724 -6.75680999 152.96786353 C4.68575997 152.97165331 16.12830515 152.99248253 27.57085466 153.01330447 C31.47336761 153.01953239 35.37587628 153.02316922 39.27839279 153.02633858 C45.41301194 153.03224293 51.54751998 153.0485668 57.68209267 153.07294273 C59.933503 153.08037871 62.18492731 153.08445441 64.43634987 153.08492279 C67.51003888 153.08618209 70.58343576 153.09974042 73.65707397 153.11647034 C74.54764634 153.11405525 75.4382187 153.11164017 76.3557781 153.1091519 C85.17893436 153.18431096 90.81136909 154.96623494 97.3671875 161.09765625 C104.09860207 168.74048092 104.71169658 177.66628835 104.38671875 187.390625 C104.12353128 191.06617417 103.77164078 194.72619953 103.38671875 198.390625 C103.96413818 198.36967773 104.54155762 198.34873047 105.13647461 198.32714844 C130.50040731 197.53334803 152.25111203 202.27160149 171.51171875 220.015625 C187.72108593 237.05369194 195.6507235 261.23744119 196.38671875 284.390625 C196.4640625 286.02064453 196.4640625 286.02064453 196.54296875 287.68359375 C197.54672325 326.03538037 182.88847256 364.23943352 156.84375 392.24609375 C139.56896613 410.33508581 115.28382235 426.75128821 89.77734375 429.69140625 C84.00400907 429.7230121 84.00400907 429.7230121 80.94921875 428.078125 C79.38671875 426.390625 79.38671875 426.390625 77.38671875 423.390625 C76.8345166 423.4620874 76.28231445 423.5335498 75.71337891 423.60717773 C68.05417791 424.49462816 60.46443428 424.50468798 52.76171875 424.453125 C51.47136719 424.44861328 50.18101562 424.44410156 48.8515625 424.43945312 C45.696565 424.42776795 42.54166738 424.41138544 39.38671875 424.390625 C38.06671875 427.030625 36.74671875 429.670625 35.38671875 432.390625 C36.06734375 433.07125 36.74796875 433.751875 37.44921875 434.453125 C37.90941406 434.91976563 38.36960937 435.38640625 38.84375 435.8671875 C39.85718036 436.86778963 40.89621189 437.84322685 41.9609375 438.7890625 C51.14864041 447.22718592 61.49014216 462.36660478 62.625 475.0546875 C62.86490632 484.62568698 61.2358693 491.72667616 54.57421875 498.828125 C49.63428924 503.70694198 44.26704097 505.71261775 37.39051586 505.79651731 C36.65373685 505.79050727 35.91695783 505.78449722 35.15785217 505.77830505 C34.35713946 505.78369059 33.55642675 505.78907613 32.73145002 505.79462487 C30.06307672 505.80886976 27.39520192 505.8018094 24.72680664 505.79467773 C22.8077403 505.80038311 20.88867736 505.80734802 18.96961975 505.81547546 C13.76713467 505.8334032 8.56481829 505.83223921 3.3623116 505.82653308 C-0.98413701 505.82344076 -5.33055324 505.82953415 -9.67699724 505.83557183 C-19.93207184 505.84961411 -30.18706312 505.84805813 -40.44213867 505.83666992 C-51.01509823 505.82518802 -61.58780416 505.83926634 -72.1607303 505.8660664 C-81.2454405 505.88823036 -90.33007112 505.89485922 -99.41480643 505.88898998 C-104.83759833 505.88562101 -110.26022763 505.88803172 -115.68299675 505.90524101 C-120.78272477 505.92071914 -125.8820773 505.9167448 -130.98179054 505.89793587 C-132.85061446 505.89425246 -134.71946625 505.89735122 -136.58826447 505.90782166 C-139.14508409 505.92105045 -141.70066401 505.90946804 -144.25743103 505.89183044 C-144.99197933 505.90143545 -145.72652762 505.91104046 -146.48333496 505.92093652 C-153.36238763 505.82370554 -159.43644597 503.11928946 -164.36328125 498.265625 C-169.68393495 492.5310074 -171.80481002 486.14220848 -172.11328125 478.390625 C-171.88300542 472.38042591 -170.30052535 467.72338581 -167.61328125 462.390625 C-167.17757812 461.49472656 -166.741875 460.59882813 -166.29296875 459.67578125 C-162.81613202 452.90259931 -158.52801537 447.18044635 -153.61328125 441.390625 C-152.69645306 440.26575663 -151.7797596 439.14077842 -150.86328125 438.015625 C-148.86842282 435.68829017 -146.79251628 433.54239068 -144.61328125 431.390625 C-145.20753906 430.33488281 -145.80179687 429.27914063 -146.4140625 428.19140625 C-149.17309652 423.27204971 -151.8970155 418.33369803 -154.61328125 413.390625 C-155.06203613 412.57803223 -155.51079102 411.76543945 -155.97314453 410.92822266 C-191.00797145 347.14094153 -208.19653991 274.61992146 -212.80078125 202.390625 C-212.84384399 201.7168985 -212.88690674 201.043172 -212.93127441 200.34902954 C-214.37416885 177.28360443 -214.37416885 177.28360443 -212.36328125 171.015625 C-212.13125 170.24476563 -211.89921875 169.47390625 -211.66015625 168.6796875 C-210.61328125 166.390625 -210.61328125 166.390625 -208.5859375 164.03515625 C-206.16662623 160.79184193 -205.85815439 158.4398321 -205.30078125 154.453125 C-203.57756336 144.28952817 -199.77620118 135.1627432 -192.17578125 127.953125 C-189.50299399 125.18305238 -188.67457039 123.9067757 -188.21484375 120.03515625 C-188.27320057 117.47541396 -188.37094471 114.91632774 -188.50390625 112.359375 C-188.8945897 98.18314686 -183.50102908 85.76857902 -174.36328125 75.140625 C-154.35536772 54.36188733 -126.87757587 44.85965945 -100.3687439 35.09063721 C-69.76848485 24.96076337 -69.76848485 24.96076337 -48.15234375 2.73046875 C-37.44763388 -13.54395058 -14.52588704 -6.46990861 0 0 Z M99.38671875 245.390625 C97.51781651 247.25952724 97.67804779 250.36685694 97.29296875 252.87890625 C97.07123889 254.28321277 96.84836416 255.68733886 96.62451172 257.09130859 C96.50541443 257.84079773 96.38631714 258.59028687 96.26361084 259.36248779 C89.79653088 299.52541075 78.86429821 339.41152304 62.11425781 376.54760742 C61.26432523 378.37043816 61.26432523 378.37043816 61.38671875 380.390625 C80.81007975 380.9108936 98.60466182 372.57583409 113.38671875 360.390625 C114.00546875 359.8853125 114.62421875 359.38 115.26171875 358.859375 C128.23130536 347.09067603 137.16847742 328.13675953 138.60644531 310.73095703 C139.30100505 294.03525835 137.74405566 281.56387131 128.38671875 267.390625 C125.8110194 263.39738619 124.96879703 261.19672476 125.38671875 256.390625 C125.71671875 255.400625 126.04671875 254.410625 126.38671875 253.390625 C117.36237075 248.71793888 109.68406296 245.61867521 99.38671875 245.390625 Z " fill="#010101" transform="translate(264.61328125,6.609375)"/>
<path d="M0 0 C0.85420674 -0.00638882 1.70841348 -0.01277764 2.58850527 -0.01936007 C5.45006488 -0.03461745 8.31024159 -0.01414405 11.17175293 0.00622559 C13.22346964 0.00272462 15.27518363 -0.00293369 17.32688904 -0.0105896 C22.89924494 -0.02485057 28.47110816 -0.00776291 34.04341698 0.01569557 C39.87204186 0.03578514 45.70064589 0.029926 51.52929688 0.02758789 C61.31791318 0.02764148 71.10633659 0.0474107 80.89489746 0.07946777 C92.21538312 0.11636137 103.53561604 0.12514351 114.85615396 0.11817026 C125.74153466 0.11186724 136.62682858 0.12261586 147.51219177 0.14213562 C152.14685807 0.15031507 156.78148004 0.15301816 161.41615295 0.15144348 C166.87285385 0.15056519 172.32931417 0.16476586 177.78595161 0.19067001 C179.78986508 0.19783843 181.79380412 0.1999122 183.79772758 0.19655228 C186.53069681 0.19284372 189.26296156 0.20756334 191.99584961 0.22705078 C192.791083 0.22172286 193.58631639 0.21639493 194.40564775 0.21090555 C198.93367136 0.26670716 201.9062158 0.79149984 205.4979248 3.62145996 C211.19040277 15.0064159 206.42672084 37.04534332 204.4979248 49.62145996 C204.33131348 50.73037598 204.16470215 51.83929199 203.99304199 52.98181152 C195.2008678 110.67001493 174.73492351 187.39920984 128.4979248 226.62145996 C123.79318008 229.62482841 118.98430681 231.71500305 113.36877441 231.81433105 C112.54038559 231.83039398 111.71199677 231.84645691 110.85850525 231.86300659 C107.05546095 231.90778938 103.25258796 231.94856225 99.44934082 231.97155762 C97.45247697 231.98805661 95.45567069 232.01526584 93.45910645 232.05358887 C72.18594875 232.4593968 72.18594875 232.4593968 64.4979248 226.62145996 C63.80835693 226.11928955 63.11878906 225.61711914 62.4083252 225.09973145 C50.83801198 216.2351197 42.75320131 202.02063041 35.4979248 189.62145996 C35.05980469 188.87686523 34.62168457 188.13227051 34.17028809 187.3651123 C21.10240053 164.95159108 11.84380584 141.12722998 3.4979248 116.62145996 C3.14077393 115.58948486 2.78362305 114.55750977 2.41564941 113.4942627 C0.2514 107.15860115 -1.56959422 100.83381849 -3.0645752 94.30895996 C-3.27364502 93.40814697 -3.48271484 92.50733398 -3.69812012 91.57922363 C-4.3080836 88.92850938 -4.90683085 86.27551337 -5.5020752 83.62145996 C-5.67158691 82.87799316 -5.84109863 82.13452637 -6.01574707 81.36853027 C-9.87420536 64.29365158 -9.87420536 64.29365158 -8.5020752 58.62145996 C-6.32997403 55.84598242 -5.14828774 54.73614862 -1.63439274 54.11250877 C0.04274728 54.10635016 0.04274728 54.10635016 1.75376892 54.10006714 C3.03940735 54.08589752 4.32504578 54.07172791 5.64964294 54.05712891 C7.07229755 54.06171645 8.49495082 54.06673583 9.91760254 54.07214355 C11.41746028 54.06344809 12.91730914 54.05308137 14.41714478 54.04116821 C18.48952785 54.01437807 22.56153984 54.01323176 26.63399386 54.01829481 C30.03368276 54.02043356 33.43329645 54.01066931 36.83296925 54.00108397 C44.85326224 53.97889022 52.87336791 53.97802072 60.89367676 53.9901123 C69.16795637 54.00219495 77.44155605 53.97756401 85.71571964 53.93497217 C92.81989773 53.89974748 99.92385932 53.88773615 107.02812153 53.89424765 C111.27112217 53.89787492 115.51363778 53.89258682 119.75655937 53.86481857 C123.74677819 53.83968149 127.7359367 53.84352808 131.72613907 53.86964035 C133.18986048 53.87437564 134.65365627 53.86888836 136.1172924 53.8523941 C147.15013322 53.73703318 147.15013322 53.73703318 150.50209236 55.93660355 C152.34120798 58.03911829 153.4979248 59.77395805 153.4979248 62.62145996 C168.8429248 62.12645996 168.8429248 62.12645996 184.4979248 61.62145996 C187.13846347 47.0984973 188.16152124 32.32189922 189.4979248 17.62145996 C128.1179248 17.62145996 66.7379248 17.62145996 3.4979248 17.62145996 C3.4979248 19.93145996 3.4979248 22.24145996 3.4979248 24.62145996 C1.49893155 27.5574813 0.05271537 29.2427684 -3.47473145 30.10192871 C-5.5645752 30.24645996 -5.5645752 30.24645996 -9.5020752 29.62145996 C-12.77313774 26.74338726 -13.76166423 24.37987213 -14.06848145 20.15270996 C-14.08828814 18.47574309 -14.08640369 16.79840174 -14.0645752 15.12145996 C-14.08842285 14.27970215 -14.11227051 13.43794434 -14.13684082 12.57067871 C-14.13490723 11.75212402 -14.13297363 10.93356934 -14.13098145 10.09020996 C-14.13170654 9.35222168 -14.13243164 8.6142334 -14.13317871 7.85388184 C-12.12040859 0.73404819 -6.48313424 -0.10205166 0 0 Z " fill="#C69982" transform="translate(113.5020751953125,210.3785400390625)"/>
<path d="M0 0 C1.2316212 50.98280157 -7.32365284 102.56506931 -23 151 C-23.33789551 152.04945801 -23.67579102 153.09891602 -24.02392578 154.18017578 C-35.15930497 188.39636085 -50.98228364 223.97342546 -71 254 C-71.58369443 257.41538144 -71.58369443 257.41538144 -71 261 C-68.8161913 263.47698938 -68.8161913 263.47698938 -66 266 C-57.17194169 274.27494366 -50.00825119 282.45462549 -44 293 C-43.59910156 293.70125 -43.19820312 294.4025 -42.78515625 295.125 C-41.30866756 298.65094314 -41.44041826 302.26279337 -42 306 C-43.79393668 308.87029869 -44.98263276 310.49131638 -48 312 C-50.456042 312.09543864 -52.88355495 312.13016681 -55.3397522 312.12025452 C-56.48775191 312.12153615 -56.48775191 312.12153615 -57.65894353 312.12284368 C-60.23700791 312.12449774 -62.81500797 312.11897832 -65.39306641 312.11352539 C-67.2357025 312.11324348 -69.0783387 312.11340133 -70.92097473 312.1139679 C-75.93516897 312.11425571 -80.94933946 312.1083616 -85.96352816 312.10139394 C-91.19926617 312.09515769 -96.43500469 312.09455639 -101.67074585 312.09336853 C-111.59069696 312.09025602 -121.51063709 312.0820437 -131.43058336 312.07201904 C-142.72182818 312.06085543 -154.01307352 312.05534683 -165.30432248 312.05032361 C-188.53622108 312.03986103 -211.76810993 312.02226312 -235 312 C-235 311.67 -235 311.34 -235 311 C-215.86 311 -196.72 311 -177 311 C-176.34 308.03 -175.68 305.06 -175 302 C-173.77809506 299.20178479 -172.54488278 296.5616927 -171.125 293.875 C-170.61646484 292.87919922 -170.61646484 292.87919922 -170.09765625 291.86328125 C-168.42890198 288.62094881 -166.68049604 285.48037098 -164.76953125 282.375 C-162.94950871 278.90369874 -162.48391585 276.99134028 -162.5625 273.125 C-162.56378906 272.17882812 -162.56507813 271.23265625 -162.56640625 270.2578125 C-162.95182206 267.36198561 -163.58596075 265.04164805 -164.52709961 262.29638672 C-164.8016246 261.49047089 -165.0761496 260.68455505 -165.35899353 259.85421753 C-165.57052567 259.24232574 -165.7820578 258.63043396 -166 258 C-165.443694 258.00888245 -164.887388 258.01776489 -164.31422424 258.0269165 C-158.48994286 258.11586007 -152.66585646 258.17592784 -146.84106445 258.21972656 C-144.67138829 258.23976081 -142.50176557 258.26699612 -140.33227539 258.30175781 C-137.201851 258.350637 -134.07214452 258.37305125 -130.94140625 258.390625 C-129.50179283 258.42159271 -129.50179283 258.42159271 -128.03309631 258.45318604 C-118.60314483 258.45628187 -111.79197533 255.36057847 -104.95703125 248.95703125 C-104.31121094 248.31121094 -103.66539062 247.66539062 -103 247 C-102.36449219 246.36449219 -101.72898438 245.72898437 -101.07421875 245.07421875 C-78.0100652 220.53100124 -63.94053257 185.06973662 -53.02539062 153.90136719 C-52.14607529 151.41332351 -51.23538506 148.94269557 -50.296875 146.4765625 C-43.24409522 127.77460626 -39.00115933 108.27802641 -35.625 88.625 C-35.49762451 87.88969055 -35.37024902 87.1543811 -35.23901367 86.39678955 C-32.89489566 72.72825427 -31.8140045 59.2479753 -31.75 45.375 C-31.729375 44.21871094 -31.70875 43.06242187 -31.6875 41.87109375 C-31.68234375 40.76636719 -31.6771875 39.66164062 -31.671875 38.5234375 C-31.65785645 37.037229 -31.65785645 37.037229 -31.64355469 35.52099609 C-32.05756655 32.59285469 -32.67934621 31.76061774 -35 30 C-37.8873682 28.5563159 -40.39085211 28.85861702 -43.61843872 28.84178162 C-44.65005719 28.83437465 -44.65005719 28.83437465 -45.70251644 28.82681805 C-48.01798371 28.81140184 -50.33342317 28.80307132 -52.64892578 28.79467773 C-54.30437466 28.78510244 -55.95982107 28.77509257 -57.61526489 28.76467896 C-62.11911933 28.73758597 -66.6229843 28.71660024 -71.1268754 28.69667697 C-75.83011715 28.67484446 -80.53332629 28.64744242 -85.23654175 28.62062073 C-94.1471147 28.57065677 -103.05770571 28.52573171 -111.96831405 28.48259836 C-122.11087337 28.43325759 -132.25339997 28.37832777 -142.39592767 28.32291877 C-163.26392132 28.2090419 -184.13194619 28.10221531 -205 28 C-205.04565923 25.90775492 -205.07833729 23.8152236 -205.10546875 21.72265625 C-205.12504639 20.55742432 -205.14462402 19.39219238 -205.16479492 18.19165039 C-204.88281355 12.73040238 -202.36070045 10.29092094 -198.5625 6.6875 C-193.86684831 3.59524157 -188.87948152 3.85364273 -183.40905762 3.86196899 C-182.27475539 3.85773707 -182.27475539 3.85773707 -181.11753798 3.85341966 C-178.58811382 3.84509834 -176.05873358 3.84373755 -173.52929688 3.84228516 C-171.71403379 3.83761526 -169.89877186 3.8324714 -168.08351135 3.82688904 C-164.17665212 3.8156207 -160.26980047 3.80718056 -156.3629303 3.80076981 C-150.18621993 3.79008276 -144.00956418 3.76983738 -137.83288574 3.74765015 C-120.26963799 3.68574513 -102.70639395 3.63167537 -85.14306641 3.59863281 C-75.44138692 3.58030065 -65.73979941 3.55138603 -56.0381875 3.5106281 C-50.90445812 3.48954159 -45.77084468 3.47409843 -40.6370697 3.47182083 C-35.81072086 3.46967695 -30.98461379 3.45383425 -26.15833855 3.42743111 C-24.38663503 3.42022784 -22.61490225 3.41814211 -20.84318733 3.42153358 C-18.42548517 3.42542265 -16.00855735 3.41099281 -13.59094238 3.39199829 C-12.53816644 3.40029283 -12.53816644 3.40029283 -11.4641223 3.40875494 C-7.1112181 3.34967466 -3.58096683 0 0 0 Z " fill="#CAE1F8" transform="translate(351,183)"/>
<path d="M0 0 C0.85420674 -0.00638882 1.70841348 -0.01277764 2.58850527 -0.01936007 C5.45006488 -0.03461745 8.31024159 -0.01414405 11.17175293 0.00622559 C13.22346964 0.00272462 15.27518363 -0.00293369 17.32688904 -0.0105896 C22.89924494 -0.02485057 28.47110816 -0.00776291 34.04341698 0.01569557 C39.87204186 0.03578514 45.70064589 0.029926 51.52929688 0.02758789 C61.31791318 0.02764148 71.10633659 0.0474107 80.89489746 0.07946777 C92.21538312 0.11636137 103.53561604 0.12514351 114.85615396 0.11817026 C125.74153466 0.11186724 136.62682858 0.12261586 147.51219177 0.14213562 C152.14685807 0.15031507 156.78148004 0.15301816 161.41615295 0.15144348 C166.87285385 0.15056519 172.32931417 0.16476586 177.78595161 0.19067001 C179.78986508 0.19783843 181.79380412 0.1999122 183.79772758 0.19655228 C186.53069681 0.19284372 189.26296156 0.20756334 191.99584961 0.22705078 C192.791083 0.22172286 193.58631639 0.21639493 194.40564775 0.21090555 C198.93367136 0.26670716 201.9062158 0.79149984 205.4979248 3.62145996 C211.19040277 15.0064159 206.42672084 37.04534332 204.4979248 49.62145996 C204.33131348 50.73037598 204.16470215 51.83929199 203.99304199 52.98181152 C195.2008678 110.67001493 174.73492351 187.39920984 128.4979248 226.62145996 C123.79318008 229.62482841 118.98430681 231.71500305 113.36877441 231.81433105 C112.54038559 231.83039398 111.71199677 231.84645691 110.85850525 231.86300659 C107.05546095 231.90778938 103.25258796 231.94856225 99.44934082 231.97155762 C97.45247697 231.98805661 95.45567069 232.01526584 93.45910645 232.05358887 C72.18594875 232.4593968 72.18594875 232.4593968 64.4979248 226.62145996 C63.80835693 226.11928955 63.11878906 225.61711914 62.4083252 225.09973145 C50.83801198 216.2351197 42.75320131 202.02063041 35.4979248 189.62145996 C35.05980469 188.87686523 34.62168457 188.13227051 34.17028809 187.3651123 C21.10240053 164.95159108 11.84380584 141.12722998 3.4979248 116.62145996 C3.14077393 115.58948486 2.78362305 114.55750977 2.41564941 113.4942627 C0.2514 107.15860115 -1.56959422 100.83381849 -3.0645752 94.30895996 C-3.27364502 93.40814697 -3.48271484 92.50733398 -3.69812012 91.57922363 C-4.3080836 88.92850938 -4.90683085 86.27551337 -5.5020752 83.62145996 C-5.67158691 82.87799316 -5.84109863 82.13452637 -6.01574707 81.36853027 C-9.87420536 64.29365158 -9.87420536 64.29365158 -8.5020752 58.62145996 C-6.32873832 55.84257615 -5.15048482 54.73516461 -1.63159943 54.1180954 C-0.51220726 54.1165873 0.60718491 54.11507919 1.76049805 54.11352539 C3.04758163 54.10224609 4.33466522 54.0909668 5.66075134 54.0793457 C7.08499371 54.08712274 8.50923385 54.09531541 9.93347168 54.10388184 C11.43494852 54.09846109 12.93642004 54.09133869 14.43788147 54.0826416 C18.514362 54.06439943 22.59043779 54.07147928 26.66692543 54.08415794 C30.9318514 54.09428106 35.1967426 54.08489419 39.46166992 54.07861328 C46.62404608 54.07133485 53.78625728 54.08092965 60.9486084 54.09997559 C69.23072958 54.12174478 77.5124569 54.11469354 85.79456854 54.09266996 C92.90381668 54.07452147 100.01294621 54.07195492 107.12221003 54.08242464 C111.36896884 54.08866263 115.61554249 54.08948689 119.86228943 54.07627869 C123.8547962 54.06472873 127.8467949 54.07272978 131.83924675 54.09585571 C133.30498854 54.10114745 134.77077305 54.09962102 136.23649788 54.09080505 C138.2361003 54.07988628 140.23579611 54.09600238 142.23535156 54.11352539 C143.91443981 54.11578754 143.91443981 54.11578754 145.62744904 54.1180954 C149.1457614 54.73506412 150.32149836 55.84655746 152.4979248 58.62145996 C153.22563713 61.36108284 153.07764057 63.85360135 152.4979248 66.62145996 C150.62777386 69.05265619 149.21654135 70.26215169 146.4979248 71.62145996 C144.69870372 71.71487128 142.89597337 71.74337345 141.09432983 71.74171448 C139.94725555 71.74308914 138.80018127 71.74446381 137.61834717 71.74588013 C136.35383728 71.74228485 135.08932739 71.73868958 133.78649902 71.73498535 C132.4463196 71.73470339 131.10614003 71.73486139 129.76596069 71.73542786 C126.1215538 71.73571548 122.47717963 71.72982447 118.83278036 71.7228539 C115.02643085 71.71661447 111.22008064 71.71601609 107.41372681 71.71482849 C100.20309521 71.71171692 92.99247873 71.70350587 85.7818538 71.693479 C77.57398501 71.68231247 69.36611552 71.67680605 61.15824103 71.67178357 C44.27146021 71.66132312 27.3846941 71.64372703 10.4979248 71.62145996 C10.97655745 73.86981804 11.45605214 76.11799262 11.93591309 78.36608887 C12.20283966 79.61806061 12.46976624 80.87003235 12.74478149 82.15994263 C21.43961344 122.12220621 41.00545889 189.64790304 77.4979248 213.62145996 C80.46354288 214.04806817 83.05212291 214.25318428 86.01745605 214.25817871 C86.83485764 214.26912064 87.65225922 214.28006256 88.49443054 214.29133606 C90.21989661 214.30716319 91.94548817 214.31240852 93.67102051 214.30773926 C96.29321373 214.308952 98.90979222 214.36868479 101.53112793 214.43200684 C111.69646337 214.80010257 111.69646337 214.80010257 120.46276855 210.34411621 C122.1492178 208.47848014 122.1492178 208.47848014 123.4979248 206.62145996 C124.19401855 205.89442871 124.8901123 205.16739746 125.6072998 204.41833496 C130.11150011 198.79880886 133.94707886 192.86316805 137.7635498 186.76208496 C138.31671875 185.88181641 138.8698877 185.00154785 139.43981934 184.09460449 C140.79455127 181.93815215 142.1471909 179.78041793 143.4979248 177.62145996 C142.75512268 177.63256302 142.01232056 177.64366608 141.24700928 177.65510559 C134.2434578 177.7553313 127.24015509 177.83143622 120.2360878 177.88052082 C116.63522985 177.90660468 113.03496489 177.94197789 109.43444824 177.99865723 C105.95902439 178.05302435 102.48417049 178.08288962 99.00835419 178.09584618 C97.03839806 178.10956813 95.06867098 178.14859482 93.09906006 178.1879425 C91.29764557 178.18850899 91.29764557 178.18850899 89.45983887 178.18908691 C88.40282776 178.20018997 87.34581665 178.21129303 86.2567749 178.22273254 C83.4979248 177.62145996 83.4979248 177.62145996 81.16046143 175.30473328 C78.95748612 171.74921169 78.83669671 169.73576809 79.4979248 165.62145996 C82.06481758 162.36343282 83.5663297 160.80856146 87.68074036 159.98222351 C89.47610481 159.97223076 89.47610481 159.97223076 91.30773926 159.96203613 C91.97171219 159.95155243 92.63568512 159.94106873 93.31977844 159.93026733 C95.50073513 159.90160951 97.68009554 159.90779679 99.86120605 159.91442871 C101.37865682 159.90130783 102.89609014 159.88600239 104.41349792 159.86860657 C108.39691396 159.8287883 112.37987279 159.81856827 116.36346436 159.8145752 C120.43251385 159.80523762 124.50129538 159.76782028 128.57019043 159.73278809 C136.54610686 159.66824474 144.52175944 159.63497816 152.4979248 159.62145996 C157.48158543 148.79098213 162.36233071 138.0266731 166.2479248 126.74645996 C166.99787133 124.61102451 167.74787085 122.47560768 168.4979248 120.34020996 C168.84339355 119.34763184 169.1888623 118.35505371 169.5447998 117.33239746 C170.33856178 115.0747302 171.15460978 112.82967986 171.9979248 110.59020996 C177.29713613 96.41481967 180.59940174 81.80184834 183.6229248 66.99645996 C183.86454346 65.86925537 184.10616211 64.74205078 184.35510254 63.58068848 C187.36095299 48.30858081 188.0713317 33.3139841 189.4979248 17.62145996 C128.1179248 17.62145996 66.7379248 17.62145996 3.4979248 17.62145996 C3.4979248 19.93145996 3.4979248 22.24145996 3.4979248 24.62145996 C1.49893155 27.5574813 0.05271537 29.2427684 -3.47473145 30.10192871 C-5.5645752 30.24645996 -5.5645752 30.24645996 -9.5020752 29.62145996 C-12.77313774 26.74338726 -13.76166423 24.37987213 -14.06848145 20.15270996 C-14.08828814 18.47574309 -14.08640369 16.79840174 -14.0645752 15.12145996 C-14.08842285 14.27970215 -14.11227051 13.43794434 -14.13684082 12.57067871 C-14.13490723 11.75212402 -14.13297363 10.93356934 -14.13098145 10.09020996 C-14.13170654 9.35222168 -14.13243164 8.6142334 -14.13317871 7.85388184 C-12.12040859 0.73404819 -6.48313424 -0.10205166 0 0 Z " fill="#030302" transform="translate(113.5020751953125,210.3785400390625)"/>
<path d="M0 0 C12.77944792 4.32982559 22.76992136 22.92934967 28.46484375 34.359375 C30.57247431 38.63063596 32.4051198 42.87825413 34.02734375 47.359375 C35.1509762 50.04788368 35.72725139 50.8519737 38.328125 52.25 C40.57875288 53.02004376 42.7532766 53.61251316 45.08984375 54.046875 C46.33539176 59.86607529 46.27360106 65.62593996 46.27734375 71.546875 C46.28958984 72.56652344 46.30183594 73.58617187 46.31445312 74.63671875 C46.31638672 75.62800781 46.31832031 76.61929688 46.3203125 77.640625 C46.32442139 78.53458984 46.32853027 79.42855469 46.33276367 80.34960938 C46.05152384 83.47236076 45.11686413 86.09411782 44.08984375 89.046875 C42.86694263 89.04318783 41.64404152 89.03950066 40.38408279 89.03570175 C11.36766133 88.94910704 -17.64875518 88.88313134 -46.66527526 88.84261368 C-50.23518373 88.83761074 -53.80509193 88.83243346 -57.375 88.82714844 C-58.08571707 88.8260992 -58.79643415 88.82504995 -59.5286881 88.82396892 C-71.04291181 88.80655437 -82.55705579 88.77501094 -94.07123217 88.73826382 C-105.88213612 88.70088352 -117.69299826 88.67864533 -129.50395894 88.67052102 C-136.13957596 88.66552067 -142.77504447 88.65298024 -149.41060638 88.62395477 C-155.65186588 88.59687438 -161.89286931 88.58841514 -168.13418198 88.59444427 C-170.42879756 88.59334074 -172.7234214 88.5853433 -175.0179863 88.5700531 C-178.14355483 88.55024105 -181.26814814 88.55490411 -184.39373779 88.56585693 C-185.30813212 88.55420557 -186.22252645 88.5425542 -187.1646297 88.53054976 C-192.10867591 88.56898078 -192.10867591 88.56898078 -196.4424324 90.76443863 C-198.28111265 93.31818899 -198.28111265 93.31818899 -198.91015625 98.046875 C-209.14015625 97.716875 -219.37015625 97.386875 -229.91015625 97.046875 C-229.91015625 85.24790603 -226.18490318 78.67334541 -218.16796875 70.20703125 C-186.77991016 40.50288138 -129.47930068 38.46336769 -88.93444824 32.10061646 C-59.97082154 27.97902954 -59.97082154 27.97902954 -31.91015625 20.046875 C-30.81832031 19.64597656 -29.72648438 19.24507812 -28.6015625 18.83203125 C-18.59891249 14.92338025 -11.39584824 10.37084139 -4.9296875 1.70703125 C-2.91015625 0.046875 -2.91015625 0.046875 0 0 Z " fill="#FEEAD1" transform="translate(306.91015625,71.953125)"/>
<path d="M0 0 C13.4315441 1.01955615 27.82849641 6.01939859 37.15234375 16.125 C37.69761719 16.76179688 38.24289062 17.39859375 38.8046875 18.0546875 C40.96763751 20.42747594 41.87818838 20.99964131 45.109375 21.48828125 C47.85730336 21.49177734 50.51326426 21.36557749 53.2421875 21.0546875 C57.15523337 27.939856 59.2415231 34.19872517 60.2421875 42.0546875 C59.3759375 42.7353125 58.5096875 43.4159375 57.6171875 44.1171875 C55.21926626 46.0811462 53.41126042 48.08106119 51.5546875 50.5546875 C36.479512 68.31500877 -3.47331494 69.1218824 -25.1237793 72.30493164 C-31.82862383 73.29215716 -38.50743346 74.34127477 -45.16894531 75.58984375 C-47.85553534 76.07223411 -50.54523576 76.48453738 -53.24609375 76.87890625 C-83.28654841 81.28652558 -113.12065181 88.20924662 -140.7578125 101.0546875 C-141.11947101 91.01554602 -137.48808138 83.30867031 -130.8203125 75.8671875 C-124.9420968 69.68617569 -118.22599511 65.10672087 -110.7578125 61.0546875 C-110.02272461 60.65491699 -109.28763672 60.25514648 -108.53027344 59.84326172 C-93.73134872 51.98114272 -78.11881406 46.23513784 -62.39697266 40.53271484 C-54.16429177 37.53685429 -46.02502529 34.42081583 -38.0078125 30.8828125 C-37.28965866 30.56778275 -36.57150482 30.25275299 -35.83158875 29.92817688 C-22.3153481 23.84550627 -11.30522052 16.1626664 -3.921875 3.09375 C-2.19469056 0.06827926 -2.19469056 0.06827926 0 0 Z " fill="#FDEAD1" transform="translate(234.7578125,16.9453125)"/>
<path d="M0 0 C61.38 0 122.76 0 186 0 C186 7.2984759 185.77245271 14.21405367 185.125 21.4375 C185.04636719 22.39720703 184.96773437 23.35691406 184.88671875 24.34570312 C183.27802122 42.72197878 183.27802122 42.72197878 181 45 C176.63836382 45.31440848 172.27106286 45.35674535 167.8996582 45.4050293 C166.430018 45.4266011 164.96050601 45.46069592 163.49145508 45.50756836 C161.37262654 45.57457914 159.25645736 45.60202359 157.13671875 45.62109375 C155.86530029 45.6461499 154.59388184 45.67120605 153.28393555 45.69702148 C150 45 150 45 147.61645508 42.02368164 C147.0830249 41.0258667 146.54959473 40.02805176 146 39 C144.21325739 37.21325739 141.56243777 37.85578879 139.14720154 37.84178162 C137.23933365 37.82709839 137.23933365 37.82709839 135.29292297 37.81211853 C133.87033119 37.80621356 132.44773901 37.80040317 131.02514648 37.79467773 C129.53733037 37.78510465 128.049517 37.77509491 126.56170654 37.76467896 C122.51025963 37.73756208 118.45880098 37.71658937 114.40731311 37.69667697 C110.17785661 37.6748591 105.94843654 37.64744994 101.7190094 37.62062073 C93.7044292 37.57063688 85.68982884 37.52571924 77.67520911 37.48259836 C68.55320729 37.43327453 59.43124201 37.37833846 50.30927551 37.32291877 C31.53955091 37.20901138 12.76979186 37.10219151 -6 37 C-6.33604815 34.96571527 -6.66546594 32.93033472 -6.9921875 30.89453125 C-7.1763623 29.76120361 -7.36053711 28.62787598 -7.55029297 27.46020508 C-8.1789596 22.62302147 -8.17555658 17.86681865 -8 13 C-8.99 12.67 -9.98 12.34 -11 12 C-8.98177083 11.57682292 -6.96354167 11.15364583 -4.9453125 10.73046875 C-2.62953451 10.07691162 -2.62953451 10.07691162 -1 7 C-0.67 4.69 -0.34 2.38 0 0 Z " fill="#F9E6CD" transform="translate(117,228)"/>
<path d="M0 0 C20.45400798 -0.60604468 39.21364116 1.48312635 55.4375 15.3125 C68.02528812 27.50820947 76.24491598 45.52298 77.16113281 63.08935547 C77.52593988 91.56551612 77.52593988 91.56551612 74 105 C73.7834375 105.94746094 73.566875 106.89492188 73.34375 107.87109375 C67.83866196 130.44850838 55.8058668 150.21168444 40 167 C39.44957031 167.61488281 38.89914062 168.22976563 38.33203125 168.86328125 C23.81094734 184.460001 3.4214391 191.9849566 -16.40234375 198.0390625 C-19.11571126 198.83714045 -19.11571126 198.83714045 -21 201 C-21.165 202.010625 -21.33 203.02125 -21.5 204.0625 C-21.665 205.031875 -21.83 206.00125 -22 207 C-32.3212052 212.1606026 -50.90962861 209.43101566 -62 208 C-60.69042205 204.62086813 -59.24600633 201.37347412 -57.6171875 198.13671875 C-57.17246094 197.25048828 -56.72773438 196.36425781 -56.26953125 195.45117188 C-55.57923828 194.0831543 -55.57923828 194.0831543 -54.875 192.6875 C-54.40707031 191.75615234 -53.93914062 190.82480469 -53.45703125 189.86523438 C-52.30649654 187.57590511 -51.15409965 185.28753359 -50 183 C-48.36417969 182.96132813 -48.36417969 182.96132813 -46.6953125 182.921875 C-17.46121143 181.94304004 9.49089079 172.53350415 30.13671875 151.1015625 C47.76322265 131.22093546 55.3117287 104.15084658 54 78 C52.85353547 64.03250966 48.18156399 48.39755013 37.47265625 38.71484375 C34.37060326 36.56349894 32.70623724 36.52686333 29 37 C28.37996094 37.38414062 27.75992188 37.76828125 27.12109375 38.1640625 C25 39 25 39 22.6328125 38.171875 C21.80523437 37.70265625 20.97765625 37.2334375 20.125 36.75 C19.238125 36.27433594 18.35125 35.79867187 17.4375 35.30859375 C16.2309375 34.66083984 16.2309375 34.66083984 15 34 C9.00350974 31.52318881 3.76286651 31.12714442 -3 30 C-1.515 15.15 -1.515 15.15 0 0 Z " fill="#C9E0F7" transform="translate(366,222)"/>
<path d="M0 0 C1.98 0.495 1.98 0.495 4 1 C3.79221695 11.10581222 1.46128154 17.9138887 -5.8125 25.0625 C-19.32567199 35.99197643 -36.58553424 40.42009137 -52.875 45.5 C-82.45444572 54.52569496 -82.45444572 54.52569496 -109 70 C-110.11955078 70.84498047 -110.11955078 70.84498047 -111.26171875 71.70703125 C-115.15406814 74.87280876 -117.41689086 77.74324346 -119.79418945 82.16064453 C-122.08333221 85.45814101 -123.24594852 86.78641682 -127.14584351 87.89105225 C-131.11143733 88.18762905 -135.01187371 88.17626279 -138.98046875 88.0546875 C-140.44060467 88.04830952 -141.90077021 88.04693636 -143.36091614 88.05032349 C-147.18942989 88.04847891 -151.01485773 87.99056153 -154.84259033 87.91705322 C-160.97762484 87.80702853 -167.1131579 87.77510974 -173.24904823 87.75769424 C-175.38807524 87.74240122 -177.52509916 87.69849465 -179.66362 87.65084839 C-180.96209366 87.6382901 -182.26056732 87.62573181 -183.59838867 87.61279297 C-184.7408757 87.59151337 -185.88336273 87.57023376 -187.06047058 87.54830933 C-190.07736072 87.78049967 -190.07736072 87.78049967 -192.33760071 89.71170044 C-194.407043 92.22530646 -194.407043 92.22530646 -195 97 C-205.23 96.67 -215.46 96.34 -226 96 C-226 84.20103103 -222.27474693 77.62647041 -214.2578125 69.16015625 C-182.86975391 39.45600638 -125.56914443 37.41649269 -85.02429199 31.05374146 C-56.06066529 26.93215454 -56.06066529 26.93215454 -28 19 C-26.90816406 18.59910156 -25.81632813 18.19820312 -24.69140625 17.78515625 C-14.37800046 13.75507384 -6.87722277 8.71262306 0 0 Z " fill="#FDF1E2" transform="translate(303,73)"/>
<path d="M0 0 C3.69230769 0.69230769 3.69230769 0.69230769 5 2 C5.54020167 8.88757124 3.71723802 13.0551961 -0.578125 18.28515625 C-4.12417539 22.36702568 -8.20604627 25.36045688 -12.625 28.4375 C-13.42188232 29.00315674 -14.21876465 29.56881348 -15.03979492 30.15161133 C-19.41418325 33.24209172 -23.836211 36.24713393 -28.3125 39.1875 C-43.03940532 48.88969144 -56.02380178 59.19285181 -63.65234375 75.54101562 C-65.38459885 78.55253407 -65.88721474 78.95187773 -69.28613281 80.40209961 C-70.57874023 80.64968018 -71.87134766 80.89726074 -73.203125 81.15234375 C-73.90965714 81.29822433 -74.61618927 81.44410492 -75.34413147 81.59440613 C-76.85699177 81.90494697 -78.37246216 82.2029906 -79.89004517 82.48956299 C-83.87674035 83.24626744 -87.84157764 84.10403791 -91.80859375 84.95703125 C-92.59868332 85.12503235 -93.38877289 85.29303345 -94.20280457 85.46612549 C-109.6625618 88.81247407 -124.66775903 94.33853589 -139 101 C-139.36165851 90.96085852 -135.73026888 83.25398281 -129.0625 75.8125 C-123.1842843 69.63148819 -116.46818261 65.05203337 -109 61 C-108.26491211 60.60022949 -107.52982422 60.20045898 -106.77246094 59.78857422 C-91.97353622 51.92645522 -76.36100156 46.18045034 -60.63916016 40.47802734 C-52.40647927 37.48216679 -44.26721279 34.36612833 -36.25 30.828125 C-35.53184616 30.51309525 -34.81369232 30.19806549 -34.07377625 29.87348938 C-20.5575356 23.79081877 -9.54740802 16.1079789 -2.1640625 3.0390625 C-1 1 -1 1 0 0 Z " fill="#FCF0E1" transform="translate(233,17)"/>
<path d="M0 0 C0.33 0 0.66 0 1 0 C1.28875 1.11375 1.5775 2.2275 1.875 3.375 C2.69241329 7.00291092 2.69241329 7.00291092 5 9 C7.6289738 9.33209761 7.6289738 9.33209761 10.73486328 9.31884766 C11.93595734 9.33871735 13.13705139 9.35858704 14.37454224 9.37905884 C16.32769852 9.39638565 16.32769852 9.39638565 18.3203125 9.4140625 C19.66268107 9.4327677 21.00503781 9.45234062 22.34738159 9.4727478 C25.88186678 9.52414391 29.41639012 9.56372926 32.9510498 9.60089111 C36.55730688 9.64088414 40.16340422 9.69199783 43.76953125 9.7421875 C50.84623729 9.8390351 57.92304339 9.92341142 65 10 C63.03293054 15.03760268 60.43936387 19.20492738 57.4375 23.6875 C56.9024585 24.48752441 56.36741699 25.28754883 55.81616211 26.11181641 C51.67328049 32.20716156 47.3450301 37.89093092 42 43 C41.30874023 43.68698975 40.61748047 44.37397949 39.90527344 45.08178711 C36.1272327 47.57624644 32.86576384 47.62933272 28.48046875 47.63671875 C27.66306717 47.64766068 26.84566559 47.6586026 26.00349426 47.6698761 C24.2780282 47.68570323 22.55243663 47.69094855 20.8269043 47.6862793 C18.20471107 47.68749204 15.58813258 47.74722483 12.96679688 47.81054688 C-1.04110026 47.95977207 -1.04110026 47.95977207 -5.89453125 43.78125 C-7.58569336 41.86010742 -7.58569336 41.86010742 -9 40 C-9.88429687 39.09894531 -10.76859375 38.19789063 -11.6796875 37.26953125 C-12.40414062 36.45871094 -13.12859375 35.64789063 -13.875 34.8125 C-14.61492187 33.99394531 -15.35484375 33.17539062 -16.1171875 32.33203125 C-19.34115105 28.33886477 -20.06283565 25.57062918 -20.58984375 20.4921875 C-21.63531969 14.13967656 -23.41945728 7.37081408 -27 2 C-18.09 2 -9.18 2 0 2 C0 1.34 0 0.68 0 0 Z " fill="#9D7563" transform="translate(192,378)"/>
<path d="M0 0 C8.58 0 17.16 0 26 0 C26.38671875 2.78824219 26.7734375 5.57648438 27.171875 8.44921875 C30.96836721 35.82833088 30.96836721 35.82833088 36 63 C36.69022137 66.34337252 37.37613011 69.68754592 38.05639648 73.03295898 C38.50646898 75.24213213 38.96265176 77.45007257 39.42602539 79.65649414 C41.45696837 89.55883863 41.45696837 89.55883863 41 94 C39.25 96.4375 39.25 96.4375 37 98 C35.02587891 97.88623047 35.02587891 97.88623047 33 97 C31.60302734 95.02001953 31.60302734 95.02001953 30.3359375 92.3828125 C29.85850098 91.39676025 29.38106445 90.41070801 28.88916016 89.39477539 C28.3894873 88.31574951 27.88981445 87.23672363 27.375 86.125 C26.58875244 84.45522095 26.58875244 84.45522095 25.78662109 82.75170898 C20.10439277 70.44307803 15.4609899 57.79190409 11 45 C10.69336426 44.13761719 10.38672852 43.27523437 10.07080078 42.38671875 C7.01799396 33.79597623 4.39665116 25.14310984 2.125 16.3125 C1.8014856 15.07318726 1.8014856 15.07318726 1.47143555 13.80883789 C1.27718994 13.0224292 1.08294434 12.23602051 0.8828125 11.42578125 C0.71152832 10.73911377 0.54024414 10.05244629 0.36376953 9.3449707 C-0.11410151 6.26446643 0 3.1173494 0 0 Z " fill="#DEB5A1" transform="translate(124,282)"/>
<path d="M0 0 C9.9 0 19.8 0 30 0 C30.2475 4.2075 30.2475 4.2075 30.5 8.5 C30.57831055 9.7694043 30.57831055 9.7694043 30.65820312 11.06445312 C31.10303341 19.07845912 31 26.92289432 31 35 C18.79 35 6.58 35 -6 35 C-8.25 21.5 -8.25 21.5 -8.125 16.75 C-8.10695313 15.83734375 -8.08890625 14.9246875 -8.0703125 13.984375 C-8.03550781 13.00210938 -8.03550781 13.00210938 -8 12 C-8.99 11.67 -9.98 11.34 -11 11 C-8.98177083 10.57682292 -6.96354167 10.15364583 -4.9453125 9.73046875 C-2.62953451 9.07691162 -2.62953451 9.07691162 -1 6 C-0.67 4.02 -0.34 2.04 0 0 Z " fill="#FEF2E3" transform="translate(117,229)"/>
<path d="M0 0 C5.80394412 -0.22646382 10.43991874 0.36167565 15.9375 2.1875 C16.98671631 2.53022949 16.98671631 2.53022949 18.05712891 2.87988281 C33.00836533 7.92727027 44.13290303 17.69744535 51.43359375 31.76171875 C58.66348329 47.14400599 58.66348329 47.14400599 58 54 C53.45287812 52.52857179 51.9699183 48.9377093 49.8125 45 C40.11874653 28.26077625 26.69497246 18.02721948 8 13 C5.66776829 12.6590443 3.33464551 12.32401524 1 12 C0 11 0 11 -0.09765625 8.49609375 C-0.08605469 7.48675781 -0.07445312 6.47742188 -0.0625 5.4375 C-0.05347656 4.42558594 -0.04445313 3.41367188 -0.03515625 2.37109375 C-0.02355469 1.58863281 -0.01195312 0.80617187 0 0 Z " fill="#E9F3FB" transform="translate(383,223)"/>
<path d="M0 0 C6.27 0 12.54 0 19 0 C18.01 0.495 18.01 0.495 17 1 C16.98541748 1.56920166 16.97083496 2.13840332 16.95581055 2.72485352 C16.88070835 5.33803828 16.78425811 7.95003099 16.6875 10.5625 C16.66494141 11.45775391 16.64238281 12.35300781 16.61914062 13.27539062 C16.3609217 19.68391477 15.74235322 25.25764678 11 30 C6.38 30 1.76 30 -3 30 C-2.01 20.1 -1.02 10.2 0 0 Z " fill="#9AC2EA" transform="translate(366,222)"/>
<path d="M0 0 C0.33 0.66 0.66 1.32 1 2 C-0.26621937 5.60090259 -2.03379633 9.00007734 -3.6875 12.4375 C-4.35942383 13.88866211 -4.35942383 13.88866211 -5.04492188 15.36914062 C-5.48771484 16.29791016 -5.93050781 17.22667969 -6.38671875 18.18359375 C-6.79108154 19.03493896 -7.19544434 19.88628418 -7.61206055 20.76342773 C-9.16242289 23.26173369 -10.46346122 24.52510993 -13 26 C-15.01464844 26.34057617 -15.01464844 26.34057617 -17.109375 26.29296875 C-17.86347656 26.28330078 -18.61757813 26.27363281 -19.39453125 26.26367188 C-20.17183594 26.23853516 -20.94914062 26.21339844 -21.75 26.1875 C-22.93916016 26.16719727 -22.93916016 26.16719727 -24.15234375 26.14648438 C-26.10185564 26.11125223 -28.05101626 26.05744821 -30 26 C-28.69042205 22.62086813 -27.24600633 19.37347412 -25.6171875 16.13671875 C-25.17246094 15.25048828 -24.72773438 14.36425781 -24.26953125 13.45117188 C-23.80933594 12.53916016 -23.34914063 11.62714844 -22.875 10.6875 C-22.40707031 9.75615234 -21.93914062 8.82480469 -21.45703125 7.86523438 C-20.30649965 5.5759113 -19.15349313 3.28783232 -18 1 C-12.06 0.67 -6.12 0.34 0 0 Z " fill="#9CC4ED" transform="translate(334,404)"/>
<path d="M0 0 C0.66 0.33 1.32 0.66 2 1 C-10.68890221 15.19948581 -27.47995878 23.90729953 -46 28 C-48.9140625 28.10546875 -48.9140625 28.10546875 -51 28 C-50.88368254 24.37089529 -50.23616856 21.89593901 -48 19 C-43.94267298 17.48544985 -39.94022141 16.73740558 -35.6953125 15.9453125 C-22.57062291 13.48477119 -11.01540932 7.34360621 0 0 Z " fill="#E6EFF8" transform="translate(383,385)"/>
<path d="M0 0 C1.02574883 0.00212242 1.02574883 0.00212242 2.07221985 0.00428772 C4.25261847 0.00987749 6.43291376 0.02242803 8.61328125 0.03515625 C10.09309747 0.04017258 11.57291531 0.04473525 13.05273438 0.04882812 C16.67711682 0.05984354 20.30143895 0.07710113 23.92578125 0.09765625 C23.92578125 0.42765625 23.92578125 0.75765625 23.92578125 1.09765625 C15.34578125 1.42765625 6.76578125 1.75765625 -2.07421875 2.09765625 C-1.08421875 3.41765625 -0.09421875 4.73765625 0.92578125 6.09765625 C1.78212145 8.61107035 2.51912359 11.03569646 3.17578125 13.59765625 C3.36140625 14.26152344 3.54703125 14.92539062 3.73828125 15.609375 C4.64926049 19.06695531 5.27520925 21.70678588 3.92578125 25.09765625 C-1.80425008 17.53889152 -6.03042696 9.6277216 -10.07421875 1.09765625 C-6.5359562 -0.0817646 -3.73273149 -0.01523564 0 0 Z " fill="#BF937D" transform="translate(168.07421875,378.90234375)"/>
</svg>
