<?xml version="1.0" encoding="UTF-8"?>
<svg version="1.1" xmlns="http://www.w3.org/2000/svg" width="512" height="512">
<path d="M0 0 C1.2912957 -0.00623996 2.5825914 -0.01247993 3.91301727 -0.01890898 C7.49091668 -0.03559624 11.06838894 -0.02735899 14.64628983 -0.0149641 C18.50730523 -0.00591335 22.36824722 -0.01988344 26.22924805 -0.03088379 C33.79042942 -0.04867337 41.35145201 -0.0448271 48.91263962 -0.03323323 C55.05757704 -0.0242009 61.20246995 -0.02297403 67.34741211 -0.02732849 C68.65911542 -0.02824789 68.65911542 -0.02824789 69.99731779 -0.02918586 C71.77376621 -0.03046476 73.55021462 -0.03176161 75.32666302 -0.03307623 C91.9857319 -0.04448331 108.64471276 -0.03136631 125.3037672 -0.00987476 C139.59903993 0.00799634 153.89418274 0.00489227 168.18945312 -0.0135498 C184.78877146 -0.03495426 201.38801263 -0.04338466 217.98734283 -0.03110075 C219.75726826 -0.02982655 221.52719369 -0.02856907 223.29711914 -0.02732849 C224.60338611 -0.02640284 224.60338611 -0.02640284 225.93604231 -0.02545848 C232.07383545 -0.02200431 238.21157967 -0.02783539 244.34936523 -0.0372467 C251.8289694 -0.04846334 259.30840565 -0.04543375 266.78799057 -0.02412373 C270.60447176 -0.01360872 274.42067296 -0.00949895 278.2371521 -0.02272034 C282.3731891 -0.0368321 286.50851866 -0.01998656 290.64453125 0 C291.85250114 -0.00892289 293.06047104 -0.01784577 294.30504608 -0.02703905 C300.61389637 0.03230054 304.55950967 0.20658371 309.32226562 4.50793457 C314.27266745 9.83535375 313.80263967 15.01601591 313.57226562 21.88293457 C313.55421875 22.90516113 313.53617187 23.9273877 313.51757812 24.98059082 C313.47066053 27.49068206 313.40503292 29.99881222 313.32226562 32.50793457 C314.18464844 32.46152832 315.04703125 32.41512207 315.93554688 32.36730957 C345.56353581 31.49129723 372.04624271 44.57344684 393.32226562 64.50793457 C413.56298914 84.20247984 425.2046696 111.59333382 425.61523438 139.73718262 C425.7857775 174.29987774 415.12435445 202.10122012 390.92773438 226.96887207 C369.70004024 247.0348516 342.10611775 256.92995645 313.13476562 256.75793457 C311.82056641 256.76566895 310.50636719 256.77340332 309.15234375 256.78137207 C302.53325365 256.7680204 296.64244694 256.53167751 290.32226562 254.50793457 C289.95294922 255.58494629 289.95294922 255.58494629 289.57617188 256.68371582 C287.2192526 261.99229101 283.07903143 266.13192165 279.32226562 270.50793457 C278.59394531 271.36129395 277.865625 272.21465332 277.11523438 273.09387207 C256.95416064 296.12472026 230.01120847 311.71984306 200.07348633 318.0748291 C198.81002884 318.3436087 197.54657135 318.61238831 196.24482727 318.88931274 C194.79815926 319.19553055 194.79815926 319.19553055 193.32226562 319.50793457 C194.08979471 319.50940113 194.8573238 319.51086769 195.64811134 319.51237869 C214.32688818 319.54943613 233.00547783 319.6084367 251.68410683 319.69183731 C260.71697918 319.73164061 269.74976426 319.76402653 278.78271484 319.77893066 C286.65617371 319.7919405 294.52944062 319.81888802 302.40279138 319.86254764 C306.57141654 319.88517758 310.73980482 319.90084434 314.90849686 319.89981842 C318.83368541 319.8990727 322.75835003 319.91698744 326.68340302 319.9491024 C328.12248469 319.95760842 329.56162509 319.95934651 331.00072098 319.95373726 C332.9692239 319.94708759 334.93776233 319.96739522 336.90615845 319.98895264 C338.00677927 319.99263981 339.10740009 319.99632698 340.24137306 320.00012589 C345.19486965 320.81658687 348.30281696 323.43483071 351.69726562 327.00793457 C354.09530138 332.17293466 354.07608098 336.90816337 353.32226562 342.50793457 C351.16782211 347.14827444 348.10018473 350.54391506 343.32226562 352.50793457 C339.18494508 353.05644553 335.09092349 352.97335443 330.92382812 352.89855957 C329.73373138 352.89289978 328.54363464 352.88723999 327.31747437 352.88140869 C323.52699076 352.85906909 319.73746218 352.8088742 315.94726562 352.75793457 C313.37306055 352.73786658 310.79884062 352.71961634 308.22460938 352.70324707 C301.92350384 352.65921202 295.62295298 352.59232262 289.32226562 352.50793457 C289.34321289 353.14295898 289.36416016 353.7779834 289.38574219 354.43225098 C289.46931143 357.33231533 289.52105336 360.23212573 289.57226562 363.13293457 C289.60578125 364.13195801 289.63929688 365.13098145 289.67382812 366.16027832 C289.75275408 372.1191882 289.56777594 375.93909069 285.32226562 380.50793457 C279.89881205 385.21623362 275.15898016 385.07518842 268.16308594 385.01586914 C266.47115553 385.02522908 266.47115553 385.02522908 264.74504471 385.03477812 C260.96328108 385.05074017 257.1821591 385.03809056 253.40039062 385.0255127 C250.69004994 385.02873182 247.97973656 385.03790938 245.26940918 385.04675293 C238.67075907 385.06453459 232.072291 385.06069982 225.47363377 385.04910237 C220.11054046 385.0400669 214.74749815 385.03884453 209.38439941 385.04319763 C208.23921778 385.04411703 208.23921778 385.04411703 207.07090116 385.045055 C205.51993273 385.04633391 203.96896432 385.04763076 202.41799593 385.04894537 C187.876327 385.06035012 173.33475894 385.04723912 158.79310656 385.0257439 C146.31709864 385.00787299 133.8412396 385.01097713 121.36523438 385.02941895 C106.87542139 385.05082752 92.3856968 385.0592515 77.89587021 385.04696989 C76.3506241 385.0456957 74.80537797 385.04443822 73.26013184 385.04319763 C72.4998516 385.04258053 71.73957137 385.04196343 70.95625234 385.04132763 C65.59992299 385.03787468 60.24364975 385.04370186 54.8873291 385.05311584 C48.35925871 385.06433709 41.83138069 385.06129329 35.30333233 385.03999287 C31.97282668 385.02948371 28.64290717 385.02751235 25.31236267 385.03858948 C21.70173529 385.04949237 18.09201466 385.0358432 14.48144531 385.01586914 C13.42911335 385.02479203 12.37678139 385.03371491 11.29256058 385.04290819 C5.30216687 384.97846754 1.89493147 384.47763357 -2.67773438 380.50793457 C-7.6281362 375.18051539 -7.15810842 369.99985323 -6.92773438 363.13293457 C-6.9096875 362.11070801 -6.89164063 361.08848145 -6.87304688 360.03527832 C-6.82612928 357.52518709 -6.76050167 355.01705693 -6.67773438 352.50793457 C-7.34092682 352.51681702 -8.00411926 352.52569946 -8.68740845 352.53485107 C-15.59799571 352.62343413 -22.50842133 352.68371472 -29.41943359 352.72766113 C-31.99762525 352.7477602 -34.57577142 352.77504398 -37.15380859 352.80969238 C-40.86241898 352.85828304 -44.57042593 352.88092115 -48.27929688 352.89855957 C-50.00462143 352.92952728 -50.00462143 352.92952728 -51.76480103 352.96112061 C-58.0662563 352.96288231 -61.9137825 352.78676894 -66.67773438 348.50793457 C-70.30607101 344.68863285 -70.98773896 341.62514451 -71.17773438 336.50793457 C-70.98773896 331.39072463 -70.30607101 328.32723629 -66.67773438 324.50793457 C-61.30181717 319.92175388 -56.77756325 319.90706137 -50.02929688 319.89855957 C-49.01676849 319.88202332 -48.00424011 319.86548706 -46.96102905 319.84844971 C-43.74153533 319.80004187 -40.52251376 319.77861426 -37.30273438 319.75793457 C-35.11390863 319.72976894 -32.92510481 319.69984068 -30.73632812 319.66809082 C-25.38354905 319.59428508 -20.03090236 319.54260026 -14.67773438 319.50793457 C-15.63252686 318.69824219 -16.58731934 317.8885498 -17.57104492 317.05432129 C-18.83978084 315.97387212 -20.10841132 314.89329914 -21.37695312 313.81262207 C-22.31806946 313.0153772 -22.31806946 313.0153772 -23.27819824 312.20202637 C-42.5983974 295.71764591 -55.99754641 271.94443541 -58.67773438 246.50793457 C-59.32141924 231.02415818 -59.55648087 215.58381719 -55.67773438 200.50793457 C-55.47905762 199.7051709 -55.28038086 198.90240723 -55.07568359 198.07531738 C-51.78920517 185.01310427 -47.2028792 172.77824351 -41.67773438 160.50793457 C-36.6917432 161.04593666 -33.15937732 162.62537986 -28.80273438 165.07043457 C-27.6503125 165.71109863 -26.49789062 166.3517627 -25.31054688 167.01184082 C-24.44171875 167.50555176 -23.57289062 167.9992627 -22.67773438 168.50793457 C-22.68142155 167.69917562 -22.68510872 166.89041668 -22.68890762 166.05714989 C-22.77724991 146.37710136 -22.84343975 126.69708702 -22.88498306 107.01688194 C-22.90560717 97.49966689 -22.93372488 87.9825842 -22.97949219 78.4654541 C-23.01936458 70.17019265 -23.04516829 61.87502707 -23.05408835 53.57967246 C-23.05930243 49.18741782 -23.07155416 44.79543744 -23.1006546 40.40327072 C-23.12783013 36.26808136 -23.13617511 32.13327891 -23.1301651 27.99800873 C-23.13126439 26.48147859 -23.13920579 24.96493535 -23.15455627 23.44848251 C-23.17451903 21.37443349 -23.16965248 19.30183674 -23.15875244 17.22775269 C-23.16243961 16.06813711 -23.16612679 14.90852154 -23.16992569 13.7137661 C-22.37862335 8.55970929 -19.92516551 5.69730576 -16.22009277 2.16468048 C-10.86747483 -0.33871609 -5.84039868 -0.04314116 0 0 Z M313.32226562 80.50793457 C313.31895548 81.07740122 313.31564533 81.64686787 313.31223488 82.23359108 C313.23068248 96.15003676 313.13836739 110.06637617 313.03473854 123.98267555 C312.98481568 130.71275228 312.93837223 137.44281805 312.90039062 144.17297363 C312.8633271 150.67642276 312.8169116 157.17974592 312.76420212 163.6830864 C312.74576956 166.15555979 312.73062122 168.62806007 312.71892166 171.10057449 C312.59711278 195.96857171 312.59711278 195.96857171 310.32226562 207.50793457 C321.22220198 210.57856779 334.66054064 205.66460877 344.32226562 200.50793457 C359.51738209 191.08083384 370.69962117 177.46763094 375.40429688 160.12902832 C378.35927646 147.13224731 377.63243671 132.74744365 372.32226562 120.50793457 C371.77892578 119.19502441 371.77892578 119.19502441 371.22460938 117.85559082 C364.185212 102.36891659 350.81623273 90.61775351 335.19726562 84.25793457 C330.47171896 82.65917982 325.88415319 81.95593833 320.95507812 81.39855957 C320.21845947 81.31106445 319.48184082 81.22356934 318.72290039 81.13342285 C316.92322797 80.92032295 315.12281616 80.71348296 313.32226562 80.50793457 Z " fill="#F15D27" transform="translate(78.677734375,119.4920654296875)"/>
<path d="M0 0 C66 0 132 0 200 0 C200 50.72565265 192.71249541 91.04109892 156.75 127.6875 C146.63898906 137.68547981 135.12499531 145.29167038 122.65625 152.02734375 C122.05135742 152.35645752 121.44646484 152.68557129 120.82324219 153.0246582 C119.58885683 153.68499156 118.34415337 154.32632983 117.09082031 154.94995117 C112.80808718 157.17411124 110.87229008 159.14044564 108.75 163.4375 C101.62647181 176.50526983 90.98344811 187.16682613 78.82641602 195.63720703 C77.9233522 196.26708527 77.02028839 196.8969635 76.08985901 197.54592896 C75.0553788 198.26569412 75.0553788 198.26569412 74 199 C74.61558482 199.00059709 75.23116964 199.00119418 75.86540854 199.00180936 C112.34060405 199.03769427 148.81571247 199.0943193 185.29083095 199.17792095 C189.66931014 199.18793855 194.04778971 199.19778265 198.42626953 199.20751953 C199.73379801 199.21043159 199.73379801 199.21043159 201.0677412 199.21340248 C215.18657778 199.24443338 229.3053981 199.26140617 243.42426236 199.27319422 C257.90883672 199.28560014 272.39332567 199.31308887 286.87784612 199.35461307 C295.8173893 199.37976452 304.75679086 199.39311608 313.69636993 199.39142957 C319.82450376 199.39139984 325.9524932 199.40600531 332.08057077 199.43216428 C335.61751974 199.44682889 339.15417261 199.45499745 342.69114685 199.44580269 C346.52529776 199.43600395 350.35892742 199.45700141 354.19302368 199.48101807 C355.31170354 199.47325765 356.43038339 199.46549723 357.58296263 199.45750165 C363.71572109 199.52572189 367.33820596 199.89264648 372 204 C375.62833663 207.81930172 376.31000458 210.88279006 376.5 216 C376.31000458 221.11720994 375.62833663 224.18069828 372 228 C366.37931362 233.04832683 360.89755008 232.5215801 353.6015625 232.390625 C352.41146576 232.38496521 351.22136902 232.37930542 349.99520874 232.37347412 C346.20472514 232.35113451 342.41519655 232.30093963 338.625 232.25 C336.05079493 232.22993201 333.476575 232.21168177 330.90234375 232.1953125 C324.60123822 232.15127745 318.30068735 232.08438805 312 232 C312.0314209 232.95253662 312.0314209 232.95253662 312.06347656 233.92431641 C312.14704581 236.82438076 312.19878774 239.72419116 312.25 242.625 C312.28351563 243.62402344 312.31703125 244.62304688 312.3515625 245.65234375 C312.43048846 251.61125363 312.24551031 255.43115612 308 260 C302.57654643 264.70829905 297.83671454 264.56725385 290.84082031 264.50793457 C289.1488899 264.51729451 289.1488899 264.51729451 287.42277908 264.52684355 C283.64101546 264.5428056 279.85989348 264.53015599 276.078125 264.51757812 C273.36778432 264.52079725 270.65747093 264.52997481 267.94714355 264.53881836 C261.34849344 264.55660002 254.75002537 264.55276525 248.15136814 264.5411678 C242.78827483 264.53213233 237.42523253 264.53090996 232.06213379 264.53526306 C230.91695215 264.53618246 230.91695215 264.53618246 229.74863553 264.53712043 C228.19766711 264.53839934 226.6466987 264.53969619 225.0957303 264.5410108 C210.55406137 264.55241555 196.01249332 264.53930455 181.47084093 264.51780933 C168.99483302 264.49993842 156.51897398 264.50304256 144.04296875 264.52148438 C129.55315576 264.54289295 115.06343118 264.55131693 100.57360458 264.53903532 C99.02835847 264.53776113 97.48311235 264.53650365 95.93786621 264.53526306 C95.17758598 264.53464596 94.41730574 264.53402886 93.63398671 264.53339306 C88.27765737 264.52994011 82.92138413 264.53576729 77.56506348 264.54518127 C71.03699309 264.55640252 64.50911507 264.55335872 57.9810667 264.5320583 C54.65056105 264.52154914 51.32064155 264.51957778 47.99009705 264.53065491 C44.37946966 264.5415578 40.76974903 264.52790863 37.15917969 264.50793457 C36.10684772 264.51685746 35.05451576 264.52578034 33.97029495 264.53497362 C27.97990125 264.47053297 24.57266584 263.969699 20 260 C15.04959818 254.67258082 15.51962595 249.49191866 15.75 242.625 C15.76804688 241.60277344 15.78609375 240.58054687 15.8046875 239.52734375 C15.85160509 237.01725251 15.91723271 234.50912236 16 232 C15.33680756 232.00888245 14.67361511 232.01776489 13.99032593 232.0269165 C7.07973866 232.11549956 0.16931304 232.17578015 -6.74169922 232.21972656 C-9.31989088 232.23982563 -11.89803704 232.26710941 -14.47607422 232.30175781 C-18.18468461 232.35034847 -21.89269156 232.37298658 -25.6015625 232.390625 C-27.32688705 232.42159271 -27.32688705 232.42159271 -29.08706665 232.45318604 C-35.38852193 232.45494774 -39.23604813 232.27883437 -44 228 C-47.62833663 224.18069828 -48.31000458 221.11720994 -48.5 216 C-48.31000458 210.88279006 -47.62833663 207.81930172 -44 204 C-38.6240828 199.41381931 -34.09982888 199.3991268 -27.3515625 199.390625 C-26.33903412 199.37408875 -25.32650574 199.35755249 -24.28329468 199.34051514 C-21.06380096 199.2921073 -17.84477938 199.27067969 -14.625 199.25 C-12.43617426 199.22183437 -10.24737044 199.19190611 -8.05859375 199.16015625 C-2.70581467 199.08635051 2.64683202 199.03466569 8 199 C7.04520752 198.19030762 6.09041504 197.38061523 5.10668945 196.54638672 C3.83795354 195.46593755 2.56932305 194.38536457 1.30078125 193.3046875 C0.35966492 192.50744263 0.35966492 192.50744263 -0.60046387 191.6940918 C-19.92066303 175.20971134 -33.31981204 151.43650084 -36 126 C-36.64368487 110.51622361 -36.8787465 95.07588262 -33 80 C-32.80132324 79.19723633 -32.60264648 78.39447266 -32.39794922 77.56738281 C-29.1114708 64.5051697 -24.52514483 52.27030894 -19 40 C-13 41 -13 41 0 48 C0 32.16 0 16.32 0 0 Z " fill="#C59C70" transform="translate(56,240)"/>
<path d="M0 0 C0.94434359 -0.0034177 1.88868718 -0.0068354 2.86164725 -0.01035666 C6.02181393 -0.01693837 9.18112878 0.00504583 12.34121704 0.0269165 C14.60808289 0.02804492 16.87495019 0.02741125 19.14181519 0.02514648 C25.29428422 0.02399818 31.44644173 0.04752683 37.59883833 0.07544231 C44.02903129 0.10043625 50.45923129 0.10279639 56.88946533 0.10754395 C67.68171222 0.11856643 78.47383128 0.14355639 89.26602173 0.17926025 C100.38059926 0.21599238 111.49514573 0.24429823 122.60977173 0.2612915 C123.29520437 0.2623424 123.98063701 0.26339329 124.68684034 0.26447603 C128.12555273 0.26969629 131.56426533 0.2747511 135.00297809 0.27972364 C163.51767554 0.32117127 192.03218378 0.39490126 220.54678345 0.48101807 C220.54678345 26.88101807 220.54678345 53.28101807 220.54678345 80.48101807 C216.91678345 80.81101807 213.28678345 81.14101807 209.54678345 81.48101807 C201.75491734 84.22463289 201.55803933 85.4585063 197.54678345 93.48101807 C197.21678345 102.39101807 196.88678345 111.30101807 196.54678345 120.48101807 C125.26678345 120.48101807 53.98678345 120.48101807 -19.45321655 120.48101807 C-19.53571655 102.45476807 -19.61821655 84.42851807 -19.70321655 65.85601807 C-19.73963257 60.16786865 -19.77604858 54.47971924 -19.81356812 48.61920166 C-19.83163452 41.66387939 -19.83163452 41.66387939 -19.83499146 38.40597534 C-19.84112675 36.13454046 -19.85518061 33.86311847 -19.8755188 31.59176636 C-19.90481266 28.14755684 -19.90884015 24.70414216 -19.90731812 21.25982666 C-19.92171055 20.25089544 -19.93610298 19.24196423 -19.95093155 18.20245934 C-19.91702075 12.46725298 -19.47996685 8.9019389 -15.45321655 4.48101807 C-10.28758179 0.17411546 -6.4281931 -0.0853587 0 0 Z " fill="#F6E9E7" transform="translate(75.45321655273438,119.51898193359375)"/>
<path d="M0 0 C66 0 132 0 200 0 C200 50.72565265 192.71249541 91.04109892 156.75 127.6875 C144.80862423 139.49538297 129.24947598 151.16772132 113 156 C113.391875 154.845 113.78375 153.69 114.1875 152.5 C114.79445084 150.66758652 115.39811703 148.83408434 116 147 C116.40992188 145.75476563 116.81984375 144.50953125 117.2421875 143.2265625 C117.68299043 141.85960013 118.12309096 140.49241107 118.5625 139.125 C118.77221436 138.49013672 118.98192871 137.85527344 119.19799805 137.20117188 C122.82235009 125.81157763 123.40137867 114.61068115 123.375 102.75 C123.37567978 101.56278854 123.37567978 101.56278854 123.37637329 100.35159302 C123.34862181 83.80732774 121.22696234 68.34435609 116.5793457 52.44750977 C116 50 116 50 116 46 C89.66091941 54.33262727 65.91530032 64.47053942 43 80 C42.40316406 79.41734375 41.80632812 78.8346875 41.19140625 78.234375 C35.66941788 73.01597292 29.95336829 68.32873628 23.75 63.9375 C23.10877197 63.48020508 22.46754395 63.02291016 21.80688477 62.55175781 C14.74229921 57.63323426 7.42879442 53.45727665 0 49 C0 32.83 0 16.66 0 0 Z " fill="#F19A30" transform="translate(56,240)"/>
<path d="M0 0 C16.34921659 -0.29166095 16.34921659 -0.29166095 24.25 1.5 C25.42888794 1.76067261 25.42888794 1.76067261 26.6315918 2.02661133 C55.68281586 8.9597816 80.67364875 27.78732731 96.57421875 52.87890625 C111.90289124 78.19102428 116.76635462 110.56714038 109.97460938 139.41943359 C102.05402685 169.02951827 83.15246363 193.95459849 57.01171875 209.84960938 C39.28088015 219.98889475 20.10278699 224.37047672 -0.1875 224.25 C-2.15879883 224.26160156 -2.15879883 224.26160156 -4.16992188 224.2734375 C-10.78901198 224.26008583 -16.67981868 224.02374294 -23 222 C-22.49210937 221.07960938 -21.98421875 220.15921875 -21.4609375 219.2109375 C-13.84567967 205.27347366 -8.18887724 191.30979027 -4 176 C-0.05117816 175.12827895 3.85395656 174.71460434 7.875 174.3125 C24.46673059 172.26441661 38.53780991 164.21103962 49.26171875 151.2890625 C60.80086822 136.09368814 63.88180331 119.76246802 62 101 C61.26821465 96.42848126 59.8410988 92.24358182 58 88 C57.45666016 86.68708984 57.45666016 86.68708984 56.90234375 85.34765625 C49.99396754 70.14922859 37.16712742 58.92374485 21.8125 52.75 C15.97391796 50.73120765 10.10528252 50.05258071 3.9921875 49.39453125 C1 49 1 49 0 48 C-0.09311889 46.49581261 -0.11746028 44.98728644 -0.11352539 43.48022461 C-0.11344986 42.51930405 -0.11337433 41.55838348 -0.11329651 40.56834412 C-0.10813522 39.523564 -0.10297394 38.47878387 -0.09765625 37.40234375 C-0.0962413 36.33834854 -0.09482635 35.27435333 -0.09336853 34.17811584 C-0.08775064 30.76454917 -0.07519511 27.351047 -0.0625 23.9375 C-0.05748731 21.62955824 -0.052924 19.32161545 -0.04882812 17.01367188 C-0.0377754 11.34242574 -0.02101987 5.67121747 0 0 Z " fill="#6771A5" transform="translate(392,152)"/>
<path d="M0 0 C7.25667637 0.88024773 12.7743905 4.38428007 19 8 C19.6923877 8.40041504 20.38477539 8.80083008 21.09814453 9.21337891 C35.75968405 17.76021518 49.63422051 27.32120826 62 39 C62.94746094 38.38125 62.94746094 38.38125 63.9140625 37.75 C71.45281191 32.88348741 79.13826571 28.32143758 87 24 C88.04285156 23.42378906 89.08570312 22.84757812 90.16015625 22.25390625 C101.30899976 16.38823281 113.15889756 12.23721197 125 8 C126.71703125 7.37544922 126.71703125 7.37544922 128.46875 6.73828125 C131 6 131 6 135 6 C135.96759489 9.89359092 136.92228797 13.7902431 137.875 17.6875 C138.14441406 18.77095703 138.41382813 19.85441406 138.69140625 20.97070312 C142.01359518 34.62408932 143.41273364 47.62418026 143.375 61.625 C143.37412384 62.42025085 143.37324768 63.21550171 143.37234497 64.03485107 C143.32858542 76.07947894 142.80165283 87.47301985 139 99 C138.75862305 99.7532959 138.51724609 100.5065918 138.26855469 101.28271484 C131.69445175 121.2158911 119.60208182 138.98271317 103 152 C101.80093018 153.0211792 101.80093018 153.0211792 100.57763672 154.06298828 C91.6755119 160.94321781 84.47595136 160.99443394 73.75 160.5 C72.21493807 160.45976587 70.67977305 160.42328277 69.14453125 160.390625 C65.42750237 160.30353675 61.71443683 160.16610829 58 160 C58.43441406 158.80246094 58.86882812 157.60492188 59.31640625 156.37109375 C59.92537391 154.18046458 59.92537391 154.18046458 60 152 C58.35815499 149.48033686 57.10611871 148.02554092 54.9375 146.0625 C53.80509904 144.93709328 52.67903634 143.80528164 51.55859375 142.66796875 C50.96933105 142.07419434 50.38006836 141.48041992 49.77294922 140.86865234 C23.31953191 112.98728963 1.81268339 70.68976985 2.62890625 31.703125 C3 29 3 29 5 25.625 C8.48939191 23.73491272 10.29990061 23.68539483 14.1328125 24.21484375 C16.77804787 25.32717076 17.62338372 26.48526934 19 29 C19.37109375 32.0390625 19.37109375 32.0390625 19.4375 35.625 C20.79313923 67.81845009 37.12420106 98.41106309 57 123 C57.86608556 124.08447561 58.73197166 125.16911054 59.59765625 126.25390625 C62.74338458 130.17359365 62.74338458 130.17359365 66 134 C66.33 134 66.66 134 67 134 C72.24858718 107.10174568 69.08431848 81.70618004 53.8359375 58.58203125 C51.6702215 55.6012185 49.40244621 52.79318223 47 50 C46.34523682 49.22414551 46.34523682 49.22414551 45.67724609 48.43261719 C31.86698441 32.1915546 14.47176066 20.39036537 -4 10 C-2.68 6.7 -1.36 3.4 0 0 Z " fill="#688C3B" transform="translate(37,280)"/>
<path d="M0 0 C97.68 0 195.36 0 296 0 C296 22 296 22 292 28 C286.70570165 32.86019082 281.65743049 32.56573367 274.84082031 32.50793457 C273.1488899 32.51729451 273.1488899 32.51729451 271.42277908 32.52684355 C267.64101546 32.5428056 263.85989348 32.53015599 260.078125 32.51757812 C257.36778432 32.52079725 254.65747093 32.52997481 251.94714355 32.53881836 C245.34849344 32.55660002 238.75002537 32.55276525 232.15136814 32.5411678 C226.78827483 32.53213233 221.42523253 32.53090996 216.06213379 32.53526306 C214.91695215 32.53618246 214.91695215 32.53618246 213.74863553 32.53712043 C212.19766711 32.53839934 210.6466987 32.53969619 209.0957303 32.5410108 C194.55406137 32.55241555 180.01249332 32.53930455 165.47084093 32.51780933 C152.99483302 32.49993842 140.51897398 32.50304256 128.04296875 32.52148438 C113.55315576 32.54289295 99.06343118 32.55131693 84.57360458 32.53903532 C83.02835847 32.53776113 81.48311235 32.53650365 79.93786621 32.53526306 C79.17758598 32.53464596 78.41730574 32.53402886 77.63398671 32.53339306 C72.27765737 32.52994011 66.92138413 32.53576729 61.56506348 32.54518127 C55.03699309 32.55640252 48.50911507 32.55335872 41.9810667 32.5320583 C38.65056105 32.52154914 35.32064155 32.51957778 31.99009705 32.53065491 C28.37946966 32.5415578 24.76974903 32.52790863 21.15917969 32.50793457 C20.10684772 32.51685746 19.05451576 32.52578034 17.97029495 32.53497362 C12.16175475 32.47248923 8.4655651 32.0994098 4 28 C0 22 0 22 0 0 Z " fill="#A05A0F" transform="translate(72,472)"/>
<path d="M0 0 C11.42625 -0.0825 22.8525 -0.165 34.625 -0.25 C40.02480225 -0.30462402 40.02480225 -0.30462402 45.53369141 -0.36035156 C49.94995117 -0.37841797 49.94995117 -0.37841797 52.02133179 -0.3817749 C53.45945188 -0.38789322 54.89755222 -0.40191193 56.33554077 -0.42230225 C58.52174182 -0.45173626 60.70669586 -0.45561923 62.89306641 -0.45410156 C64.12328522 -0.46298401 65.35350403 -0.47186646 66.6210022 -0.48101807 C71.94429879 0.27678113 74.78842117 2.66982214 78.34661865 6.57632446 C80.66565388 11.37837706 80.52931075 15.51242752 80.45410156 20.77880859 C80.45468567 21.85257751 80.45526978 22.92634644 80.45587158 24.03265381 C80.45309132 27.57158051 80.42200057 31.10965845 80.390625 34.6484375 C80.38316244 37.10608459 80.37746958 39.56373765 80.37347412 42.02139282 C80.35821914 48.4823659 80.31893779 54.94297793 80.2746582 61.40380859 C80.22649927 69.15978027 80.20817091 76.91587282 80.18484497 84.67195129 C80.14608747 96.44821845 80.06943122 108.22369378 80 120 C61.52 120 43.04 120 24 120 C23.75 105.875 23.75 105.875 23.70214844 101.45263672 C23.6715332 100.29006348 23.64091797 99.12749023 23.609375 97.9296875 C23.58842773 96.74616699 23.56748047 95.56264648 23.54589844 94.34326172 C22.71703375 89.26702156 20.23386593 86.17059076 16.5625 82.6875 C11.69117514 80.1201286 11.69117514 80.1201286 0 80 C0 53.6 0 27.2 0 0 Z " fill="#F1DBD7" transform="translate(312,120)"/>
<path d="M0 0 C5.28 0 10.56 0 16 0 C16 26.4 16 52.8 16 80 C20.29 80 24.58 80 29 80 C34.03359633 82.3843351 37.49996787 85.99993573 40 91 C40.11278285 93.3062661 40.15941007 95.61584955 40.17700195 97.92480469 C40.18357315 98.63722321 40.19014435 99.34964172 40.19691467 100.08364868 C40.21665896 102.44639183 40.22831384 104.80907133 40.23828125 107.171875 C40.24235678 107.97896156 40.2464323 108.78604813 40.25063133 109.61759186 C40.27149871 113.89089198 40.28579648 118.16415994 40.29516602 122.4375 C40.30622096 126.84710498 40.34060797 131.25620401 40.38033772 135.66563034 C40.40651335 139.05947798 40.41485876 142.45320538 40.41844749 145.84714508 C40.42331247 147.47221537 40.434924 149.09728033 40.45348549 150.72225189 C40.47789415 153.00111142 40.47690929 155.27866633 40.4699707 157.55761719 C40.47583694 158.85286316 40.48170319 160.14810913 40.48774719 161.48260498 C39.7517563 166.79021257 37.32846212 169.82968813 33.375 173.3125 C28.94120702 176.46282659 25.11931794 176.19434272 19.828125 176.23828125 C18.91295105 176.246353 17.9977771 176.25442474 17.05487061 176.26274109 C15.1147247 176.27658629 13.17455439 176.28730649 11.234375 176.29516602 C8.27556752 176.3123515 5.31788533 176.35623007 2.359375 176.40039062 C0.47396655 176.41052001 -1.41145141 176.41903535 -3.296875 176.42578125 C-4.17833191 176.44328934 -5.05978882 176.46079742 -5.96795654 176.47883606 C-11.48794157 176.45947178 -14.62469829 175.68466395 -19 172 C-23.27268453 167.14992566 -24.12636178 164.72330625 -24.17700195 158.29052734 C-24.18357315 157.60082855 -24.19014435 156.91112976 -24.19691467 156.20053101 C-24.21666242 153.91233207 -24.22831664 151.62419898 -24.23828125 149.3359375 C-24.24235678 148.55341236 -24.2464323 147.77088722 -24.25063133 146.9646492 C-24.27150349 142.81872064 -24.28579731 138.67282523 -24.29516602 134.52685547 C-24.30620198 130.25644344 -24.34056544 125.9865566 -24.38033772 121.71632957 C-24.4065695 118.42362544 -24.41486388 115.13104482 -24.41844749 111.83824539 C-24.42330059 110.26506652 -24.43487805 108.69189269 -24.45348549 107.11881638 C-24.62475675 91.67296018 -24.62475675 91.67296018 -20 85 C-12.95381088 79.39180866 -9.74800593 80 0 80 C0 53.6 0 27.2 0 0 Z " fill="#97BE6F" transform="translate(296,120)"/>
<path d="M0 0 C26.78527151 9.4778653 52.27510324 35.21840882 65 60 C65.48210937 60.92425781 65.96421875 61.84851563 66.4609375 62.80078125 C75.91587535 82.14042685 76.06707957 103.15680225 72 124 C69 124 69 124 66.72265625 121.75390625 C65.82433983 120.69987938 64.93851981 119.63512962 64.0625 118.5625 C63.58304932 117.98266357 63.10359863 117.40282715 62.60961914 116.80541992 C40.33004328 89.44017108 23.81136963 57.99741895 22.34375 22.1875 C22.23196107 18.84712873 22.23196107 18.84712873 20 16 C15.9906885 14.93551399 15.9906885 14.93551399 12 15 C9.18404797 17.0578111 8.12939671 18.24006848 7.5390625 21.70703125 C7.63422776 25.14595774 7.76918839 28.56713521 8 32 C8.07089844 33.11503906 8.14179687 34.23007812 8.21484375 35.37890625 C9.9371235 52.69846105 16.01119275 69.628911 24 85 C24.61157318 86.2274185 25.2222338 87.45529207 25.83203125 88.68359375 C35.83599155 108.48245326 49.94891902 125.82106024 65 142 C63.125 147.75 63.125 147.75 62 150 C58.03523774 150.17481993 54.07200645 150.30087401 50.10424805 150.38452148 C48.1018989 150.43647769 46.10062098 150.52548965 44.09960938 150.61523438 C36.28168435 150.75308192 31.60379522 150.19379691 25.77807617 144.79370117 C25.19131104 144.20177979 24.6045459 143.6098584 24 143 C23.11570313 142.28714844 22.23140625 141.57429687 21.3203125 140.83984375 C2.16610175 124.24179992 -9.76474051 101.08576592 -13 76 C-13.29117186 71.28793221 -13.33423753 66.59514838 -13.3125 61.875 C-13.30686035 60.59109375 -13.3012207 59.3071875 -13.29541016 57.984375 C-13.17217233 48.32057726 -12.43618992 39.36311113 -10 30 C-9.78005371 29.1440625 -9.56010742 28.288125 -9.33349609 27.40625 C-6.85561695 17.94012017 -4.20346446 8.85897188 0 0 Z " fill="#96BE6E" transform="translate(33,290)"/>
<path d="M0 0 C16.21357301 14.73961183 25.81226104 39.82864271 27.22119141 61.3840332 C28.36447848 97.1008079 19.72721321 126.60871461 -5 153 C-23.54318128 172.05742937 -50.6730434 184.73771983 -77.35546875 185.265625 C-79.96614575 185.27087523 -82.57686374 185.26550106 -85.1875 185.25 C-87.15879883 185.26160156 -87.15879883 185.26160156 -89.16992188 185.2734375 C-95.78901198 185.26008583 -101.67981868 185.02374294 -108 183 C-106.75133587 180.64511643 -105.50110525 178.29108629 -104.25 175.9375 C-103.90195312 175.28072266 -103.55390625 174.62394531 -103.1953125 173.94726562 C-102.48863761 172.61897856 -101.77227779 171.29580159 -101.04663086 169.9777832 C-99.97686083 168.0218975 -99.97686083 168.0218975 -99.14282227 165.99682617 C-97.95729009 163.42391974 -96.91607327 161.37450716 -94.21142578 160.26879883 C-91.94871962 159.83829797 -89.73382275 159.61504834 -87.4375 159.4375 C-66.00161313 156.85473905 -45.14456999 148.61112517 -29 134 C-28.19820313 133.33871094 -27.39640625 132.67742187 -26.5703125 131.99609375 C-6.00075967 114.59848131 6.91979181 88.35177689 9.76171875 61.68359375 C10.18741109 55.10280896 10.20171794 48.58945284 10 42 C9.98195313 40.92234375 9.96390625 39.8446875 9.9453125 38.734375 C9.40075799 25.98539298 5.5178273 13.44438255 0 2 C0 1.34 0 0.68 0 0 Z " fill="#4E567D" transform="translate(477,191)"/>
<path d="M0 0 C22.77 0 45.54 0 69 0 C69 26.4 69 52.8 69 80 C65.37 80.33 61.74 80.66 58 81 C52.77596109 82.83945032 50.86415046 83.69834428 47.82421875 88.27734375 C45.03089502 94.21847392 45.32488904 100.55273467 45.25 107 C45.20552734 108.87751953 45.20552734 108.87751953 45.16015625 110.79296875 C45.08988136 113.86163888 45.04262748 116.93082131 45 120 C39.39 120 33.78 120 28 120 C27.96261719 118.329375 27.92523438 116.65875 27.88671875 114.9375 C26.86716509 76.77866806 20.12464165 41.27771258 2.94213867 6.99438477 C1.86177447 4.70739458 0.93936963 2.34842407 0 0 Z " fill="#F1DCD8" transform="translate(227,120)"/>
<path d="M0 0 C2.64523537 1.11232701 3.49057122 2.27042559 4.8671875 4.78515625 C5.23828125 7.82421875 5.23828125 7.82421875 5.3046875 11.41015625 C6.65411334 43.45605204 22.88485529 74.39744421 42.8671875 98.78515625 C43.32947754 99.35041016 43.79176758 99.91566406 44.26806641 100.49804688 C50.00995313 107.47999306 55.89806123 114.20711862 62.5546875 120.33984375 C63.8671875 121.78515625 63.8671875 121.78515625 63.8671875 123.78515625 C64.4859375 124.07390625 65.1046875 124.36265625 65.7421875 124.66015625 C67.8671875 125.78515625 67.8671875 125.78515625 69.8671875 127.78515625 C69.51419743 131.22680946 68.82137058 132.85388163 66.8671875 135.78515625 C64.52880859 136.12573242 64.52880859 136.12573242 61.640625 136.078125 C60.609375 136.06845703 59.578125 136.05878906 58.515625 136.04882812 C57.43539062 136.02369141 56.35515625 135.99855469 55.2421875 135.97265625 C54.15421875 135.95912109 53.06625 135.94558594 51.9453125 135.93164062 C49.25211341 135.89620379 46.55989376 135.84679956 43.8671875 135.78515625 C44.30160156 134.58761719 44.73601562 133.39007813 45.18359375 132.15625 C45.79256141 129.96562083 45.79256141 129.96562083 45.8671875 127.78515625 C44.22534249 125.26549311 42.97330621 123.81069717 40.8046875 121.84765625 C39.67228654 120.72224953 38.54622384 119.59043789 37.42578125 118.453125 C36.83651855 117.85935059 36.24725586 117.26557617 35.64013672 116.65380859 C9.18671941 88.77244588 -12.32012911 46.4749261 -11.50390625 7.48828125 C-11.1328125 4.78515625 -11.1328125 4.78515625 -9.1328125 1.41015625 C-5.64342059 -0.47993103 -3.83291189 -0.52944892 0 0 Z " fill="#578714" transform="translate(51.1328125,304.21484375)"/>
<path d="M0 0 C0.98143323 7.3960808 1.19167142 14.66806114 1.1875 22.125 C1.18814453 23.31391846 1.18878906 24.50283691 1.18945312 25.7277832 C1.13796904 34.30865925 0.58284464 42.56287278 -1 51 C-1.33 51 -1.66 51 -2 51 C-2.42317708 48.98177083 -2.84635417 46.96354167 -3.26953125 44.9453125 C-3.92308838 42.62953451 -3.92308838 42.62953451 -7 41 C-10.4103976 40.78685015 -12.74531799 40.915106 -16 42 C-16.69361646 43.65563233 -17.3539244 45.32524374 -18 47 C-19.49863738 49.28138293 -21.01614087 51.48771779 -22.625 53.6875 C-23.28725586 54.60136475 -23.28725586 54.60136475 -23.96289062 55.53369141 C-32.63042799 67.41570036 -32.63042799 67.41570036 -36 71 C-36.66 71 -37.32 71 -38 71 C-38.18433594 70.44054687 -38.36867188 69.88109375 -38.55859375 69.3046875 C-42.83659681 57.4783857 -50.09363478 47.45434378 -58.54516602 38.26245117 C-61.34061258 35.14901069 -62 34.37594379 -62 30 C-59.85660026 28.18919677 -57.85606603 26.73567406 -55.5 25.25 C-54.82146973 24.81244385 -54.14293945 24.3748877 -53.44384766 23.92407227 C-15.58836638 0 -15.58836638 0 0 0 Z " fill="#96BE6E" transform="translate(163,288)"/>
<path d="M0 0 C8.70418943 3.41175292 14.07477227 8.22212803 18.875 16.0625 C21.48842035 23.01075529 21.09646358 31.95255936 18.625 38.875 C16.13893791 44.29749775 12.80596694 49.31815438 9.52978516 54.29248047 C6.3167899 59.21614897 3.95452964 63.45365985 4.0625 69.5 C5.5453796 75.03608384 7.81219921 77.68862763 12.61328125 80.56640625 C18.50965174 83.61783534 24.49523981 86.03544568 30.8203125 88.04296875 C33 89 33 89 35 92 C35.65364121 98.86323268 35.65364121 98.86323268 33.5625 102.5 C28.59998737 105.40488544 24.07992723 104.52123478 18.7578125 103.1875 C5.89305446 99.06160878 -5.51066638 92.30098366 -12 80 C-15.52677854 71.25972275 -14.56370167 62.56538822 -11 54 C-7.67963838 47.66261844 -3.84050928 41.61866496 0.0546875 35.62109375 C2.33479758 31.71098762 2.88908773 27.40227907 2 23 C-1.56209945 19.0816906 -5.56433218 17.04263226 -10.36328125 14.89453125 C-12 14 -12 14 -13 12 C-13.56580566 4.98400984 -13.56580566 4.98400984 -11.5625 1.5 C-7.61895198 -0.80841835 -4.45080057 -0.88610163 0 0 Z " fill="#C8CCDF" transform="translate(277,0)"/>
<path d="M0 0 C8.70418943 3.41175292 14.07477227 8.22212803 18.875 16.0625 C21.48842035 23.01075529 21.09646358 31.95255936 18.625 38.875 C16.13893791 44.29749775 12.80596694 49.31815438 9.52978516 54.29248047 C6.3167899 59.21614897 3.95452964 63.45365985 4.0625 69.5 C5.5453796 75.03608384 7.81219921 77.68862763 12.61328125 80.56640625 C18.50965174 83.61783534 24.49523981 86.03544568 30.8203125 88.04296875 C33 89 33 89 35 92 C35.65364121 98.86323268 35.65364121 98.86323268 33.5625 102.5 C28.59998737 105.40488544 24.07992723 104.52123478 18.7578125 103.1875 C5.89305446 99.06160878 -5.51066638 92.30098366 -12 80 C-15.52677854 71.25972275 -14.56370167 62.56538822 -11 54 C-7.67963838 47.66261844 -3.84050928 41.61866496 0.0546875 35.62109375 C2.33479758 31.71098762 2.88908773 27.40227907 2 23 C-1.56209945 19.0816906 -5.56433218 17.04263226 -10.36328125 14.89453125 C-12 14 -12 14 -13 12 C-13.56580566 4.98400984 -13.56580566 4.98400984 -11.5625 1.5 C-7.61895198 -0.80841835 -4.45080057 -0.88610163 0 0 Z " fill="#C8CCDF" transform="translate(221,0)"/>
<path d="M0 0 C8.70418943 3.41175292 14.07477227 8.22212803 18.875 16.0625 C21.48842035 23.01075529 21.09646358 31.95255936 18.625 38.875 C16.13893791 44.29749775 12.80596694 49.31815438 9.52978516 54.29248047 C6.3167899 59.21614897 3.95452964 63.45365985 4.0625 69.5 C5.5453796 75.03608384 7.81219921 77.68862763 12.61328125 80.56640625 C18.50965174 83.61783534 24.49523981 86.03544568 30.8203125 88.04296875 C33 89 33 89 35 92 C35.65364121 98.86323268 35.65364121 98.86323268 33.5625 102.5 C28.59998737 105.40488544 24.07992723 104.52123478 18.7578125 103.1875 C5.89305446 99.06160878 -5.51066638 92.30098366 -12 80 C-15.52677854 71.25972275 -14.56370167 62.56538822 -11 54 C-7.67963838 47.66261844 -3.84050928 41.61866496 0.0546875 35.62109375 C2.33479758 31.71098762 2.88908773 27.40227907 2 23 C-1.56209945 19.0816906 -5.56433218 17.04263226 -10.36328125 14.89453125 C-12 14 -12 14 -13 12 C-13.56580566 4.98400984 -13.56580566 4.98400984 -11.5625 1.5 C-7.61895198 -0.80841835 -4.45080057 -0.88610163 0 0 Z " fill="#C8CCDF" transform="translate(165,0)"/>
<path d="M0 0 C7.73629023 0.96682586 7.73629023 0.96682586 10.8125 3.8125 C11.37582031 4.31394531 11.93914062 4.81539062 12.51953125 5.33203125 C16.10095219 9.36703585 16.25900579 12.82787741 16.29052734 18.15185547 C16.29724457 18.86456604 16.30396179 19.57727661 16.31088257 20.31158447 C16.32985262 22.66352342 16.33378624 25.01517685 16.3359375 27.3671875 C16.34236621 29.00619625 16.34909463 30.64520386 16.35610962 32.28421021 C16.36807994 35.71896016 16.37179071 39.15360956 16.37060547 42.58837891 C16.37040231 46.98227093 16.39770175 51.37551594 16.43214989 55.76925468 C16.45442529 59.15454042 16.45844282 62.53967061 16.45738602 65.92502213 C16.45974112 67.54449823 16.46855958 69.16397869 16.48405075 70.78338242 C16.50372437 73.05249638 16.49786866 75.3202174 16.48583984 77.58935547 C16.48868988 78.87856903 16.49153992 80.16778259 16.49447632 81.49606323 C15.74723602 86.79112519 13.3210709 89.83619945 9.375 93.3125 C4.94120702 96.46282659 1.11931794 96.19434272 -4.171875 96.23828125 C-5.08704895 96.246353 -6.0022229 96.25442474 -6.94512939 96.26274109 C-8.8852753 96.27658629 -10.82544561 96.28730649 -12.765625 96.29516602 C-15.72443248 96.3123515 -18.68211467 96.35623007 -21.640625 96.40039062 C-23.52603345 96.41052001 -25.41145141 96.41903535 -27.296875 96.42578125 C-28.17833191 96.44328934 -29.05978882 96.46079742 -29.96795654 96.47883606 C-36.78428923 96.45492416 -40.431351 94.568649 -45.3125 89.6875 C-47.35042991 86.44190793 -47.55368692 83.76935698 -48 80 C-46.94087402 79.98541748 -45.88174805 79.97083496 -44.79052734 79.95581055 C-40.84292658 79.89762673 -36.89588429 79.82039593 -32.94873047 79.73754883 C-31.24374488 79.70439364 -29.53865202 79.67633263 -27.83349609 79.65356445 C-25.37551366 79.61984432 -22.91850594 79.56752206 -20.4609375 79.51171875 C-19.70444916 79.50532883 -18.94796082 79.4989389 -18.16854858 79.49235535 C-13.41576228 79.36174559 -10.13730188 78.56911232 -6 76 C-1.58209963 71.22389149 -0.87732721 67.8048598 -0.79467773 61.41723633 C-0.78477814 60.75355545 -0.77487854 60.08987457 -0.76467896 59.40608215 C-0.7331191 57.21476801 -0.70832845 55.02343219 -0.68359375 52.83203125 C-0.66301945 51.31173645 -0.64202285 49.79144731 -0.62062073 48.27116394 C-0.56544916 44.27141913 -0.51601825 40.27162311 -0.46777344 36.27178955 C-0.4175225 32.18961026 -0.36185519 28.10750526 -0.30664062 24.02539062 C-0.19911918 16.0169899 -0.09766089 8.00852701 0 0 Z " fill="#678C3B" transform="translate(320,200)"/>
<path d="M0 0 C5.28 0 10.56 0 16 0 C16 26.4 16 52.8 16 80 C10.72 80 5.44 80 0 80 C0 53.6 0 27.2 0 0 Z " fill="#A05B10" transform="translate(296,120)"/>
<path d="M0 0 C2.5 2 2.5 2 4 5 C4.04800789 11.03099074 2.42024632 16.83546449 0.5 22.5 C0.24299316 23.26465576 -0.01401367 24.02931152 -0.27880859 24.81713867 C-3.80800435 34.84461771 -8.61842343 46.17991393 -16 54 C-18.68179024 55.20493955 -21.09097429 55.38594995 -24 55 C-27 52.9375 -27 52.9375 -29 50 C-29.64478569 44.83455023 -28.28805617 42.32547426 -25.375 38.125 C-19.34493391 28.95860258 -15.78058518 18.93707183 -13.4375 8.25 C-12.59279933 4.66124284 -12.09990908 3.12488635 -9.75 0.1875 C-5.97624014 -1.44207812 -3.9093758 -1.20835252 0 0 Z " fill="#F6DC93" transform="translate(347,305)"/>
<path d="M0 0 C4.14824477 0.76192251 5.57647551 2.19905511 8.0625 5.5625 C9.15130275 9.81872891 7.76539027 12.46649235 5.6875 16.125 C-1.26374275 27.01800629 -9.79685548 38.42185548 -18.9375 47.5625 C-25.8648743 48.23289106 -25.8648743 48.23289106 -29.4375 46 C-31.57251343 42.53060318 -31.45497985 40.60787822 -30.9375 36.5625 C-29.14942192 33.59557298 -26.8835453 31.12315052 -24.5625 28.5625 C-19.24249776 22.43416535 -14.46693734 16.2479057 -10.13525391 9.38476562 C-4.74401991 0.90842934 -4.74401991 0.90842934 0 0 Z " fill="#578714" transform="translate(152.9375,327.4375)"/>
<path d="M0 0 C2.9375 2 2.9375 2 5 5 C5.41364932 8.66375108 5.54225551 9.84291225 4 13 C-1.02931011 18.24697956 -8.17625346 21.25822286 -14.625 24.4375 C-15.32882812 24.79199219 -16.03265625 25.14648438 -16.7578125 25.51171875 C-21.7408125 27.85447248 -25.49196034 28.53895872 -31 28 C-33.98202078 25.46528234 -34.83065071 23.81287661 -35.625 20 C-34.92038278 16.61783736 -33.84966343 15.25254466 -31.08984375 13.20703125 C-27.61895095 11.20234737 -23.89717116 9.85233177 -20.16796875 8.40234375 C-15.94404661 6.53256811 -12.3152582 4.04106437 -8.5703125 1.35546875 C-5.44877276 -0.29069278 -3.48451084 -0.39456262 0 0 Z " fill="#F6DC93" transform="translate(307,366)"/>
<path d="M0 0 C1.06612049 3.21822986 0.94531209 4.9967731 -0.22265625 8.16015625 C-0.51060059 8.9483374 -0.79854492 9.73651855 -1.09521484 10.54858398 C-1.41441895 11.37817627 -1.73362305 12.20776855 -2.0625 13.0625 C-2.54904053 14.34459351 -2.54904053 14.34459351 -3.04541016 15.65258789 C-8.51569953 29.76743392 -16.67276337 41.91711191 -27 53 C-27.66 53 -28.32 53 -29 53 C-30.06725394 38.73606641 -30.06725394 38.73606641 -27.828125 35.09375 C-26.1875 33.875 -26.1875 33.875 -24.26171875 32.6640625 C-21.06940724 30.31531517 -18.89922154 27.38015099 -16.5 24.25 C-16.02643066 23.63616455 -15.55286133 23.0223291 -15.06494141 22.38989258 C-9.56890169 15.20400588 -4.32537344 7.95868713 0 0 Z " fill="#94BC6C" transform="translate(160,339)"/>
<path d="M0 0 C1.16959987 0.97566112 2.33561177 1.955625 3.5 2.9375 C4.1496875 3.48277344 4.799375 4.02804687 5.46875 4.58984375 C6.22671875 5.28787109 6.22671875 5.28787109 7 6 C7 6.33 7 6.66 7 7 C3.7 7 0.4 7 -3 7 C-1.125 1.125 -1.125 1.125 0 0 Z " fill="#668C39" transform="translate(98,433)"/>
</svg>
