<?xml version="1.0" encoding="UTF-8"?>
<svg version="1.1" xmlns="http://www.w3.org/2000/svg" width="512" height="512">
<path d="M0 0 C2.5 1.75 2.5 1.75 4 4 C4 5.32 4 6.64 4 8 C5.01490824 7.99631283 6.02981647 7.99262566 7.07547951 7.98882675 C31.76265453 7.90005542 56.44980887 7.83430976 81.13710976 7.79275131 C93.07567642 7.77212013 105.0141377 7.74398876 116.95263672 7.69824219 C127.35740649 7.65839162 137.76209994 7.63257124 148.16694391 7.62364602 C153.67700102 7.61842829 159.18683976 7.60615292 164.69682693 7.57707977 C169.8825887 7.54993895 175.06804206 7.54155238 180.2538681 7.54756927 C182.15740764 7.54646845 184.06095744 7.53850671 185.96443558 7.5231781 C188.56387837 7.50327097 191.16215737 7.50806325 193.7616272 7.51898193 C194.51455791 7.50733057 195.26748863 7.4956792 196.04323542 7.48367476 C202.45426495 7.55644332 205.9535966 9.9535966 210.375 14.375 C212.18364494 18.40966948 212.1672709 20.84431787 212.1015625 25.2265625 C212.07956787 27.12656006 212.07956787 27.12656006 212.05712891 29.06494141 C212.03827637 30.03351074 212.01942383 31.00208008 212 32 C212.59975647 31.99111755 213.19951294 31.98223511 213.81744385 31.9730835 C220.11257302 31.88394603 226.40752022 31.82399292 232.703125 31.78027344 C235.04629815 31.76027389 237.38942214 31.73306523 239.73242188 31.69824219 C243.11861371 31.64920875 246.50414041 31.62691379 249.890625 31.609375 C250.92237854 31.58872986 251.95413208 31.56808472 253.01715088 31.54681396 C266.94795238 31.54260569 277.67236582 36.96257244 287.75 46.3125 C298.07459911 57.22151038 300.46796738 69.32012777 300.43359375 83.8984375 C300.4388356 85.20978668 300.44407745 86.52113586 300.44947815 87.8722229 C300.45835513 90.63398954 300.45604942 93.3954662 300.44604492 96.15722656 C300.43457175 99.66263451 300.45476761 103.16703248 300.48396206 106.67230797 C300.50692904 110.06023394 300.49984801 113.44793605 300.49609375 116.8359375 C300.50732773 118.07693207 300.51856171 119.31792664 300.53013611 120.5965271 C300.41481624 135.20160533 295.57919329 145.96795859 285.8125 156.6875 C276.55466898 165.28798611 263.93253642 169.90301355 252.5 174.875 C250.89698105 175.57805342 249.29428104 176.28183445 247.69189453 176.98632812 C245.31682065 178.03037838 242.94153546 179.07390757 240.56497192 180.11456299 C233.49763521 183.21034867 226.46701782 186.38496188 219.45898438 189.61279297 C214.21639731 192 214.21639731 192 212 192 C212.04640625 192.86238281 212.0928125 193.72476563 212.140625 194.61328125 C213.01663734 224.24127018 199.93448773 250.72397709 180 272 C164.16047333 288.27879576 143.19298623 298.6643227 121 303 C121.78483387 303.00146656 122.56966774 303.00293312 123.37828445 303.00444412 C142.4652724 303.0414779 161.55207682 303.10044692 180.63891983 303.18390274 C189.86914618 303.22373093 199.0992868 303.25610417 208.32958984 303.27099609 C216.37369265 303.28399307 224.41760713 303.31090753 232.46160388 303.35461307 C236.72182613 303.37727206 240.98181572 303.39290804 245.24210358 303.39188385 C249.25100133 303.39113984 253.25938392 303.40898547 257.26814842 303.44116783 C258.74032175 303.44969544 260.21255267 303.45139739 261.68474007 303.44580269 C263.69335353 303.43918545 265.70200218 303.45940405 267.71051025 303.48101807 C269.39739141 303.48654882 269.39739141 303.48654882 271.11835098 303.49219131 C274.67384023 304.11874518 275.84868386 305.14411483 278 308 C279.0866957 313.63105951 277.95396664 316.62629303 275 321.5 C267.34922473 332.48378628 256.57638514 341.40153851 243 344 C241.02677563 344.09319227 239.05066969 344.1308727 237.07524872 344.13422108 C235.85549646 344.13867892 234.6357442 344.14313676 233.37902975 344.14772969 C232.02347913 344.1476404 230.66792852 344.14745055 229.31237793 344.14717102 C227.87379688 344.15047069 226.43521676 344.15419648 224.99663782 344.1583125 C221.03829034 344.16832909 217.07995803 344.17204875 213.12159967 344.17470181 C208.85418205 344.17860594 204.58677642 344.18818428 200.31936646 344.19691467 C190.01017242 344.21667724 179.70097741 344.22674558 169.39176917 344.23564246 C164.53586243 344.24002619 159.67995678 344.24539282 154.8240509 344.25063133 C138.67944312 344.26764431 122.53483601 344.28213778 106.39022064 344.28938007 C102.20057677 344.29128994 98.01093291 344.29321028 93.82128906 344.29516602 C92.2593309 344.29589163 92.2593309 344.29589163 90.66581804 344.2966319 C73.8029776 344.30492954 56.94020816 344.33026166 40.07739872 344.36274669 C22.76090269 344.39583343 5.44444271 344.41383034 -11.87208509 344.41702431 C-21.5930773 344.41918804 -31.313966 344.42791649 -41.03492737 344.45348549 C-49.31514043 344.47521463 -57.59522485 344.48323206 -65.87546319 344.47351871 C-70.09773378 344.46898026 -74.31973907 344.47083351 -78.54197311 344.49028015 C-82.41367711 344.50795771 -86.28492319 344.5068773 -90.15663236 344.49138286 C-91.55106992 344.4890137 -92.94553957 344.49329421 -94.33992821 344.50521151 C-109.92513152 344.63007191 -121.32579212 340.28676507 -132.75 329.6875 C-137.45975625 324.69806701 -142.24252176 318.70744182 -142.625 311.625 C-141.90966042 307.47603045 -141.27873616 306.5152536 -138 304 C-135.11835098 303.49219131 -135.11835098 303.49219131 -131.71051025 303.48101807 C-129.77121391 303.46014885 -129.77121391 303.46014885 -127.79273987 303.43885803 C-126.36215084 303.44357101 -124.93156302 303.44866496 -123.50097656 303.45410156 C-121.99300571 303.44536659 -120.48504412 303.43488107 -118.97709656 303.42277527 C-114.88441516 303.39488493 -110.79203574 303.39151124 -106.69927311 303.39249516 C-102.4217405 303.38936864 -98.14434442 303.36375592 -93.86688232 303.34051514 C-85.76738564 303.29993148 -77.66796951 303.27960889 -69.56838679 303.26654124 C-60.34711541 303.25067919 -51.12598128 303.21226694 -41.90478945 303.17194796 C-22.93656967 303.08951667 -3.96836283 303.03544476 15 303 C13.35587128 302.59923248 13.35587128 302.59923248 11.67852783 302.19036865 C10.22477599 301.83246565 8.77106303 301.47440474 7.31738281 301.11621094 C6.59680695 300.94100922 5.87623108 300.7658075 5.13381958 300.58529663 C-0.2250721 299.26001224 -5.24313375 297.59479208 -10.25 295.25 C-11.00176514 294.90493408 -11.75353027 294.55986816 -12.52807617 294.2043457 C-39.32916773 281.56556952 -59.50066481 258.67711324 -70.19091797 231.25634766 C-73.89244588 220.93361954 -76.1500035 210.11052416 -76.14717102 199.14367676 C-76.15084771 198.37099221 -76.1545244 197.59830766 -76.1583125 196.80220842 C-76.16929219 194.22294981 -76.17318332 191.64373155 -76.17700195 189.06445312 C-76.18327062 187.21125665 -76.18991778 185.35806142 -76.19691467 183.50486755 C-76.21789876 177.43033718 -76.22830756 171.3558067 -76.23828125 165.28125 C-76.24233006 163.188156 -76.24644702 161.09506212 -76.25063133 159.00196838 C-76.26966572 149.17328557 -76.28390388 139.34461022 -76.2922433 129.51591253 C-76.30202805 118.17188317 -76.3283872 106.82804828 -76.36874419 95.48408747 C-76.39888145 86.71196911 -76.41370966 77.93990662 -76.41702431 69.16773748 C-76.41937629 63.92940981 -76.4283571 58.69129033 -76.45348549 53.45301819 C-76.47673121 48.52816324 -76.48101355 43.60365417 -76.47072411 38.67875862 C-76.47022789 36.87197279 -76.47657367 35.06517011 -76.49028015 33.2584362 C-76.50795405 30.79064954 -76.50091601 28.3241105 -76.48774719 25.85632324 C-76.49871644 25.14250378 -76.50968568 24.42868432 -76.52098733 23.69323397 C-76.45642275 18.67752494 -75.10599858 15.88341891 -72 12 C-66.53842463 6.81317344 -60.70086232 7.48195024 -53.6015625 7.609375 C-52.41146576 7.61503479 -51.22136902 7.62069458 -49.99520874 7.62652588 C-46.20472514 7.64886549 -42.41519655 7.69906037 -38.625 7.75 C-36.05079493 7.77006799 -33.476575 7.78831823 -30.90234375 7.8046875 C-24.60123822 7.84872255 -18.30068735 7.91561195 -12 8 C-11.8453125 6.576875 -11.8453125 6.576875 -11.6875 5.125 C-10.36097427 -0.90466241 -5.31327012 -0.87663612 0 0 Z M212 64 C212 93.37 212 122.74 212 153 C229.32796337 145.54701159 229.32796337 145.54701159 246.5 137.75 C247.33917969 137.3684375 248.17835938 136.986875 249.04296875 136.59375 C256.68089959 132.99660832 262.50910865 128.93134707 266.2734375 121.22265625 C268.50211755 114.40481245 268.18312808 107.21624801 268.1875 100.125 C268.20586914 98.56845703 268.20586914 98.56845703 268.22460938 96.98046875 C268.24245854 87.54420839 267.58723307 78.29191381 261 71 C246.59474502 59.76878426 230.42760562 64 212 64 Z " fill="#FE8838" transform="translate(188,160)"/>
<path d="M0 0 C0.09387028 18.31669896 0.16418669 36.63333461 0.20724869 54.95022297 C0.22778374 63.45705061 0.25572868 71.96372791 0.30175781 80.47045898 C0.34190555 87.89384247 0.36749842 95.31711696 0.37635398 102.74060601 C0.38152202 106.66324547 0.39347394 110.58557339 0.42292023 114.50811195 C0.56493711 134.19201404 0.60266293 153.5021273 -7.6875 171.8125 C-8.02998779 172.59254395 -8.37247559 173.37258789 -8.7253418 174.17626953 C-21.01533244 201.30265016 -43.32809107 222.54104782 -71.07763672 233.2890625 C-77.605537 235.70324152 -84.17230203 237.66612385 -91 239 C-90.21516613 239.00146656 -89.43033226 239.00293312 -88.62171555 239.00444412 C-69.5347276 239.0414779 -50.44792318 239.10044692 -31.36108017 239.18390274 C-22.13085382 239.22373093 -12.9007132 239.25610417 -3.67041016 239.27099609 C4.37369265 239.28399307 12.41760713 239.31090753 20.46160388 239.35461307 C24.72182613 239.37727206 28.98181572 239.39290804 33.24210358 239.39188385 C37.25100133 239.39113984 41.25938392 239.40898547 45.26814842 239.44116783 C46.74032175 239.44969544 48.21255267 239.45139739 49.68474007 239.44580269 C51.69335353 239.43918545 53.70200218 239.45940405 55.71051025 239.48101807 C57.39739141 239.48654882 57.39739141 239.48654882 59.11835098 239.49219131 C62.67384023 240.11874518 63.84868386 241.14411483 66 244 C67.0866957 249.63105951 65.95396664 252.62629303 63 257.5 C55.34922473 268.48378628 44.57638514 277.40153851 31 280 C29.02677563 280.09319227 27.05066969 280.1308727 25.07524872 280.13422108 C23.85549646 280.13867892 22.6357442 280.14313676 21.37902975 280.14772969 C20.02347913 280.1476404 18.66792852 280.14745055 17.31237793 280.14717102 C15.87379688 280.15047069 14.43521676 280.15419648 12.99663782 280.1583125 C9.03829034 280.16832909 5.07995803 280.17204875 1.12159967 280.17470181 C-3.14581795 280.17860594 -7.41322358 280.18818428 -11.68063354 280.19691467 C-21.98982758 280.21667724 -32.29902259 280.22674558 -42.60823083 280.23564246 C-47.46413757 280.24002619 -52.32004322 280.24539282 -57.1759491 280.25063133 C-73.32055688 280.26764431 -89.46516399 280.28213778 -105.60977936 280.28938007 C-109.79942323 280.29128994 -113.98906709 280.29321028 -118.17871094 280.29516602 C-119.7406691 280.29589163 -119.7406691 280.29589163 -121.33418196 280.2966319 C-138.1970224 280.30492954 -155.05979184 280.33026166 -171.92260128 280.36274669 C-189.23909731 280.39583343 -206.55555729 280.41383034 -223.87208509 280.41702431 C-233.5930773 280.41918804 -243.313966 280.42791649 -253.03492737 280.45348549 C-261.31514043 280.47521463 -269.59522485 280.48323206 -277.87546319 280.47351871 C-282.09773378 280.46898026 -286.31973907 280.47083351 -290.54197311 280.49028015 C-294.41367711 280.50795771 -298.28492319 280.5068773 -302.15663236 280.49138286 C-303.55106992 280.4890137 -304.94553957 280.49329421 -306.33992821 280.50521151 C-321.92513152 280.63007191 -333.32579212 276.28676507 -344.75 265.6875 C-349.45975625 260.69806701 -354.24252176 254.70744182 -354.625 247.625 C-353.90966042 243.47603045 -353.27873616 242.5152536 -350 240 C-347.11835098 239.49219131 -347.11835098 239.49219131 -343.71051025 239.48101807 C-342.41764603 239.46710526 -341.1247818 239.45319244 -339.79273987 239.43885803 C-338.36215084 239.44357101 -336.93156302 239.44866496 -335.50097656 239.45410156 C-333.99300571 239.44536659 -332.48504412 239.43488107 -330.97709656 239.42277527 C-326.88441516 239.39488493 -322.79203574 239.39151124 -318.69927311 239.39249516 C-314.4217405 239.38936864 -310.14434442 239.36375592 -305.86688232 239.34051514 C-297.76738564 239.29993148 -289.66796951 239.27960889 -281.56838679 239.26654124 C-272.34711541 239.25067919 -263.12598128 239.21226694 -253.90478945 239.17194796 C-234.93656967 239.08951667 -215.96836283 239.03544476 -197 239 C-198.09608582 238.73282166 -199.19217163 238.46564331 -200.32147217 238.19036865 C-201.77522401 237.83246565 -203.22893697 237.47440474 -204.68261719 237.11621094 C-205.40319305 236.94100922 -206.12376892 236.7658075 -206.86618042 236.58529663 C-212.2250721 235.26001224 -217.24313375 233.59479208 -222.25 231.25 C-223.37764771 230.73240112 -223.37764771 230.73240112 -224.52807617 230.2043457 C-242.91263927 221.53461008 -258.96560502 207.55544024 -270.0625 190.5625 C-270.45727539 189.95881592 -270.85205078 189.35513184 -271.25878906 188.7331543 C-273.02236929 185.93238328 -274 184.37361702 -274 181 C-270.05642078 181.65363192 -266.63257882 182.86400122 -262.9375 184.375 C-246.88755876 190.64281001 -231.61112949 191.17485578 -214.625 191.23828125 C-213.23270676 191.24439454 -213.23270676 191.24439454 -211.81228638 191.25063133 C-206.89618156 191.27139814 -201.98010385 191.28573846 -197.06396484 191.29516602 C-192.03924758 191.30619379 -187.01497754 191.34057908 -181.99041748 191.38033772 C-178.07968436 191.40673441 -174.16905407 191.41487819 -170.25823975 191.41844749 C-168.40864044 191.42325634 -166.55904388 191.43470253 -164.70953369 191.45348549 C-136.91991936 191.71811264 -109.14707699 183.66752023 -88 165 C-87.15824219 164.28972656 -86.31648438 163.57945312 -85.44921875 162.84765625 C-65.34770336 145.4914161 -52.2964535 119.31322628 -49 93 C-48.59945372 86.74604001 -48.62741165 80.47127823 -48.5859375 74.20703125 C-48.56719474 72.40670414 -48.5476191 70.60638552 -48.5272522 68.80607605 C-48.47625296 64.10282435 -48.43645635 59.39954426 -48.39910889 54.69616699 C-48.35886559 49.8826616 -48.30786671 45.06927097 -48.2578125 40.25585938 C-48.16143536 30.83732058 -48.07691016 21.41871649 -48 12 C-44.19411145 10.90325607 -40.3916899 9.81667818 -36.54931641 8.85498047 C-35.75224274 8.65492401 -34.95516907 8.45486755 -34.13394165 8.24874878 C-33.29825653 8.04033356 -32.46257141 7.83191833 -31.6015625 7.6171875 C-30.72599701 7.39805695 -29.85043152 7.17892639 -28.94833374 6.95315552 C-27.11137089 6.49374561 -25.27426108 6.03492292 -23.43701172 5.57666016 C-20.61251095 4.8718837 -17.78865248 4.16457479 -14.96484375 3.45703125 C-13.17712108 3.01026561 -11.38936196 2.56364576 -9.6015625 2.1171875 C-8.75373199 1.90472382 -7.90590149 1.69226013 -7.03237915 1.47335815 C-1.11497642 0 -1.11497642 0 0 0 Z " fill="#ED5607" transform="translate(400,224)"/>
<path d="M0 0 C25.71237325 -0.09027002 51.42461834 -0.16396444 77.13710976 -0.20724869 C89.07567642 -0.22787987 101.0141377 -0.25601124 112.95263672 -0.30175781 C123.35740649 -0.34160838 133.76209994 -0.36742876 144.16694391 -0.37635398 C149.67700102 -0.38157171 155.18683976 -0.39384708 160.69682693 -0.42292023 C165.8825887 -0.45006105 171.06804206 -0.45844762 176.2538681 -0.45243073 C178.15740764 -0.45353155 180.06095744 -0.46149329 181.96443558 -0.4768219 C184.56387837 -0.49672903 187.16215737 -0.49193675 189.7616272 -0.48101807 C190.51455791 -0.49266943 191.26748863 -0.5043208 192.04323542 -0.51632524 C198.45426495 -0.44355668 201.9535966 1.9535966 206.375 6.375 C208.18364494 10.40966948 208.1672709 12.84431787 208.1015625 17.2265625 C208.08689941 18.49322754 208.07223633 19.75989258 208.05712891 21.06494141 C208.03827637 22.03351074 208.01942383 23.00208008 208 24 C208.59975647 23.99111755 209.19951294 23.98223511 209.81744385 23.9730835 C216.11257302 23.88394603 222.40752022 23.82399292 228.703125 23.78027344 C231.04629815 23.76027389 233.38942214 23.73306523 235.73242188 23.69824219 C239.11861371 23.64920875 242.50414041 23.62691379 245.890625 23.609375 C246.92237854 23.58872986 247.95413208 23.56808472 249.01715088 23.54681396 C262.94795238 23.54260569 273.67236582 28.96257244 283.75 38.3125 C294.07459911 49.22151038 296.46796738 61.32012777 296.43359375 75.8984375 C296.4388356 77.20978668 296.44407745 78.52113586 296.44947815 79.8722229 C296.45835513 82.63398954 296.45604942 85.3954662 296.44604492 88.15722656 C296.43457175 91.66263451 296.45476761 95.16703248 296.48396206 98.67230797 C296.50692904 102.06023394 296.49984801 105.44793605 296.49609375 108.8359375 C296.50732773 110.07693207 296.51856171 111.31792664 296.53013611 112.5965271 C296.41481624 127.20160533 291.57919329 137.96795859 281.8125 148.6875 C272.55466898 157.28798611 259.93253642 161.90301355 248.5 166.875 C246.89698105 167.57805342 245.29428104 168.28183445 243.69189453 168.98632812 C241.31682065 170.03037838 238.94153546 171.07390757 236.56497192 172.11456299 C229.49763521 175.21034867 222.46701782 178.38496188 215.45898438 181.61279297 C210.21639731 184 210.21639731 184 208 184 C208 171.13 208 158.26 208 145 C218.75739309 139.62130345 229.49111586 134.38939038 240.46337891 129.49194336 C252.298978 124.61761348 252.298978 124.61761348 260.3125 115.125 C260.61800781 114.50882812 260.92351562 113.89265625 261.23828125 113.2578125 C263.53433284 106.45208011 263.18312555 99.22036133 263.1875 92.125 C263.19974609 91.08730469 263.21199219 90.04960937 263.22460938 88.98046875 C263.24208447 79.74197029 262.51040645 72.53088881 257 65 C257 64.34 257 63.68 257 63 C256.46375 62.731875 255.9275 62.46375 255.375 62.1875 C253.62450404 61.31225202 251.89832543 60.38795857 250.1875 59.4375 C243.79049706 56.5525771 236.93863867 56.84916128 230.04689026 56.84178162 C228.56783995 56.83437465 228.56783995 56.83437465 227.05890983 56.82681805 C223.76396562 56.81149354 220.46904082 56.80309612 217.17407227 56.79467773 C214.80853607 56.78509525 212.44300158 56.77508495 210.07746887 56.76467896 C203.66074354 56.73766405 197.24401089 56.71663598 190.82726026 56.69667697 C184.79917373 56.67747798 178.77110776 56.65287319 172.74303936 56.62875474 C160.80632587 56.5811412 148.86960077 56.5378602 136.93286133 56.49731445 C125.34007872 56.45792773 113.74730639 56.41649393 102.15454102 56.37231445 C101.43950114 56.36959018 100.72446127 56.36686591 99.98775352 56.36405908 C96.40047073 56.35037908 92.8131881 56.33665891 89.22590554 56.32291877 C59.48395781 56.20905203 29.74198777 56.1030212 0 56 C0 37.52 0 19.04 0 0 Z " fill="#DEDDD8" transform="translate(192,168)"/>
<path d="M0 0 C1.04854042 -0.00872064 1.04854042 -0.00872064 2.11826348 -0.01761746 C4.47246906 -0.03227424 6.82564124 -0.01830673 9.17984009 -0.00457001 C10.87986473 -0.0091767 12.5798854 -0.01552806 14.27989769 -0.02347898 C18.96069404 -0.04022732 23.64116555 -0.03190105 28.32196331 -0.01953411 C33.36634751 -0.01050839 38.41067464 -0.024441 43.45504761 -0.0354538 C53.34061832 -0.05327015 63.22606778 -0.04938517 73.11164331 -0.03780323 C81.14356134 -0.02878142 89.17544531 -0.02753948 97.20736694 -0.0318985 C98.34911892 -0.03251143 99.4908709 -0.03312436 100.66722143 -0.03375587 C102.98643638 -0.03503473 105.30565132 -0.03633158 107.62486625 -0.03764623 C129.38852037 -0.04906116 151.15210718 -0.03592401 172.91575027 -0.01444477 C191.60293502 0.00342703 210.2900204 0.00032318 228.97720337 -0.01811981 C250.66127726 -0.03951041 272.34529211 -0.04796244 294.02937508 -0.03567076 C296.34021122 -0.03439652 298.65104738 -0.03313904 300.96188354 -0.0318985 C302.66748949 -0.03097285 302.66748949 -0.03097285 304.40755212 -0.03002849 C312.43279774 -0.02657016 320.45800601 -0.03241434 328.48324585 -0.04181671 C338.25908717 -0.05301797 348.03479997 -0.05003616 357.81062651 -0.02869374 C362.80147853 -0.01815806 367.79211602 -0.01410423 372.78296661 -0.02729034 C377.34754353 -0.03916811 381.9117061 -0.0327284 386.47624516 -0.01138014 C388.13163251 -0.0068944 389.78705452 -0.00922425 391.44241977 -0.01888329 C393.68520099 -0.03097081 395.9265455 -0.01865244 398.16925049 0 C399.41712152 0.00064941 400.66499256 0.00129882 401.95067787 0.00196791 C405.68626321 0.59961993 406.86587032 1.48507916 409.08462524 4.50336456 C410.17132094 10.13442408 409.03859188 13.1296576 406.08462524 18.00336456 C398.43384997 28.98715085 387.66101038 37.90490308 374.08462524 40.50336456 C372.11140087 40.59655683 370.13529493 40.63423727 368.15987396 40.63758564 C366.9401217 40.64204348 365.72036944 40.64650133 364.46365499 40.65109426 C363.10810438 40.65100496 361.75255376 40.65081512 360.39700317 40.65053558 C358.95842213 40.65383526 357.51984201 40.65756104 356.08126307 40.66167706 C352.12291559 40.67169365 348.16458327 40.67541332 344.20622492 40.67806637 C339.93880729 40.6819705 335.67140166 40.69154885 331.4039917 40.70027924 C321.09479767 40.72004181 310.78560266 40.73011014 300.47639441 40.73900703 C295.62048768 40.74339075 290.76458203 40.74875739 285.90867615 40.7539959 C269.76406836 40.77100887 253.61946126 40.78550234 237.47484589 40.79274464 C233.28520202 40.79465451 229.09555815 40.79657484 224.90591431 40.79853058 C223.34395615 40.79925619 223.34395615 40.79925619 221.75044328 40.79999646 C204.88760284 40.8082941 188.02483341 40.83362622 171.16202396 40.86611126 C153.84552793 40.899198 136.52906796 40.91719491 119.21254015 40.92038888 C109.49154795 40.9225526 99.77065925 40.93128106 90.04969788 40.95685005 C81.76948482 40.9785792 73.48940039 40.98659662 65.20916206 40.97688327 C60.98689147 40.97234482 56.76488617 40.97419807 52.54265213 40.99364471 C48.67094813 41.01132227 44.79970205 41.01024187 40.92799288 40.99474742 C39.53355533 40.99237826 38.13908568 40.99665877 36.74469703 41.00857607 C21.15949373 41.13343647 9.75883312 36.79012964 -1.66537476 26.19086456 C-6.375131 21.20143158 -11.15789652 15.21080638 -11.54037476 8.12836456 C-10.3251497 1.08005922 -6.69749014 0.00348547 0 0 Z " fill="#939393" transform="translate(56.915374755859375,463.4966354370117)"/>
<path d="M0 0 C0.66 -0.0103125 1.32 -0.020625 2 -0.03125 C5.11687977 0.79667119 6.08432288 1.86830132 8 4.5 C8.59579234 7.95164852 8.50458284 11.37371449 8.45410156 14.86816406 C8.45468567 15.92213379 8.45526978 16.97610352 8.45587158 18.06201172 C8.45308414 21.54688411 8.42195968 25.03090196 8.390625 28.515625 C8.38316499 30.93129001 8.37747093 33.34696106 8.37347412 35.76263428 C8.35819905 42.1217112 8.31890049 48.48042289 8.2746582 54.83935547 C8.23374624 61.32774922 8.21547178 67.81620196 8.1953125 74.3046875 C8.15240856 87.03661419 8.08490262 99.76828767 8 112.5 C9.1285289 112.44013412 10.2570578 112.38026825 11.41978455 112.31858826 C26.42620724 111.75066173 26.42620724 111.75066173 31.78245544 115.92588806 C40.95246454 125.16417417 41.44513572 134.69647874 41.46902657 147.10630989 C41.42269653 153.05724068 41.15862372 158.98751085 40.9375 164.9375 C40.628125 176.673125 40.31875 188.40875 40 200.5 C13.6 200.5 -12.8 200.5 -40 200.5 C-40.495 183.175 -40.495 183.175 -41 165.5 C-41.14566406 161.88675781 -41.29132813 158.27351562 -41.44140625 154.55078125 C-42.0567262 128.8545157 -42.0567262 128.8545157 -34.98608398 120.25268555 C-29.51701769 114.73929837 -25.51273625 112.26442523 -17.66444397 112.12275696 C-14.43325839 112.15440589 -11.22510696 112.29758122 -8 112.5 C-8.00368717 111.94708408 -8.00737434 111.39416817 -8.01117325 110.82449722 C-8.09951151 97.37068865 -8.16544792 83.91693088 -8.20724869 70.46289444 C-8.22814165 63.95659851 -8.25649108 57.45051157 -8.30175781 50.94433594 C-8.3451537 44.66792491 -8.36912422 38.39171516 -8.37950897 32.11516571 C-8.38691153 29.71810486 -8.40136659 27.32105527 -8.42292023 24.9240799 C-8.45187016 21.57186395 -8.45595941 18.22048448 -8.45410156 14.86816406 C-8.46848267 13.87266541 -8.48286377 12.87716675 -8.49768066 11.85150146 C-8.45724277 5.12814614 -8.45724277 5.12814614 -6.09661865 1.88519287 C-3.8365949 0.39204161 -2.68570721 -0.04196418 0 0 Z " fill="#929E5B" transform="translate(184,159.5)"/>
<path d="M0 0 C6.90172536 -0.09229648 13.80127209 -0.17179703 20.703125 -0.21972656 C23.04629815 -0.23972611 25.38942214 -0.26693477 27.73242188 -0.30175781 C31.11861371 -0.35079125 34.50414041 -0.37308621 37.890625 -0.390625 C38.92237854 -0.41127014 39.95413208 -0.43191528 41.01715088 -0.45318604 C54.94795238 -0.45739431 65.67236582 4.96257244 75.75 14.3125 C86.07459911 25.22151038 88.46796738 37.32012777 88.43359375 51.8984375 C88.4388356 53.20978668 88.44407745 54.52113586 88.44947815 55.8722229 C88.45835513 58.63398954 88.45604942 61.3954662 88.44604492 64.15722656 C88.43457175 67.66263451 88.45476761 71.16703248 88.48396206 74.67230797 C88.50692904 78.06023394 88.49984801 81.44793605 88.49609375 84.8359375 C88.50732773 86.07693207 88.51856171 87.31792664 88.53013611 88.5965271 C88.41481624 103.20160533 83.57919329 113.96795859 73.8125 124.6875 C64.55466898 133.28798611 51.93253642 137.90301355 40.5 142.875 C38.89698105 143.57805342 37.29428104 144.28183445 35.69189453 144.98632812 C33.31682065 146.03037838 30.94153546 147.07390757 28.56497192 148.11456299 C21.49763521 151.21034867 14.46701782 154.38496188 7.45898438 157.61279297 C2.21639731 160 2.21639731 160 0 160 C0 147.13 0 134.26 0 121 C10.75739309 115.62130345 21.49111586 110.38939038 32.46337891 105.49194336 C44.298978 100.61761348 44.298978 100.61761348 52.3125 91.125 C52.61800781 90.50882812 52.92351562 89.89265625 53.23828125 89.2578125 C55.53433284 82.45208011 55.18312555 75.22036133 55.1875 68.125 C55.20586914 66.56845703 55.20586914 66.56845703 55.22460938 64.98046875 C55.24208447 55.74197029 54.51040645 48.53088881 49 41 C49 40.34 49 39.68 49 39 C48.46375 38.731875 47.9275 38.46375 47.375 38.1875 C45.62450404 37.31225202 43.89832543 36.38795857 42.1875 35.4375 C36.49005046 32.86806197 30.49424603 32.85726796 24.31640625 32.68359375 C22.39356812 32.62643188 22.39356812 32.62643188 20.43188477 32.56811523 C18.82498779 32.52501221 17.21809082 32.48190918 15.5625 32.4375 C10.426875 32.293125 5.29125 32.14875 0 32 C0 21.44 0 10.88 0 0 Z " fill="#F8F4E8" transform="translate(400,192)"/>
<path d="M0 0 C2.16692951 0.00265555 4.33400993 0.03770666 6.5 0.1015625 C7.593125 0.09511719 8.68625 0.08867187 9.8125 0.08203125 C17.81977063 0.1899724 17.81977063 0.1899724 20.80078125 2.54150391 C22.81767689 5.13506942 23.25119841 7.10954375 23.07421875 10.38671875 C21.0603773 18.59278019 14.18338633 26.75193909 7.5 31.7265625 C-0.71922333 36.60138234 -8.7268305 40.84434544 -18.42475128 40.86078358 C-19.64450354 40.86524142 -20.8642558 40.86969926 -22.12097025 40.87429219 C-23.47652087 40.8742029 -24.83207148 40.87401305 -26.18762207 40.87373352 C-27.62620312 40.87703319 -29.06478324 40.88075898 -30.50336218 40.884875 C-34.46170966 40.89489159 -38.42004197 40.89861125 -42.37840033 40.90126431 C-46.64581795 40.90516844 -50.91322358 40.91474678 -55.18063354 40.92347717 C-65.48982758 40.94323974 -75.79902259 40.95330808 -86.10823083 40.96220496 C-90.96413757 40.96658869 -95.82004322 40.97195532 -100.6759491 40.97719383 C-116.82055688 40.99420681 -132.96516399 41.00870028 -149.10977936 41.01594257 C-153.29942323 41.01785244 -157.48906709 41.01977278 -161.67871094 41.02172852 C-163.2406691 41.02245413 -163.2406691 41.02245413 -164.83418196 41.0231944 C-181.6970224 41.03149204 -198.55979184 41.05682416 -215.42260128 41.08930919 C-232.73909731 41.12239593 -250.05555729 41.14039284 -267.37208509 41.14358681 C-277.0930773 41.14575054 -286.813966 41.15447899 -296.53492737 41.18004799 C-304.81514043 41.20177713 -313.09522485 41.20979456 -321.37546319 41.20008121 C-325.59773378 41.19554276 -329.81973907 41.19739601 -334.04197311 41.21684265 C-337.91367711 41.23452021 -341.78492319 41.2334398 -345.65663236 41.21794536 C-347.05106992 41.2155762 -348.44553957 41.21985671 -349.83992821 41.23177401 C-363.24821837 41.33919413 -374.16576762 38.5583001 -384.5 29.7265625 C-386.68512948 27.48024939 -388.57502075 25.20877259 -390.5 22.7265625 C-389.20397793 22.96991004 -389.20397793 22.96991004 -387.88177359 23.21817368 C-384.65477644 23.70329465 -381.65122108 23.85519006 -378.39162254 23.86078358 C-377.18182177 23.86524142 -375.972021 23.86969926 -374.72555959 23.87429219 C-373.39161451 23.87420291 -372.05766942 23.87401309 -370.72372437 23.87373352 C-369.2999164 23.87703522 -367.87610938 23.88076143 -366.45230353 23.884875 C-362.54408102 23.89486806 -358.63587386 23.89860743 -354.72764039 23.90126431 C-350.51070141 23.9051753 -346.29377451 23.91475297 -342.07684326 23.92347717 C-331.89603487 23.94321762 -321.71522552 23.95330404 -311.53440279 23.96220496 C-306.73727602 23.96659122 -301.94015035 23.9719571 -297.14302444 23.97719383 C-281.19220649 23.99420255 -265.24138921 24.00869664 -249.29056358 24.01594257 C-245.15350722 24.01785238 -241.01645087 24.01977273 -236.87939453 24.02172852 C-235.33707657 24.02245413 -235.33707657 24.02245413 -233.76360066 24.0231944 C-217.10781582 24.03149447 -200.45210281 24.05683262 -183.79634933 24.08930919 C-166.68771225 24.12239634 -149.57911166 24.14039277 -132.47044241 24.14358681 C-122.86796908 24.14575021 -113.26560053 24.15447414 -103.66315842 24.18004799 C-95.48546725 24.20177746 -87.30790634 24.20979429 -79.13018958 24.20008121 C-74.96056075 24.19554322 -70.79120055 24.19739342 -66.62160873 24.21684265 C-62.79809365 24.23452302 -58.97504222 24.2334376 -55.15152188 24.21794536 C-53.12662715 24.21446186 -51.10172728 24.23055897 -49.07690084 24.24754983 C-35.26914418 24.15086442 -22.70764829 19.92388666 -12.625 10.2265625 C-10.46336442 8.01061447 -9.36211502 6.42321554 -8.0546875 3.546875 C-5.04737235 0.22687265 -4.30734764 0.25969018 0 0 Z " fill="#6F6F6F" transform="translate(443.5,463.2734375)"/>
<path d="M0 0 C21.13166819 -0.0677375 42.26324839 -0.12299376 63.3949976 -0.15543652 C73.2069748 -0.17090107 83.01887973 -0.19198275 92.83081055 -0.22631836 C101.38354381 -0.25623329 109.93622472 -0.275578 118.48900884 -0.28226548 C123.01705655 -0.28617419 127.5449545 -0.29535166 132.07295418 -0.31719017 C136.33696209 -0.33758838 140.60075888 -0.34382706 144.86481094 -0.33932304 C146.42767548 -0.34014675 147.99054725 -0.34609258 149.55336952 -0.35761642 C151.69253916 -0.37261323 153.83091889 -0.36892813 155.97010803 -0.36076355 C157.16567353 -0.36352893 158.36123903 -0.36629431 159.59303379 -0.36914349 C164.17355759 0.12715452 168.15091163 1.44527323 171.7421875 4.46484375 C178.53219714 13.29185628 176 19.37791169 176 32 C117.92 32 59.84 32 0 32 C0 21.44 0 10.88 0 0 Z " fill="#F7F3E7" transform="translate(192,192)"/>
<path d="M0 0 C68.31 0 136.62 0 207 0 C203.6495198 2.23365347 200.51751807 3.03007344 196.66796875 3.953125 C195.56556351 4.2241227 195.56556351 4.2241227 194.44088745 4.50059509 C192.0248554 5.09129131 189.60651459 5.67164624 187.1875 6.25 C185.93826248 6.55062851 185.93826248 6.55062851 184.66378784 6.85733032 C142.05688385 17.0906744 99.03781404 25.12184338 55.125 25.1875 C54.29790527 25.18876892 53.47081055 25.19003784 52.61865234 25.19134521 C44.87133649 25.18999457 37.18031036 25.17262498 29.47705078 24.25170898 C23.96446743 23.69154011 18.41055682 23.61826497 12.875 23.4375 C11.63234375 23.39431641 10.3896875 23.35113281 9.109375 23.30664062 C6.07301537 23.20153587 3.03652006 23.10036318 0 23 C0 15.41 0 7.82 0 0 Z " fill="#FE7B28" transform="translate(192,224)"/>
<path d="M0 0 C1.58325073 0.00604248 1.58325073 0.00604248 3.19848633 0.01220703 C7.12468966 0.0330656 11.05064434 0.08891098 14.9765625 0.140625 C28.1559375 0.264375 28.1559375 0.264375 41.6015625 0.390625 C41.6015625 18.870625 41.6015625 37.350625 41.6015625 56.390625 C20.4815625 56.390625 -0.6384375 56.390625 -22.3984375 56.390625 C-22.4809375 48.924375 -22.5634375 41.458125 -22.6484375 33.765625 C-22.68485352 31.41872559 -22.72126953 29.07182617 -22.75878906 26.65380859 C-22.77047751 24.78223586 -22.78066897 22.91065291 -22.7890625 21.0390625 C-22.80952637 20.07653564 -22.82999023 19.11400879 -22.85107422 18.12231445 C-22.85405324 12.3713086 -22.43394834 8.82767504 -18.3984375 4.390625 C-12.93682212 -0.79623955 -7.1006585 -0.12799427 0 0 Z " fill="#F8F4E8" transform="translate(134.3984375,167.609375)"/>
<path d="M0 0 C5.95325491 -0.64004637 10.20911976 -0.21853778 15.07933044 3.42588806 C22.20363546 9.84572121 24.79114351 15.8582635 25.33280468 25.36648846 C25.65375226 34.40082229 25.27318151 43.40499374 24.9375 52.4375 C24.628125 64.173125 24.31875 75.90875 24 88 C-2.4 88 -28.8 88 -56 88 C-56 72 -56 72 -52 68 C-46.77456484 63.65083012 -42.74638968 63.45991388 -36.25 63.4375 C-25.25491462 63.12281581 -16.16209221 62.07120032 -8 54 C-2.08851135 46.59935772 -0.71643266 39.01430434 -0.5859375 29.78515625 C-0.56657135 28.92941513 -0.5472052 28.07367401 -0.5272522 27.19200134 C-0.46789086 24.48226617 -0.42124634 21.7724875 -0.375 19.0625 C-0.33678015 17.21547716 -0.29772613 15.36847139 -0.2578125 13.52148438 C-0.16222552 9.01446291 -0.07803576 4.50735812 0 0 Z " fill="#818A46" transform="translate(200,272)"/>
<path d="M0 0 C0.66 0 1.32 0 2 0 C2.06469482 0.58265625 2.12938965 1.1653125 2.19604492 1.765625 C4.33051537 20.40972052 7.06960946 42.85854627 21.70703125 56.390625 C25.44897777 59.01699973 29.52897274 61.05740252 33.66992188 62.9855957 C38.228723 65.1989521 40.55942443 67.38737184 43 72 C46.18385771 82.32009052 41.88164868 92.15654711 37.22998047 101.23852539 C30.36077277 114.07663742 19.07318621 123.27763833 5.07421875 127.59375 C2.59181946 128.07994497 0.27780275 128.09576056 -2.25 128.0625 C-3.14203125 128.05347656 -4.0340625 128.04445312 -4.953125 128.03515625 C-5.96632813 128.01775391 -5.96632813 128.01775391 -7 128 C-6.54109375 127.29875 -6.0821875 126.5975 -5.609375 125.875 C2.19595815 113.80624958 6.49138768 104.60980749 5 90 C3.5397588 85.64082978 1.39285673 81.91237124 -1 78 C-2.38313316 75.67093094 -3.76056853 73.33993771 -5.125 71 C-5.46732666 70.41605469 -5.80965332 69.83210938 -6.16235352 69.23046875 C-14.10580042 55.34534671 -16.49493254 39.17571113 -12.375 23.6875 C-10.33029493 17.32861224 -7.4998996 11.67322435 -4 6 C-3.60296875 5.33613281 -3.2059375 4.67226562 -2.796875 3.98828125 C-1.75 2.3125 -1.75 2.3125 0 0 Z " fill="#FFB481" transform="translate(283,8)"/>
<path d="M0 0 C0.66 0 1.32 0 2 0 C2.06469482 0.58265625 2.12938965 1.1653125 2.19604492 1.765625 C4.33051537 20.40972052 7.06960946 42.85854627 21.70703125 56.390625 C25.44897777 59.01699973 29.52897274 61.05740252 33.66992188 62.9855957 C38.228723 65.1989521 40.55942443 67.38737184 43 72 C46.18385771 82.32009052 41.88164868 92.15654711 37.22998047 101.23852539 C30.36077277 114.07663742 19.07318621 123.27763833 5.07421875 127.59375 C2.59181946 128.07994497 0.27780275 128.09576056 -2.25 128.0625 C-3.14203125 128.05347656 -4.0340625 128.04445312 -4.953125 128.03515625 C-5.96632812 128.01775391 -5.96632812 128.01775391 -7 128 C-6.54109375 127.29875 -6.0821875 126.5975 -5.609375 125.875 C2.19595815 113.80624958 6.49138768 104.60980749 5 90 C3.5397588 85.64082978 1.39285673 81.91237124 -1 78 C-2.38313316 75.67093094 -3.76056853 73.33993771 -5.125 71 C-5.46732666 70.41605469 -5.80965332 69.83210938 -6.16235352 69.23046875 C-14.10580042 55.34534671 -16.49493254 39.17571113 -12.375 23.6875 C-10.33029493 17.32861224 -7.4998996 11.67322435 -4 6 C-3.60296875 5.33613281 -3.2059375 4.67226562 -2.796875 3.98828125 C-1.75 2.3125 -1.75 2.3125 0 0 Z " fill="#FFB481" transform="translate(203,8)"/>
<path d="M0 0 C21.12 0 42.24 0 64 0 C64 7.92 64 15.84 64 24 C60.37 24.5775 56.74 25.155 53 25.75 C37.5260982 28.30013905 22.88228738 32.14907391 8.07958984 37.28564453 C5.39258389 38.20865221 2.69531997 39.10156001 0 40 C0 26.8 0 13.6 0 0 Z " fill="#FF7B28" transform="translate(112,224)"/>
<path d="M0 0 C0.66 -0.0103125 1.32 -0.020625 2 -0.03125 C5.11687977 0.79667119 6.08432288 1.86830132 8 4.5 C8.59579234 7.95164852 8.50458284 11.37371449 8.45410156 14.86816406 C8.45468567 15.92213379 8.45526978 16.97610352 8.45587158 18.06201172 C8.45308414 21.54688411 8.42195968 25.03090196 8.390625 28.515625 C8.38316499 30.93129001 8.37747093 33.34696106 8.37347412 35.76263428 C8.35819905 42.1217112 8.31890049 48.48042289 8.2746582 54.83935547 C8.23374624 61.32774922 8.21547178 67.81620196 8.1953125 74.3046875 C8.15240855 87.03661884 8.0841341 99.76827905 8 112.5 C2.72 112.5 -2.56 112.5 -8 112.5 C-8.09259653 98.48768843 -8.16371264 84.47544941 -8.20724869 70.46289444 C-8.22814165 63.95659851 -8.25649108 57.45051157 -8.30175781 50.94433594 C-8.3451537 44.66792491 -8.36912422 38.39171516 -8.37950897 32.11516571 C-8.38691153 29.71810486 -8.40136659 27.32105527 -8.42292023 24.9240799 C-8.45187016 21.57186395 -8.45595941 18.22048448 -8.45410156 14.86816406 C-8.46848267 13.87266541 -8.48286377 12.87716675 -8.49768066 11.85150146 C-8.45724277 5.12814614 -8.45724277 5.12814614 -6.09661865 1.88519287 C-3.8365949 0.39204161 -2.68570721 -0.04196418 0 0 Z " fill="#A7A6A1" transform="translate(184,159.5)"/>
<path d="M0 0 C1.19009674 0.00565979 2.38019348 0.01131958 3.60635376 0.01715088 C7.39683736 0.03949049 11.18636595 0.08968537 14.9765625 0.140625 C17.55076757 0.16069299 20.1249875 0.17894323 22.69921875 0.1953125 C29.0006614 0.23594076 35.30004655 0.31424299 41.6015625 0.390625 C41.6015625 8.310625 41.6015625 16.230625 41.6015625 24.390625 C20.4815625 24.390625 -0.6384375 24.390625 -22.3984375 24.390625 C-22.3984375 8.390625 -22.3984375 8.390625 -18.3984375 4.390625 C-12.76633431 -0.64941797 -7.30270183 -0.13107561 0 0 Z " fill="#DEDDD8" transform="translate(134.3984375,167.609375)"/>
<path d="M0 0 C3.75212276 2.01502889 5.63644095 3.45466142 8 7 C8.22075023 9.9523024 8.32805794 12.80775549 8.3359375 15.76171875 C8.3425943 16.62634232 8.3492511 17.49096588 8.35610962 18.38179016 C8.36623698 20.21340814 8.37092661 22.04506303 8.37060547 23.87670898 C8.37495697 26.6599748 8.41121402 29.44162645 8.44921875 32.22460938 C8.45509149 34.00780711 8.45905782 35.79101234 8.4609375 37.57421875 C8.47530853 38.39846848 8.48967957 39.2227182 8.50448608 40.07194519 C8.46012569 45.771167 7.31274058 50.28295033 4 55 C-0.25219444 58.02378271 -3.84371964 58.73661148 -9 58 C-12.74530455 55.84023628 -15.47555457 53.06518782 -17 49 C-17.40220884 43.68266275 -17.13502398 38.328483 -17 33 C-16.98066406 32.00500488 -16.96132813 31.01000977 -16.94140625 29.98486328 C-16.87447833 26.76002037 -16.78420285 23.53657802 -16.6875 20.3125 C-16.66518311 19.27319336 -16.64286621 18.23388672 -16.61987305 17.16308594 C-16.37573857 10.41990438 -15.53918793 6.68428438 -10.8125 1.6875 C-7.17397974 -0.49561215 -4.0909802 -0.80858904 0 0 Z " fill="#FFB37F" transform="translate(335,263)"/>
<path d="M0 0 C1.94140625 0.37890625 1.94140625 0.37890625 4.44140625 1.94140625 C6.52533443 5.32778954 6.49942722 7.47275943 5.94140625 11.37890625 C4.44140625 13.81640625 4.44140625 13.81640625 1.94140625 15.37890625 C-1.02283998 15.95744123 -2.95951542 15.77244001 -6.05859375 15.37890625 C-8.05859375 13.81640625 -8.05859375 13.81640625 -9.05859375 11.37890625 C-9.44327369 7.78856012 -9.43357876 5.29293221 -8.05859375 1.94140625 C-5.45896059 -0.08955716 -3.24577424 -0.18530203 0 0 Z " fill="#FFB27F" transform="translate(332.05859375,331.62109375)"/>
</svg>
